<?xml version="1.0" encoding="utf-8"?>
<!-- Generator: Adobe Illustrator 21.1.0, SVG Export Plug-In . SVG Version: 6.00 Build 0)  -->
<svg version="1.1" id="Layer_1" xmlns="http://www.w3.org/2000/svg" xmlns:xlink="http://www.w3.org/1999/xlink" x="0px" y="0px"
	 width="200px" height="200px" viewBox="0 0 200 200" style="enable-background:new 0 0 200 200;" xml:space="preserve">
<path d="M174,182.2c-2.2,0-4.1-1.8-4.1-4.1V152H29.1v26.2c0,2.2-1.8,4.1-4.1,4.1H4.1c-2.2,0-4.1-1.8-4.1-4.1v-56l0-0.1
	c0-0.2,0.1-0.4,0.1-0.5l0-0.1l0-0.1c0-0.1,0.1-0.3,0.1-0.5l0,0l0.1-0.2l27-59.1V22.1c0-4.5,3.7-8.1,8.1-8.1h128
	c4.5,0,8.1,3.7,8.1,8.1v39.3l27,59.3l0,0.1c0.1,0.2,0.1,0.4,0.1,0.5l0,0.1l0,0.1c0,0.1,0.1,0.3,0.1,0.5l0,0l0,0.2v55.9
	c0,2.2-1.8,4.1-4.1,4.1H174z M190.9,174.1v-47.7H8.1v47.7h12.8v-26.2c0-2.2,1.8-4.1,4.1-4.1h149c2.2,0,4.1,1.8,4.1,4.1v26.2H190.9z
	 M188.6,118.2l-23.7-51.9H34.1l-23.7,51.9H188.6z M163.5,58.2V22.1h-128l0,36.1h6.1V43.9c0-6.3,5.1-11.4,11.4-11.4h32.7
	c6.3,0,11.4,5.1,11.4,11.4v14.4h4.6V43.9c0-6.3,5.1-11.4,11.4-11.4h32.7c6.3,0,11.4,5.1,11.4,11.4v14.4H163.5z M149.2,58.2V43.9
	c0-1.8-1.5-3.3-3.3-3.3h-32.7c-1.8,0-3.3,1.5-3.3,3.3v14.4H149.2z M89,58.2V43.9c0-1.8-1.5-3.3-3.3-3.3H53.1c-1.8,0-3.3,1.5-3.3,3.3
	v14.4H89z"/>
</svg>
