<?xml version="1.0" encoding="utf-8"?>
<!-- Generator: Adobe Illustrator 21.1.0, SVG Export Plug-In . SVG Version: 6.00 Build 0)  -->
<svg version="1.1" id="Layer_1" xmlns="http://www.w3.org/2000/svg" xmlns:xlink="http://www.w3.org/1999/xlink" x="0px" y="0px"
	 width="318px" height="280px" viewBox="0 0 318 280" style="enable-background:new 0 0 318 280;" xml:space="preserve">
<style type="text/css">
	.st0{fill:#CCCCCC;}
</style>
<g>
	<polygon class="st0" points="67.6,207.1 65.2,211.2 61.2,208.8 63.5,204.7 	"/>
	<polygon class="st0" points="76.7,191.1 74.4,195.2 70.3,192.9 72.6,188.8 	"/>
	<polygon class="st0" points="85.8,175.1 83.5,179.2 79.4,176.9 81.7,172.8 	"/>
	<polygon class="st0" points="94.9,159.2 92.6,163.3 88.5,160.9 90.9,156.8 	"/>
	<polygon class="st0" points="81.9,215.3 79.6,219.4 75.5,217 77.8,213 	"/>
	<polygon class="st0" points="91,199.3 88.7,203.4 84.6,201.1 86.9,197 	"/>
	<polygon class="st0" points="100.1,183.3 97.8,187.4 93.7,185.1 96.1,181 	"/>
	<polygon class="st0" points="109.3,167.4 106.9,171.5 102.8,169.1 105.2,165 	"/>
	<polygon class="st0" points="105.3,207.5 103,211.6 98.9,209.3 101.3,205.2 	"/>
	<polygon class="st0" points="114.5,191.6 112.1,195.6 108,193.3 110.4,189.2 	"/>
	<polygon class="st0" points="123.6,175.6 121.2,179.7 117.2,177.3 119.5,173.2 	"/>
	<path class="st0" d="M117.8,219l1.9-3.3l-4.1-2.3l-2.3,4.1l3,1.7C116.8,219.1,117.3,219.1,117.8,219z"/>
	<polygon class="st0" points="128.8,199.8 126.4,203.8 122.4,201.5 124.7,197.4 	"/>
	<polygon class="st0" points="137.9,183.8 135.6,187.9 131.5,185.5 133.8,181.5 	"/>
	<polygon class="st0" points="143.1,208 140.8,212.1 136.7,209.7 139,205.6 	"/>
	<polygon class="st0" points="152.2,192 149.9,196.1 145.8,193.8 148.1,189.7 	"/>
	<path class="st0" d="M156.1,218.5l1.3-2.3l-4.1-2.3l-2.3,4.1l1.8,1C153.9,218.7,155,218.6,156.1,218.5z"/>
	<polygon class="st0" points="166.5,200.2 164.2,204.3 160.1,202 162.5,197.9 	"/>
	<polygon class="st0" points="180.8,208.4 178.5,212.5 174.4,210.2 176.8,206.1 	"/>
	<path class="st0" d="M194,218.7l1.2-2l-4.1-2.3l-2.3,4.1l0.7,0.4C191,218.6,192.5,218.6,194,218.7z"/>
	<polygon class="st0" points="104.1,143.2 101.7,147.3 97.6,144.9 100,140.9 	"/>
	<polygon class="st0" points="113.2,127.2 110.8,131.3 106.8,129 109.1,124.9 	"/>
	<polygon class="st0" points="122.3,111.3 120,115.3 115.9,113 118.2,108.9 	"/>
	<polygon class="st0" points="131.4,95.3 129.1,99.4 125,97 127.3,92.9 	"/>
	<polygon class="st0" points="140.5,79.3 138.2,83.4 134.1,81.1 136.5,77 	"/>
	<polygon class="st0" points="149.7,63.3 147.3,67.4 143.2,65.1 145.6,61 	"/>
	<polygon class="st0" points="158.8,47.4 156.4,51.5 152.4,49.1 154.7,45 	"/>
	<polygon class="st0" points="118.4,151.4 116,155.5 112,153.2 114.3,149.1 	"/>
	<polygon class="st0" points="127.5,135.4 125.2,139.5 121.1,137.2 123.4,133.1 	"/>
	<polygon class="st0" points="136.6,119.5 134.3,123.5 130.2,121.2 132.5,117.1 	"/>
	<polygon class="st0" points="145.7,103.5 143.4,107.6 139.3,105.2 141.7,101.2 	"/>
	<polygon class="st0" points="154.9,87.5 152.5,91.6 148.4,89.3 150.8,85.2 	"/>
	<polygon class="st0" points="164,71.6 161.6,75.6 157.6,73.3 159.9,69.2 	"/>
	<path class="st0" d="M168.2,54.6l-1.6,2.7l4.1,2.3l0-0.1C169.8,58,168.9,56.4,168.2,54.6z"/>
	<polygon class="st0" points="132.7,159.6 130.4,163.7 126.3,161.4 128.6,157.3 	"/>
	<polygon class="st0" points="141.8,143.6 139.5,147.7 135.4,145.4 137.7,141.3 	"/>
	<polygon class="st0" points="150.9,127.7 148.6,131.8 144.5,129.4 146.9,125.3 	"/>
	<polygon class="st0" points="160,111.7 157.7,115.8 153.6,113.5 156,109.4 	"/>
	<polygon class="st0" points="169.2,95.7 166.8,99.8 162.8,97.5 165.1,93.4 	"/>
	<polygon class="st0" points="178.3,79.8 176,83.8 171.9,81.5 174.2,77.4 	"/>
	<polygon class="st0" points="147,167.8 144.7,171.9 140.6,169.6 142.9,165.5 	"/>
	<polygon class="st0" points="156.1,151.9 153.8,155.9 149.7,153.6 152.1,149.5 	"/>
	<polygon class="st0" points="165.2,135.9 162.9,140 158.8,137.6 161.2,133.5 	"/>
	<polygon class="st0" points="174.4,119.9 172,124 168,121.7 170.3,117.6 	"/>
	<polygon class="st0" points="183.5,103.9 181.2,108 177.1,105.7 179.4,101.6 	"/>
	<polygon class="st0" points="161.3,176 159,180.1 154.9,177.8 157.3,173.7 	"/>
	<polygon class="st0" points="170.4,160.1 168.1,164.1 164,161.8 166.4,157.7 	"/>
	<polygon class="st0" points="179.6,144.1 177.2,148.2 173.2,145.8 175.5,141.8 	"/>
	<polygon class="st0" points="188.7,128.1 186.4,132.2 182.3,129.9 184.6,125.8 	"/>
	<polygon class="st0" points="197.8,112.2 195.5,116.2 191.4,113.9 193.7,109.8 	"/>
	<polygon class="st0" points="175.6,184.2 173.3,188.3 169.2,186 171.6,181.9 	"/>
	<polygon class="st0" points="184.8,168.3 182.4,172.4 178.4,170 180.7,165.9 	"/>
	<polygon class="st0" points="193.9,152.3 191.6,156.4 187.5,154 189.8,150 	"/>
	<polygon class="st0" points="203,136.3 200.7,140.4 196.6,138.1 198.9,134 	"/>
	<polygon class="st0" points="190,192.5 187.6,196.5 183.6,194.2 185.9,190.1 	"/>
	<polygon class="st0" points="199.1,176.5 196.8,180.6 192.7,178.2 195,174.1 	"/>
	<polygon class="st0" points="208.2,160.5 205.9,164.6 201.8,162.3 204.1,158.2 	"/>
	<polygon class="st0" points="217.3,144.5 215,148.6 210.9,146.3 213.3,142.2 	"/>
	<polygon class="st0" points="204.3,200.7 202,204.7 197.9,202.4 200.2,198.3 	"/>
	<polygon class="st0" points="213.4,184.7 211.1,188.8 207,186.4 209.3,182.4 	"/>
	<polygon class="st0" points="222.5,168.7 220.2,172.8 216.1,170.5 218.5,166.4 	"/>
	<polygon class="st0" points="218.6,208.9 216.3,213 212.2,210.6 214.5,206.5 	"/>
	<polygon class="st0" points="227.7,192.9 225.4,197 221.3,194.6 223.7,190.6 	"/>
	<polygon class="st0" points="236.8,176.9 234.5,181 230.4,178.7 232.8,174.6 	"/>
	<path class="st0" d="M227.1,218.7c1.8-0.6,3.6-0.9,5.4-0.9l0.4-0.7l-4.1-2.3l-2.3,4.1l0.1,0.1C226.8,218.8,227,218.8,227.1,218.7z"
		/>
	<polygon class="st0" points="242,201.1 239.7,205.2 235.6,202.9 238,198.8 	"/>
	<polygon class="st0" points="256.4,209.3 254,213.4 250,211.1 252.3,207 	"/>
</g>
</svg>
