<?xml version="1.0" encoding="utf-8"?>
<!-- Generator: Adobe Illustrator 21.1.0, SVG Export Plug-In . SVG Version: 6.00 Build 0)  -->
<svg version="1.1" id="Layer_1" xmlns="http://www.w3.org/2000/svg" xmlns:xlink="http://www.w3.org/1999/xlink" x="0px" y="0px"
	 width="318px" height="280px" viewBox="0 0 318 280" style="enable-background:new 0 0 318 280;" xml:space="preserve">
<style type="text/css">
	.st0{fill:#CCCCCC;}
	.st1{fill:none;stroke:#F2D8C7;stroke-width:15;stroke-miterlimit:10;}
</style>
<g>
	<polygon class="st0" points="116.6,70.7 112,70 112.7,65.3 117.3,66 	"/>
	<polygon class="st0" points="134.8,73.4 130.2,72.7 130.9,68.1 135.5,68.8 	"/>
	<polygon class="st0" points="153,76.1 148.3,75.4 149,70.8 153.7,71.5 	"/>
	<polygon class="st0" points="171.2,78.9 166.5,78.2 167.2,73.5 171.9,74.2 	"/>
	<polygon class="st0" points="114.1,87 109.5,86.3 110.2,81.7 114.8,82.4 	"/>
	<polygon class="st0" points="132.3,89.7 127.7,89 128.4,84.4 133,85.1 	"/>
	<polygon class="st0" points="150.5,92.5 145.9,91.8 146.6,87.1 151.2,87.8 	"/>
	<polygon class="st0" points="168.7,95.2 164,94.5 164.8,89.9 169.4,90.6 	"/>
	<polygon class="st0" points="129.8,106 125.2,105.3 125.9,100.7 130.5,101.4 	"/>
	<polygon class="st0" points="148,108.8 143.4,108.1 144.1,103.4 148.7,104.1 	"/>
	<polygon class="st0" points="166.2,111.5 161.6,110.8 162.3,106.2 166.9,106.9 	"/>
	<path class="st0" d="M123.6,121.8l3.7,0.6l0.7-4.6l-4.7-0.7l-0.5,3.4C123.2,120.9,123.4,121.4,123.6,121.8z"/>
	<polygon class="st0" points="145.5,125.1 140.9,124.4 141.6,119.8 146.3,120.5 	"/>
	<polygon class="st0" points="163.7,127.8 159.1,127.1 159.8,122.5 164.4,123.2 	"/>
	<polygon class="st0" points="143.1,141.4 138.4,140.7 139.1,136.1 143.8,136.8 	"/>
	<polygon class="st0" points="161.3,144.2 156.6,143.5 157.3,138.8 162,139.5 	"/>
	<path class="st0" d="M138,157.3l2.6,0.4l0.7-4.6l-4.7-0.7l-0.3,2C136.9,155.4,137.5,156.3,138,157.3z"/>
	<polygon class="st0" points="158.8,160.5 154.1,159.8 154.8,155.1 159.5,155.8 	"/>
	<polygon class="st0" points="156.3,176.8 151.6,176.1 152.3,171.4 157,172.1 	"/>
	<path class="st0" d="M151.5,192.8l2.3,0.4l0.7-4.6l-4.7-0.7l-0.1,0.8C150.4,189.9,151,191.3,151.5,192.8z"/>
	<polygon class="st0" points="189.4,81.6 184.7,80.9 185.4,76.3 190.1,77 	"/>
	<polygon class="st0" points="207.6,84.4 202.9,83.7 203.6,79 208.3,79.7 	"/>
	<polygon class="st0" points="225.7,87.1 221.1,86.4 221.8,81.7 226.4,82.4 	"/>
	<polygon class="st0" points="243.9,89.8 239.3,89.1 240,84.5 244.6,85.2 	"/>
	<polygon class="st0" points="262.1,92.6 257.5,91.9 258.2,87.2 262.8,87.9 	"/>
	<polygon class="st0" points="280.3,95.3 275.6,94.6 276.4,90 281,90.7 	"/>
	<polygon class="st0" points="298.5,98 293.8,97.3 294.5,92.7 299.2,93.4 	"/>
	<polygon class="st0" points="186.9,97.9 182.2,97.2 182.9,92.6 187.6,93.3 	"/>
	<polygon class="st0" points="205.1,100.7 200.4,100 201.1,95.3 205.8,96 	"/>
	<polygon class="st0" points="223.3,103.4 218.6,102.7 219.3,98.1 224,98.8 	"/>
	<polygon class="st0" points="241.4,106.1 236.8,105.4 237.5,100.8 242.2,101.5 	"/>
	<polygon class="st0" points="259.6,108.9 255,108.2 255.7,103.5 260.3,104.2 	"/>
	<polygon class="st0" points="277.8,111.6 273.2,110.9 273.9,106.3 278.5,107 	"/>
	<path class="st0" d="M295.2,109.5l-3.1-0.5l-0.7,4.6h0.1C292.5,112.1,293.8,110.7,295.2,109.5z"/>
	<polygon class="st0" points="184.4,114.3 179.8,113.6 180.5,108.9 185.1,109.6 	"/>
	<polygon class="st0" points="202.6,117 197.9,116.3 198.6,111.6 203.3,112.3 	"/>
	<polygon class="st0" points="220.8,119.7 216.1,119 216.8,114.4 221.5,115.1 	"/>
	<polygon class="st0" points="239,122.5 234.3,121.8 235,117.1 239.7,117.8 	"/>
	<polygon class="st0" points="257.1,125.2 252.5,124.5 253.2,119.9 257.9,120.6 	"/>
	<polygon class="st0" points="275.3,127.9 270.7,127.2 271.4,122.6 276,123.3 	"/>
	<polygon class="st0" points="181.9,130.6 177.3,129.9 178,125.2 182.6,125.9 	"/>
	<polygon class="st0" points="200.1,133.3 195.5,132.6 196.2,128 200.8,128.7 	"/>
	<polygon class="st0" points="218.3,136 213.6,135.3 214.3,130.7 219,131.4 	"/>
	<polygon class="st0" points="236.5,138.8 231.8,138.1 232.5,133.4 237.2,134.1 	"/>
	<polygon class="st0" points="254.7,141.5 250,140.8 250.7,136.2 255.4,136.9 	"/>
	<polygon class="st0" points="179.4,146.9 174.8,146.2 175.5,141.5 180.1,142.2 	"/>
	<polygon class="st0" points="197.6,149.6 193,148.9 193.7,144.3 198.3,145 	"/>
	<polygon class="st0" points="215.8,152.4 211.2,151.7 211.9,147 216.5,147.7 	"/>
	<polygon class="st0" points="234,155.1 229.3,154.4 230.1,149.8 234.7,150.5 	"/>
	<polygon class="st0" points="252.2,157.8 247.5,157.1 248.2,152.5 252.9,153.2 	"/>
	<polygon class="st0" points="177,163.2 172.3,162.5 173,157.9 177.7,158.6 	"/>
	<polygon class="st0" points="195.1,165.9 190.5,165.2 191.2,160.6 195.8,161.3 	"/>
	<polygon class="st0" points="213.3,168.7 208.7,168 209.4,163.3 214,164 	"/>
	<polygon class="st0" points="231.5,171.4 226.9,170.7 227.6,166.1 232.2,166.8 	"/>
	<polygon class="st0" points="174.5,179.5 169.8,178.8 170.5,174.2 175.2,174.9 	"/>
	<polygon class="st0" points="192.7,182.3 188,181.6 188.7,176.9 193.4,177.6 	"/>
	<polygon class="st0" points="210.8,185 206.2,184.3 206.9,179.7 211.6,180.4 	"/>
	<polygon class="st0" points="229,187.7 224.4,187 225.1,182.4 229.7,183.1 	"/>
	<polygon class="st0" points="172,195.8 167.3,195.1 168,190.5 172.7,191.2 	"/>
	<polygon class="st0" points="190.2,198.6 185.5,197.9 186.2,193.2 190.9,193.9 	"/>
	<polygon class="st0" points="208.4,201.3 203.7,200.6 204.4,196 209.1,196.7 	"/>
	<polygon class="st0" points="169.5,212.2 164.9,211.5 165.6,206.8 170.2,207.5 	"/>
	<polygon class="st0" points="187.7,214.9 183,214.2 183.7,209.6 188.4,210.3 	"/>
	<polygon class="st0" points="205.9,217.6 201.2,216.9 201.9,212.3 206.6,213 	"/>
	<path class="st0" d="M163.4,223.7c1.2,1.5,2.1,3,2.8,4.7l0.8,0.1l0.7-4.6l-4.7-0.7v0.2C163.2,223.4,163.3,223.5,163.4,223.7z"/>
	<polygon class="st0" points="185.2,231.2 180.6,230.5 181.3,225.9 185.9,226.6 	"/>
	<polygon class="st0" points="182.7,247.5 178.1,246.8 178.8,242.2 183.4,242.9 	"/>
</g>
<g>
	<g>
		<polygon class="st1" points="146.1,51 223.8,62.4 175.1,124.6 126.5,186.5 97.4,113.1 68.4,39.6 		"/>
	</g>
</g>
</svg>
