<?xml version="1.0" encoding="utf-8"?>
<!-- Generator: Adobe Illustrator 21.1.0, SVG Export Plug-In . SVG Version: 6.00 Build 0)  -->
<svg version="1.1" id="Layer_1" xmlns="http://www.w3.org/2000/svg" xmlns:xlink="http://www.w3.org/1999/xlink" x="0px" y="0px"
	 width="318px" height="280px" viewBox="0 0 318 280" style="enable-background:new 0 0 318 280;" xml:space="preserve">
<style type="text/css">
	.st0{fill:none;}
	.st1{fill:#CCCCCC;}
	.st2{fill:none;stroke:#FFFFFF;stroke-width:8;stroke-miterlimit:10;}
</style>
<g>
	<path class="st0" d="M169.5,92c-0.4,0-0.8,0-1.2,0h2.4C170.3,92,169.9,92,169.5,92z"/>
	<path class="st0" d="M184.1,94.2v1.1h-3.3v-2c-3.1-0.7-6.3-1.2-9.5-1.3v3.3H168V92c-3.3,0.1-6.5,0.5-9.5,1.2v2h-3.3V94
		c-20.1,6.1-34.9,24.6-35.2,46.7v0.4l0,0c0,0.1,0,0.2,0,0.3c0,11.7,4.1,22.5,10.9,30.9h2v2.3c3.2,3.6,7,6.7,11.1,9.2h1.7v1
		c7.1,3.9,15.2,6.1,23.9,6.1c8.8,0,17-2.3,24.1-6.3v-0.8h1.4c4.3-2.6,8.1-5.8,11.4-9.4v-2h1.7c6.8-8.5,10.9-19.2,10.9-30.9
		C219,119.2,204.3,100.4,184.1,94.2z M132.8,164.2h-3.3v-3.3h3.3V164.2z M132.8,152.7h-3.3v-3.3h3.3V152.7z M132.8,141.2h-3.3V138
		h3.3V141.2z M132.8,129.8h-3.3v-3.3h3.3V129.8z M132.8,118.3h-3.3V115h3.3V118.3z M145.6,175.7h-3.3v-3.3h3.3V175.7z M145.6,164.2
		h-3.3v-3.3h3.3V164.2z M145.6,152.7h-3.3v-3.3h3.3V152.7z M145.6,141.2h-3.3V138h3.3V141.2z M145.6,129.8h-3.3v-3.3h3.3V129.8z
		 M145.6,118.3h-3.3V115h3.3V118.3z M145.6,106.8h-3.3v-3.3h3.3V106.8z M158.4,187.2h-3.3v-3.3h3.3V187.2z M158.4,175.7h-3.3v-3.3
		h3.3V175.7z M158.4,164.2h-3.3v-3.3h3.3V164.2z M158.4,152.7h-3.3v-3.3h3.3V152.7z M158.4,141.2h-3.3V138h3.3V141.2z M158.4,129.8
		h-3.3v-3.3h3.3V129.8z M158.4,118.3h-3.3V115h3.3V118.3z M158.4,106.8h-3.3v-3.3h3.3V106.8z M171.3,187.2H168v-3.3h3.3V187.2z
		 M171.3,175.7H168v-3.3h3.3V175.7z M171.3,164.2H168v-3.3h3.3V164.2z M171.3,152.7H168v-3.3h3.3V152.7z M171.3,141.2H168V138h3.3
		V141.2z M171.3,129.8H168v-3.3h3.3V129.8z M171.3,118.3H168V115h3.3V118.3z M171.3,106.8H168v-3.3h3.3V106.8z M184.1,187.2h-3.3
		v-3.3h3.3V187.2z M184.1,175.7h-3.3v-3.3h3.3V175.7z M184.1,164.2h-3.3v-3.3h3.3V164.2z M184.1,152.7h-3.3v-3.3h3.3V152.7z
		 M184.1,141.2h-3.3V138h3.3V141.2z M184.1,129.8h-3.3v-3.3h3.3V129.8z M184.1,118.3h-3.3V115h3.3V118.3z M184.1,106.8h-3.3v-3.3
		h3.3V106.8z M196.9,175.7h-3.3v-3.3h3.3V175.7z M196.9,164.2h-3.3v-3.3h3.3V164.2z M196.9,152.7h-3.3v-3.3h3.3V152.7z M196.9,141.2
		h-3.3V138h3.3V141.2z M196.9,129.8h-3.3v-3.3h3.3V129.8z M196.9,118.3h-3.3V115h3.3V118.3z M196.9,106.8h-3.3v-3.3h3.3V106.8z
		 M206.4,115h3.3v3.3h-3.3V115z M206.4,126.5h3.3v3.3h-3.3V126.5z M206.4,138h3.3v3.3h-3.3V138z M206.4,149.5h3.3v3.3h-3.3V149.5z
		 M206.4,160.9h3.3v3.3h-3.3V160.9z"/>
	<path class="st1" d="M158.4,95.3v-2c-1.1,0.3-2.2,0.5-3.3,0.9v1.2L158.4,95.3L158.4,95.3z"/>
	<path class="st1" d="M171.3,95.3V92c-0.2,0-0.4,0-0.6,0h-2.4c-0.1,0-0.2,0-0.3,0v3.3H171.3z"/>
	<path class="st1" d="M184.1,95.3v-1.1c-1.1-0.3-2.2-0.6-3.3-0.9v2H184.1z"/>
	<rect x="142.4" y="103.5" class="st1" width="3.3" height="3.3"/>
	<rect x="155.2" y="103.5" class="st1" width="3.3" height="3.3"/>
	<rect x="168" y="103.5" class="st1" width="3.3" height="3.3"/>
	<rect x="180.8" y="103.5" class="st1" width="3.3" height="3.3"/>
	<rect x="193.6" y="103.5" class="st1" width="3.3" height="3.3"/>
	<rect x="129.6" y="115" class="st1" width="3.3" height="3.3"/>
	<rect x="142.4" y="115" class="st1" width="3.3" height="3.3"/>
	<rect x="155.2" y="115" class="st1" width="3.3" height="3.3"/>
	<rect x="168" y="115" class="st1" width="3.3" height="3.3"/>
	<rect x="180.8" y="115" class="st1" width="3.3" height="3.3"/>
	<rect x="193.6" y="115" class="st1" width="3.3" height="3.3"/>
	<rect x="129.6" y="126.5" class="st1" width="3.3" height="3.3"/>
	<rect x="142.4" y="126.5" class="st1" width="3.3" height="3.3"/>
	<rect x="155.2" y="126.5" class="st1" width="3.3" height="3.3"/>
	<rect x="168" y="126.5" class="st1" width="3.3" height="3.3"/>
	<rect x="180.8" y="126.5" class="st1" width="3.3" height="3.3"/>
	<rect x="193.6" y="126.5" class="st1" width="3.3" height="3.3"/>
	<path class="st1" d="M120,140.8c0,0.1,0,0.3,0,0.4l0,0V140.8z"/>
	<rect x="129.6" y="138" class="st1" width="3.3" height="3.3"/>
	<rect x="142.4" y="138" class="st1" width="3.3" height="3.3"/>
	<rect x="155.2" y="138" class="st1" width="3.3" height="3.3"/>
	<rect x="168" y="138" class="st1" width="3.3" height="3.3"/>
	<rect x="180.8" y="138" class="st1" width="3.3" height="3.3"/>
	<rect x="193.6" y="138" class="st1" width="3.3" height="3.3"/>
	<rect x="129.6" y="149.5" class="st1" width="3.3" height="3.3"/>
	<rect x="142.4" y="149.5" class="st1" width="3.3" height="3.3"/>
	<rect x="155.2" y="149.5" class="st1" width="3.3" height="3.3"/>
	<rect x="168" y="149.5" class="st1" width="3.3" height="3.3"/>
	<rect x="180.8" y="149.5" class="st1" width="3.3" height="3.3"/>
	<rect x="193.6" y="149.5" class="st1" width="3.3" height="3.3"/>
	<rect x="129.6" y="160.9" class="st1" width="3.3" height="3.3"/>
	<rect x="142.4" y="160.9" class="st1" width="3.3" height="3.3"/>
	<rect x="155.2" y="160.9" class="st1" width="3.3" height="3.3"/>
	<rect x="168" y="160.9" class="st1" width="3.3" height="3.3"/>
	<rect x="180.8" y="160.9" class="st1" width="3.3" height="3.3"/>
	<rect x="193.6" y="160.9" class="st1" width="3.3" height="3.3"/>
	<path class="st1" d="M130.9,172.4c0.6,0.8,1.3,1.6,2,2.3v-2.3H130.9z"/>
	<rect x="142.4" y="172.4" class="st1" width="3.3" height="3.3"/>
	<rect x="155.2" y="172.4" class="st1" width="3.3" height="3.3"/>
	<rect x="168" y="172.4" class="st1" width="3.3" height="3.3"/>
	<rect x="180.8" y="172.4" class="st1" width="3.3" height="3.3"/>
	<rect x="193.6" y="172.4" class="st1" width="3.3" height="3.3"/>
	<path class="st1" d="M144,183.9c0.5,0.3,1.1,0.6,1.7,1v-1H144z"/>
	<rect x="155.2" y="183.9" class="st1" width="3.3" height="3.3"/>
	<rect x="168" y="183.9" class="st1" width="3.3" height="3.3"/>
	<rect x="180.8" y="183.9" class="st1" width="3.3" height="3.3"/>
	<path class="st1" d="M193.6,184.7c0.5-0.3,1-0.5,1.4-0.8h-1.4V184.7z"/>
	<rect x="206.4" y="115" class="st1" width="3.3" height="3.3"/>
	<rect x="206.4" y="126.5" class="st1" width="3.3" height="3.3"/>
	<rect x="206.4" y="138" class="st1" width="3.3" height="3.3"/>
	<rect x="206.4" y="149.5" class="st1" width="3.3" height="3.3"/>
	<rect x="206.4" y="160.9" class="st1" width="3.3" height="3.3"/>
	<path class="st1" d="M206.4,174.5c0.6-0.7,1.2-1.3,1.7-2h-1.7V174.5z"/>
</g>
<circle class="st2" cx="145.7" cy="118.3" r="41.8"/>
</svg>
