<?xml version="1.0" encoding="utf-8"?>
<!-- Generator: Adobe Illustrator 21.1.0, SVG Export Plug-In . SVG Version: 6.00 Build 0)  -->
<svg version="1.1" id="Layer_1" xmlns="http://www.w3.org/2000/svg" xmlns:xlink="http://www.w3.org/1999/xlink" x="0px" y="0px"
	 width="318px" height="280px" viewBox="0 0 318 280" style="enable-background:new 0 0 318 280;" xml:space="preserve">
<style type="text/css">
	.st0{fill:#ADA9B7;}
</style>
<g>
	<path class="st0" d="M180.1,171.7c-1.6,1.6-4.2,1.6-5.8,0c-3.9-3.7-2.6-10.1-1.4-16.3c0.5-2.7,1.5-7.7,0.9-8.9
		c-1-0.4-6,0.8-8.6,1.4c-6.1,1.4-12.4,2.9-16.3-0.9c-3.9-3.7-2.6-10.1-1.4-16.3c0.5-2.7,1.5-7.7,0.9-8.9c-1-0.4-6,0.8-8.6,1.4
		c-6.1,1.4-12.4,2.9-16.3-0.9c-3.9-3.7-2.6-10.1-1.4-16.3c0.5-2.7,1.5-7.7,0.9-8.9c-1.6-1.6-1.6-4.1,0-5.8c1.5-1.6,4.2-1.6,5.9,0
		c3.9,3.7,2.6,10.1,1.4,16.3c-0.5,2.7-1.5,7.7-0.9,8.9c1,0.4,6-0.8,8.6-1.4c6.1-1.4,12.4-2.9,16.3,0.9c3.9,3.7,2.6,10.1,1.4,16.3
		c-0.5,2.7-1.5,7.7-0.9,8.9c1,0.4,6-0.8,8.6-1.4c6.1-1.4,12.4-2.9,16.3,0.9c3.9,3.7,2.6,10.1,1.4,16.3c-0.5,2.7-1.5,7.7-0.9,8.9
		C181.7,167.5,181.7,170,180.1,171.7C180.1,171.7,180.1,171.7,180.1,171.7z"/>
</g>
</svg>
