<svg width="68" height="68" viewBox="0 0 68 68" fill="none" xmlns="http://www.w3.org/2000/svg">
<g clip-path="url(#clip0_1993_19266)">
<path d="M66.4186 0H1.5814C0.708017 0 0 0.708017 0 1.5814V66.4186C0 67.292 0.708017 68 1.5814 68H66.4186C67.292 68 68 67.292 68 66.4186V1.5814C68 0.708017 67.292 0 66.4186 0Z" fill="white"/>
<path d="M60.8914 22.3125H35.7961C34.7983 22.3125 34 23.1108 34 24.1585V42.8677C34 43.8655 34.7983 44.6638 35.7961 44.6638H60.8914C61.8892 44.6638 62.6875 43.8655 62.6875 42.8677V24.1585C62.6875 23.1607 61.8892 22.3125 60.8914 22.3125ZM60.8914 37.4296L57.2992 34.1367C56.7504 33.6378 55.9023 33.6378 55.4034 34.1866L51.7613 37.8786L44.6268 29.2973C44.1778 28.7485 43.3297 28.6487 42.731 29.0977C42.6312 29.1476 42.5813 29.2474 42.5314 29.2973L35.7961 37.0803V24.1585H60.8914V37.4296Z" fill="#788F9D"/>
<path d="M55.6528 31.4925H55.7027C57.0997 31.4925 58.1973 30.345 58.1474 28.948C58.1474 27.5511 56.9999 26.4036 55.6029 26.4036C54.206 26.4036 53.0585 27.5511 53.0585 28.948C53.1084 30.345 54.3058 31.4925 55.6528 31.4925Z" fill="#788F9D"/>
<path d="M29.4288 24.4375H12.0087C11.2445 24.4375 10.625 25.057 10.625 25.8212C10.625 26.5854 11.2445 27.2049 12.0087 27.2049H29.4288C30.193 27.2049 30.8125 26.5854 30.8125 25.8212C30.8125 25.057 30.193 24.4375 29.4288 24.4375Z" fill="#58707F"/>
<path d="M30.1009 30.3925H6.02413C5.63111 30.3925 5.3125 30.7111 5.3125 31.1041V31.1041C5.3125 31.4972 5.63111 31.8158 6.02413 31.8158H30.1009C30.4939 31.8158 30.8125 31.4972 30.8125 31.1041C30.8125 30.7111 30.4939 30.3925 30.1009 30.3925Z" fill="#788F9D"/>
<path d="M30.1009 33.9406H6.02413C5.63111 33.9406 5.3125 34.2592 5.3125 34.6522V34.6522C5.3125 35.0453 5.63111 35.3639 6.02413 35.3639H30.1009C30.4939 35.3639 30.8125 35.0453 30.8125 34.6522C30.8125 34.2592 30.4939 33.9406 30.1009 33.9406Z" fill="#788F9D"/>
<path d="M30.1009 37.4889H17.7116C17.3186 37.4889 17 37.8075 17 38.2005V38.2005C17 38.5935 17.3186 38.9122 17.7116 38.9122H30.1009C30.4939 38.9122 30.8125 38.5935 30.8125 38.2005C30.8125 37.8075 30.4939 37.4889 30.1009 37.4889Z" fill="#788F9D"/>
</g>
<defs>
<clipPath id="clip0_1993_19266">
<rect width="68" height="68" fill="white"/>
</clipPath>
</defs>
</svg>
