<svg width="86" height="86" viewBox="0 0 86 86" fill="none" xmlns="http://www.w3.org/2000/svg">
<g clip-path="url(#clip0_1993_19252)">
<path d="M84 0H2C0.89543 0 0 0.89543 0 2V84C0 85.1046 0.89543 86 2 86H84C85.1046 86 86 85.1046 86 84V2C86 0.89543 85.1046 0 84 0Z" fill="white"/>
<path d="M68.3438 11H16.6964C14.6429 11 13 12.6429 13 14.7991V53.3036C13 55.3571 14.6429 57 16.6964 57H68.3438C70.3973 57 72.0402 55.3571 72.0402 53.3036V14.7991C72.0402 12.7455 70.3973 11 68.3438 11ZM68.3438 42.1116L60.9509 35.3348C59.8214 34.308 58.0759 34.308 57.0491 35.4375L49.5536 43.0357L34.8705 25.375C33.9464 24.2455 32.2009 24.0402 30.9688 24.9643C30.7634 25.067 30.6607 25.2723 30.558 25.375L16.6964 41.3929V14.7991H68.3438V42.1116Z" fill="#788F9D"/>
<path d="M57.5625 29.893H57.6652C60.5402 29.893 62.7992 27.5314 62.6965 24.6564C62.6965 21.7814 60.3349 19.4198 57.4599 19.4198C54.5849 19.4198 52.2233 21.7814 52.2233 24.6564C52.3259 27.5314 54.7902 29.893 57.5625 29.893Z" fill="#788F9D"/>
<path d="M64.25 62H21.75C20.7835 62 20 62.7835 20 63.75C20 64.7165 20.7835 65.5 21.75 65.5H64.25C65.2165 65.5 66 64.7165 66 63.75C66 62.7835 65.2165 62 64.25 62Z" fill="#58707F"/>
<path d="M71.1 69.5H13.9C13.4029 69.5 13 69.9029 13 70.4C13 70.8971 13.4029 71.3 13.9 71.3H71.1C71.5971 71.3 72 70.8971 72 70.4C72 69.9029 71.5971 69.5 71.1 69.5Z" fill="#788F9D"/>
<path d="M71.1 74H13.9C13.4029 74 13 74.4029 13 74.9C13 75.3971 13.4029 75.8 13.9 75.8H71.1C71.5971 75.8 72 75.3971 72 74.9C72 74.4029 71.5971 74 71.1 74Z" fill="#788F9D"/>
</g>
<defs>
<clipPath id="clip0_1993_19252">
<rect width="86" height="86" fill="white"/>
</clipPath>
</defs>
</svg>
