<svg width="68" height="68" viewBox="0 0 68 68" fill="none" xmlns="http://www.w3.org/2000/svg">
<g clip-path="url(#clip0_1993_19274)">
<path d="M66.4186 0H1.5814C0.708017 0 0 0.708017 0 1.5814V66.4186C0 67.292 0.708017 68 1.5814 68H66.4186C67.292 68 68 67.292 68 66.4186V1.5814C68 0.708017 67.292 0 66.4186 0Z" fill="white"/>
<path d="M32.2039 22.3125H7.10859C6.11076 22.3125 5.3125 23.1108 5.3125 24.1585V42.8677C5.3125 43.8655 6.11076 44.6638 7.10859 44.6638H32.2039C33.2017 44.6638 34 43.8655 34 42.8677V24.1585C34 23.1607 33.2017 22.3125 32.2039 22.3125ZM32.2039 37.4296L28.6117 34.1367C28.0629 33.6378 27.2148 33.6378 26.7159 34.1866L23.0738 37.8786L15.9393 29.2973C15.4903 28.7485 14.6422 28.6487 14.0435 29.0977C13.9437 29.1476 13.8938 29.2474 13.8439 29.2973L7.10859 37.0803V24.1585H32.2039V37.4296Z" fill="#788F9D"/>
<path d="M26.9653 31.4925H27.0152C28.4122 31.4925 29.5098 30.345 29.4599 28.948C29.4599 27.5511 28.3124 26.4036 26.9154 26.4036C25.5185 26.4036 24.371 27.5511 24.371 28.948C24.4209 30.345 25.6183 31.4925 26.9653 31.4925Z" fill="#788F9D"/>
<path d="M55.9913 24.4375H38.5712C37.807 24.4375 37.1875 25.057 37.1875 25.8212C37.1875 26.5854 37.807 27.2049 38.5712 27.2049H55.9913C56.7555 27.2049 57.375 26.5854 57.375 25.8212C57.375 25.057 56.7555 24.4375 55.9913 24.4375Z" fill="#58707F"/>
<path d="M61.9759 30.3925H37.8991C37.5061 30.3925 37.1875 30.7111 37.1875 31.1041V31.1041C37.1875 31.4972 37.5061 31.8158 37.8991 31.8158H61.9759C62.3689 31.8158 62.6875 31.4972 62.6875 31.1041C62.6875 30.7111 62.3689 30.3925 61.9759 30.3925Z" fill="#788F9D"/>
<path d="M61.9759 33.9406H37.8991C37.5061 33.9406 37.1875 34.2592 37.1875 34.6522V34.6522C37.1875 35.0453 37.5061 35.3639 37.8991 35.3639H61.9759C62.3689 35.3639 62.6875 35.0453 62.6875 34.6522C62.6875 34.2592 62.3689 33.9406 61.9759 33.9406Z" fill="#788F9D"/>
<path d="M50.2884 37.4889H37.8991C37.5061 37.4889 37.1875 37.8075 37.1875 38.2005V38.2005C37.1875 38.5935 37.5061 38.9122 37.8991 38.9122H50.2884C50.6814 38.9122 51 38.5935 51 38.2005C51 37.8075 50.6814 37.4889 50.2884 37.4889Z" fill="#788F9D"/>
</g>
<defs>
<clipPath id="clip0_1993_19274">
<rect width="68" height="68" fill="white"/>
</clipPath>
</defs>
</svg>
