<svg width="68" height="68" viewBox="0 0 68 68" fill="none" xmlns="http://www.w3.org/2000/svg">
<g clip-path="url(#clip0_1993_19259)">
<path d="M66.4186 0H1.5814C0.708017 0 0 0.708017 0 1.5814V66.4186C0 67.292 0.708017 68 1.5814 68H66.4186C67.292 68 68 67.292 68 66.4186V1.5814C68 0.708017 67.292 0 66.4186 0Z" fill="white"/>
<path d="M54.0392 8.69763H13.2018C11.5781 8.69763 10.2791 9.99664 10.2791 11.7016V42.147C10.2791 43.7707 11.5781 45.0697 13.2018 45.0697H54.0392C55.663 45.0697 56.962 43.7707 56.962 42.147V11.7016C56.962 10.0778 55.663 8.69763 54.0392 8.69763ZM54.0392 33.2975L48.1937 27.9391C47.3006 27.1272 45.9205 27.1272 45.1086 28.0203L39.1819 34.0282L27.572 20.0639C26.8413 19.1708 25.4612 19.0085 24.4869 19.7392C24.3245 19.8203 24.2433 19.9827 24.1621 20.0639L13.2018 32.7292V11.7016H54.0392V33.2975Z" fill="#788F9D"/>
<path d="M45.5146 23.6362H45.5958C47.869 23.6362 49.6552 21.7689 49.574 19.4957C49.574 17.2224 47.7067 15.3551 45.4334 15.3551C43.1602 15.3551 41.2928 17.2224 41.2928 19.4957C41.374 21.7689 43.3225 23.6362 45.5146 23.6362Z" fill="#788F9D"/>
<path d="M50.8024 49.0232H17.1977C16.4335 49.0232 15.814 49.6427 15.814 50.4069C15.814 51.1711 16.4335 51.7906 17.1977 51.7906H50.8024C51.5666 51.7906 52.1861 51.1711 52.1861 50.4069C52.1861 49.6427 51.5666 49.0232 50.8024 49.0232Z" fill="#58707F"/>
<path d="M56.2187 54.9534H10.9907C10.5977 54.9534 10.2791 55.272 10.2791 55.665V55.665C10.2791 56.058 10.5977 56.3766 10.9907 56.3766H56.2187C56.6117 56.3766 56.9303 56.058 56.9303 55.665C56.9303 55.272 56.6117 54.9534 56.2187 54.9534Z" fill="#788F9D"/>
<path d="M56.2187 58.5117H10.9907C10.5977 58.5117 10.2791 58.8303 10.2791 59.2233V59.2234C10.2791 59.6164 10.5977 59.935 10.9907 59.935H56.2187C56.6117 59.935 56.9303 59.6164 56.9303 59.2233C56.9303 58.8303 56.6117 58.5117 56.2187 58.5117Z" fill="#788F9D"/>
</g>
<defs>
<clipPath id="clip0_1993_19259">
<rect width="68" height="68" fill="white"/>
</clipPath>
</defs>
</svg>
