<svg width="68" height="68" viewBox="0 0 68 68" fill="none" xmlns="http://www.w3.org/2000/svg">
<g clip-path="url(#clip0_1993_19282)">
<path d="M66.4186 0H1.5814C0.708017 0 0 0.708017 0 1.5814V66.4186C0 67.292 0.708017 68 1.5814 68H66.4186C67.292 68 68 67.292 68 66.4186V1.5814C68 0.708017 67.292 0 66.4186 0Z" fill="white"/>
<path d="M50.8024 8.69763H17.1977C16.4335 8.69763 15.814 9.31714 15.814 10.0814C15.814 10.8456 16.4335 11.4651 17.1977 11.4651H50.8024C51.5666 11.4651 52.1861 10.8456 52.1861 10.0814C52.1861 9.31714 51.5666 8.69763 50.8024 8.69763Z" fill="#58707F"/>
<path d="M56.2187 14.6279H10.9907C10.5977 14.6279 10.2791 14.9465 10.2791 15.3396V15.3396C10.2791 15.7326 10.5977 16.0512 10.9907 16.0512H56.2187C56.6117 16.0512 56.9303 15.7326 56.9303 15.3396C56.9303 14.9465 56.6117 14.6279 56.2187 14.6279Z" fill="#788F9D"/>
<path d="M56.2187 18.1862H10.9907C10.5977 18.1862 10.2791 18.5048 10.2791 18.8978V18.8979C10.2791 19.2909 10.5977 19.6095 10.9907 19.6095H56.2187C56.6117 19.6095 56.9303 19.2909 56.9303 18.8978C56.9303 18.5048 56.6117 18.1862 56.2187 18.1862Z" fill="#788F9D"/>
<path d="M54.0392 23.8593H13.2018C11.5781 23.8593 10.2791 25.1583 10.2791 26.8632V57.3086C10.2791 58.9323 11.5781 60.2313 13.2018 60.2313H54.0392C55.663 60.2313 56.962 58.9323 56.962 57.3086V26.8632C56.962 25.2394 55.663 23.8593 54.0392 23.8593ZM54.0392 48.4591L48.1937 43.1007C47.3007 42.2889 45.9205 42.2889 45.1086 43.1819L39.1819 49.1898L27.572 35.2255C26.8413 34.3325 25.4612 34.1701 24.4869 34.9008C24.3245 34.982 24.2433 35.1443 24.1622 35.2255L13.2018 47.8908V26.8632H54.0392V48.4591Z" fill="#788F9D"/>
<path d="M45.5145 38.798H45.5957C47.8689 38.798 49.6551 36.9307 49.5739 34.6574C49.5739 32.3842 47.7066 30.5168 45.4333 30.5168C43.16 30.5168 41.2927 32.3842 41.2927 34.6574C41.3739 36.9307 43.3224 38.798 45.5145 38.798Z" fill="#788F9D"/>
</g>
<defs>
<clipPath id="clip0_1993_19282">
<rect width="68" height="68" fill="white"/>
</clipPath>
</defs>
</svg>
