<svg width="40" height="41" viewBox="0 0 40 41" fill="none" xmlns="http://www.w3.org/2000/svg">
<g clip-path="url(#clip0_1591_4391)">
<path d="M37.4723 16.6399H12.865L36.5456 9.40003C37.2058 9.19824 37.5773 8.49941 37.3755 7.83917L35.4022 1.38456C35.3053 1.06753 35.0863 0.801986 34.7937 0.646361C34.5009 0.490658 34.1582 0.457689 33.8414 0.554642H33.8413L2.16234 10.2399C1.84523 10.3368 1.57976 10.5557 1.42414 10.8485C1.26851 11.1412 1.23554 11.4837 1.33242 11.8007L3.25125 18.0767V36.7835C3.25125 38.8328 4.91851 40.5 6.96773 40.5H35.0057C37.055 40.5 38.7223 38.8328 38.7223 36.7835V17.8899C38.7223 17.1996 38.1626 16.6399 37.4723 16.6399ZM17.7612 8.08503L23.8697 6.21745L27.9084 9.42644L21.7999 11.2939L17.7612 8.08503ZM18.898 12.1813L12.7895 14.0488L8.75086 10.8398L14.8593 8.97222L18.898 12.1813ZM5.84882 11.7271L9.88757 14.936L5.33109 16.3291L4.08859 12.2653L5.84882 11.7271ZM30.8105 8.53925L26.7718 5.33027L33.3769 3.31089L34.6194 7.3748L30.8105 8.53925ZM36.2223 36.7835C36.2223 37.4543 35.6766 38 35.0057 38H6.96773C6.29695 38 5.75125 37.4543 5.75125 36.7835V19.1399H36.2223V36.7835ZM16.5149 34.0944C16.7084 34.206 16.9241 34.2619 17.1399 34.2619C17.3558 34.2619 17.5715 34.206 17.7649 34.0944L25.4585 29.6525C25.8452 29.4293 26.0835 29.0165 26.0835 28.57C26.0835 28.1234 25.8452 27.7108 25.4585 27.4875L17.7649 23.0457C17.3781 22.8225 16.9017 22.8224 16.5149 23.0457C16.1282 23.2689 15.8899 23.6817 15.8899 24.1282V33.012C15.8899 33.4584 16.1281 33.871 16.5149 34.0944ZM18.3899 26.2931L22.3335 28.57L18.3899 30.8468V26.2931Z" fill="#343434"/>
</g>
<defs>
<clipPath id="clip0_1591_4391">
<rect width="40" height="40" fill="white" transform="translate(0 0.5)"/>
</clipPath>
</defs>
</svg>
