<svg width="40" height="41" viewBox="0 0 40 41" fill="none" xmlns="http://www.w3.org/2000/svg">
<g clip-path="url(#clip0_1591_4379)">
<path d="M29.2833 40.5H10.7167C4.8 40.5 0 35.7 0 29.7833V11.2167C0 5.3 4.8 0.5 10.7167 0.5H29.2917C35.2 0.5 40 5.3 40 11.2167V29.7917C40 35.7 35.2 40.5 29.2833 40.5Z" fill="#0A0A0A"/>
<path d="M9.37501 8.05843C9.61667 8.00843 9.86667 8.03343 10.1083 8.0251C12.9833 8.0251 15.8583 8.0251 18.7333 8.0251C21.5833 8.00843 24.425 9.0501 26.6 10.8834C28.4417 12.4084 29.8167 14.4834 30.525 16.7584C31.4 19.5584 31.25 22.6751 30.1 25.3751C28.6667 28.8501 25.5583 31.5668 21.925 32.5334C19.85 33.1418 17.6667 32.9084 15.5333 32.9584C15.3 32.9834 15.075 32.8834 14.925 32.7084C13.6417 31.4084 12.325 30.1251 11.0667 28.8001C10.8667 28.6501 10.8833 28.3834 10.875 28.1584C10.8833 26.9084 10.875 25.6668 10.875 24.4168C10.8667 24.0418 11.225 23.7251 11.6 23.7751C13.975 23.7668 16.35 23.7751 18.725 23.7751C19.8333 23.7751 20.925 23.1501 21.4833 22.1918C21.9667 21.4334 22.0833 20.4668 21.8333 19.6084C21.4833 18.2334 20.1417 17.2084 18.725 17.2084C16.9833 17.2001 15.2417 17.2084 13.5 17.2084C13.2667 17.2334 13.075 17.0834 12.925 16.9251C11.725 15.7084 10.525 14.4918 9.32501 13.2834C9.15834 13.0918 8.90001 12.9168 8.91667 12.6334C8.91667 11.3168 8.91667 10.0001 8.91667 8.68343C8.90001 8.4001 9.11667 8.14177 9.37501 8.05843ZM11.1167 9.3251C11.9583 10.1668 12.8 11.0001 13.625 11.8501C13.7167 11.9751 13.8833 11.9751 14.025 11.9751C15.55 11.9668 17.0833 11.9751 18.6083 11.9668C21.3083 11.9084 23.95 13.2834 25.525 15.4584C26.85 17.2668 27.425 19.6084 27.0583 21.8251C26.7833 23.6751 25.85 25.4168 24.4833 26.6918C23.0583 28.0668 21.1167 28.9001 19.1417 29.0084C18.1167 29.0334 17.1 29.0001 16.075 29.0251C16.0833 29.9001 16.075 30.7668 16.0833 31.6418C17.0333 31.6584 17.9833 31.6501 18.9417 31.6418C21.0583 31.6001 23.15 30.9168 24.8917 29.7251C26.525 28.6084 27.8667 27.0501 28.7083 25.2501C29.8917 22.8084 30.0917 19.9168 29.325 17.3251C28.6417 14.9918 27.1667 12.9084 25.2083 11.4668C23.3833 10.1084 21.1167 9.3501 18.8417 9.3251C16.2667 9.3251 13.6917 9.3501 11.1167 9.3251ZM10.2083 10.2418C10.2583 10.9418 10.1583 11.6668 10.2583 12.3501C11.1 13.2334 11.9917 14.0668 12.8167 14.9584C12.8417 14.2668 12.8333 13.5751 12.825 12.8834C11.9417 12.0084 11.0833 11.1251 10.2083 10.2418ZM14.125 13.2751C14.15 14.1501 14.125 15.0251 14.1417 15.9084C15.7417 15.9084 17.3417 15.9001 18.9333 15.9084C20.95 15.9751 22.775 17.5584 23.1583 19.5334C23.4417 20.7918 23.1417 22.1584 22.3833 23.2001C21.575 24.3334 20.225 25.0668 18.825 25.0834C16.9167 25.0918 15 25.0751 13.0917 25.0918C13.775 25.7584 14.4333 26.4418 15.1083 27.1084C15.2917 27.3001 15.5 27.4751 15.6417 27.7001C16.1667 27.7334 16.7 27.7084 17.2333 27.7168C18.3 27.7001 19.3917 27.7834 20.4333 27.5001C22.5083 26.9834 24.2917 25.4751 25.2 23.5418C26.4667 20.8918 25.9 17.4834 23.7917 15.4251C22.4917 14.0584 20.6167 13.2751 18.7333 13.2668C17.1917 13.2751 15.6583 13.2668 14.125 13.2751ZM12.1833 26.0418C12.175 26.7168 12.175 27.3918 12.175 28.0668C13.0167 28.9751 13.9333 29.8168 14.7833 30.7251C14.775 30.0418 14.7917 29.3584 14.775 28.6751C14.6083 28.4251 14.3667 28.2418 14.1667 28.0251C13.5 27.3751 12.875 26.6751 12.1833 26.0418Z" fill="white"/>
</g>
<defs>
<clipPath id="clip0_1591_4379">
<rect width="40" height="40" fill="white" transform="translate(0 0.5)"/>
</clipPath>
</defs>
</svg>
