<svg width="40" height="41" viewBox="0 0 40 41" fill="none" xmlns="http://www.w3.org/2000/svg">
<path d="M30 0.5H10C4.47715 0.5 0 4.97715 0 10.5V30.5C0 36.0228 4.47715 40.5 10 40.5H30C35.5228 40.5 40 36.0228 40 30.5V10.5C40 4.97715 35.5228 0.5 30 0.5Z" fill="url(#paint0_linear_964_4269)"/>
<g opacity="0.9">
<path d="M14 26C13.803 26.0001 13.6079 25.9614 13.4258 25.886C13.2438 25.8107 13.0784 25.7003 12.939 25.561L8.93901 21.561C8.79962 21.4217 8.68904 21.2563 8.6136 21.0742C8.53816 20.8922 8.49933 20.6971 8.49933 20.5C8.49933 20.3029 8.53816 20.1078 8.6136 19.9257C8.68904 19.7437 8.79962 19.5783 8.93901 19.439L12.939 15.439C13.2204 15.1576 13.6021 14.9995 14 14.9995C14.398 14.9995 14.7796 15.1576 15.061 15.439C15.3424 15.7204 15.5005 16.102 15.5005 16.5C15.5005 16.8979 15.3424 17.2796 15.061 17.561L12.121 20.5L15.061 23.439C15.2709 23.6488 15.4139 23.9161 15.4718 24.2072C15.5298 24.4982 15.5001 24.7999 15.3865 25.0741C15.2729 25.3483 15.0805 25.5826 14.8337 25.7474C14.5869 25.9122 14.2968 26.0001 14 26Z" fill="white"/>
</g>
<g opacity="0.9">
<path d="M26 26C25.7032 26.0001 25.4131 25.9122 25.1663 25.7474C24.9195 25.5826 24.7271 25.3483 24.6135 25.0741C24.4999 24.7999 24.4702 24.4982 24.5282 24.2072C24.5861 23.9161 24.7291 23.6488 24.939 23.439L27.879 20.5L24.939 17.561C24.7997 17.4217 24.6891 17.2562 24.6137 17.0742C24.5383 16.8922 24.4995 16.697 24.4995 16.5C24.4995 16.3029 24.5383 16.1078 24.6137 15.9258C24.6891 15.7437 24.7997 15.5783 24.939 15.439C25.2204 15.1576 25.602 14.9995 26 14.9995C26.197 14.9995 26.3922 15.0383 26.5742 15.1137C26.7562 15.1891 26.9217 15.2997 27.061 15.439L31.061 19.439C31.2004 19.5783 31.311 19.7437 31.3864 19.9257C31.4618 20.1078 31.5007 20.3029 31.5007 20.5C31.5007 20.6971 31.4618 20.8922 31.3864 21.0742C31.311 21.2563 31.2004 21.4217 31.061 21.561L27.061 25.561C26.9216 25.7003 26.7562 25.8107 26.5742 25.886C26.3921 25.9614 26.197 26.0001 26 26Z" fill="white"/>
</g>
<g opacity="0.5">
<path d="M18 28.9999C17.8603 28.9997 17.7213 28.9802 17.587 28.9419C17.2046 28.8326 16.8813 28.5758 16.6881 28.2282C16.495 27.8805 16.4478 27.4703 16.557 27.0879L20.557 13.0879C20.608 12.895 20.6969 12.7143 20.8186 12.5562C20.9403 12.3981 21.0923 12.2659 21.2657 12.1673C21.4392 12.0687 21.6305 12.0056 21.8286 11.9819C22.0267 11.9581 22.2275 11.9741 22.4193 12.0289C22.6111 12.0837 22.7901 12.1762 22.9457 12.301C23.1013 12.4259 23.2305 12.5805 23.3256 12.7558C23.4208 12.9312 23.48 13.1237 23.4998 13.3222C23.5196 13.5207 23.4996 13.7212 23.441 13.9119L19.441 27.9119C19.3515 28.2251 19.1625 28.5007 18.9026 28.697C18.6426 28.8933 18.3258 28.9996 18 28.9999Z" fill="white"/>
</g>
<defs>
<linearGradient id="paint0_linear_964_4269" x1="4.609" y1="5.109" x2="36.619" y2="37.119" gradientUnits="userSpaceOnUse">
<stop stop-color="#9B8DFF"/>
<stop offset="0.252" stop-color="#7D79FD"/>
<stop offset="0.555" stop-color="#5F65FB"/>
<stop offset="0.815" stop-color="#4D58F9"/>
<stop offset="1" stop-color="#4654F9"/>
</linearGradient>
</defs>
</svg>
