<svg width="40" height="41" viewBox="0 0 40 41" fill="none" xmlns="http://www.w3.org/2000/svg">
<path d="M33.3333 0.5H6.66667C4.89905 0.5016 3.20428 1.20449 1.95439 2.45439C0.704493 3.70428 0.00159985 5.39905 0 7.16667V33.8333C0.00159985 35.601 0.704493 37.2957 1.95439 38.5456C3.20428 39.7955 4.89905 40.4984 6.66667 40.5H33.3333C35.101 40.4984 36.7957 39.7955 38.0456 38.5456C39.2955 37.2957 39.9984 35.601 40 33.8333V7.16667C39.9984 5.39905 39.2955 3.70428 38.0456 2.45439C36.7957 1.20449 35.101 0.5016 33.3333 0.5ZM13.9439 11.8684C14.1193 4.18421 25.8807 4.18421 26.0561 11.8684V18.2123C25.8831 25.8903 14.1165 25.9016 13.9439 18.2122V11.8684ZM29.9579 18.2123C29.9549 20.6418 29.0368 22.9811 27.3865 24.7641C25.7361 26.5471 23.4747 27.6429 21.0526 27.8333V29.2368C22.1245 29.4388 23.0924 30.0084 23.7893 30.8475C24.4862 31.6866 24.8685 32.7426 24.8702 33.8333C24.8704 33.9716 24.8433 34.1086 24.7904 34.2364C24.7376 34.3642 24.6601 34.4803 24.5623 34.5781C24.4645 34.6758 24.3484 34.7534 24.2206 34.8062C24.0928 34.859 23.9558 34.8861 23.8175 34.886H16.1825C16.0442 34.8861 15.9072 34.859 15.7794 34.8062C15.6516 34.7534 15.5355 34.6758 15.4377 34.5781C15.3399 34.4803 15.2624 34.3642 15.2096 34.2364C15.1567 34.1086 15.1296 33.9716 15.1298 33.8333C15.1315 32.7426 15.5138 31.6866 16.2107 30.8475C16.9076 30.0084 17.8755 29.4388 18.9474 29.2368V27.8333C16.5253 27.6429 14.2639 26.5471 12.6135 24.7641C10.9632 22.9811 10.0451 20.6418 10.0421 18.2123V15.0404C10.0463 14.7639 10.159 14.5002 10.356 14.3062C10.5529 14.1122 10.8183 14.0034 11.0947 14.0034C11.3712 14.0034 11.6366 14.1122 11.8335 14.3062C12.0305 14.5002 12.1432 14.7639 12.1474 15.0404V18.2123C12.4281 28.2825 27.5649 28.2895 27.8526 18.2123V15.0404C27.8526 14.7612 27.9635 14.4934 28.1609 14.296C28.3583 14.0986 28.6261 13.9877 28.9053 13.9877C29.1844 13.9877 29.4522 14.0986 29.6496 14.296C29.847 14.4934 29.9579 14.7612 29.9579 15.0404V18.2123ZM22.5403 32.7807H17.4596C18.2807 30.7386 21.7193 30.7386 22.5403 32.7807ZM16.0491 11.8684V18.2123C16.0508 19.1796 16.4358 20.1068 17.1197 20.7908C17.8037 21.4748 18.7309 21.8598 19.6982 21.8614C20.2229 21.9334 20.7569 21.8933 21.265 21.7436C21.773 21.594 22.2435 21.3383 22.6454 20.9935C23.0473 20.6486 23.3715 20.2224 23.5965 19.7429C23.8216 19.2635 23.9424 18.7418 23.9509 18.2123V11.8684C23.8877 6.97719 16.1123 6.97719 16.0491 11.8684ZM21.2982 19.6579H18.7018C18.4249 19.6544 18.1605 19.5419 17.966 19.3449C17.7714 19.1479 17.6624 18.8822 17.6624 18.6053C17.6624 18.3284 17.7714 18.0626 17.966 17.8656C18.1605 17.6686 18.4249 17.5561 18.7018 17.5526H21.2982C21.5748 17.5567 21.8386 17.6693 22.0327 17.8663C22.2268 18.0633 22.3356 18.3287 22.3356 18.6053C22.3356 18.8818 22.2268 19.1472 22.0327 19.3442C21.8386 19.5412 21.5748 19.6539 21.2982 19.6579ZM21.2982 16.093H18.7018C18.4249 16.0895 18.1605 15.977 17.966 15.78C17.7714 15.583 17.6624 15.3172 17.6624 15.0404C17.6624 14.7635 17.7714 14.4977 17.966 14.3007C18.1605 14.1037 18.4249 13.9912 18.7018 13.9877H21.2982C21.5748 13.9916 21.8388 14.1043 22.033 14.3012C22.2272 14.4982 22.3361 14.7637 22.3361 15.0404C22.3361 15.317 22.2272 15.5825 22.033 15.7795C21.8388 15.9764 21.5748 16.0891 21.2982 16.093ZM21.2982 12.5281H18.7018C18.4249 12.5246 18.1605 12.4121 17.966 12.2151C17.7714 12.0181 17.6624 11.7523 17.6624 11.4754C17.6624 11.1985 17.7714 10.9328 17.966 10.7358C18.1605 10.5388 18.4249 10.4263 18.7018 10.4228H21.2982C21.5748 10.4267 21.8388 10.5393 22.033 10.7363C22.2272 10.9333 22.3361 11.1988 22.3361 11.4754C22.3361 11.7521 22.2272 12.0176 22.033 12.2146C21.8388 12.4115 21.5748 12.5242 21.2982 12.5281Z" fill="url(#paint0_linear_964_5201)"/>
<defs>
<linearGradient id="paint0_linear_964_5201" x1="38.5" y1="38" x2="1.30385e-07" y2="3" gradientUnits="userSpaceOnUse">
<stop stop-color="#A5256F"/>
<stop offset="1" stop-color="#FF3CAC"/>
</linearGradient>
</defs>
</svg>
