<svg width="40" height="41" viewBox="0 0 40 41" fill="none" xmlns="http://www.w3.org/2000/svg">
<g clip-path="url(#clip0_963_5686)">
<path d="M20 40.5C31.0457 40.5 40 31.5457 40 20.5C40 9.45431 31.0457 0.5 20 0.5C8.95431 0.5 0 9.45431 0 20.5C0 31.5457 8.95431 40.5 20 40.5Z" fill="#FF6A22"/>
<path d="M5.95636 25.0403C5.94673 25.1051 5.90038 25.1515 5.84013 25.1515C5.77988 25.1515 5.73353 25.1051 5.72426 25.0388L5.51285 23.4566L5.72426 21.848C5.73318 21.781 5.77952 21.7346 5.84013 21.7346C5.90003 21.7346 5.94638 21.781 5.95636 21.848L6.20806 23.4584L5.95636 25.0403ZM7.0334 26.0014C7.02342 26.0702 6.97351 26.1184 6.91183 26.1184C6.85193 26.1184 6.79952 26.0702 6.79132 26.0014L6.50682 23.4562L6.79132 20.854C6.79988 20.787 6.85193 20.7371 6.91183 20.7371C6.97351 20.7371 7.02342 20.7859 7.0334 20.854L7.35712 23.4562L7.0334 26.0014ZM8.19565 26.4325C8.18745 26.5152 8.12542 26.574 8.05091 26.574C7.9739 26.574 7.91293 26.5152 7.90545 26.4325L7.63556 23.4584L7.90545 20.3713C7.91222 20.2875 7.9739 20.2276 8.05091 20.2276C8.12542 20.2276 8.1871 20.2875 8.19565 20.3713L8.5019 23.4584L8.19565 26.4325ZM9.36931 26.5269C9.36076 26.6218 9.2866 26.6934 9.19854 26.6934C9.10834 26.6934 9.03454 26.6218 9.02706 26.5269L8.77214 23.4584L9.02706 20.2864C9.03454 20.1909 9.10834 20.1192 9.19854 20.1192C9.2866 20.1192 9.36076 20.1909 9.36931 20.2864L9.65845 23.4584L9.36931 26.5269ZM10.5494 26.5515C10.5433 26.6617 10.4574 26.7433 10.3558 26.7433C10.251 26.7433 10.1679 26.6617 10.1608 26.5515L9.91978 23.458L10.1608 20.5153C10.1683 20.4059 10.251 20.3242 10.3558 20.3242C10.4592 20.3242 10.5433 20.4059 10.5494 20.5139L10.8225 23.458L10.5494 26.5515ZM11.7409 26.5533V26.5515C11.7337 26.6735 11.6371 26.7697 11.5209 26.7697C11.4043 26.7697 11.3077 26.6731 11.3009 26.5533L11.076 23.4598L11.3009 18.6721C11.3077 18.5502 11.4043 18.4539 11.5209 18.4539C11.6375 18.4539 11.7341 18.5505 11.7409 18.6703L11.9958 23.4598L11.7409 26.5533ZM12.9235 26.5515V26.5498C12.9163 26.6845 12.8097 26.7918 12.6778 26.7918C12.5484 26.7918 12.4414 26.6845 12.435 26.5498L12.2225 23.4762L12.435 17.5933C12.4414 17.4585 12.5484 17.3519 12.6778 17.3519C12.8097 17.3519 12.9163 17.4585 12.9235 17.5933L13.1627 23.4762L12.9235 26.5515ZM14.1502 26.5041V26.5023C14.1449 26.6524 14.0269 26.769 13.8818 26.769C13.7367 26.769 13.6187 26.6524 13.6133 26.5041L13.4162 23.4619C13.4162 23.4619 13.6133 17.0888 13.6133 17.087C13.619 16.9387 13.7367 16.82 13.8818 16.82C14.0269 16.82 14.1452 16.9387 14.1502 17.087L14.3731 23.4619L14.1502 26.5041ZM15.3699 26.4838C15.3642 26.6471 15.2362 26.7751 15.0768 26.7751C14.9171 26.7751 14.7891 26.6471 14.7834 26.4852L14.5994 23.4612L14.7834 16.8735C14.7891 16.7095 14.9171 16.5818 15.0768 16.5818C15.2362 16.5818 15.3645 16.7095 15.3699 16.8735L15.5742 23.4612L15.3699 26.4838ZM16.5974 26.4571V26.4553C16.5917 26.6318 16.4537 26.7719 16.2787 26.7719C16.1061 26.7719 15.9653 26.6318 15.9621 26.4571L15.7931 23.4619L15.9603 17.0425C15.9653 16.8635 16.1057 16.7252 16.2787 16.7252C16.4537 16.7252 16.5917 16.8635 16.5974 17.0425L16.787 23.4619L16.5974 26.4571ZM17.8349 26.4392V26.4367C17.832 26.6289 17.6801 26.7769 17.4926 26.7769C17.3036 26.7769 17.1539 26.6289 17.1482 26.4392L16.9956 23.4616L17.1486 17.2771C17.1543 17.0852 17.304 16.9352 17.493 16.9352C17.6805 16.9352 17.8324 17.0852 17.8352 17.2771L18.0081 23.4634L17.8349 26.4392ZM19.0973 26.1251L19.082 26.4168C19.0802 26.5184 19.0374 26.6104 18.9722 26.6767C18.9051 26.7419 18.8131 26.7836 18.7158 26.7836C18.6024 26.7836 18.5026 26.7316 18.4342 26.6496C18.3835 26.59 18.3522 26.513 18.3486 26.4321C18.3475 26.4285 18.3475 26.4239 18.3475 26.4189C18.3475 26.4189 18.2067 23.4648 18.2067 23.4598L18.3457 16.1715L18.3475 16.1016C18.3486 15.974 18.4163 15.8602 18.5176 15.795C18.5743 15.7572 18.6413 15.7351 18.7162 15.7351C18.7896 15.7351 18.8591 15.7579 18.9172 15.7982C19.016 15.8642 19.0805 15.975 19.0823 16.102L19.237 23.4634L19.0973 26.1251ZM20.3241 26.3786V26.3751C20.3216 26.5904 20.1451 26.7658 19.9319 26.7658C19.718 26.7658 19.5419 26.5904 19.5397 26.3768L19.4588 24.9401L19.3793 23.4648L19.5397 15.4766V15.4363C19.5401 15.3151 19.5971 15.2067 19.6852 15.1337C19.7526 15.0784 19.8392 15.0449 19.9319 15.0449C20.0057 15.0449 20.0742 15.0652 20.1326 15.0994C20.2442 15.1693 20.3223 15.293 20.3259 15.4346L20.4995 23.4644L20.3241 26.3786ZM30.9244 26.7737C30.9244 26.7737 21.0549 26.7737 21.0446 26.7737C20.8314 26.7519 20.6628 26.5822 20.6592 26.3637V15.0534C20.6628 14.8452 20.7344 14.7379 21.0025 14.6349C21.6945 14.3668 22.4782 14.2085 23.2835 14.2085C26.5689 14.2085 29.2609 16.7287 29.5465 19.9392C29.9693 19.7627 30.4364 19.6622 30.9244 19.6622C32.8917 19.6622 34.4868 21.2579 34.4868 23.2266C34.4868 25.195 32.8917 26.7737 30.9244 26.7737Z" fill="#F1F2F2"/>
</g>
<defs>
<clipPath id="clip0_963_5686">
<rect width="40" height="40" fill="white" transform="translate(0 0.5)"/>
</clipPath>
</defs>
</svg>
