<svg width="40" height="41" viewBox="0 0 40 41" fill="none" xmlns="http://www.w3.org/2000/svg">
<g clip-path="url(#clip0_964_4250)">
<path d="M20 40.5C31.0457 40.5 40 31.5457 40 20.5C40 9.4543 31.0457 0.5 20 0.5C8.9543 0.5 0 9.4543 0 20.5C0 31.5457 8.9543 40.5 20 40.5Z" fill="#12C64B"/>
<path d="M27.225 27.893C27.0666 28.1637 26.8072 28.3605 26.5038 28.4402C26.2004 28.5199 25.8778 28.4759 25.6068 28.318C22.4955 26.4998 18.9023 26.2089 16.4341 26.2725C14.8308 26.3136 13.2364 26.5238 11.6773 26.8998C11.387 26.9512 11.088 26.8924 10.8388 26.7351C10.5895 26.5777 10.4079 26.333 10.3295 26.0489C10.2511 25.7647 10.2814 25.4615 10.4147 25.1986C10.5479 24.9356 10.7745 24.7319 11.05 24.6271C12.7676 24.2001 14.5263 23.9594 16.2955 23.9089C17.9886 23.8464 19.6835 23.9691 21.35 24.2748C23.2685 24.6221 25.1134 25.2955 26.8045 26.2657C26.9397 26.3443 27.0578 26.449 27.1522 26.5736C27.2466 26.6982 27.3154 26.8402 27.3545 26.9916C27.3936 27.1429 27.4023 27.3005 27.38 27.4553C27.3578 27.61 27.3051 27.7588 27.225 27.893Z" fill="white"/>
<path d="M29.425 23.3226C29.3016 23.5344 29.1248 23.7102 28.9122 23.8322C28.6997 23.9542 28.4588 24.0183 28.2136 24.0181C27.9649 24.0184 27.7207 23.9517 27.5068 23.8249C23.8227 21.6726 19.5682 21.3249 16.6432 21.4158C14.7442 21.4638 12.8556 21.7129 11.0091 22.159C10.6559 22.2421 10.2842 22.1851 9.97211 21.9999C9.66005 21.8147 9.43194 21.5157 9.33571 21.1659C9.23948 20.816 9.28264 20.4424 9.45611 20.1237C9.62957 19.8049 9.91984 19.5659 10.2659 19.4567C12.3007 18.9531 14.3841 18.6712 16.4795 18.6158C18.4857 18.5386 20.4942 18.6842 22.4682 19.0499C24.7387 19.4615 26.9219 20.2594 28.9227 21.409C29.2424 21.5967 29.4748 21.9035 29.5689 22.2621C29.663 22.6207 29.6113 23.002 29.425 23.3226Z" fill="white"/>
<path d="M32.2727 18.3158C32.159 18.511 32.0079 18.6819 31.828 18.8186C31.6482 18.9553 31.4431 19.0551 31.2245 19.1123C31.006 19.1695 30.7783 19.183 30.5545 19.152C30.3307 19.121 30.1152 19.0462 29.9204 18.9317C21.1614 13.8135 9.79999 16.8567 9.69318 16.8862C9.47238 16.9562 9.23974 16.9808 9.0092 16.9587C8.77865 16.9365 8.55495 16.8681 8.3515 16.7574C8.14805 16.6467 7.96905 16.4961 7.82521 16.3146C7.68137 16.1331 7.57567 15.9244 7.51443 15.701C7.45319 15.4776 7.43768 15.2442 7.46883 15.0147C7.49998 14.7852 7.57715 14.5644 7.69571 14.3654C7.81427 14.1664 7.97178 13.9935 8.1588 13.8568C8.34582 13.7202 8.5585 13.6228 8.78409 13.5703C11.274 12.9566 13.8228 12.613 16.3864 12.5453C18.8462 12.4537 21.3086 12.632 23.7295 13.0772C26.5137 13.5778 29.1917 14.5509 31.6477 15.9544C31.8445 16.0678 32.0168 16.219 32.1549 16.3993C32.2929 16.5796 32.3939 16.7854 32.452 17.0049C32.5101 17.2245 32.5242 17.4533 32.4934 17.6783C32.4626 17.9033 32.3876 18.1199 32.2727 18.3158Z" fill="white"/>
</g>
<defs>
<clipPath id="clip0_964_4250">
<rect width="40" height="40" fill="white" transform="translate(0 0.5)"/>
</clipPath>
</defs>
</svg>
