<svg width="40" height="41" viewBox="0 0 40 41" fill="none" xmlns="http://www.w3.org/2000/svg">
<g clip-path="url(#clip0_1591_4360)">
<path d="M40.001 20.5C40.001 31.5453 31.0463 40.5 20 40.5H19.9625C8.93401 40.4793 0 31.5305 0 20.5C0 9.46949 8.93401 0.519713 19.9625 0.5H20C31.0463 0.5 40.001 9.45175 40.001 20.5Z" fill="black"/>
<path d="M19.9625 0.5V40.5C8.93401 40.4793 0 31.5305 0 20.5C0 9.46949 8.93401 0.519713 19.9625 0.5Z" fill="#0C0C0C"/>
<path d="M30.8827 14.9637L30.858 19.0611C30.0596 19.0513 29.2652 18.9447 28.4924 18.7437C27.3002 18.4322 26.1758 17.9033 25.1757 17.1834C25.1757 17.6023 25.1816 18.2272 25.1816 18.9871C25.1816 19.9984 25.1816 20.5731 25.1757 21.1832C25.158 24.9523 25.2516 25.6817 24.9204 27.1721C24.8515 27.5314 24.7573 27.8855 24.6385 28.2316C24.0018 30.0058 22.614 31.4271 21.1995 32.1831C20.8048 32.393 20.3905 32.5637 19.9625 32.6927C17.2894 33.5029 14.0772 32.7913 12.4193 30.82L12.4085 30.8081L12.3956 30.7914C10.9871 29.0921 10.6796 26.4427 10.65 25.7645C10.65 25.6778 10.6441 25.593 10.6441 25.593C10.6224 24.6667 10.7557 23.7432 11.0384 22.8608C11.3242 21.9481 12.2655 20.0428 14.3798 18.8856C15.6984 18.1753 17.2034 17.8873 18.691 18.0606L18.6427 22.2073C18.559 22.1856 16.5334 21.7056 15.2038 23.0855C13.9993 24.3353 14.0772 26.349 14.9317 27.4894C14.9771 27.5505 15.0254 27.6097 15.0756 27.6649C15.5537 28.1981 16.1599 28.3982 16.5689 28.5382C17.1113 28.7169 17.6806 28.8003 18.2514 28.7846C18.863 28.775 19.4579 28.584 19.9606 28.2356C21.3504 27.2913 21.5376 25.6098 21.5445 25.5142C21.5274 20.1009 21.5113 14.6877 21.4962 9.27446V9.26953L24.1013 9.22321H24.1437L24.5212 9.21631C24.7996 10.2181 25.2714 11.1557 25.91 11.9762C26.1112 12.2328 26.3285 12.4764 26.5605 12.7055C27.4372 13.5588 28.4903 14.2095 29.6457 14.6118H29.6535C30.0543 14.7583 30.4651 14.8759 30.8827 14.9637Z" fill="#FD2854"/>
<path d="M29.7048 16.8177H29.6969C28.294 17.0425 26.8578 16.9334 25.5049 16.4994C24.5602 16.1922 23.6734 15.7295 22.8811 15.1303C23.3562 18.002 23.3562 20.9323 22.8811 23.8041C22.3183 27.179 21.9654 29.2942 20.0818 30.6475C20.0424 30.6761 20.002 30.7047 19.9616 30.7313C17.3604 32.4927 13.7263 31.6184 12.3947 30.7895L12.3749 30.7776L12.3375 30.754C11.8986 30.4632 11.4868 30.1333 11.1074 29.7683C10.4272 29.1085 9.88436 28.3204 9.51032 27.4497C9.13627 26.579 8.93839 25.6428 8.92809 24.6951C8.90278 23.7136 9.06572 22.7363 9.40811 21.816C9.62988 21.2246 10.4539 19.1212 12.7495 17.8409C14.2194 17.0349 15.918 16.7474 17.5713 17.0247C17.5648 17.3533 17.5585 17.6818 17.5526 18.0104V18.0173L17.5142 20.097C16.7947 19.9275 16.051 19.8861 15.3171 19.9748C14.7257 20.0477 14.1462 20.1158 13.5301 20.5031C12.7412 21.011 12.1828 21.8079 11.9748 22.7228C11.8431 23.166 11.8161 23.6336 11.8959 24.0889C11.9196 24.2191 12.093 25.1229 12.8224 25.7715C13.0679 25.9893 13.1723 25.9982 13.5301 26.3323C13.8455 26.628 13.9244 26.7699 14.2132 27.0154C14.2132 27.0154 14.2842 27.0755 14.4005 27.1603C14.4079 27.1667 14.4158 27.1726 14.4241 27.178C14.5832 27.2943 14.7502 27.3994 14.9239 27.4924C15.6463 27.8709 16.9395 27.9113 17.8877 27.451C19.1996 26.8133 19.9152 25.3466 19.9123 24.4753C19.8965 19.0601 19.8804 13.6452 19.864 8.23069H19.9547L23.9781 8.20703C23.9752 8.52087 24.0187 8.83342 24.1072 9.13454C24.1171 9.16706 24.1269 9.19762 24.1378 9.2331C24.1486 9.26859 24.1555 9.28534 24.1644 9.30998C24.2268 9.47378 24.2989 9.63374 24.3803 9.78901L24.4364 9.90236V9.91124C24.4355 9.91379 24.4355 9.91657 24.4364 9.91912L24.4453 9.93785L24.4542 9.95559C24.4595 9.96705 24.4655 9.97824 24.4719 9.9891C24.4778 10.0019 24.4847 10.0147 24.4916 10.0275C24.5291 10.0995 24.5804 10.1941 24.6385 10.3006C24.675 10.3666 24.7134 10.4326 24.7528 10.4977L24.7952 10.5677C24.8159 10.6032 24.8376 10.6387 24.8593 10.6731L24.9381 10.7983C25.2447 11.2823 25.7829 12.0974 26.5458 12.7135C27.6182 13.5789 28.8502 13.8233 29.623 13.8963C29.6279 14.1387 29.6338 14.3812 29.6388 14.6237C29.6677 15.3557 29.6897 16.087 29.7048 16.8177Z" fill="#24F6FA"/>
<path d="M29.7177 17.9757C27.6867 18.0502 25.6927 17.4188 24.0748 16.1887V24.8625C24.0551 25.1947 23.7643 28.8584 20.4545 30.8751C20.2909 30.9736 20.1263 31.0653 19.9617 31.1501C16.848 32.7389 13.8052 31.494 13.5046 31.3649C13.2057 31.2672 12.9192 31.1349 12.651 30.9707C12.5672 30.9184 12.4854 30.8642 12.4076 30.808L12.3376 30.7558C10.3071 29.2142 10.2233 26.0739 10.2105 25.6107C10.1888 24.6843 10.3221 23.7608 10.6048 22.8784C10.9399 21.809 11.9404 20.0062 13.9462 18.9032C15.053 18.3009 16.2968 17.9953 17.5566 18.0162V18.0231C17.5402 19.0646 17.5238 20.1064 17.5074 21.1486C17.2954 21.0914 15.9963 20.7642 14.7268 21.5635C13.9379 22.0714 13.3794 22.8683 13.1715 23.7832C13.047 24.2273 13.0201 24.693 13.0926 25.1484C13.2052 25.7107 13.4705 26.2311 13.8594 26.6525C14.023 26.8408 14.2056 27.0116 14.4045 27.1621C14.412 27.1685 14.4199 27.1745 14.4282 27.1798C14.5843 27.3003 14.7517 27.4056 14.9279 27.4942L14.9338 27.4992C15.286 28.031 15.7941 28.441 16.3884 28.6728C16.9827 28.9047 17.6342 28.9471 18.2535 28.7943C18.5421 28.7341 18.8224 28.6395 19.0884 28.5124C19.4105 28.3592 19.7058 28.1548 19.9626 27.9072C20.9601 26.9482 21.106 25.6215 21.1129 25.5417L21.0695 9.28913L21.5032 9.28026L24.1083 9.229H24.1458C24.1556 9.25463 24.1665 9.28026 24.1773 9.30589C24.2374 9.45078 24.3094 9.61144 24.3932 9.78492L24.4494 9.89827V9.90714C24.4485 9.90969 24.4485 9.91247 24.4494 9.91502L24.4582 9.93375L24.4671 9.95149C24.4724 9.96296 24.4784 9.97414 24.4848 9.985C24.4908 9.99782 24.4977 10.0106 24.5046 10.0234C24.5499 10.1122 24.6031 10.2038 24.6514 10.2965C24.6879 10.3625 24.7263 10.4286 24.7658 10.4936L24.8081 10.5636L24.8722 10.6691L24.9511 10.7942C25.4019 11.4994 25.9423 12.1431 26.5587 12.7094C27.4582 13.5329 28.5048 14.1796 29.6438 14.6156H29.6517C29.6645 15.346 29.6773 16.0783 29.6891 16.8087L29.7177 17.9757Z" fill="white"/>
<path opacity="0.17" d="M30.8828 14.9637L30.8581 19.0611C30.0597 19.0513 29.2653 18.9448 28.4925 18.7437C27.3003 18.4323 26.1759 17.9033 25.1758 17.1834C25.1758 17.6023 25.1817 18.2272 25.1817 18.9872C25.1817 19.9985 25.1817 20.5731 25.1758 21.1832C25.1581 24.9524 25.2517 25.6818 24.9205 27.1721C24.8516 27.5315 24.7574 27.8856 24.6386 28.2317C24.0019 30.0059 22.6141 31.4272 21.1996 32.1832C20.8049 32.393 20.3906 32.5637 19.9626 32.6928V8.23069L23.9861 8.20703C23.9832 8.52087 24.0267 8.83342 24.1152 9.13454C24.1251 9.16706 24.1349 9.19762 24.1458 9.2331L24.5233 9.2262C24.8017 10.228 25.2735 11.1656 25.9121 11.986C26.1133 12.2427 26.3306 12.4863 26.5626 12.7154C27.635 13.5808 28.8671 13.8253 29.6398 13.8982C29.6448 14.1407 29.6507 14.3832 29.6556 14.6256C30.0561 14.7673 30.4662 14.8803 30.8828 14.9637Z" fill="black"/>
</g>
<defs>
<clipPath id="clip0_1591_4360">
<rect width="40" height="40" fill="white" transform="translate(0 0.5)"/>
</clipPath>
</defs>
</svg>
