<svg width="40" height="41" viewBox="0 0 40 41" fill="none" xmlns="http://www.w3.org/2000/svg">
<g clip-path="url(#clip0_1591_4354)">
<path d="M28.75 0.5H11.25C5 0.5 0 5.5 0 11.75V29.25C0 35.5 5 40.5 11.25 40.5H28.75C35 40.5 40 35.5 40 29.25V11.75C40 5.5 35 0.5 28.75 0.5Z" fill="#1AB7EA"/>
<path d="M28.5 27.375C24.375 32.875 20.875 35.5 17.75 35.5C15.5 35.5 13.75 33.625 12.375 30L9.99997 21.375C9.37497 18.875 8.74997 18 8.49997 17.75C8.24997 17.875 7.74997 18.25 6.99997 18.75C6.49997 19.125 5.62497 19 5.24997 18.5L3.99997 16.75C3.62497 16.25 3.62497 15.5 4.12497 15.125L8.24997 11.375C10.375 9.37501 11.75 8.12501 13.125 8.00001C14.5 7.87501 17.75 8.12501 18.625 14C19.25 18.375 19.625 19.875 19.75 20.5C20.125 22.375 20.5 23.375 20.75 23.75C21 23.5 21.5 22.875 22.25 21.75C23.625 19.625 23.875 18.5 24 18C24.125 17.375 24 17.125 23.875 17C23.875 17 23.625 16.875 23.375 16.875C22.875 16.875 22.375 17 21.75 17.25C21.25 17.5 20.75 17.375 20.375 17C20 16.625 19.875 16.125 20 15.75C21.625 10.5 24.5 8.00001 29 8.12501C30.625 8.12501 32.125 8.87501 33.25 10C34.5 11.375 35.125 13.375 35.125 15.625C34.875 18.75 32.375 22.125 28.5 27.375Z" fill="white"/>
</g>
<defs>
<clipPath id="clip0_1591_4354">
<rect width="40" height="40" fill="white" transform="translate(0 0.5)"/>
</clipPath>
</defs>
</svg>
