<svg width="40" height="41" viewBox="0 0 40 41" fill="none" xmlns="http://www.w3.org/2000/svg">
<path d="M18.7093 24.8197H12.6628C10.8256 24.8197 9.0814 25.6104 7.88372 26.9941L0.244186 35.7848C5.80233 36.0755 11.6163 36.0755 15.7093 36.0755C37 36.0755 40 22.9708 40 16.8313C38.1512 19.0755 32.9535 24.8197 18.6977 24.8197H18.7093ZM37.3721 4.93594C37.2791 6.00571 36.686 10.3894 24.2209 10.3894C14.0814 10.3894 9.98837 10.3894 0 10.1918L7.48837 18.7964C8.94186 20.4708 11.0349 21.4476 13.2558 21.4708C15.7326 21.5057 19.1279 21.5406 19.686 21.5406C32.4884 21.5406 39.6744 15.6685 39.6744 10.0406C39.6744 7.70339 38.8953 6.0406 37.3837 4.92432L37.3721 4.93594Z" fill="#2949E5"/>
</svg>
