<svg width="40" height="41" viewBox="0 0 40 41" fill="none" xmlns="http://www.w3.org/2000/svg">
<g clip-path="url(#clip0_1591_4348)">
<path d="M39.1759 10.8979C38.7147 9.18438 37.3637 7.83367 35.6505 7.37225C32.5203 6.51562 19.9996 6.51562 19.9996 6.51562C19.9996 6.51562 7.47922 6.51562 4.34904 7.3396C2.66875 7.80071 1.28478 9.18468 0.823666 10.8979C0 14.0278 0 20.5189 0 20.5189C0 20.5189 0 27.0426 0.823666 30.1398C1.28509 31.853 2.63579 33.2041 4.34935 33.6655C7.51218 34.5221 19.9999 34.5221 19.9999 34.5221C19.9999 34.5221 32.5203 34.5221 35.6505 33.6981C37.364 33.237 38.7147 31.886 39.1762 30.1728C39.9998 27.0426 39.9998 20.5518 39.9998 20.5518C39.9998 20.5518 40.0328 14.0278 39.1759 10.8979Z" fill="#FF0000"/>
<path d="M16.0132 26.5158L26.4248 20.5191L16.0132 14.5225V26.5158Z" fill="white"/>
</g>
<defs>
<clipPath id="clip0_1591_4348">
<rect width="40" height="40" fill="white" transform="translate(0 0.5)"/>
</clipPath>
</defs>
</svg>
