<svg width="68" height="68" viewBox="0 0 68 68" fill="none" xmlns="http://www.w3.org/2000/svg">
<g clip-path="url(#clip0_1993_19311)">
<path d="M66.4186 0H1.5814C0.708017 0 0 0.708017 0 1.5814V66.4186C0 67.292 0.708017 68 1.5814 68H66.4186C67.292 68 68 67.292 68 66.4186V1.5814C68 0.708017 67.292 0 66.4186 0Z" fill="white"/>
<path d="M58.2091 12.6512H9.79088C7.8657 12.6512 6.32556 14.1761 6.32556 16.1776V51.9178C6.32556 53.8239 7.8657 55.3489 9.79088 55.3489H58.2091C60.1343 55.3489 61.6744 53.8239 61.6744 51.9178V16.1776C61.6744 14.2714 60.1343 12.6512 58.2091 12.6512ZM58.2091 41.5293L51.2784 35.239C50.2196 34.2859 48.5832 34.2859 47.6206 35.3343L40.5937 42.3871L26.8287 25.9942C25.9624 24.9458 24.326 24.7552 23.1709 25.613C22.9783 25.7083 22.8821 25.8989 22.7858 25.9942L9.79088 40.8621V16.1776H58.2091V41.5293Z" fill="#788F9D"/>
<path d="M48.1019 30.1879H48.1981C50.8934 30.1879 53.0111 27.9958 52.9148 25.3272C52.9148 22.6586 50.7009 20.4666 48.0056 20.4666C45.3104 20.4666 43.0964 22.6586 43.0964 25.3272C43.1927 27.9958 45.5029 30.1879 48.1019 30.1879Z" fill="#788F9D"/>
<path opacity="0.85" d="M61.6788 30.886L6.32999 24.5605V15.8628C6.32999 14.116 7.74602 12.7 9.49278 12.7H58.516C60.2628 12.7 61.6788 14.116 61.6788 15.8628V30.886Z" fill="black"/>
<path d="M56.721 17.4489H27.4652C26.8101 17.4489 26.2791 17.9799 26.2791 18.635C26.2791 19.29 26.8101 19.821 27.4652 19.821H56.721C57.376 19.821 57.907 19.29 57.907 18.635C57.907 17.9799 57.376 17.4489 56.721 17.4489Z" fill="white"/>
<path d="M57.1954 22.1931H16.7116C16.3186 22.1931 16 22.5117 16 22.9047V22.9047C16 23.2978 16.3186 23.6164 16.7116 23.6164H57.1954C57.5884 23.6164 57.907 23.2978 57.907 22.9047C57.907 22.5117 57.5884 22.1931 57.1954 22.1931Z" fill="white"/>
</g>
<defs>
<clipPath id="clip0_1993_19311">
<rect width="68" height="68" fill="white"/>
</clipPath>
</defs>
</svg>
