<svg width="68" height="68" viewBox="0 0 68 68" fill="none" xmlns="http://www.w3.org/2000/svg">
<g clip-path="url(#clip0_1993_19297)">
<path d="M66.4186 0H1.5814C0.708017 0 0 0.708017 0 1.5814V66.4186C0 67.292 0.708017 68 1.5814 68H66.4186C67.292 68 68 67.292 68 66.4186V1.5814C68 0.708017 67.292 0 66.4186 0Z" fill="white"/>
<path d="M58.2091 12.6512H9.79088C7.8657 12.6512 6.32556 14.1761 6.32556 16.1776V51.9178C6.32556 53.8239 7.8657 55.3489 9.79088 55.3489H58.2091C60.1343 55.3489 61.6744 53.8239 61.6744 51.9178V16.1776C61.6744 14.2714 60.1343 12.6512 58.2091 12.6512ZM58.2091 41.5293L51.2784 35.239C50.2196 34.2859 48.5832 34.2859 47.6206 35.3343L40.5937 42.3871L26.8287 25.9942C25.9624 24.9458 24.326 24.7552 23.1709 25.613C22.9783 25.7083 22.8821 25.8989 22.7858 25.9942L9.79088 40.8621V16.1776H58.2091V41.5293Z" fill="#788F9D"/>
<path d="M48.1019 30.1879H48.1981C50.8934 30.1879 53.0111 27.9958 52.9148 25.3272C52.9148 22.6586 50.7009 20.4666 48.0056 20.4666C45.3104 20.4666 43.0964 22.6586 43.0964 25.3272C43.1927 27.9958 45.5029 30.1879 48.1019 30.1879Z" fill="#788F9D"/>
<path opacity="0.85" d="M61.6744 37.1628L6.32561 43.4884V52.186C6.32561 53.9328 7.74164 55.3488 9.4884 55.3488H58.5116C60.2584 55.3488 61.6744 53.9328 61.6744 52.186V37.1628Z" fill="black"/>
<path d="M56.721 44.9117H27.4652C26.8101 44.9117 26.2791 45.4427 26.2791 46.0977C26.2791 46.7528 26.8101 47.2838 27.4652 47.2838H56.721C57.376 47.2838 57.907 46.7528 57.907 46.0977C57.907 45.4427 57.376 44.9117 56.721 44.9117Z" fill="white"/>
<path d="M57.1954 49.6559H16.7116C16.3186 49.6559 16 49.9745 16 50.3675V50.3675C16 50.7605 16.3186 51.0791 16.7116 51.0791H57.1954C57.5884 51.0791 57.907 50.7605 57.907 50.3675C57.907 49.9745 57.5884 49.6559 57.1954 49.6559Z" fill="white"/>
</g>
<defs>
<clipPath id="clip0_1993_19297">
<rect width="68" height="68" fill="white"/>
</clipPath>
</defs>
</svg>
