<?xml version="1.0" encoding="UTF-8"?>
<svg width="20px" height="18.1818182px" viewBox="0 0 20 18.1818182" version="1.1" xmlns="http://www.w3.org/2000/svg" xmlns:xlink="http://www.w3.org/1999/xlink">
    <title>Group</title>
    <g id="My-Account" stroke="none" stroke-width="1" fill="none" fill-rule="evenodd">
        <g id="Group">
            <path d="M10.9886038,16.8753938 L2.03924501,16.8753938 C1.65427336,16.8753938 1.3410271,16.5703958 1.3410271,16.1953576 L1.3410271,3.17631679 C1.3410271,2.80111303 1.65444332,2.49611508 2.03924501,2.49611508 L3.70932515,2.49611508 L3.70932515,2.74696844 C3.70932515,3.2884143 4.15990346,3.72753186 4.71586032,3.72753186 C5.27181719,3.72753186 5.72239549,3.28857988 5.72239549,2.74696844 L5.72239549,2.49611508 L8.99337985,2.49611508 L8.99337985,2.74696844 C8.99337985,3.2884143 9.44395815,3.72753186 9.99991502,3.72753186 L9.99991502,3.72753186 C10.5558719,3.72753186 11.0064502,3.28857988 11.0064502,2.74696844 L11.0064502,2.49611508 L14.2774345,2.49611508 L14.2774345,2.74696844 C14.2774345,3.2884143 14.7280128,3.72753186 15.2839697,3.72753186 L15.2839697,3.72753186 C15.8399266,3.72753186 16.2905049,3.28857988 16.2905049,2.74696844 L16.2905049,2.49611508 L17.9604151,2.49611508 C18.3455567,2.49611508 18.658633,2.80111303 18.658633,3.17631679 L18.658633,7.8325856 C19.1289273,7.9840911 19.5789957,8.18725748 20,8.43827641 L20,3.15611606 C20,2.07173413 19.0945943,1.18985625 17.9816607,1.18985625 L16.2905049,1.18985625 L16.2905049,0.980563418 C16.2905049,0.438951979 15.8399266,2.3530301e-16 15.2839697,2.3530301e-16 L15.2839697,2.3530301e-16 C14.7281828,2.3530301e-16 14.2774345,0.438951979 14.2774345,0.980563418 L14.2774345,1.18985625 L11.0064502,1.18985625 L11.0064502,0.980563418 C11.0064502,0.438951979 10.5558719,2.3530301e-16 9.99991502,2.3530301e-16 L9.99991502,2.3530301e-16 C9.44395815,2.3530301e-16 8.99337985,0.438951979 8.99337985,0.980563418 L8.99337985,1.18985625 L5.72239549,1.18985625 L5.72239549,0.980563418 C5.72239549,0.438951979 5.27181719,2.3530301e-16 4.71586032,2.3530301e-16 C4.15990346,2.3530301e-16 3.70932515,0.438951979 3.70932515,0.980563418 L3.70932515,1.18985625 L2.01833927,1.18985625 C0.905575715,1.18985625 0,2.07173413 0,3.15611606 L0,16.2153928 C0,17.2994436 0.905575715,18.1818182 2.01833927,18.1818182 L11.9846011,18.1818182 C11.7116367,17.9067902 11.4622974,17.6052694 11.2411724,17.279574 C11.1514307,17.1474413 11.0674678,17.0124938 10.9886038,16.8752282 L10.9886038,16.8753938 Z" id="Path" fill="#585858" fill-rule="nonzero"></path>
            <path d="M6.98472861,5.46313904 L9.20515675,5.46313904 C9.42594182,5.46313904 9.60525533,5.63782571 9.60525533,5.85291383 L9.60525533,7.77479826 C9.60525533,7.98988639 9.42594182,8.16457305 9.20515675,8.16457305 L6.98472861,8.16457305 C6.76394354,8.16457305 6.58463003,7.98988639 6.58463003,7.77479826 L6.58463003,5.85291383 C6.58463003,5.63782571 6.76394354,5.46313904 6.98472861,5.46313904 L6.98472861,5.46313904 Z" id="Path" fill="#585858" fill-rule="nonzero"></path>
            <path d="M6.98472861,9.09950268 L9.20515675,9.09950268 C9.42594182,9.09950268 9.60525533,9.27418934 9.60525533,9.48927747 L9.60525533,11.4111619 C9.60525533,11.62625 9.42594182,11.8009367 9.20515675,11.8009367 L6.98472861,11.8009367 C6.76394354,11.8009367 6.58463003,11.62625 6.58463003,11.4111619 L6.58463003,9.48927747 C6.58463003,9.27418934 6.76394354,9.09950268 6.98472861,9.09950268 L6.98472861,9.09950268 Z" id="Path" fill="#585858" fill-rule="nonzero"></path>
            <path d="M3.02300482,12.8773046 L5.24343296,12.8773046 C5.46421803,12.8773046 5.64353154,13.0519912 5.64353154,13.2670793 L5.64353154,15.1889638 C5.64353154,15.4040519 5.46421803,15.5787386 5.24343296,15.5787386 L3.02300482,15.5787386 C2.80221975,15.5787386 2.62290624,15.4040519 2.62290624,15.1889638 L2.62290624,13.2670793 C2.62290624,13.0519912 2.80221975,12.8773046 3.02300482,12.8773046 Z" id="Path" fill="#585858" fill-rule="nonzero"></path>
            <path d="M3.02300482,9.24094092 L5.24343296,9.24094092 C5.46421803,9.24094092 5.64353154,9.41562758 5.64353154,9.63071571 L5.64353154,11.5526001 C5.64353154,11.7676883 5.46421803,11.9423749 5.24343296,11.9423749 L3.02300482,11.9423749 C2.80221975,11.9423749 2.62290624,11.7676883 2.62290624,11.5526001 L2.62290624,9.63071571 C2.62290624,9.41562758 2.80221975,9.24094092 3.02300482,9.24094092 Z" id="Path" fill="#585858" fill-rule="nonzero"></path>
            <path d="M6.98472861,12.8773046 L9.20515675,12.8773046 C9.42594182,12.8773046 9.60525533,13.0519912 9.60525533,13.2670793 L9.60525533,15.1889638 C9.60525533,15.4040519 9.42594182,15.5787386 9.20515675,15.5787386 L6.98472861,15.5787386 C6.76394354,15.5787386 6.58463003,15.4040519 6.58463003,15.1889638 L6.58463003,13.2670793 C6.58463003,13.0519912 6.76394354,12.8773046 6.98472861,12.8773046 L6.98472861,12.8773046 Z" id="Path" fill="#585858" fill-rule="nonzero"></path>
            <path d="M17.5,12.0780145 L19.0909091,12.0780145 L19.0909091,12.0778296 M12.7375,17.2727273 L12.7375,15.1948052 M12.7272727,15.1948052 L14.3181818,15.1948052 M12.7272727,15.3702282 L13.919076,16.4515053 C14.2902038,16.7886273 14.7611941,17.0443902 15.30513,17.176535 C16.9540942,17.5771476 18.6490536,16.6898754 19.0909091,15.1948052 M12.7272727,12.0779221 C13.1691091,10.5828335 14.8640274,9.6955843 16.5129962,10.0961917 C17.0569038,10.2283347 17.5279007,10.4841076 17.8990107,10.8212269 L19.0909091,11.901882 M19.1011364,10 L19.1011364,12.0779221" id="Shape" stroke="#585858" stroke-width="1.2" stroke-linecap="round" stroke-linejoin="round"></path>
        </g>
    </g>
</svg>