<svg width="68" height="68" viewBox="0 0 68 68" fill="none" xmlns="http://www.w3.org/2000/svg">
<g clip-path="url(#clip0_1993_19388)">
<path d="M66.4186 0H1.5814C0.708017 0 0 0.708017 0 1.5814V66.4186C0 67.292 0.708017 68 1.5814 68H66.4186C67.292 68 68 67.292 68 66.4186V1.5814C68 0.708017 67.292 0 66.4186 0Z" fill="white"/>
<path d="M58.2091 12.6511H9.79088C7.8657 12.6511 6.32556 14.176 6.32556 16.1775V51.9177C6.32556 53.8239 7.8657 55.3488 9.79088 55.3488H58.2091C60.1343 55.3488 61.6744 53.8239 61.6744 51.9177V16.1775C61.6744 14.2713 60.1343 12.6511 58.2091 12.6511ZM58.2091 41.5292L51.2784 35.239C50.2196 34.2859 48.5832 34.2859 47.6206 35.3343L40.5937 42.387L26.8287 25.9941C25.9624 24.9458 24.326 24.7552 23.1709 25.6129C22.9783 25.7082 22.8821 25.8988 22.7858 25.9941L9.79088 40.8621V16.1775H58.2091V41.5292Z" fill="#788F9D"/>
<path d="M48.1019 30.1879H48.1981C50.8934 30.1879 53.0111 27.9958 52.9148 25.3272C52.9148 22.6586 50.7009 20.4666 48.0056 20.4666C45.3104 20.4666 43.0964 22.6586 43.0964 25.3272C43.1927 27.9958 45.5029 30.1879 48.1019 30.1879Z" fill="#788F9D"/>
<path opacity="0.75" d="M58.5116 12.6511H9.48835C7.74159 12.6511 6.32556 14.0672 6.32556 15.8139V52.186C6.32556 53.9328 7.74159 55.3488 9.48835 55.3488H58.5116C60.2583 55.3488 61.6744 53.9328 61.6744 52.186V15.8139C61.6744 14.0672 60.2583 12.6511 58.5116 12.6511Z" fill="black"/>
<path d="M48.4303 22.9302H19.5698C18.8056 22.9302 18.1861 23.5497 18.1861 24.3139C18.1861 25.0781 18.8056 25.6976 19.5698 25.6976H48.4303C49.1945 25.6976 49.814 25.0781 49.814 24.3139C49.814 23.5497 49.1945 22.9302 48.4303 22.9302Z" fill="white"/>
<path d="M54.6373 29.6511H13.3628C12.9698 29.6511 12.6512 29.9697 12.6512 30.3628V30.3628C12.6512 30.7558 12.9698 31.0744 13.3628 31.0744H54.6373C55.0303 31.0744 55.3489 30.7558 55.3489 30.3628C55.3489 29.9697 55.0303 29.6511 54.6373 29.6511Z" fill="white"/>
<path d="M54.6373 33.2883H13.3628C12.9698 33.2883 12.6512 33.6069 12.6512 34V34C12.6512 34.393 12.9698 34.7116 13.3628 34.7116H54.6373C55.0303 34.7116 55.3489 34.393 55.3489 34C55.3489 33.6069 55.0303 33.2883 54.6373 33.2883Z" fill="white"/>
<path d="M40.3256 39.5349H27.6744C27.2377 39.5349 26.8837 39.8889 26.8837 40.3256V43.4884C26.8837 43.9251 27.2377 44.2791 27.6744 44.2791H40.3256C40.7623 44.2791 41.1163 43.9251 41.1163 43.4884V40.3256C41.1163 39.8889 40.7623 39.5349 40.3256 39.5349Z" fill="white"/>
<path d="M37.5581 41.5116H30.4418C30.2235 41.5116 30.0465 41.6886 30.0465 41.9069C30.0465 42.1253 30.2235 42.3023 30.4418 42.3023H37.5581C37.7765 42.3023 37.9535 42.1253 37.9535 41.9069C37.9535 41.6886 37.7765 41.5116 37.5581 41.5116Z" fill="#788F9D"/>
</g>
<defs>
<clipPath id="clip0_1993_19388">
<rect width="68" height="68" fill="white"/>
</clipPath>
</defs>
</svg>
