<svg width="86" height="86" viewBox="0 0 86 86" fill="none" xmlns="http://www.w3.org/2000/svg">
<g clip-path="url(#clip0_1993_19398)">
<path d="M84 0H2C0.89543 0 0 0.89543 0 2V84C0 85.1046 0.89543 86 2 86H84C85.1046 86 86 85.1046 86 84V2C86 0.89543 85.1046 0 84 0Z" fill="white"/>
<path d="M73.6174 16H12.3826C9.94782 16 8 17.9286 8 20.4598V65.6607C8 68.0714 9.94782 70 12.3826 70H73.6174C76.0522 70 78 68.0714 78 65.6607V20.4598C78 18.0491 76.0522 16 73.6174 16ZM73.6174 52.5223L64.8522 44.567C63.513 43.3616 61.4435 43.3616 60.2261 44.6875L51.3391 53.6071L33.9304 32.875C32.8348 31.5491 30.7652 31.308 29.3043 32.3929C29.0609 32.5134 28.9391 32.7545 28.8174 32.875L12.3826 51.6786V20.4598H73.6174V52.5223Z" fill="#788F9D"/>
<path d="M60.8347 38.1788H60.9564C64.3651 38.1788 67.0434 35.4065 66.9217 32.0315C66.9217 28.6565 64.1217 25.8842 60.713 25.8842C57.3043 25.8842 54.5043 28.6565 54.5043 32.0315C54.626 35.4065 57.5477 38.1788 60.8347 38.1788Z" fill="#788F9D"/>
<path opacity="0.75" d="M74 16H12C9.79086 16 8 17.7909 8 20V66C8 68.2091 9.79086 70 12 70H74C76.2091 70 78 68.2091 78 66V20C78 17.7909 76.2091 16 74 16Z" fill="black"/>
<path d="M61.25 29H24.75C23.7835 29 23 29.7835 23 30.75C23 31.7165 23.7835 32.5 24.75 32.5H61.25C62.2165 32.5 63 31.7165 63 30.75C63 29.7835 62.2165 29 61.25 29Z" fill="white"/>
<path d="M69.1 37.5H16.9C16.4029 37.5 16 37.9029 16 38.4C16 38.8971 16.4029 39.3 16.9 39.3H69.1C69.5971 39.3 70 38.8971 70 38.4C70 37.9029 69.5971 37.5 69.1 37.5Z" fill="white"/>
<path d="M69.1 42.1H16.9C16.4029 42.1 16 42.503 16 43C16 43.4971 16.4029 43.9 16.9 43.9H69.1C69.5971 43.9 70 43.4971 70 43C70 42.503 69.5971 42.1 69.1 42.1Z" fill="white"/>
<path d="M51 50H35C34.4477 50 34 50.4477 34 51V55C34 55.5523 34.4477 56 35 56H51C51.5523 56 52 55.5523 52 55V51C52 50.4477 51.5523 50 51 50Z" fill="white"/>
<path d="M47.5 52.5H38.5C38.2239 52.5 38 52.7239 38 53C38 53.2761 38.2239 53.5 38.5 53.5H47.5C47.7761 53.5 48 53.2761 48 53C48 52.7239 47.7761 52.5 47.5 52.5Z" fill="#788F9D"/>
</g>
<defs>
<clipPath id="clip0_1993_19398">
<rect width="86" height="86" fill="white"/>
</clipPath>
</defs>
</svg>
