<svg width="68" height="68" viewBox="0 0 68 68" fill="none" xmlns="http://www.w3.org/2000/svg">
<g clip-path="url(#clip0_1993_19408)">
<path d="M66.4186 0H1.5814C0.708017 0 0 0.708017 0 1.5814V66.4186C0 67.292 0.708017 68 1.5814 68H66.4186C67.292 68 68 67.292 68 66.4186V1.5814C68 0.708017 67.292 0 66.4186 0Z" fill="white"/>
<path d="M58.2091 12.6511H9.79088C7.8657 12.6511 6.32556 14.176 6.32556 16.1775V51.9177C6.32556 53.8239 7.8657 55.3488 9.79088 55.3488H58.2091C60.1343 55.3488 61.6744 53.8239 61.6744 51.9177V16.1775C61.6744 14.2713 60.1343 12.6511 58.2091 12.6511ZM58.2091 41.5292L51.2784 35.239C50.2196 34.2859 48.5832 34.2859 47.6206 35.3343L40.5937 42.387L26.8287 25.9941C25.9624 24.9458 24.326 24.7552 23.1709 25.6129C22.9783 25.7082 22.8821 25.8988 22.7858 25.9941L9.79088 40.8621V16.1775H58.2091V41.5292Z" fill="#788F9D"/>
<path d="M48.1019 30.1879H48.1981C50.8934 30.1879 53.0111 27.9958 52.9148 25.3272C52.9148 22.6586 50.7009 20.4666 48.0056 20.4666C45.3104 20.4666 43.0964 22.6586 43.0964 25.3272C43.1927 27.9958 45.5029 30.1879 48.1019 30.1879Z" fill="#788F9D"/>
<path opacity="0.75" d="M6.32996 15.8128C6.32996 14.0661 7.74599 12.65 9.49275 12.65H38.33V55.35H9.49275C7.74599 55.35 6.32996 53.934 6.32996 52.1872V15.8128Z" fill="black"/>
<path d="M28.2674 22.9302H11.0348C10.2706 22.9302 9.65112 23.5497 9.65112 24.3139C9.65112 25.0781 10.2706 25.6976 11.0348 25.6976H28.2674C29.0316 25.6976 29.6511 25.0781 29.6511 24.3139C29.6511 23.5497 29.0316 22.9302 28.2674 22.9302Z" fill="white"/>
<path d="M33.9395 29.6511H10.3628C9.96973 29.6511 9.65112 29.9697 9.65112 30.3628V30.3628C9.65112 30.7558 9.96973 31.0744 10.3628 31.0744H33.9395C34.3325 31.0744 34.6511 30.7558 34.6511 30.3628C34.6511 29.9697 34.3325 29.6511 33.9395 29.6511Z" fill="white"/>
<path d="M31.9395 33.2883H10.3628C9.96973 33.2883 9.65112 33.6069 9.65112 34V34C9.65112 34.393 9.96973 34.7116 10.3628 34.7116H31.9395C32.3325 34.7116 32.6511 34.393 32.6511 34C32.6511 33.6069 32.3325 33.2883 31.9395 33.2883Z" fill="white"/>
<path d="M23.093 39.7115H10.4418C10.0051 39.7115 9.65112 40.0655 9.65112 40.5022V43.665C9.65112 44.1017 10.0051 44.4557 10.4418 44.4557H23.093C23.5297 44.4557 23.8837 44.1017 23.8837 43.665V40.5022C23.8837 40.0655 23.5297 39.7115 23.093 39.7115Z" fill="white"/>
<path d="M20.3256 41.6883H13.2093C12.991 41.6883 12.814 41.8653 12.814 42.0836C12.814 42.302 12.991 42.479 13.2093 42.479H20.3256C20.544 42.479 20.721 42.302 20.721 42.0836C20.721 41.8653 20.544 41.6883 20.3256 41.6883Z" fill="#788F9D"/>
</g>
<defs>
<clipPath id="clip0_1993_19408">
<rect width="68" height="68" fill="white"/>
</clipPath>
</defs>
</svg>
