<svg width="68" height="68" viewBox="0 0 68 68" fill="none" xmlns="http://www.w3.org/2000/svg">
<g clip-path="url(#clip0_1993_19418)">
<path d="M66.4186 0H1.5814C0.708017 0 0 0.708017 0 1.5814V66.4186C0 67.292 0.708017 68 1.5814 68H66.4186C67.292 68 68 67.292 68 66.4186V1.5814C68 0.708017 67.292 0 66.4186 0Z" fill="white"/>
<path d="M58.2091 12.6511H9.79088C7.8657 12.6511 6.32556 14.176 6.32556 16.1775V51.9177C6.32556 53.8239 7.8657 55.3488 9.79088 55.3488H58.2091C60.1343 55.3488 61.6744 53.8239 61.6744 51.9177V16.1775C61.6744 14.2713 60.1343 12.6511 58.2091 12.6511ZM58.2091 41.5292L51.2784 35.239C50.2196 34.2859 48.5832 34.2859 47.6206 35.3343L40.5937 42.387L26.8287 25.9941C25.9624 24.9458 24.326 24.7552 23.1709 25.6129C22.9783 25.7082 22.8821 25.8988 22.7858 25.9941L9.79088 40.8621V16.1775H58.2091V41.5292Z" fill="#788F9D"/>
<path d="M48.1019 30.1879H48.1981C50.8934 30.1879 53.0111 27.9958 52.9148 25.3272C52.9148 22.6586 50.7009 20.4666 48.0056 20.4666C45.3104 20.4666 43.0964 22.6586 43.0964 25.3272C43.1927 27.9958 45.5029 30.1879 48.1019 30.1879Z" fill="#788F9D"/>
<path opacity="0.75" d="M61.7 15.8627C61.7 14.116 60.2839 12.7 58.5372 12.7H29.7V55.4H58.5372C60.2839 55.4 61.7 53.9839 61.7 52.2372V15.8627Z" fill="black"/>
<path d="M56.8163 22.9302H39.5837C38.8195 22.9302 38.2 23.5497 38.2 24.3139C38.2 25.0781 38.8195 25.6976 39.5837 25.6976H56.8163C57.5805 25.6976 58.2 25.0781 58.2 24.3139C58.2 23.5497 57.5805 22.9302 56.8163 22.9302Z" fill="white"/>
<path d="M57.4884 29.6511H33.9116C33.5186 29.6511 33.2 29.9697 33.2 30.3628V30.3628C33.2 30.7558 33.5186 31.0744 33.9116 31.0744H57.4884C57.8814 31.0744 58.2 30.7558 58.2 30.3628C58.2 29.9697 57.8814 29.6511 57.4884 29.6511Z" fill="white"/>
<path d="M55.4884 33.2883H33.9116C33.5186 33.2883 33.2 33.6069 33.2 34V34C33.2 34.393 33.5186 34.7116 33.9116 34.7116H55.4884C55.8814 34.7116 56.2 34.393 56.2 34C56.2 33.6069 55.8814 33.2883 55.4884 33.2883Z" fill="white"/>
<path d="M57.4093 39.7115H44.7581C44.3214 39.7115 43.9674 40.0655 43.9674 40.5022V43.665C43.9674 44.1017 44.3214 44.4557 44.7581 44.4557H57.4093C57.846 44.4557 58.2 44.1017 58.2 43.665V40.5022C58.2 40.0655 57.846 39.7115 57.4093 39.7115Z" fill="white"/>
<path d="M54.6418 41.6883H47.5255C47.3072 41.6883 47.1302 41.8653 47.1302 42.0836C47.1302 42.302 47.3072 42.479 47.5255 42.479H54.6418C54.8602 42.479 55.0372 42.302 55.0372 42.0836C55.0372 41.8653 54.8602 41.6883 54.6418 41.6883Z" fill="#788F9D"/>
</g>
<defs>
<clipPath id="clip0_1993_19418">
<rect width="68" height="68" fill="white"/>
</clipPath>
</defs>
</svg>
