<svg width="68" height="68" viewBox="0 0 68 68" fill="none" xmlns="http://www.w3.org/2000/svg">
<g clip-path="url(#clip0_1993_19142)">
<path d="M66.4186 0H1.5814C0.708017 0 0 0.708017 0 1.5814V66.4186C0 67.292 0.708017 68 1.5814 68H66.4186C67.292 68 68 67.292 68 66.4186V1.5814C68 0.708017 67.292 0 66.4186 0Z" fill="white"/>
<path d="M58.2091 12.6512H9.79088C7.8657 12.6512 6.32556 14.1761 6.32556 16.1776V51.9178C6.32556 53.8239 7.8657 55.3489 9.79088 55.3489H58.2091C60.1343 55.3489 61.6744 53.8239 61.6744 51.9178V16.1776C61.6744 14.2714 60.1343 12.6512 58.2091 12.6512ZM58.2091 41.5293L51.2784 35.239C50.2196 34.2859 48.5832 34.2859 47.6206 35.3343L40.5937 42.3871L26.8287 25.9942C25.9624 24.9458 24.326 24.7552 23.1709 25.613C22.9783 25.7083 22.8821 25.8989 22.7858 25.9942L9.79088 40.8621V16.1776H58.2091V41.5293Z" fill="#788F9D"/>
<path d="M48.1019 30.1879H48.1981C50.8934 30.1879 53.0111 27.9958 52.9148 25.3272C52.9148 22.6586 50.7009 20.4666 48.0056 20.4666C45.3104 20.4666 43.0964 22.6586 43.0964 25.3272C43.1927 27.9958 45.5029 30.1879 48.1019 30.1879Z" fill="#788F9D"/>
<path opacity="0.85" d="M61.6744 27H6.32556V41.2326H61.6744V27Z" fill="black"/>
<path d="M49.0232 30.9535H19.7674C19.1124 30.9535 18.5814 31.4845 18.5814 32.1395C18.5814 32.7946 19.1124 33.3256 19.7674 33.3256H49.0232C49.6783 33.3256 50.2093 32.7946 50.2093 32.1395C50.2093 31.4845 49.6783 30.9535 49.0232 30.9535Z" fill="white"/>
<path d="M54.6373 35.6978H14.1535C13.7605 35.6978 13.4419 36.0164 13.4419 36.4094V36.4094C13.4419 36.8024 13.7605 37.121 14.1535 37.121H54.6373C55.0303 37.121 55.3489 36.8024 55.3489 36.4094C55.3489 36.0164 55.0303 35.6978 54.6373 35.6978Z" fill="white"/>
</g>
<defs>
<clipPath id="clip0_1993_19142">
<rect width="68" height="68" fill="white"/>
</clipPath>
</defs>
</svg>
