<svg width="68" height="68" viewBox="0 0 68 68" fill="none" xmlns="http://www.w3.org/2000/svg">
<g clip-path="url(#clip0_1993_19135)">
<path d="M66.4186 0H1.5814C0.708017 0 0 0.708017 0 1.5814V66.4186C0 67.292 0.708017 68 1.5814 68H66.4186C67.292 68 68 67.292 68 66.4186V1.5814C68 0.708017 67.292 0 66.4186 0Z" fill="white"/>
<path d="M58.2091 12.6512H9.79088C7.8657 12.6512 6.32556 14.1761 6.32556 16.1776V51.9178C6.32556 53.8239 7.8657 55.3489 9.79088 55.3489H58.2091C60.1343 55.3489 61.6744 53.8239 61.6744 51.9178V16.1776C61.6744 14.2714 60.1343 12.6512 58.2091 12.6512ZM58.2091 41.5293L51.2784 35.239C50.2196 34.2859 48.5832 34.2859 47.6206 35.3343L40.5937 42.3871L26.8287 25.9942C25.9624 24.9458 24.326 24.7552 23.1709 25.613C22.9783 25.7083 22.8821 25.8989 22.7858 25.9942L9.79088 40.8621V16.1776H58.2091V41.5293Z" fill="#788F9D"/>
<path d="M48.1019 30.1879H48.1981C50.8934 30.1879 53.0111 27.9958 52.9148 25.3272C52.9148 22.6586 50.7009 20.4666 48.0056 20.4666C45.3104 20.4666 43.0964 22.6586 43.0964 25.3272C43.1927 27.9958 45.5029 30.1879 48.1019 30.1879Z" fill="#788F9D"/>
<path opacity="0.85" d="M6.32556 41.1163H61.6744V52.186C61.6744 53.9328 60.2584 55.3488 58.5116 55.3488H9.48835C7.74159 55.3488 6.32556 53.9328 6.32556 52.186V41.1163Z" fill="black"/>
<path d="M49.0233 45.0698H19.7675C19.1124 45.0698 18.5814 45.6008 18.5814 46.2559C18.5814 46.9109 19.1124 47.4419 19.7675 47.4419H49.0233C49.6783 47.4419 50.2093 46.9109 50.2093 46.2559C50.2093 45.6008 49.6783 45.0698 49.0233 45.0698Z" fill="white"/>
<path d="M54.6372 49.814H14.1534C13.7604 49.814 13.4418 50.1326 13.4418 50.5256V50.5256C13.4418 50.9186 13.7604 51.2372 14.1534 51.2372H54.6372C55.0302 51.2372 55.3488 50.9186 55.3488 50.5256C55.3488 50.1326 55.0302 49.814 54.6372 49.814Z" fill="white"/>
</g>
<defs>
<clipPath id="clip0_1993_19135">
<rect width="68" height="68" fill="white"/>
</clipPath>
</defs>
</svg>
