<svg xmlns="http://www.w3.org/2000/svg" width="32" height="32" viewBox="0 0 32 32"><title>help-center</title><path opacity="0.12" d="M17.333 30.667h-2.667c-0.733 0-1.333-0.6-1.333-1.333v0c0-0.733 0.6-1.333 1.333-1.333h2.667c0.733 0 1.333 0.6 1.333 1.333v0c0 0.733-0.6 1.333-1.333 1.333z"></path><path opacity="0.12" d="M28 17.667v-4c0-0.733 0.6-1.333 1.333-1.333v0c1.107 0 2 0.893 2 2v2.667c0 1.107-0.893 2-2 2v0c-0.733 0-1.333-0.6-1.333-1.333z"></path><path opacity="0.12" d="M4 18v-4c0-0.733-0.6-1.333-1.333-1.333v0c-1.107 0-2 0.893-2 2v2.667c0 1.107 0.893 2 2 2v0c0.733 0 1.333-0.6 1.333-1.333z"></path><path opacity="0.12" d="M14.233 6.34c-0.32-0.62-0.567-1.293-0.72-2-2.62 0.727-4.773 2.56-5.927 4.967 0.14 0.013 0.273 0.027 0.413 0.027 2.52 0 4.767-1.167 6.233-2.993z"></path><path opacity="0.12" d="M16 4c-0.16 0-0.313 0.013-0.473 0.027-0.6 0.033-1.187 0.113-1.753 0.253-0.087 0.020-0.173 0.047-0.26 0.067 0.027 0.133 0.060 0.267 0.093 0.4 0.153 0.56 0.36 1.093 0.627 1.6 1.333 2.56 4.007 4.32 7.1 4.32 1.2 0 2.327-0.273 3.347-0.74-1.36-3.467-4.727-5.927-8.68-5.927z"></path><path d="M14 13.667c0 0.736-0.597 1.333-1.333 1.333s-1.333-0.597-1.333-1.333c0-0.736 0.597-1.333 1.333-1.333s1.333 0.597 1.333 1.333z"></path><path d="M20.667 13.667c0 0.736-0.597 1.333-1.333 1.333s-1.333-0.597-1.333-1.333c0-0.736 0.597-1.333 1.333-1.333s1.333 0.597 1.333 1.333z"></path><path d="M19.807 20.113l-0.94-0.94c-1.58 1.58-4.147 1.58-5.727 0l-0.94 0.94c1.047 1.047 2.427 1.573 3.807 1.573 1.373 0 2.747-0.52 3.8-1.573z"></path><path d="M29.333 11.667c-0.26 0-0.5 0.053-0.727 0.14-0.633-6.433-6.047-11.473-12.607-11.473-6.673 0-12.147 5.22-12.62 11.807-0.22-0.087-0.46-0.14-0.713-0.14-1.473 0-2.667 1.193-2.667 2.667v2.667c0 1.473 1.193 2.667 2.667 2.667 1.1 0 2-0.9 2-2v-4.933c0-6.287 5.087-11.4 11.333-11.4s11.333 5.113 11.333 11.4v6.933c0 4.6-3.6 8.36-8.133 8.64-0.28-0.76-1.007-1.307-1.867-1.307h-2.667c-1.1 0-2 0.9-2 2s0.9 2 2 2h2.667c0.88 0 1.62-0.573 1.887-1.36 5.253-0.293 9.447-4.647 9.447-9.973v-0.453c0.207 0.073 0.433 0.12 0.667 0.12 1.473 0 2.667-1.193 2.667-2.667v-2.667c0-1.473-1.193-2.667-2.667-2.667zM3.333 18c0 0.367-0.3 0.667-0.667 0.667-0.733 0-1.333-0.6-1.333-1.333v-2.667c0-0.733 0.6-1.333 1.333-1.333 0.367 0 0.667 0.3 0.667 0.667v4zM17.333 30h-2.667c-0.367 0-0.667-0.3-0.667-0.667s0.3-0.667 0.667-0.667h2.667c0.367 0 0.667 0.3 0.667 0.667s-0.3 0.667-0.667 0.667zM30.667 17c0 0.733-0.6 1.333-1.333 1.333-0.367 0-0.667-0.3-0.667-0.667v-4c0-0.367 0.3-0.667 0.667-0.667 0.733 0 1.333 0.6 1.333 1.333v2.667z"></path><path d="M17.333 26c4.78 0 8.667-3.887 8.667-8.667v-4c0-5.513-4.487-10-10-10s-10 4.487-10 10v4c0 4.78 3.887 8.667 8.667 8.667h2.667zM23.687 9.34c-0.967 0.433-1.98 0.66-3.020 0.66-2.747 0-5.24-1.52-6.507-3.967-0.18-0.34-0.313-0.693-0.433-1.053 0.72-0.2 1.487-0.313 2.273-0.313 3.34 0 6.24 1.9 7.687 4.673zM12.467 5.427c0.14 0.413 0.3 0.827 0.507 1.22 0.080 0.16 0.173 0.313 0.267 0.467-1.3 1.333-3.040 2.113-4.913 2.193 0.907-1.707 2.367-3.080 4.14-3.88zM7.333 17.333v-4c0-0.933 0.153-1.833 0.427-2.68 0.080 0.007 0.16 0.013 0.24 0.013 2.273 0 4.413-0.88 6.020-2.447 1.627 1.953 4.040 3.113 6.647 3.113 1.22 0 2.413-0.26 3.54-0.767 0.293 0.867 0.46 1.8 0.46 2.767v4c0 4.047-3.287 7.333-7.333 7.333h-2.667c-4.047 0-7.333-3.287-7.333-7.333z"></path></svg>