<svg width="40" height="40" viewBox="0 0 40 40" fill="none" xmlns="http://www.w3.org/2000/svg">
<path d="M15.625 25.25C15.0209 25.25 14.5312 25.7397 14.5312 26.3438V28.5312C14.5312 29.1353 15.0209 29.625 15.625 29.625C16.2291 29.625 16.7188 29.1353 16.7188 28.5312V26.3438C16.7188 25.7397 16.2291 25.25 15.625 25.25Z" fill="#58707F"/>
<path d="M20 23.0625C19.3959 23.0625 18.9062 23.5522 18.9062 24.1562V30.7188C18.9062 31.3228 19.3959 31.8125 20 31.8125C20.6041 31.8125 21.0938 31.3228 21.0938 30.7188V24.1562C21.0938 23.5522 20.6041 23.0625 20 23.0625Z" fill="#58707F"/>
<path d="M23.2812 26.3438V28.5312C23.2812 29.1353 23.7709 29.625 24.375 29.625C24.9791 29.625 25.4688 29.1353 25.4688 28.5312V26.3438C25.4688 25.7397 24.9791 25.25 24.375 25.25C23.7709 25.25 23.2812 25.7397 23.2812 26.3438Z" fill="#58707F"/>
<path d="M6 24.1562V30.7188C6 32.528 7.47197 34 9.28125 34C11.0905 34 12.5625 32.528 12.5625 30.7188V24.1562C12.5625 22.347 11.0905 20.875 9.28125 20.875C7.47197 20.875 6 22.347 6 24.1562ZM8.1875 24.1562C8.1875 23.5532 8.67816 23.0625 9.28125 23.0625C9.88434 23.0625 10.375 23.5532 10.375 24.1562V30.7188C10.375 31.3218 9.88434 31.8125 9.28125 31.8125C8.67816 31.8125 8.1875 31.3218 8.1875 30.7188V24.1562Z" fill="#58707F"/>
<path d="M30.7188 20.875C28.9095 20.875 27.4375 22.347 27.4375 24.1562V30.7188C27.4375 32.528 28.9095 34 30.7188 34C32.528 34 34 32.528 34 30.7188V24.1562C34 22.347 32.528 20.875 30.7188 20.875ZM31.8125 30.7188C31.8125 31.3218 31.3218 31.8125 30.7188 31.8125C30.1157 31.8125 29.625 31.3218 29.625 30.7188V24.1562C29.625 23.5532 30.1157 23.0625 30.7188 23.0625C31.3218 23.0625 31.8125 23.5532 31.8125 24.1562V30.7188Z" fill="#58707F"/>
<path d="M10.375 18.0312C10.375 12.5114 14.6028 8.1875 20 8.1875C25.3972 8.1875 29.625 12.5114 29.625 18.0312C29.625 18.6353 30.1147 19.125 30.7188 19.125C31.3228 19.125 31.8125 18.6353 31.8125 18.0312C31.8125 11.3618 26.6268 6 20 6C13.3848 6 8.1875 11.3514 8.1875 18.0312C8.1875 18.6353 8.67717 19.125 9.28125 19.125C9.88533 19.125 10.375 18.6353 10.375 18.0312Z" fill="#58707F"/>
</svg>
