<svg width="40" height="40" viewBox="0 0 40 40" fill="none" xmlns="http://www.w3.org/2000/svg">
<mask id="mask0_1993_21117" style="mask-type:luminance" maskUnits="userSpaceOnUse" x="6" y="6" width="28" height="28">
<path d="M34 6H6V34H34V6Z" fill="white"/>
</mask>
<g mask="url(#mask0_1993_21117)">
<path d="M9.556 12.356C9.556 10.816 10.788 9.55603 12.356 9.55603H29.044C30.584 9.55603 31.844 10.788 31.844 12.356V23.5C31.844 24.004 31.424 24.424 30.92 24.424C30.416 24.424 29.996 24.004 29.996 23.5V12.356C29.996 11.852 29.576 11.432 29.072 11.432H12.356C11.852 11.432 11.432 11.852 11.432 12.356V29.044C11.432 29.548 11.852 29.968 12.356 29.968H23.5C24.004 29.968 24.424 30.388 24.424 30.892C24.424 31.396 24.004 31.816 23.5 31.816H12.356C10.816 31.816 9.556 30.584 9.556 29.016V12.356Z" fill="#58707F"/>
<path d="M28.26 8.8V9.584H26.412V8.8C26.412 8.296 25.992 7.876 25.488 7.876H8.8C8.296 7.876 7.876 8.296 7.876 8.8V25.488C7.876 25.992 8.296 26.412 8.8 26.412H9.584V28.26H8.8C7.26 28.26 6 27.028 6 25.46V8.8C6 7.232 7.232 6 8.8 6H25.488C27.028 6 28.26 7.232 28.26 8.8Z" fill="#58707F"/>
<path d="M14.12 14.932C14.12 14.428 14.54 14.008 15.044 14.008H26.132C26.636 14.008 27.056 14.428 27.056 14.932C27.056 15.436 26.636 15.856 26.132 15.856H15.016C14.512 15.828 14.12 15.436 14.12 14.932Z" fill="#58707F"/>
<path d="M14.12 18.74C14.12 18.236 14.54 17.816 15.044 17.816H26.132C26.636 17.816 27.056 18.236 27.056 18.74C27.056 19.244 26.636 19.664 26.132 19.664H15.016C14.512 19.664 14.12 19.244 14.12 18.74Z" fill="#58707F"/>
<path d="M15.016 21.596C14.512 21.596 14.092 22.016 14.092 22.52C14.092 23.024 14.512 23.444 15.016 23.444H20.056C20.56 23.444 20.98 23.024 20.98 22.52C20.98 22.016 20.56 21.596 20.056 21.596H15.016Z" fill="#58707F"/>
<path d="M15.016 25.404C14.512 25.404 14.092 25.824 14.092 26.328C14.092 26.832 14.512 27.252 15.016 27.252H17.816C18.32 27.252 18.74 26.832 18.74 26.328C18.74 25.824 18.32 25.404 17.816 25.404H15.016Z" fill="#58707F"/>
<path d="M31.34 28.372L26.692 23.668C26.636 23.612 26.58 23.584 26.496 23.556L23.584 22.632C23.416 22.576 23.22 22.632 23.08 22.772C22.996 22.856 22.94 22.996 22.94 23.108C22.94 23.164 22.94 23.22 22.968 23.276L23.864 26.188C23.892 26.272 23.92 26.328 23.976 26.384L28.624 31.06L31.34 28.372Z" fill="#58707F"/>
<path d="M29.128 31.592L31.872 28.876L33.048 30.08C33.636 30.668 33.524 31.788 32.768 32.516C32.012 33.272 30.92 33.384 30.332 32.796L29.128 31.592Z" fill="#58707F"/>
</g>
</svg>
