<svg width="40" height="40" viewBox="0 0 40 40" fill="none" xmlns="http://www.w3.org/2000/svg">
<path fill-rule="evenodd" clip-rule="evenodd" d="M23.3348 7.70846C23.3348 6.76491 24.0997 6 25.0433 6H32.2915C33.2351 6 34 6.76491 34 7.70846V14.9568C34 15.9004 33.2351 16.6653 32.2915 16.6653C31.3481 16.6653 30.5832 15.9004 30.5832 14.9568V11.8327L21.4188 20.9971C20.7517 21.6644 19.6699 21.6644 19.0027 20.9971C18.3355 20.3299 18.3355 19.2481 19.0027 18.5811L28.1666 9.41692H25.0433C24.0997 9.41692 23.3348 8.65201 23.3348 7.70846ZM11.1253 7.51889C8.29468 7.51889 6 9.8136 6 12.6443V28.8747C6 31.7053 8.29468 34 11.1253 34H27.3554C30.1861 34 32.4808 31.7053 32.4808 28.8747V22.0407C32.4808 21.0973 31.7159 20.3324 30.7723 20.3324C29.8288 20.3324 29.0639 21.0973 29.0639 22.0407V28.8747C29.0639 29.8181 28.299 30.583 27.3554 30.583H11.1253C10.1818 30.583 9.41687 29.8181 9.41687 28.8747V12.6443C9.41687 11.7007 10.1818 10.9358 11.1253 10.9358H17.959C18.9026 10.9358 19.6675 10.1709 19.6675 9.22735C19.6675 8.28379 18.9026 7.51889 17.959 7.51889H11.1253Z" fill="#58707F"/>
</svg>
