<svg width="40" height="40" viewBox="0 0 40 40" fill="none" xmlns="http://www.w3.org/2000/svg">
<mask id="mask0_1993_21132" style="mask-type:luminance" maskUnits="userSpaceOnUse" x="2" y="5" width="36" height="30">
<path d="M37.1111 5.9939H2.88889V34.0061H37.1111V5.9939Z" fill="white"/>
</mask>
<g mask="url(#mask0_1993_21132)">
<path d="M34.2878 5.9939H5.71222C4.17222 5.9939 2.88889 7.27494 2.88889 8.8122V31.1878C2.88889 32.725 4.17222 34.0061 5.71222 34.0061H34.2878C35.8278 34.0061 37.1111 32.725 37.1111 31.1878V8.8122C37.1111 7.27494 35.8278 5.9939 34.2878 5.9939ZM34.5444 31.1878C34.5444 31.3586 34.4589 31.444 34.2878 31.444H5.71222C5.54111 31.444 5.45555 31.3586 5.45555 31.1878V8.8122C5.45555 8.64139 5.54111 8.55599 5.71222 8.55599H34.2878C34.4589 8.55599 34.5444 8.64139 34.5444 8.8122V31.1878Z" fill="#58707F"/>
<path d="M15.8078 22.4767L12.8989 19.573L7.59445 24.7826V28.9673H32.4056V21.2811L24.7056 13.5948L15.8078 22.4767Z" fill="#58707F"/>
<path d="M11.0167 17.8649C12.9067 17.8649 14.4389 16.3354 14.4389 14.4488C14.4389 12.5621 12.9067 11.0327 11.0167 11.0327C9.12663 11.0327 7.59445 12.5621 7.59445 14.4488C7.59445 16.3354 9.12663 17.8649 11.0167 17.8649Z" fill="#58707F"/>
</g>
</svg>
