<svg width="40" height="40" viewBox="0 0 40 40" fill="none" xmlns="http://www.w3.org/2000/svg">
<path d="M4.88013 33.9932C3.60709 33.9932 2.57233 32.9584 2.57233 31.6854V23.9518C2.57233 22.6788 3.60709 21.644 4.88013 21.644H13.5259C14.7989 21.644 15.8337 22.6788 15.8337 23.9518V31.6854C15.8337 32.9584 14.7989 33.9932 13.5259 33.9932H4.88013ZM4.88013 23.523C4.64186 23.523 4.45125 23.7136 4.45125 23.9518V31.6854C4.45125 31.9236 4.64186 32.1143 4.88013 32.1143H13.5259C13.7642 32.1143 13.9548 31.9236 13.9548 31.6854V23.9518C13.9548 23.7136 13.7642 23.523 13.5259 23.523H4.88013Z" fill="#58707F"/>
<path d="M35.1199 21.6509H26.4741C25.2011 21.6509 24.1663 22.6856 24.1663 23.9587V31.6922C24.1663 32.9652 25.2011 34 26.4741 34H35.1199C36.3929 34 37.4277 32.9652 37.4277 31.6922V23.9519C37.4277 22.6856 36.3929 21.6509 35.1199 21.6509ZM35.5487 31.6854C35.5487 31.9237 35.3581 32.1143 35.1199 32.1143H26.4741C26.2358 32.1143 26.0452 31.9237 26.0452 31.6854V23.9519C26.0452 23.7136 26.2358 23.523 26.4741 23.523H35.1199C35.3581 23.523 35.5487 23.7136 35.5487 23.9519V31.6854Z" fill="#58707F"/>
<path d="M33.6085 27.8118C33.6085 27.3897 33.3907 27.0085 33.0231 26.7975L29.8983 24.9934C29.5307 24.7824 29.095 24.7824 28.7274 24.9934C28.3598 25.2045 28.142 25.5857 28.142 26.0078V29.6158C28.142 30.0379 28.3598 30.4191 28.7274 30.6302C29.0882 30.8412 29.5375 30.8412 29.8983 30.6302L33.0231 28.8261C33.3907 28.6083 33.6085 28.2339 33.6085 27.8118ZM29.4831 29.3163V26.2937L32.0972 27.805L29.4831 29.3163Z" fill="#58707F"/>
<path d="M15.6158 18.3423C14.3428 18.3423 13.308 17.3076 13.308 16.0345V8.3078C13.308 7.03477 14.3428 6 15.6158 6H24.2616C25.5346 6 26.5694 7.03477 26.5694 8.3078V16.0413C26.5694 17.3144 25.5346 18.3491 24.2616 18.3491H15.6158V18.3423ZM15.187 16.0413C15.187 16.2796 15.3776 16.4702 15.6158 16.4702H24.2616C24.4999 16.4702 24.6905 16.2796 24.6905 16.0413V15.1563L23.1179 13.5838L21.6951 15.0066C21.5181 15.1836 21.2866 15.2789 21.0348 15.2789C20.7829 15.2789 20.5446 15.1836 20.3744 15.0066L17.4812 12.1133L15.1938 14.4007V16.0413H15.187ZM17.4743 10.2208C17.7262 10.2208 17.9577 10.3161 18.1347 10.4931L21.028 13.3863L22.4508 11.9635C22.6278 11.7865 22.8592 11.6912 23.1111 11.6912C23.363 11.6912 23.6013 11.7865 23.7715 11.9635L24.6837 12.8758V8.3078C24.6837 8.06954 24.4931 7.87892 24.2548 7.87892H15.609C15.3708 7.87892 15.1802 8.06954 15.1802 8.3078V12.1201L16.8004 10.4999C16.991 10.3161 17.2225 10.2208 17.4743 10.2208Z" fill="#58707F"/>
<path d="M20.2042 10.3705C20.3608 10.7449 20.742 10.9764 21.1437 10.9492C21.5385 10.9219 21.8789 10.6428 21.981 10.2616C22.2125 9.41745 21.2186 8.73668 20.5174 9.25406C20.1702 9.50595 20.0409 9.97568 20.2042 10.3705Z" fill="#58707F"/>
<path d="M6.60928 27.1106C6.16678 27.1106 5.80597 26.7498 5.80597 26.3073C5.80597 25.8648 6.16678 25.504 6.60928 25.504H11.6946C12.1371 25.504 12.4979 25.8648 12.4979 26.3073C12.4979 26.7498 12.1371 27.1106 11.6946 27.1106H6.60928Z" fill="#58707F"/>
<path d="M6.60928 30.0719C6.16678 30.0719 5.80597 29.7111 5.80597 29.2686C5.80597 28.8261 6.16678 28.4653 6.60928 28.4653H8.59712C9.03962 28.4653 9.40043 28.8261 9.40043 29.2686C9.40043 29.7111 9.04643 30.0719 8.60393 30.0719H6.60928Z" fill="#58707F"/>
<path d="M20 30.4532C19.0946 30.4532 18.1891 30.3375 17.3178 30.106C16.9229 30.0039 16.6914 29.5954 16.7936 29.2074C16.8957 28.8126 17.3041 28.5811 17.6922 28.6832C19.1899 29.0781 20.8101 29.0781 22.301 28.6832C22.6958 28.5811 23.0975 28.8126 23.1996 29.2074C23.3017 29.6022 23.0702 30.0039 22.6754 30.106C21.8108 30.3375 20.9122 30.4532 20 30.4532Z" fill="#58707F"/>
<path d="M29.7214 20.7114C29.3129 20.7114 28.9861 20.3846 28.9861 19.9762C28.9793 18.2947 28.5096 16.6608 27.6246 15.2448C27.4068 14.8976 27.5157 14.4415 27.8561 14.2305C28.2033 14.0126 28.6594 14.1216 28.8704 14.4619C29.9052 16.1094 30.4498 18.0155 30.4566 19.9762C30.4566 20.3778 30.1298 20.7114 29.7214 20.7114Z" fill="#58707F"/>
<path d="M10.2786 20.7114C9.87016 20.7114 9.5434 20.3778 9.5434 19.9693C9.5502 18.0972 10.054 16.266 11.0002 14.6594C11.2113 14.3122 11.6606 14.1964 12.0078 14.4007C12.355 14.6117 12.4707 15.061 12.2665 15.4082C11.4495 16.7833 11.0139 18.3627 11.0139 19.9693C11.0139 20.3846 10.6871 20.7114 10.2786 20.7114Z" fill="#58707F"/>
</svg>
