<svg width="40" height="40" viewBox="0 0 40 40" fill="none" xmlns="http://www.w3.org/2000/svg">
<path d="M20.708 8.95743L23.6654 6L34.0002 16.3185L31.0265 19.2759C30.175 18.7259 29.1608 18.484 28.1527 18.5904C27.1446 18.6968 26.2033 19.1452 25.4854 19.8609L24.2666 21.0796C22.7717 22.5908 22.5767 24.8983 23.6979 26.6207L20.7242 29.5782L16.8081 25.662L12.2582 30.1957C11.5757 30.8781 6.76583 34.5993 6.08335 33.9168C5.40087 33.2343 9.10577 28.4082 9.78826 27.7257L14.3219 23.1921L10.4057 19.2597L13.3794 16.3022C15.0856 17.4235 17.4093 17.2285 18.9043 15.7173L20.123 14.4985C21.6342 13.0036 21.8292 10.6799 20.708 8.95743Z" fill="#58707F"/>
</svg>
