<svg width="40" height="40" viewBox="0 0 40 40" fill="none" xmlns="http://www.w3.org/2000/svg">
<path d="M25.1491 17.1274C25.1491 16.5854 25.0406 16.0434 24.8238 15.6098C24.607 14.9593 24.2818 14.6341 23.8482 14.5257C23.3062 14.4173 22.6558 14.7425 22.1138 15.6098C21.6802 16.2602 21.355 16.9106 21.2466 17.6694C21.1382 18.103 21.1382 18.5366 21.1382 18.8618C21.1382 19.4038 21.2466 19.9458 21.4634 20.3794C21.6802 21.0298 22.0054 21.355 22.439 21.4634C22.6558 21.4634 22.981 21.4634 23.1978 21.355C23.4146 21.2466 23.6314 21.1382 23.8482 20.9214C24.4986 20.271 24.9322 19.2954 25.0407 18.3198C25.1491 17.9946 25.1491 17.561 25.1491 17.1274ZM25.1491 17.1274C25.1491 16.5854 25.0406 16.0434 24.8238 15.6098C24.607 14.9593 24.2818 14.6341 23.8482 14.5257C23.3062 14.4173 22.6558 14.7425 22.1138 15.6098C21.6802 16.2602 21.355 16.9106 21.2466 17.6694C21.1382 18.103 21.1382 18.5366 21.1382 18.8618C21.1382 19.4038 21.2466 19.9458 21.4634 20.3794C21.6802 21.0298 22.0054 21.355 22.439 21.4634C22.6558 21.4634 22.981 21.4634 23.1978 21.355C23.4146 21.2466 23.6314 21.1382 23.8482 20.9214C24.4986 20.271 24.9322 19.2954 25.0407 18.3198C25.1491 17.9946 25.1491 17.561 25.1491 17.1274ZM36.4228 7.47968H3.68564C3.19778 7.48381 2.71676 7.59482 2.27642 7.80488C1.84282 8.02168 1.40921 8.23847 1.08401 8.67208C0.758808 8.99728 0.433604 9.43089 0.325203 9.8645C0.108401 10.4065 0 10.8401 0 11.3821V24.3902C0 24.9322 0.108401 25.3659 0.325203 25.9079C0.542005 26.3415 0.758808 26.7751 1.08401 27.2087C1.43458 27.5573 1.83677 27.8498 2.27642 28.0759C2.71676 28.2859 3.19778 28.3969 3.68564 28.4011H19.187L26.2331 32.5203L24.607 28.4011H36.3144C37.29 28.4011 38.2656 27.9675 38.916 27.2087C39.5664 26.4499 40 25.4743 40 24.4986V11.4905C40 10.4065 39.5664 9.43089 38.916 8.78049C38.2656 7.91328 37.3984 7.47968 36.4228 7.47968ZM16.5854 24.4986C16.5854 24.9322 16.5854 25.2575 16.3686 25.5827C16.2875 25.7458 16.1773 25.8927 16.0434 26.0163C15.9238 26.1304 15.7728 26.2059 15.6098 26.2331C15.393 26.2331 15.0678 26.2331 14.8509 26.1247C14.6341 26.0163 14.4173 25.9079 14.3089 25.6911C12.5745 23.6314 11.2737 21.1382 10.7317 18.4282L8.34688 23.3062C7.37127 25.2575 6.61247 26.2331 5.85366 26.2331C5.42005 26.2331 4.98645 25.9079 4.66125 25.0406C3.79404 22.7642 2.92683 18.5366 1.95122 12.1409V11.4905C1.95122 11.2737 2.05962 11.1653 2.16802 10.9485C2.49322 10.8401 2.60163 10.7317 2.81843 10.6233C3.03523 10.5149 3.14363 10.5149 3.36043 10.5149H3.90244C4.11924 10.6233 4.22764 10.6233 4.33604 10.7317C4.46994 10.8552 4.58015 11.0022 4.66125 11.1653C4.76965 11.3821 4.76965 11.4905 4.76965 11.7073C5.31165 15.2846 5.85366 18.3198 6.39566 20.7046L9.9729 13.6585C10.0813 13.4417 10.1897 13.1165 10.4065 13.0081C10.6233 12.7913 10.8401 12.6829 11.1653 12.6829C11.9241 12.6829 12.3577 13.1165 12.4661 14.0921C12.7913 16.0434 13.3333 17.9946 13.9837 19.9458C14.4173 15.6098 15.1762 12.4661 16.1518 10.5149C16.2602 10.2981 16.3686 10.0813 16.5854 9.9729C16.8022 9.8645 17.019 9.75609 17.2358 9.75609C17.561 9.75609 17.9946 9.8645 18.2114 10.0813C18.3453 10.2048 18.4555 10.3518 18.5366 10.5149C18.6242 10.6813 18.6619 10.8696 18.645 11.0569C18.645 11.3821 18.645 11.5989 18.4282 11.9241C17.561 13.8753 17.019 15.935 16.8022 17.9946C16.6938 20.1626 16.5854 22.3306 16.5854 24.4986ZM26.6667 21.897C26.3415 22.6558 25.7995 23.3062 25.1491 23.7398C24.4986 24.1734 23.7398 24.3902 22.8726 24.4986C22.5474 24.4986 22.3306 24.4986 22.0054 24.3902C21.4634 24.2818 20.9214 24.065 20.4878 23.7398C20.0542 23.4146 19.6206 22.981 19.4038 22.439C18.8618 21.355 18.5366 20.271 18.5366 19.0786C18.5366 17.3442 18.9702 15.7182 19.8374 14.3089C20.1626 13.5501 20.7046 12.8997 21.355 12.4661C22.0054 11.8157 22.7642 11.5989 23.6314 11.5989C23.9566 11.5989 24.1734 11.5989 24.4986 11.7073C25.0407 11.8157 25.5827 12.0325 26.0163 12.3577C26.4499 12.6829 26.8835 13.1165 27.1003 13.6585C27.6423 14.6341 27.9675 15.8266 27.9675 17.019C27.9675 18.7534 27.5339 20.3794 26.6667 21.897ZM36.8564 21.897C36.5312 22.6558 35.9892 23.3062 35.3388 23.7398C34.6883 24.1734 33.9295 24.3902 33.0623 24.4986C32.4119 24.4986 31.6531 24.2818 31.1111 23.9566C30.5691 23.6314 30.0271 23.0894 29.5935 22.439C29.0515 21.355 28.7263 20.271 28.7263 19.0786C28.7263 17.3442 29.1599 15.7182 30.0271 14.3089C31.0027 12.5745 32.3035 11.7073 33.8211 11.7073C34.1463 11.7073 34.3631 11.7073 34.6883 11.8157C35.2304 11.9241 35.7724 12.1409 36.206 12.4661C36.6396 12.7913 37.0732 13.2249 37.29 13.7669C37.832 14.7425 38.1572 15.935 38.1572 17.1274C38.1572 18.7534 37.7236 20.3794 36.8564 21.897ZM34.1463 14.5257C33.6043 14.4173 32.9539 14.7425 32.4119 15.6098C31.9783 16.2602 31.7615 16.9106 31.5447 17.6694C31.4363 18.103 31.4363 18.5366 31.4363 18.8618C31.4363 19.4038 31.5447 19.9458 31.7615 20.3794C31.9783 21.0298 32.3035 21.355 32.7371 21.4634C32.9539 21.4634 33.2791 21.4634 33.4959 21.355C33.7127 21.2466 33.9295 21.1382 34.1463 20.9214C34.7967 20.271 35.2304 19.2954 35.3388 18.3198C35.4472 17.8862 35.4472 17.4526 35.4472 17.019C35.4472 16.477 35.3388 15.935 35.122 15.5014C34.7967 14.9593 34.4715 14.6341 34.1463 14.5257ZM24.8238 15.6098C24.607 14.9593 24.2818 14.6341 23.8482 14.5257C23.3062 14.4173 22.6558 14.7425 22.1138 15.6098C21.6802 16.2602 21.355 16.9106 21.2466 17.6694C21.1382 18.103 21.1382 18.5366 21.1382 18.8618C21.1382 19.4038 21.2466 19.9458 21.4634 20.3794C21.6802 21.0298 22.0054 21.355 22.439 21.4634C22.6558 21.4634 22.981 21.4634 23.1978 21.355C23.4146 21.2466 23.6314 21.1382 23.8482 20.9214C24.4986 20.271 24.9322 19.2954 25.0407 18.3198C25.1491 17.8862 25.1491 17.4526 25.1491 17.019C25.1449 16.5311 25.0339 16.0501 24.8238 15.6098Z" fill="#58707F"/>
</svg>
