<svg xmlns="http://www.w3.org/2000/svg" xmlns:xlink="http://www.w3.org/1999/xlink" id="Layer_1" x="0px" y="0px" viewBox="0 0 24 24" style="enable-background:new 0 0 24 24;" xml:space="preserve"><style type="text/css">	.st0{fill:url(#SVGID_1_);}	.st1{fill:url(#SVGID_2_);}	.st2{fill:url(#SVGID_3_);}	.st3{fill:url(#SVGID_4_);}</style><g>	<linearGradient id="SVGID_1_" gradientUnits="userSpaceOnUse" x1="15.3" y1="7.4" x2="24" y2="7.4">		<stop offset="0" style="stop-color:#2A87C8"></stop>		<stop offset="0.9997" style="stop-color:#41C5F2"></stop>	</linearGradient>	<path class="st0" d="M20.1,1.7c0,0.5-0.1,1-0.1,1.4h2.5c-0.3,3.2-2.2,6-5,7.5c-0.6,1.1-1.4,1.8-2.2,2.5c5-1.3,8.7-5.7,8.7-10.8V1.7  H20.1z"></path>	<linearGradient id="SVGID_2_" gradientUnits="userSpaceOnUse" x1="0" y1="7.6" x2="8.7" y2="7.6">		<stop offset="0" style="stop-color:#2A87C8"></stop>		<stop offset="1" style="stop-color:#3EBAEB"></stop>	</linearGradient>	<path class="st1" d="M6.5,10.7C3.7,9,1.8,6.3,1.5,3.2H4c0-0.5-0.1-1-0.1-1.4H0v0.8C0,7.7,3.7,12,8.7,13.4  C7.8,12.6,7.1,11.7,6.5,10.7z"></path>	<linearGradient id="SVGID_3_" gradientUnits="userSpaceOnUse" x1="4.9" y1="9.85" x2="19" y2="9.85">		<stop offset="0" style="stop-color:#2A87C8"></stop>		<stop offset="0.9997" style="stop-color:#41C5F2"></stop>	</linearGradient>	<path class="st2" d="M10.7,13.2v3.7L10.5,17c-1.3,0.5-2.3,1.4-2.7,2.7h8.4c-0.4-1.2-1.4-2.2-2.8-2.7l-0.2-0.1v-3.7  C16.6,12.1,19,7,19,0.5V0H4.9v0.5C4.9,6.9,7.4,12.1,10.7,13.2z"></path>	<linearGradient id="SVGID_4_" gradientUnits="userSpaceOnUse" x1="5.8" y1="22.3" x2="18.3" y2="22.3">		<stop offset="0" style="stop-color:#2A87C8"></stop>		<stop offset="0.9997" style="stop-color:#41C5F2"></stop>	</linearGradient>	<rect x="5.8" y="20.6" class="st3" width="12.5" height="3.4"></rect></g></svg>