<svg width="68" height="68" viewBox="0 0 68 68" fill="none" xmlns="http://www.w3.org/2000/svg">
<g clip-path="url(#clip0_1993_19235)">
<path d="M66.4186 0H1.5814C0.708017 0 0 0.708017 0 1.5814V66.4186C0 67.292 0.708017 68 1.5814 68H66.4186C67.292 68 68 67.292 68 66.4186V1.5814C68 0.708017 67.292 0 66.4186 0Z" fill="white"/>
<path d="M47.2452 17H8.75478C7.22435 17 6 18.2122 6 19.8033V48.2153C6 49.7306 7.22435 50.9429 8.75478 50.9429H47.2452C48.7757 50.9429 50 49.7306 50 48.2153V19.8033C50 18.288 48.7757 17 47.2452 17ZM47.2452 39.9569L41.7357 34.9564C40.8939 34.1987 39.593 34.1987 38.8278 35.0321L33.2417 40.6388L22.2991 27.6071C21.6104 26.7737 20.3096 26.6222 19.3913 27.3041C19.2383 27.3798 19.1617 27.5314 19.0852 27.6071L8.75478 39.4265V19.8033H47.2452V39.9569Z" fill="#788F9D"/>
<path d="M39.2105 30.941H39.287C41.4296 30.941 43.1131 29.1983 43.0365 27.0769C43.0365 24.9555 41.2765 23.2129 39.1339 23.2129C36.9913 23.2129 35.2313 24.9555 35.2313 27.0769C35.3078 29.1983 37.1444 30.941 39.2105 30.941Z" fill="#788F9D"/>
<path opacity="0.85" d="M60.7429 25H37.2571C36.5628 25 36 25.5628 36 26.2571V41.7429C36 42.4372 36.5628 43 37.2571 43H60.7429C61.4372 43 62 42.4372 62 41.7429V26.2571C62 25.5628 61.4372 25 60.7429 25Z" fill="black"/>
<path d="M56.0417 29.5H41.9274C41.4067 29.5 40.9846 29.9221 40.9846 30.4429C40.9846 30.9636 41.4067 31.3857 41.9274 31.3857H56.0417C56.5625 31.3857 56.9846 30.9636 56.9846 30.4429C56.9846 29.9221 56.5625 29.5 56.0417 29.5Z" fill="white"/>
<path d="M59.4189 34.5286H38.5503C38.2379 34.5286 37.9846 34.7818 37.9846 35.0943C37.9846 35.4067 38.2379 35.66 38.5503 35.66H59.4189C59.7313 35.66 59.9846 35.4067 59.9846 35.0943C59.9846 34.7818 59.7313 34.5286 59.4189 34.5286Z" fill="white"/>
<path d="M59.4189 37.5457H38.5503C38.2379 37.5457 37.9846 37.7989 37.9846 38.1114C37.9846 38.4238 38.2379 38.6771 38.5503 38.6771H59.4189C59.7313 38.6771 59.9846 38.4238 59.9846 38.1114C59.9846 37.7989 59.7313 37.5457 59.4189 37.5457Z" fill="white"/>
</g>
<defs>
<clipPath id="clip0_1993_19235">
<rect width="68" height="68" fill="white"/>
</clipPath>
</defs>
</svg>
