<svg width="68" height="68" viewBox="0 0 68 68" fill="none" xmlns="http://www.w3.org/2000/svg">
<g clip-path="url(#clip0_1993_19243)">
<path d="M66.4186 0H1.5814C0.708017 0 0 0.708017 0 1.5814V66.4186C0 67.292 0.708017 68 1.5814 68H66.4186C67.292 68 68 67.292 68 66.4186V1.5814C68 0.708017 67.292 0 66.4186 0Z" fill="white"/>
<path d="M53.2453 21H14.7549C13.2245 21 12.0001 22.2122 12.0001 23.8033V52.2153C12.0001 53.7306 13.2245 54.9429 14.7549 54.9429H53.2453C54.7758 54.9429 56.0001 53.7306 56.0001 52.2153V23.8033C56.0001 22.288 54.7758 21 53.2453 21ZM53.2453 43.9569L47.7358 38.9564C46.894 38.1987 45.5932 38.1987 44.8279 39.0321L39.2419 44.6388L28.2993 31.6071C27.6106 30.7737 26.3097 30.6222 25.3914 31.3041C25.2384 31.3798 25.1619 31.5314 25.0853 31.6071L14.7549 43.4265V23.8033H53.2453V43.9569Z" fill="#788F9D"/>
<path d="M45.2106 34.941H45.2871C47.4297 34.941 49.1132 33.1983 49.0367 31.0769C49.0367 28.9555 47.2767 27.2129 45.1341 27.2129C42.9914 27.2129 41.2314 28.9555 41.2314 31.0769C41.308 33.1983 43.1445 34.941 45.2106 34.941Z" fill="#788F9D"/>
<path opacity="0.85" d="M49.7144 13H18.2858C17.5915 13 17.0287 13.5628 17.0287 14.2571V27.4572C17.0287 28.1515 17.5915 28.7143 18.2858 28.7143H49.7144C50.4087 28.7143 50.9716 28.1515 50.9716 27.4572V14.2571C50.9716 13.5628 50.4087 13 49.7144 13Z" fill="black"/>
<path d="M43.1144 16.2686H24.8858C24.3651 16.2686 23.943 16.6907 23.943 17.2114C23.943 17.7321 24.3651 18.1543 24.8858 18.1543H43.1144C43.6352 18.1543 44.0573 17.7321 44.0573 17.2114C44.0573 16.6907 43.6352 16.2686 43.1144 16.2686Z" fill="white"/>
<path d="M46.0059 21.2971H21.9944C21.682 21.2971 21.4287 21.5504 21.4287 21.8628V21.8628C21.4287 22.1753 21.682 22.4285 21.9944 22.4285H46.0059C46.3183 22.4285 46.5716 22.1753 46.5716 21.8628C46.5716 21.5504 46.3183 21.2971 46.0059 21.2971Z" fill="white"/>
<path d="M46.0059 24.3143H21.9944C21.682 24.3143 21.4287 24.5676 21.4287 24.88V24.88C21.4287 25.1925 21.682 25.4458 21.9944 25.4458H46.0059C46.3183 25.4458 46.5716 25.1925 46.5716 24.88C46.5716 24.5676 46.3183 24.3143 46.0059 24.3143Z" fill="white"/>
</g>
<defs>
<clipPath id="clip0_1993_19243">
<rect width="68" height="68" fill="white"/>
</clipPath>
</defs>
</svg>
