<svg width="86" height="86" viewBox="0 0 86 86" fill="none" xmlns="http://www.w3.org/2000/svg">
<g clip-path="url(#clip0_1993_19203)">
<path d="M84 0H2C0.89543 0 0 0.89543 0 2V84C0 85.1046 0.89543 86 2 86H84C85.1046 86 86 85.1046 86 84V2C86 0.89543 85.1046 0 84 0Z" fill="white"/>
<path d="M73.6174 10H12.3826C9.94782 10 8 11.9286 8 14.4598V59.6607C8 62.0714 9.94782 64 12.3826 64H73.6174C76.0522 64 78 62.0714 78 59.6607V14.4598C78 12.0491 76.0522 10 73.6174 10ZM73.6174 46.5223L64.8522 38.567C63.513 37.3616 61.4435 37.3616 60.2261 38.6875L51.3391 47.6071L33.9304 26.875C32.8348 25.5491 30.7652 25.308 29.3043 26.3929C29.0609 26.5134 28.9391 26.7545 28.8174 26.875L12.3826 45.6786V14.4598H73.6174V46.5223Z" fill="#788F9D"/>
<path d="M60.8347 32.1788H60.9564C64.3651 32.1788 67.0434 29.4065 66.9217 26.0315C66.9217 22.6565 64.1217 19.8842 60.713 19.8842C57.3043 19.8842 54.5043 22.6565 54.5043 26.0315C54.626 29.4065 57.5477 32.1788 60.8347 32.1788Z" fill="#788F9D"/>
<path opacity="0.85" d="M68 51H18C16.8954 51 16 51.8954 16 53V74C16 75.1046 16.8954 76 18 76H68C69.1046 76 70 75.1046 70 74V53C70 51.8954 69.1046 51 68 51Z" fill="black"/>
<path d="M57.5 56.2H28.5C27.6716 56.2 27 56.8715 27 57.7C27 58.5284 27.6716 59.2 28.5 59.2H57.5C58.3284 59.2 59 58.5284 59 57.7C59 56.8715 58.3284 56.2 57.5 56.2Z" fill="white"/>
<path d="M62.1 64.2H23.9C23.4029 64.2 23 64.6029 23 65.1C23 65.597 23.4029 66 23.9 66H62.1C62.5971 66 63 65.597 63 65.1C63 64.6029 62.5971 64.2 62.1 64.2Z" fill="white"/>
<path d="M62.1 69H23.9C23.4029 69 23 69.4029 23 69.9C23 70.3971 23.4029 70.8 23.9 70.8H62.1C62.5971 70.8 63 70.3971 63 69.9C63 69.4029 62.5971 69 62.1 69Z" fill="white"/>
</g>
<defs>
<clipPath id="clip0_1993_19203">
<rect width="86" height="86" fill="white"/>
</clipPath>
</defs>
</svg>
