<svg width="68" height="68" viewBox="0 0 68 68" fill="none" xmlns="http://www.w3.org/2000/svg">
<g clip-path="url(#clip0_1993_19211)">
<path d="M66.4186 0H1.5814C0.708017 0 0 0.708017 0 1.5814V66.4186C0 67.292 0.708017 68 1.5814 68H66.4186C67.292 68 68 67.292 68 66.4186V1.5814C68 0.708017 67.292 0 66.4186 0Z" fill="white"/>
<path d="M53.2453 13.2571H14.7549C13.2245 13.2571 12.0001 14.4694 12.0001 16.0605V44.4724C12.0001 45.9878 13.2245 47.2 14.7549 47.2H53.2453C54.7758 47.2 56.0001 45.9878 56.0001 44.4724V16.0605C56.0001 14.5452 54.7758 13.2571 53.2453 13.2571ZM53.2453 36.214L47.7358 31.2135C46.894 30.4559 45.5932 30.4559 44.8279 31.2893L39.2419 36.8959L28.2993 23.8643C27.6106 23.0309 26.3097 22.8793 25.3914 23.5612C25.2384 23.637 25.1619 23.7885 25.0853 23.8643L14.7549 35.6837V16.0605H53.2453V36.214Z" fill="#788F9D"/>
<path d="M45.2106 27.1981H45.2871C47.4297 27.1981 49.1132 25.4555 49.0367 23.3341C49.0367 21.2126 47.2767 19.47 45.1341 19.47C42.9914 19.47 41.2314 21.2126 41.2314 23.3341C41.308 25.4555 43.1445 27.1981 45.2106 27.1981Z" fill="#788F9D"/>
<path opacity="0.85" d="M49.7145 39.0286H18.2858C17.5915 39.0286 17.0287 39.5914 17.0287 40.2857V53.4857C17.0287 54.18 17.5915 54.7429 18.2858 54.7429H49.7145C50.4088 54.7429 50.9716 54.18 50.9716 53.4857V40.2857C50.9716 39.5914 50.4088 39.0286 49.7145 39.0286Z" fill="black"/>
<path d="M43.1144 42.2971H24.8858C24.3651 42.2971 23.943 42.7193 23.943 43.24C23.943 43.7607 24.3651 44.1828 24.8858 44.1828H43.1144C43.6352 44.1828 44.0573 43.7607 44.0573 43.24C44.0573 42.7193 43.6352 42.2971 43.1144 42.2971Z" fill="white"/>
<path d="M46.0059 47.3257H21.9944C21.682 47.3257 21.4287 47.579 21.4287 47.8914C21.4287 48.2038 21.682 48.4571 21.9944 48.4571H46.0059C46.3183 48.4571 46.5716 48.2038 46.5716 47.8914C46.5716 47.579 46.3183 47.3257 46.0059 47.3257Z" fill="white"/>
<path d="M46.0059 50.3428H21.9944C21.682 50.3428 21.4287 50.5961 21.4287 50.9085V50.9085C21.4287 51.2209 21.682 51.4742 21.9944 51.4742H46.0059C46.3183 51.4742 46.5716 51.2209 46.5716 50.9085C46.5716 50.5961 46.3183 50.3428 46.0059 50.3428Z" fill="white"/>
</g>
<defs>
<clipPath id="clip0_1993_19211">
<rect width="68" height="68" fill="white"/>
</clipPath>
</defs>
</svg>
