<svg width="68" height="68" viewBox="0 0 68 68" fill="none" xmlns="http://www.w3.org/2000/svg">
<g clip-path="url(#clip0_1993_19227)">
<path d="M66.4186 0H1.5814C0.708017 0 0 0.708017 0 1.5814V66.4186C0 67.292 0.708017 68 1.5814 68H66.4186C67.292 68 68 67.292 68 66.4186V1.5814C68 0.708017 67.292 0 66.4186 0Z" fill="white"/>
<path d="M59.2452 17H20.7548C19.2243 17 18 18.2122 18 19.8033V48.2153C18 49.7306 19.2243 50.9429 20.7548 50.9429H59.2452C60.7757 50.9429 62 49.7306 62 48.2153V19.8033C62 18.288 60.7757 17 59.2452 17ZM59.2452 39.9569L53.7357 34.9564C52.8939 34.1987 51.593 34.1987 50.8278 35.0321L45.2417 40.6388L34.2991 27.6071C33.6104 26.7737 32.3096 26.6222 31.3913 27.3041C31.2383 27.3798 31.1617 27.5314 31.0852 27.6071L20.7548 39.4265V19.8033H59.2452V39.9569Z" fill="#788F9D"/>
<path d="M51.2105 30.941H51.287C53.4296 30.941 55.1131 29.1983 55.0365 27.0769C55.0365 24.9555 53.2765 23.2129 51.1339 23.2129C48.9913 23.2129 47.2313 24.9555 47.2313 27.0769C47.3078 29.1983 49.1444 30.941 51.2105 30.941Z" fill="#788F9D"/>
<path opacity="0.85" d="M30.7429 25H7.25714C6.56284 25 6 25.5628 6 26.2571V41.7429C6 42.4372 6.56284 43 7.25714 43H30.7429C31.4372 43 32 42.4372 32 41.7429V26.2571C32 25.5628 31.4372 25 30.7429 25Z" fill="black"/>
<path d="M26.0417 29.5H11.9274C11.4067 29.5 10.9846 29.9221 10.9846 30.4429C10.9846 30.9636 11.4067 31.3857 11.9274 31.3857H26.0417C26.5625 31.3857 26.9846 30.9636 26.9846 30.4429C26.9846 29.9221 26.5625 29.5 26.0417 29.5Z" fill="white"/>
<path d="M29.4189 34.5286H8.55033C8.2379 34.5286 7.98462 34.7818 7.98462 35.0943C7.98462 35.4067 8.2379 35.66 8.55033 35.66H29.4189C29.7313 35.66 29.9846 35.4067 29.9846 35.0943C29.9846 34.7818 29.7313 34.5286 29.4189 34.5286Z" fill="white"/>
<path d="M29.4189 37.5457H8.55033C8.2379 37.5457 7.98462 37.7989 7.98462 38.1114C7.98462 38.4238 8.2379 38.6771 8.55033 38.6771H29.4189C29.7313 38.6771 29.9846 38.4238 29.9846 38.1114C29.9846 37.7989 29.7313 37.5457 29.4189 37.5457Z" fill="white"/>
</g>
<defs>
<clipPath id="clip0_1993_19227">
<rect width="68" height="68" fill="white"/>
</clipPath>
</defs>
</svg>
