<svg width="68" height="68" viewBox="0 0 68 68" fill="none" xmlns="http://www.w3.org/2000/svg">
<g clip-path="url(#clip0_1993_19219)">
<path d="M66.4186 0H1.5814C0.708017 0 0 0.708017 0 1.5814V66.4186C0 67.292 0.708017 68 1.5814 68H66.4186C67.292 68 68 67.292 68 66.4186V1.5814C68 0.708017 67.292 0 66.4186 0Z" fill="white"/>
<path d="M53.2452 17H14.7548C13.2243 17 12 18.2122 12 19.8033V48.2153C12 49.7306 13.2243 50.9429 14.7548 50.9429H53.2452C54.7757 50.9429 56 49.7306 56 48.2153V19.8033C56 18.288 54.7757 17 53.2452 17ZM53.2452 39.9569L47.7357 34.9564C46.8939 34.1987 45.593 34.1987 44.8278 35.0321L39.2417 40.6388L28.2991 27.6071C27.6104 26.7737 26.3096 26.6222 25.3913 27.3041C25.2383 27.3798 25.1617 27.5314 25.0852 27.6071L14.7548 39.4265V19.8033H53.2452V39.9569Z" fill="#788F9D"/>
<path d="M45.2105 30.941H45.287C47.4296 30.941 49.1131 29.1983 49.0365 27.0769C49.0365 24.9555 47.2765 23.2129 45.1339 23.2129C42.9913 23.2129 41.2313 24.9555 41.2313 27.0769C41.3078 29.1983 43.1444 30.941 45.2105 30.941Z" fill="#788F9D"/>
<path opacity="0.85" d="M45.7429 25H22.2571C21.5628 25 21 25.5628 21 26.2571V41.7429C21 42.4372 21.5628 43 22.2571 43H45.7429C46.4372 43 47 42.4372 47 41.7429V26.2571C47 25.5628 46.4372 25 45.7429 25Z" fill="black"/>
<path d="M41.0417 29.5H26.9274C26.4067 29.5 25.9846 29.9221 25.9846 30.4429C25.9846 30.9636 26.4067 31.3857 26.9274 31.3857H41.0417C41.5625 31.3857 41.9846 30.9636 41.9846 30.4429C41.9846 29.9221 41.5625 29.5 41.0417 29.5Z" fill="white"/>
<path d="M44.4189 34.5286H23.5503C23.2379 34.5286 22.9846 34.7818 22.9846 35.0943C22.9846 35.4067 23.2379 35.66 23.5503 35.66H44.4189C44.7313 35.66 44.9846 35.4067 44.9846 35.0943C44.9846 34.7818 44.7313 34.5286 44.4189 34.5286Z" fill="white"/>
<path d="M44.4189 37.5457H23.5503C23.2379 37.5457 22.9846 37.7989 22.9846 38.1114C22.9846 38.4238 23.2379 38.6771 23.5503 38.6771H44.4189C44.7313 38.6771 44.9846 38.4238 44.9846 38.1114C44.9846 37.7989 44.7313 37.5457 44.4189 37.5457Z" fill="white"/>
</g>
<defs>
<clipPath id="clip0_1993_19219">
<rect width="68" height="68" fill="white"/>
</clipPath>
</defs>
</svg>
