<svg width="48" height="48" viewBox="0 0 48 48" fill="none" xmlns="http://www.w3.org/2000/svg">
<path d="M11.64 40.38V35.7H13.02C13.44 35.7 13.8 35.82 14.1 36C14.412 36.1829 14.6626 36.4544 14.82 36.78C15 37.14 15.06 37.5 15.06 37.92V38.16C15.06 38.58 15 39 14.82 39.36C14.64 39.72 14.4 39.96 14.04 40.14C13.74 40.32 13.32 40.44 12.9 40.44H11.64V40.38ZM12.42 36.36V39.72H12.96C13.38 39.72 13.74 39.6 13.92 39.3C14.16 39.06 14.28 38.64 14.28 38.16V37.92C14.28 37.44 14.16 37.02 13.92 36.78C13.68 36.54 13.38 36.36 12.96 36.36H12.42ZM15.9 36C15.9 35.88 15.96 35.76 16.02 35.7C16.08 35.64 16.2 35.58 16.32 35.58C16.44 35.58 16.56 35.64 16.62 35.7C16.68 35.76 16.74 35.88 16.74 36C16.74 36.12 16.68 36.24 16.62 36.3C16.56 36.36 16.44 36.42 16.32 36.42C16.2 36.42 16.08 36.36 16.02 36.3C15.96 36.24 15.9 36.12 15.9 36ZM16.74 40.38H15.96V36.9H16.74V40.38ZM19.62 39.42C19.6211 39.3582 19.6049 39.2973 19.573 39.2442C19.5412 39.1912 19.4951 39.1481 19.44 39.12C19.32 39.06 19.14 39 18.84 38.94C18.6 38.88 18.36 38.82 18.18 38.7C17.76 38.52 17.58 38.22 17.58 37.86C17.58 37.56 17.7 37.32 17.94 37.08C18.18 36.84 18.54 36.78 18.9 36.78C19.32 36.78 19.68 36.9 19.92 37.08C20.16 37.26 20.28 37.56 20.28 37.86H19.5C19.5 37.74 19.44 37.56 19.32 37.5C19.2 37.38 19.08 37.38 18.9 37.38C18.72 37.38 18.6 37.44 18.48 37.5C18.4249 37.5281 18.3788 37.5712 18.347 37.6242C18.3151 37.6773 18.2989 37.7382 18.3 37.8C18.2989 37.8619 18.3151 37.9228 18.347 37.9758C18.3788 38.0289 18.4249 38.0719 18.48 38.1C18.6 38.16 18.78 38.22 19.08 38.28C19.38 38.34 19.62 38.4 19.8 38.52C19.98 38.64 20.1 38.7 20.22 38.88C20.28 39 20.34 39.18 20.34 39.36C20.34 39.66 20.22 39.9 19.98 40.14C19.74 40.38 19.38 40.44 18.96 40.44C18.66 40.44 18.42 40.38 18.18 40.26C17.94 40.14 17.76 40.02 17.64 39.84C17.5182 39.664 17.4552 39.454 17.46 39.24H18.24C18.24 39.42 18.3 39.54 18.42 39.66C18.54 39.78 18.72 39.78 18.96 39.78C19.14 39.78 19.32 39.72 19.44 39.66C19.56 39.6 19.62 39.54 19.62 39.42ZM23.22 40.38C23.16 40.32 23.16 40.2 23.1 40.08C22.86 40.32 22.56 40.5 22.2 40.5C21.84 40.5 21.54 40.38 21.36 40.2C21.12 40.02 21 39.78 21 39.48C21 39.12 21.12 38.82 21.42 38.64C21.72 38.46 22.08 38.34 22.62 38.34H23.1V38.1C23.1 37.92 23.04 37.8 22.92 37.68C22.8 37.56 22.68 37.5 22.44 37.5C22.26 37.5 22.14 37.56 22.02 37.62C21.9 37.68 21.84 37.8 21.84 37.98H21.06C21.06 37.8 21.12 37.62 21.24 37.44C21.36 37.26 21.54 37.14 21.78 37.02C22.02 36.9 22.26 36.9 22.5 36.9C22.92 36.9 23.22 37.02 23.46 37.2C23.7 37.38 23.82 37.68 23.82 38.04V39.6C23.82 39.9 23.88 40.14 23.94 40.38V40.44L23.22 40.38ZM22.38 39.84C22.56 39.84 22.68 39.78 22.8 39.72C22.92 39.66 23.04 39.54 23.1 39.42V38.76H22.68C22.38 38.76 22.2 38.82 22.02 38.94C21.9 39.06 21.78 39.18 21.78 39.36C21.78 39.54 21.84 39.66 21.9 39.72C22.08 39.78 22.2 39.84 22.38 39.84ZM27.84 38.7C27.84 39.24 27.72 39.66 27.48 40.02C27.24 40.32 26.88 40.5 26.46 40.5C26.04 40.5 25.74 40.38 25.5 40.08L25.44 40.44H24.72V35.52H25.5V37.32C25.74 37.08 26.04 36.9 26.4 36.9C26.82 36.9 27.18 37.08 27.42 37.38C27.72 37.62 27.84 38.04 27.84 38.7ZM27.06 38.64C27.06 38.28 27 37.98 26.88 37.8C26.76 37.62 26.58 37.5 26.28 37.5C25.92 37.5 25.68 37.62 25.56 37.92V39.36C25.68 39.66 25.92 39.84 26.28 39.84C26.52 39.84 26.7 39.72 26.82 39.54C26.94 39.36 27 39.06 27.06 38.64ZM29.4 40.38H28.62V35.46H29.4V40.38ZM31.86 40.44C31.38 40.44 30.96 40.26 30.66 39.96C30.36 39.66 30.18 39.24 30.18 38.7V38.58C30.18 38.22 30.24 37.92 30.36 37.62C30.48 37.32 30.66 37.14 30.9 36.96C31.14 36.78 31.44 36.72 31.74 36.72C32.22 36.72 32.58 36.9 32.82 37.2C33.06 37.5 33.18 37.92 33.18 38.46V38.76H30.9C30.9 39.06 31.02 39.3 31.2 39.42C31.38 39.54 31.56 39.66 31.86 39.66C32.22 39.66 32.52 39.54 32.76 39.24L33.18 39.66C33.0445 39.864 32.8585 40.0294 32.64 40.14C32.4 40.26 32.16 40.44 31.86 40.44ZM31.74 37.44C31.5 37.44 31.38 37.5 31.2 37.68C31.08 37.86 30.96 38.04 30.96 38.28H32.46V38.22C32.46 37.98 32.4 37.74 32.28 37.62C32.16 37.5 31.98 37.44 31.74 37.44ZM33.78 38.64C33.78 38.1 33.9 37.68 34.14 37.32C34.38 37.02 34.74 36.84 35.16 36.84C35.52 36.84 35.82 36.96 36.06 37.2V35.4H36.84V40.32H36.12L36.06 39.96C35.82 40.26 35.52 40.38 35.1 40.38C34.68 40.38 34.38 40.2 34.08 39.9C33.9 39.66 33.78 39.18 33.78 38.64ZM34.56 38.7C34.56 39.06 34.62 39.36 34.74 39.54C34.86 39.72 35.1 39.84 35.34 39.84C35.64 39.84 35.88 39.72 36.06 39.42V37.92C35.94 37.62 35.7 37.5 35.34 37.5C35.1 37.5 34.92 37.62 34.74 37.8C34.56 37.98 34.56 38.28 34.56 38.7Z" fill="#58707F"/>
<path d="M24 7.56006C17.22 7.56006 11.7 13.0801 11.7 19.8601C11.7 26.6401 17.22 32.2201 24 32.2201C30.78 32.2201 36.3 26.7001 36.3 19.9201C36.3 13.1401 30.78 7.56006 24 7.56006ZM14.28 19.8601C14.28 17.6401 15.06 15.6001 16.26 13.9801L29.88 27.6001C28.26 28.8601 26.22 29.5801 24 29.5801C22.722 29.5856 21.4555 29.338 20.2738 28.8515C19.092 28.365 18.0182 27.6492 17.1145 26.7455C16.2108 25.8418 15.4951 24.7681 15.0086 23.5863C14.5221 22.4045 14.2744 21.1381 14.28 19.8601ZM31.74 25.7401L18.12 12.1201C19.74 10.8601 21.78 10.1401 24 10.1401C26.5779 10.1401 29.0502 11.1641 30.8731 12.987C32.6959 14.8098 33.72 17.2822 33.72 19.8601C33.72 22.0801 33 24.1201 31.74 25.7401Z" fill="#58707F"/>
</svg>
