<svg width="48" height="48" viewBox="0 0 48 48" fill="none" xmlns="http://www.w3.org/2000/svg">
<path d="M12.06 39.54H14.22V40.2H11.28V35.52H12.12V39.54H12.06ZM14.82 35.76C14.82 35.64 14.88 35.52 14.94 35.46C15 35.4 15.12 35.34 15.24 35.34C15.36 35.34 15.48 35.4 15.54 35.46C15.6 35.52 15.66 35.64 15.66 35.76C15.66 35.88 15.6 36 15.54 36.06C15.48 36.12 15.36 36.18 15.24 36.18C15.12 36.18 15 36.12 14.94 36.06C14.88 36 14.82 35.88 14.82 35.76ZM15.66 40.2H14.88V36.72H15.66V40.2ZM16.44 38.4C16.44 37.86 16.56 37.44 16.8 37.08C17.04 36.78 17.4 36.6 17.82 36.6C18.24 36.6 18.54 36.72 18.78 37.02L18.84 36.66H19.56V40.02C19.56 40.5 19.44 40.86 19.14 41.1C18.84 41.34 18.48 41.52 18 41.52C17.76 41.52 17.52 41.46 17.28 41.34C17.04 41.22 16.86 41.1 16.74 40.92L17.1 40.44C17.34 40.74 17.64 40.86 18 40.86C18.24 40.86 18.48 40.8 18.6 40.62C18.72 40.44 18.84 40.26 18.84 40.02V39.78C18.6 40.02 18.3 40.14 17.94 40.14C17.52 40.14 17.22 39.96 16.92 39.66C16.56 39.42 16.44 39 16.44 38.4ZM17.22 38.46C17.22 38.82 17.28 39.06 17.46 39.3C17.58 39.48 17.82 39.6 18.06 39.6C18.36 39.6 18.6 39.48 18.78 39.18V37.62C18.66 37.38 18.42 37.2 18.06 37.2C17.82 37.2 17.58 37.32 17.46 37.5C17.28 37.8 17.22 38.1 17.22 38.46ZM21.18 37.08C21.42 36.78 21.78 36.66 22.14 36.66C22.86 36.66 23.28 37.08 23.28 37.92V40.2H22.5V37.98C22.5 37.74 22.44 37.56 22.32 37.44C22.2 37.32 22.08 37.32 21.84 37.32C21.54 37.32 21.3 37.44 21.12 37.74V40.2H20.4V35.28H21.18V37.08ZM25.08 35.82V36.66H25.68V37.26H25.08V39.18C25.08 39.3 25.08 39.42 25.14 39.48C25.2 39.54 25.26 39.54 25.44 39.54C25.56 39.54 25.62 39.54 25.74 39.48V40.08C25.56 40.14 25.38 40.14 25.2 40.14C24.6 40.14 24.3 39.78 24.3 39.12V37.14H23.7V36.54H24.3V35.7H25.08V35.82ZM29.46 38.46C29.46 39 29.34 39.42 29.1 39.78C28.86 40.08 28.5 40.26 28.08 40.26C27.66 40.26 27.36 40.14 27.12 39.84L27.06 40.2H26.4V35.28H27.18V37.08C27.42 36.84 27.72 36.66 28.08 36.66C28.5 36.66 28.86 36.84 29.1 37.14C29.34 37.44 29.46 37.86 29.46 38.46ZM28.68 38.4C28.68 38.04 28.62 37.74 28.5 37.56C28.38 37.38 28.2 37.26 27.9 37.26C27.54 37.26 27.3 37.38 27.18 37.68V39.12C27.3 39.42 27.54 39.6 27.9 39.6C28.14 39.6 28.32 39.48 28.44 39.3C28.56 39.12 28.62 38.82 28.68 38.4ZM30 38.4C30 38.04 30.06 37.74 30.18 37.5C30.3 37.2 30.48 37.02 30.78 36.84C31.08 36.66 31.32 36.6 31.62 36.6C32.1 36.6 32.46 36.78 32.76 37.08C33.06 37.38 33.24 37.8 33.24 38.28V38.46C33.24 38.82 33.18 39.12 33.06 39.36C32.94 39.66 32.76 39.84 32.52 39.96C32.28 40.08 31.98 40.2 31.68 40.2C31.2 40.2 30.78 40.02 30.48 39.72C30.18 39.42 30 39 30 38.4ZM30.78 38.46C30.78 38.82 30.84 39.12 31.02 39.3C31.14 39.48 31.38 39.6 31.62 39.6C31.86 39.6 32.1 39.48 32.22 39.3C32.34 39.12 32.46 38.82 32.46 38.4C32.46 38.04 32.4 37.74 32.22 37.56C32.04 37.38 31.86 37.26 31.62 37.26C31.38 37.26 31.14 37.38 31.02 37.56C30.84 37.74 30.78 38.04 30.78 38.46ZM35.16 37.86L35.82 36.72H36.72L35.64 38.4L36.72 40.14H35.88L35.16 38.94L34.44 40.14H33.6L34.68 38.4L33.6 36.66H34.44L35.16 37.86Z" fill="#58707F"/>
<path d="M12.9 30.06V19.68H11.28V31.86H23.34V30.06H14.22H12.9ZM18.3 25.62H31.08C31.62 25.62 32.1 25.14 32.1 24.6V19.14C32.1 18.9 31.98 18.6 31.8 18.42L30.12 16.68C29.76 16.32 29.16 16.26 28.8 16.56L26.04 18.66C25.8 18.84 25.44 18.9 25.14 18.84L21.96 17.82C21.6 17.76 21.24 17.82 21 18L17.64 20.7C17.4 20.88 17.28 21.18 17.28 21.48V24.6C17.28 25.2 17.76 25.62 18.3 25.62ZM22.62 13.74C22.62 12.84 21.84 12.06 20.94 12.06C20.04 12.06 19.26 12.84 19.26 13.74C19.26 14.7 20.04 15.42 20.94 15.42C21.84 15.42 22.62 14.64 22.62 13.74ZM33.54 27.24H15.78V9.59999H27.72C27.78 9.05999 27.96 8.51998 28.2 8.03998H14.22V28.8H35.1V15C34.62 15.24 34.08 15.42 33.54 15.48V27.24ZM32.82 6.47999C32.3076 6.4792 31.8001 6.57953 31.3266 6.77525C30.8531 6.97096 30.4228 7.2582 30.0605 7.62051C29.6982 7.98281 29.411 8.41306 29.2153 8.88659C29.0195 9.36011 28.9192 9.86761 28.92 10.38C28.92 10.8921 29.0209 11.3993 29.2169 11.8725C29.4129 12.3456 29.7001 12.7756 30.0623 13.1377C30.4244 13.4999 30.8544 13.7871 31.3275 13.9831C31.8007 14.1791 32.3078 14.28 32.82 14.28C33.3322 14.28 33.8393 14.1791 34.3125 13.9831C34.7856 13.7871 35.2156 13.4999 35.5777 13.1377C35.9399 12.7756 36.2271 12.3456 36.4231 11.8725C36.6191 11.3993 36.72 10.8921 36.72 10.38C36.7208 9.86761 36.6205 9.36011 36.4247 8.88659C36.229 8.41306 35.9418 7.98281 35.5795 7.62051C35.2172 7.2582 34.7869 6.97096 34.3134 6.77525C33.8399 6.57953 33.3324 6.4792 32.82 6.47999ZM34.2 12.36L32.82 11.16L31.62 12.54L30.84 11.82L32.04 10.44L30.72 9.23998L31.44 8.45999L32.76 9.65999L33.96 8.27999L34.8 8.99999L33.54 10.38L34.92 11.58L34.2 12.36Z" fill="#58707F"/>
</svg>
