<svg width="84" height="64" viewBox="0 0 84 64" fill="none" xmlns="http://www.w3.org/2000/svg">
<path d="M18 10.96H67.52C68.4 10.96 69.12 11.68 69.12 12.56V51.44C69.12 52.32 68.4 53.04 67.52 53.04H18C17.12 53.04 16.4 52.32 16.4 51.44V12.56C16.32 11.68 17.04 10.96 18 10.96Z" fill="#58707F"/>
<path d="M54.64 21.4399H30.8799C29.9199 21.4399 29.2 22.1599 29.2 23.1999V40.9599C29.2 41.9199 29.9199 42.6399 30.8799 42.6399H54.64C55.6 42.6399 56.32 41.9199 56.32 40.9599V23.1199C56.32 22.2399 55.6 21.4399 54.64 21.4399ZM54.64 35.6799L51.28 32.5599C50.72 32.0799 49.92 32.0799 49.52 32.6399L46 36.0799L39.2 27.9999C38.8 27.4399 38 27.3599 37.44 27.8399C37.28 27.9199 37.28 27.9999 37.2 27.9999L30.8799 35.3599V23.1199H54.64V35.6799ZM49.68 30.0799C50.3158 30.0778 50.925 29.8243 51.3747 29.3747C51.8243 28.925 52.0778 28.3158 52.08 27.6799C52.0778 27.0441 51.8243 26.4348 51.3747 25.9852C50.925 25.5356 50.3158 25.2821 49.68 25.2799C49.0485 25.2961 48.4475 25.5542 48.0008 26.0008C47.5542 26.4474 47.2961 27.0485 47.28 27.6799C47.2821 28.3158 47.5356 28.925 47.9852 29.3747C48.4349 29.8243 49.0441 30.0778 49.68 30.0799Z" fill="#D9E3E8"/>
<path d="M23.92 23.36C26.571 23.36 28.72 21.211 28.72 18.56C28.72 15.909 26.571 13.76 23.92 13.76C21.269 13.76 19.12 15.909 19.12 18.56C19.12 21.211 21.269 23.36 23.92 23.36Z" fill="#29343A"/>
<path d="M25.2 19.12C25.4439 18.7199 25.5451 18.249 25.487 17.7841C25.4289 17.3191 25.2149 16.8876 24.88 16.56C24.08 15.76 22.8 15.76 22 16.56C21.6158 16.9569 21.401 17.4876 21.401 18.04C21.401 18.5923 21.6158 19.1231 22 19.52C22.3276 19.8549 22.7591 20.0689 23.2241 20.127C23.689 20.1851 24.1599 20.0839 24.56 19.84L25.68 20.96C25.92 21.2 26.16 21.2 26.4 20.96C26.56 20.8 26.56 20.48 26.4 20.24L25.2 19.12ZM24.48 19.04C23.92 19.6 22.96 19.6 22.4 19.04C21.84 18.48 21.84 17.6 22.4 16.96C22.96 16.4 23.92 16.4 24.48 16.96C25.04 17.6 25.04 18.48 24.48 19.04Z" fill="white"/>
</svg>
