<svg width="84" height="64" viewBox="0 0 84 64" fill="none" xmlns="http://www.w3.org/2000/svg">
<path d="M17.2 10.96H66.8C67.68 10.96 68.4 11.68 68.4 12.56V51.44C68.4 52.32 67.68 53.04 66.8 53.04H17.2C16.32 53.04 15.6 52.32 15.6 51.44V12.56C15.6 11.68 16.32 10.96 17.2 10.96Z" fill="#58707F"/>
<path d="M53.84 21.4399H30.16C29.2 21.4399 28.48 22.1599 28.48 23.1999V40.9599C28.48 41.9199 29.2 42.6399 30.16 42.6399H53.92C54.88 42.6399 55.6 41.9199 55.6 40.9599V23.1199C55.6 22.2399 54.88 21.4399 53.84 21.4399ZM53.84 35.6799L50.48 32.5599C49.92 32.0799 49.12 32.0799 48.72 32.6399L45.28 36.1599L38.48 27.9999C38.08 27.4399 37.28 27.3599 36.72 27.8399L36.56 27.9999L30.24 35.3599V23.1199H54L53.84 35.6799ZM48.96 30.0799C49.5959 30.0778 50.2051 29.8243 50.6547 29.3747C51.1043 28.925 51.3579 28.3158 51.36 27.6799C51.3579 27.0441 51.1043 26.4348 50.6547 25.9852C50.2051 25.5356 49.5959 25.2821 48.96 25.2799C48.3286 25.2961 47.7275 25.5542 47.2809 26.0008C46.8342 26.4474 46.5762 27.0485 46.56 27.6799C46.56 29.0399 47.6 30.0799 48.96 30.0799Z" fill="#D9E3E8"/>
<path d="M60.8 23.36C63.451 23.36 65.6 21.211 65.6 18.56C65.6 15.909 63.451 13.76 60.8 13.76C58.149 13.76 56 15.909 56 18.56C56 21.211 58.149 23.36 60.8 23.36Z" fill="#29343A"/>
<path d="M62.08 19.12C62.3239 18.7199 62.4251 18.249 62.367 17.7841C62.3089 17.3191 62.0949 16.8876 61.76 16.56C60.96 15.76 59.68 15.76 58.88 16.56C58.4958 16.9569 58.281 17.4876 58.281 18.04C58.281 18.5923 58.4958 19.1231 58.88 19.52C59.2076 19.8549 59.6391 20.0689 60.1041 20.127C60.569 20.1851 61.0399 20.0839 61.44 19.84L62.56 20.96C62.8 21.2 63.04 21.2 63.28 20.96C63.44 20.8 63.44 20.48 63.28 20.24L62.08 19.12ZM61.36 19.04C60.8 19.6 59.84 19.6 59.28 19.04C58.72 18.48 58.72 17.6 59.28 16.96C59.84 16.4 60.8 16.4 61.36 16.96C61.92 17.6 61.92 18.48 61.36 19.04Z" fill="white"/>
</svg>
