<svg width="84" height="64" viewBox="0 0 84 64" fill="none" xmlns="http://www.w3.org/2000/svg">
<path d="M18.72 10.96H68.24C69.12 10.96 69.84 11.68 69.84 12.56V51.44C69.84 52.32 69.12 53.04 68.24 53.04H18.72C17.84 53.04 17.12 52.32 17.12 51.44V12.56C17.04 11.68 17.76 10.96 18.72 10.96Z" fill="#58707F"/>
<path d="M55.36 21.4399H31.6C30.64 21.4399 29.92 22.1599 29.92 23.1999V40.9599C29.92 41.9199 30.64 42.6399 31.6 42.6399H55.36C56.32 42.6399 57.04 41.9199 57.04 40.9599V23.1199C57.12 22.2399 56.32 21.4399 55.36 21.4399ZM55.36 35.6799L52 32.5599C51.44 32.0799 50.64 32.0799 50.24 32.6399L46.8 36.1599L39.92 27.9999C39.52 27.4399 38.72 27.3599 38.16 27.8399C38 27.9199 38 27.9999 37.92 27.9999L31.6 35.3599V23.1199H55.36V35.6799ZM50.4 30.0799C51.0359 30.0778 51.6451 29.8243 52.0947 29.3747C52.5443 28.925 52.7979 28.3158 52.8 27.6799C52.7979 27.0441 52.5443 26.4348 52.0947 25.9852C51.6451 25.5356 51.0359 25.2821 50.4 25.2799C49.7686 25.2961 49.1675 25.5542 48.7209 26.0008C48.2742 26.4474 48.0162 27.0485 48 27.6799C48.0021 28.3158 48.2556 28.925 48.7053 29.3747C49.1549 29.8243 49.7641 30.0778 50.4 30.0799Z" fill="#D9E3E8"/>
<path d="M62.24 50.24C64.891 50.24 67.04 48.091 67.04 45.44C67.04 42.789 64.891 40.64 62.24 40.64C59.589 40.64 57.44 42.789 57.44 45.44C57.44 48.091 59.589 50.24 62.24 50.24Z" fill="#29343A"/>
<path d="M63.52 46.08C63.764 45.68 63.8652 45.2091 63.8071 44.7442C63.749 44.2792 63.535 43.8477 63.2 43.52C62.4 42.72 61.12 42.72 60.32 43.52C59.9359 43.9169 59.7211 44.4477 59.7211 45C59.7211 45.5524 59.9359 46.0831 60.32 46.48C60.6477 46.815 61.0792 47.029 61.5441 47.0871C62.0091 47.1452 62.48 47.044 62.88 46.8L64 47.92C64.24 48.16 64.48 48.16 64.72 47.92C64.88 47.76 64.88 47.44 64.72 47.2L63.52 46.08ZM62.8 46C62.24 46.56 61.28 46.56 60.72 46C60.16 45.44 60.16 44.56 60.72 43.92C61.28 43.36 62.24 43.36 62.8 43.92C63.36 44.56 63.36 45.44 62.8 46Z" fill="white"/>
</svg>
