<svg width="84" height="64" viewBox="0 0 84 64" fill="none" xmlns="http://www.w3.org/2000/svg">
<path d="M19.44 10.96H68.96C69.84 10.96 70.56 11.68 70.56 12.56V51.44C70.56 52.32 69.84 53.04 68.96 53.04H19.44C18.56 53.04 17.84 52.32 17.84 51.44V12.56C17.76 11.68 18.56 10.96 19.44 10.96Z" fill="#58707F"/>
<path d="M56.08 21.4399H32.32C31.36 21.4399 30.64 22.1599 30.64 23.1999V40.9599C30.64 41.9199 31.36 42.6399 32.32 42.6399H56.08C57.04 42.6399 57.76 41.9199 57.76 40.9599V23.1199C57.84 22.2399 57.04 21.4399 56.08 21.4399ZM56.08 35.6799L52.72 32.5599C52.16 32.0799 51.36 32.0799 50.96 32.6399L47.52 36.1599L40.64 27.9999C40.24 27.4399 39.44 27.3599 38.88 27.8399L38.72 27.9999L32.4 35.3599V23.1199H56.16L56.08 35.6799ZM51.12 30.0799C51.7559 30.0778 52.3651 29.8243 52.8147 29.3747C53.2644 28.925 53.5179 28.3158 53.52 27.6799C53.5179 27.0441 53.2644 26.4348 52.8147 25.9852C52.3651 25.5356 51.7559 25.2821 51.12 25.2799C50.4886 25.2961 49.8875 25.5542 49.4409 26.0008C48.9943 26.4474 48.7362 27.0485 48.72 27.6799C48.7221 28.3158 48.9757 28.925 49.4253 29.3747C49.8749 29.8243 50.4841 30.0778 51.12 30.0799Z" fill="#D9E3E8"/>
<path d="M25.36 50.24C28.011 50.24 30.16 48.091 30.16 45.44C30.16 42.789 28.011 40.64 25.36 40.64C22.709 40.64 20.56 42.789 20.56 45.44C20.56 48.091 22.709 50.24 25.36 50.24Z" fill="#29343A"/>
<path d="M26.64 46.08C26.884 45.68 26.9852 45.2091 26.9271 44.7442C26.8689 44.2792 26.655 43.8477 26.32 43.52C25.52 42.72 24.24 42.72 23.44 43.52C23.0558 43.9169 22.8411 44.4477 22.8411 45C22.8411 45.5524 23.0558 46.0831 23.44 46.48C23.7677 46.815 24.1992 47.029 24.6641 47.0871C25.1291 47.1452 25.6 47.044 26 46.8L27.12 47.92C27.36 48.16 27.6 48.16 27.84 47.92C28 47.76 28 47.44 27.84 47.2L26.64 46.08ZM25.92 46C25.36 46.56 24.4 46.56 23.84 46C23.28 45.44 23.28 44.56 23.84 43.92C24.4 43.36 25.36 43.36 25.92 43.92C26.48 44.56 26.48 45.44 25.92 46Z" fill="white"/>
</svg>
