<svg width="84" height="64" viewBox="0 0 84 64" fill="none" xmlns="http://www.w3.org/2000/svg">
<path d="M20.16 10.96H69.68C70.56 10.96 71.28 11.68 71.28 12.56V51.44C71.28 52.32 70.56 53.04 69.68 53.04H20.16C19.28 53.04 18.56 52.32 18.56 51.44V12.56C18.56 11.68 19.28 10.96 20.16 10.96Z" fill="#58707F"/>
<path d="M56.8 21.4399H33.04C32.08 21.4399 31.36 22.1599 31.36 23.1999V40.9599C31.36 41.9199 32.08 42.6399 33.04 42.6399H56.8C57.76 42.6399 58.48 41.9199 58.48 40.9599V23.1199C58.56 22.2399 57.76 21.4399 56.8 21.4399ZM56.8 35.6799L53.44 32.5599C52.88 32.0799 52.08 32.0799 51.68 32.6399L48.24 36.1599L41.36 27.9999C40.96 27.4399 40.16 27.3599 39.6 27.8399L39.44 27.9999L33.12 35.3599V23.1199H56.88L56.8 35.6799ZM51.84 30.0799C52.4759 30.0778 53.0851 29.8243 53.5347 29.3747C53.9843 28.925 54.2379 28.3158 54.24 27.6799C54.2379 27.0441 53.9843 26.4348 53.5347 25.9852C53.0851 25.5356 52.4759 25.2821 51.84 25.2799C51.2086 25.2961 50.6075 25.5542 50.1609 26.0008C49.7142 26.4474 49.4562 27.0485 49.44 27.6799C49.4421 28.3158 49.6956 28.925 50.1453 29.3747C50.5949 29.8243 51.2041 30.0778 51.84 30.0799Z" fill="#D9E3E8"/>
<path d="M44.96 36.8C47.6109 36.8 49.76 34.6509 49.76 32C49.76 29.349 47.6109 27.2 44.96 27.2C42.309 27.2 40.16 29.349 40.16 32C40.16 34.6509 42.309 36.8 44.96 36.8Z" fill="#29343A"/>
<path d="M46.16 32.56C46.404 32.16 46.5051 31.6891 46.447 31.2241C46.3889 30.7592 46.1749 30.3277 45.84 30C45.04 29.2 43.76 29.2 42.96 30C42.5758 30.3969 42.361 30.9277 42.361 31.48C42.361 32.0324 42.5758 32.5631 42.96 32.96C43.2876 33.295 43.7192 33.509 44.1841 33.5671C44.649 33.6252 45.1199 33.524 45.52 33.28L46.64 34.4C46.88 34.64 47.12 34.64 47.36 34.4C47.52 34.24 47.52 33.92 47.36 33.68L46.16 32.56ZM45.44 32.48C44.88 33.04 43.92 33.04 43.36 32.48C42.8 31.92 42.8 31.04 43.36 30.4C43.92 29.84 44.88 29.84 45.44 30.4C46 31.04 46 31.92 45.44 32.48Z" fill="white"/>
</svg>
