<svg width="84" height="64" viewBox="0 0 84 64" fill="none" xmlns="http://www.w3.org/2000/svg">
<path d="M25.831 48.8L70.551 48.8C71.6556 48.8 72.551 47.9046 72.551 46.8V17.2C72.551 16.0955 71.6556 15.2 70.551 15.2L25.831 15.2C24.7264 15.2 23.831 16.0955 23.831 17.2L23.831 46.8C23.831 47.9046 24.7264 48.8 25.831 48.8Z" fill="#58707F"/>
<path d="M68.684 31.28L66.595 29.28C66.344 29.04 65.927 29.04 65.676 29.28C65.6167 29.3369 65.5695 29.4052 65.5373 29.4808C65.5051 29.5564 65.4885 29.6378 65.4885 29.72C65.4885 29.8022 65.5051 29.8835 65.5373 29.9591C65.5695 30.0347 65.6167 30.103 65.676 30.16L67.347 31.76L65.676 33.36C65.6167 33.4169 65.5695 33.4852 65.5373 33.5608C65.5051 33.6364 65.4885 33.7178 65.4885 33.8C65.4885 33.8822 65.5051 33.9635 65.5373 34.0391C65.5695 34.1147 65.6167 34.1831 65.676 34.24C65.76 34.32 65.927 34.4 66.094 34.4C66.261 34.4 66.428 34.32 66.595 34.16L68.684 32.16C68.7433 32.103 68.7904 32.0347 68.8227 31.9591C68.8549 31.8835 68.8715 31.8022 68.8715 31.72C68.8715 31.6378 68.8549 31.5564 68.8227 31.4808C68.7904 31.4052 68.7433 31.3369 68.684 31.28ZM30.213 29.36C29.962 29.12 29.545 29.12 29.294 29.36L27.205 31.36C27.1457 31.4169 27.0985 31.4852 27.0663 31.5608C27.0341 31.6364 27.0175 31.7178 27.0175 31.8C27.0175 31.8822 27.0341 31.9635 27.0663 32.0391C27.0985 32.1147 27.1457 32.1831 27.205 32.24L29.294 34.24C29.378 34.32 29.545 34.4 29.712 34.4C29.879 34.4 30.046 34.32 30.213 34.32C30.2723 34.263 30.3194 34.1947 30.3517 34.1191C30.3839 34.0435 30.4005 33.9622 30.4005 33.88C30.4005 33.7978 30.3839 33.7164 30.3517 33.6408C30.3194 33.5652 30.2723 33.4969 30.213 33.44L28.542 31.84L30.213 30.24C30.2723 30.183 30.3194 30.1147 30.3517 30.0391C30.3839 29.9635 30.4005 29.8822 30.4005 29.8C30.4005 29.7178 30.3839 29.6364 30.3517 29.5608C30.3194 29.4852 30.2723 29.4169 30.213 29.36Z" fill="white"/>
<path d="M21.101 15.2H12.455C11.992 15.2 11.76 15.419 11.76 15.711V21.993C11.76 22.285 12.069 22.504 12.455 22.504H21.024C21.487 22.504 21.719 22.285 21.719 21.993V15.711C21.796 15.419 21.487 15.2 21.101 15.2V15.2Z" fill="#58707F"/>
<path d="M21.101 23.965H12.455C11.992 23.965 11.76 24.184 11.76 24.476V30.758C11.76 31.05 12.069 31.269 12.455 31.269H21.024C21.487 31.269 21.719 31.05 21.719 30.758V24.476C21.796 24.184 21.487 23.965 21.101 23.965V23.965Z" fill="#58707F"/>
<path d="M21.101 32.731H12.455C11.992 32.731 11.76 32.95 11.76 33.242V39.524C11.76 39.816 12.069 40.035 12.455 40.035H21.024C21.487 40.035 21.719 39.816 21.719 39.524V33.242C21.796 32.95 21.487 32.731 21.101 32.731V32.731Z" fill="#58707F"/>
<path d="M21.101 41.496H12.455C11.992 41.496 11.76 41.715 11.76 42.007V48.289C11.76 48.581 12.069 48.8 12.455 48.8H21.024C21.487 48.8 21.719 48.581 21.719 48.289V42.007C21.796 41.715 21.487 41.496 21.101 41.496V41.496Z" fill="#58707F"/>
</svg>
