<svg width="84" height="64" viewBox="0 0 84 64" fill="none" xmlns="http://www.w3.org/2000/svg">
<path d="M58.48 15.2H13.76C12.6554 15.2 11.76 16.0954 11.76 17.2V46.7999C11.76 47.9045 12.6554 48.7999 13.76 48.7999H58.48C59.5846 48.7999 60.48 47.9045 60.48 46.7999V17.2C60.48 16.0954 59.5846 15.2 58.48 15.2Z" fill="#58707F"/>
<path d="M15.626 32.72L17.715 34.72C17.966 34.96 18.383 34.96 18.634 34.72C18.6933 34.6631 18.7404 34.5947 18.7727 34.5191C18.8049 34.4435 18.8215 34.3622 18.8215 34.28C18.8215 34.1978 18.8049 34.1164 18.7727 34.0408C18.7404 33.9652 18.6933 33.8969 18.634 33.84L16.963 32.24L18.634 30.64C18.6933 30.583 18.7404 30.5147 18.7727 30.4391C18.8049 30.3635 18.8215 30.2822 18.8215 30.2C18.8215 30.1178 18.8049 30.0364 18.7727 29.9608C18.7404 29.8852 18.6933 29.8169 18.634 29.76C18.55 29.68 18.383 29.6 18.216 29.6C18.049 29.6 17.882 29.68 17.715 29.84L15.627 31.84C15.5677 31.8969 15.5205 31.9652 15.4883 32.0408C15.4561 32.1164 15.4395 32.1978 15.4395 32.28C15.4395 32.3622 15.4561 32.4435 15.4883 32.5191C15.5205 32.5947 15.5667 32.6631 15.626 32.72ZM54.098 34.64C54.349 34.88 54.766 34.88 55.017 34.64L57.106 32.64C57.1653 32.583 57.2124 32.5147 57.2447 32.4391C57.2769 32.3635 57.2935 32.2822 57.2935 32.2C57.2935 32.1178 57.2769 32.0364 57.2447 31.9608C57.2124 31.8852 57.1653 31.8169 57.106 31.76L55.017 29.76C54.933 29.68 54.766 29.6 54.599 29.6C54.432 29.6 54.265 29.68 54.098 29.68C54.0387 29.7369 53.9915 29.8052 53.9593 29.8808C53.9271 29.9564 53.9105 30.0378 53.9105 30.12C53.9105 30.2022 53.9271 30.2835 53.9593 30.3591C53.9915 30.4347 54.0387 30.503 54.098 30.56L55.769 32.16L54.098 33.76C54.0387 33.8169 53.9915 33.8852 53.9593 33.9608C53.9271 34.0364 53.9105 34.1178 53.9105 34.2C53.9105 34.2822 53.9271 34.3635 53.9593 34.4391C53.9915 34.5147 54.0387 34.583 54.098 34.64Z" fill="white"/>
<path d="M63.21 48.8H71.856C72.319 48.8 72.551 48.581 72.551 48.289V42.007C72.551 41.715 72.242 41.496 71.856 41.496H63.287C62.824 41.496 62.592 41.715 62.592 42.007V48.289C62.515 48.581 62.824 48.8 63.21 48.8V48.8Z" fill="#58707F"/>
<path d="M63.21 40.035H71.856C72.319 40.035 72.551 39.816 72.551 39.524V33.242C72.551 32.95 72.242 32.731 71.856 32.731H63.287C62.824 32.731 62.592 32.95 62.592 33.242V39.524C62.515 39.816 62.824 40.035 63.21 40.035V40.035Z" fill="#58707F"/>
<path d="M63.21 31.2699H71.856C72.319 31.2699 72.551 31.0509 72.551 30.7589V24.4769C72.551 24.1849 72.242 23.9659 71.856 23.9659H63.287C62.824 23.9659 62.592 24.1849 62.592 24.4769V30.7589C62.515 31.0509 62.824 31.2699 63.21 31.2699V31.2699Z" fill="#58707F"/>
<path d="M63.21 22.504H71.856C72.319 22.504 72.551 22.285 72.551 21.993V15.711C72.551 15.419 72.242 15.2 71.856 15.2H63.287C62.824 15.2 62.592 15.419 62.592 15.711V21.993C62.515 22.285 62.824 22.504 63.21 22.504V22.504Z" fill="#58707F"/>
</svg>
