<svg width="84" height="64" viewBox="0 0 84 64" fill="none" xmlns="http://www.w3.org/2000/svg">
<path d="M63.52 24.8H18.8C17.6954 24.8 16.8 25.6955 16.8 26.8V51.6C16.8 52.7046 17.6954 53.6 18.8 53.6H63.52C64.6246 53.6 65.52 52.7046 65.52 51.6V26.8C65.52 25.6955 64.6246 24.8 63.52 24.8Z" fill="#58707F"/>
<path d="M62.013 38.98L59.913 36.98C59.661 36.74 59.241 36.74 58.989 36.98C58.737 37.22 58.737 37.62 58.989 37.86L60.669 39.46L58.989 41.0601C58.737 41.3001 58.737 41.7 58.989 41.94C59.1059 42.0409 59.2546 42.0975 59.409 42.1C59.577 42.1 59.745 42.02 59.913 41.86L62.013 39.86C62.265 39.62 62.265 39.22 62.013 38.98ZM23.373 37.0601C23.121 36.8201 22.701 36.8201 22.449 37.0601L20.349 39.0601C20.097 39.3001 20.097 39.7 20.349 39.94L22.449 41.94C22.5659 42.0409 22.7146 42.0975 22.869 42.1C23.037 42.1 23.205 42.02 23.373 42.02C23.625 41.78 23.625 41.38 23.373 41.14L21.693 39.5401L23.373 37.94C23.625 37.7 23.625 37.3001 23.373 37.0601Z" fill="white"/>
<path d="M26.958 12.8H17.562C17.054 12.8 16.8 13.122 16.8 13.526V22.475C16.8 22.959 17.139 23.201 17.562 23.201H26.958C27.466 23.201 27.72 22.879 27.72 22.475V13.526C27.72 13.123 27.466 12.8 26.958 12.8Z" fill="#58707F"/>
<path d="M39.558 12.8H30.162C29.654 12.8 29.4 13.122 29.4 13.526V22.475C29.4 22.959 29.739 23.201 30.162 23.201H39.558C40.066 23.201 40.32 22.879 40.32 22.475V13.526C40.32 13.123 40.066 12.8 39.558 12.8Z" fill="#58707F"/>
<path d="M52.158 12.8H42.762C42.254 12.8 42 13.122 42 13.526V22.475C42 22.959 42.339 23.201 42.762 23.201H52.158C52.666 23.201 52.92 22.879 52.92 22.475V13.526C52.92 13.123 52.666 12.8 52.158 12.8Z" fill="#58707F"/>
<path d="M64.758 12.8H55.362C54.854 12.8 54.6 13.122 54.6 13.526V22.475C54.6 22.959 54.939 23.201 55.362 23.201H64.758C65.266 23.201 65.52 22.879 65.52 22.475V13.526C65.52 13.123 65.266 12.8 64.758 12.8Z" fill="#58707F"/>
</svg>
