<svg width="84" height="64" viewBox="0 0 84 64" fill="none" xmlns="http://www.w3.org/2000/svg">
<path d="M26.958 42.4H17.562C17.054 42.4 16.8 42.722 16.8 43.126V52.075C16.8 52.559 17.139 52.801 17.562 52.801H26.958C27.466 52.801 27.72 52.479 27.72 52.075V43.126C27.72 42.723 27.466 42.4 26.958 42.4Z" fill="#58707F"/>
<path d="M39.558 42.4H30.162C29.654 42.4 29.4 42.722 29.4 43.126V52.075C29.4 52.559 29.739 52.801 30.162 52.801H39.558C40.066 52.801 40.32 52.479 40.32 52.075V43.126C40.32 42.723 40.066 42.4 39.558 42.4Z" fill="#58707F"/>
<path d="M52.158 42.4H42.762C42.254 42.4 42 42.722 42 43.126V52.075C42 52.559 42.339 52.801 42.762 52.801H52.158C52.666 52.801 52.92 52.479 52.92 52.075V43.126C52.92 42.723 52.666 42.4 52.158 42.4Z" fill="#58707F"/>
<path d="M64.758 42.4H55.362C54.854 42.4 54.6 42.722 54.6 43.126V52.075C54.6 52.559 54.939 52.801 55.362 52.801H64.758C65.266 52.801 65.52 52.479 65.52 52.075V43.126C65.52 42.723 65.266 42.4 64.758 42.4Z" fill="#58707F"/>
<path d="M63.52 12H18.8C17.6954 12 16.8 12.8954 16.8 14V38.8C16.8 39.9046 17.6954 40.8 18.8 40.8H63.52C64.6246 40.8 65.52 39.9046 65.52 38.8V14C65.52 12.8954 64.6246 12 63.52 12Z" fill="#58707F"/>
<path d="M62.055 26.18L59.955 24.18C59.703 23.94 59.283 23.94 59.031 24.18C58.779 24.42 58.779 24.82 59.031 25.06L60.711 26.66L59.031 28.26C58.779 28.5 58.779 28.9 59.031 29.14C59.148 29.2408 59.2966 29.2974 59.451 29.3C59.619 29.3 59.787 29.22 59.955 29.06L62.055 27.06C62.307 26.82 62.307 26.42 62.055 26.18ZM23.373 24.26C23.121 24.02 22.701 24.02 22.449 24.26L20.349 26.26C20.097 26.5 20.097 26.9 20.349 27.14L22.449 29.14C22.566 29.2408 22.7146 29.2974 22.869 29.3C23.037 29.3 23.205 29.22 23.373 29.22C23.625 28.98 23.625 28.58 23.373 28.34L21.693 26.74L23.373 25.14C23.625 24.9 23.625 24.5 23.373 24.26Z" fill="white"/>
</svg>
