<svg width="48" height="48" viewBox="0 0 48 48" fill="none" xmlns="http://www.w3.org/2000/svg">
<path d="M28.5 7.85999C26.76 7.85999 24.96 8.51998 23.64 9.83998L21.06 12.42C20.46 13.02 20.46 13.98 21.06 14.58C21.66 15.18 22.62 15.18 23.22 14.58L25.8 12C27.3 10.5 29.7 10.5 31.2 12C32.7 13.5 32.7 15.9 31.2 17.4L28.62 19.98C28.02 20.58 28.02 21.54 28.62 22.14C29.22 22.74 30.18 22.74 30.78 22.14L33.36 19.56C36 16.92 36 12.54 33.36 9.83998C32.1 8.51998 30.3 7.85999 28.5 7.85999ZM18.24 15.96C17.82 15.96 17.46 16.14 17.22 16.44L14.64 19.02C12 21.66 12 26.04 14.64 28.74C17.28 31.38 21.66 31.38 24.36 28.74L26.94 26.16C27.54 25.56 27.54 24.6 26.94 24C26.34 23.4 25.38 23.4 24.78 24L22.2 26.52C20.7 28.02 18.3 28.02 16.8 26.52C15.3 25.02 15.3 22.62 16.8 21.12L19.38 18.54C20.28 17.58 19.62 15.9 18.24 15.96ZM27.72 13.98C27.3 13.98 26.94 14.16 26.7 14.46L19.2 21.9C18.6 22.5 18.6 23.46 19.2 24.06C19.8 24.66 20.76 24.66 21.36 24.06L28.8 16.62C29.7 15.66 29.1 13.98 27.72 13.98Z" fill="#58707F"/>
<path d="M21.9 35.4V38.52C21.9 39 21.72 39.42 21.42 39.72C21.12 40.02 20.7 40.14 20.16 40.14C19.62 40.14 19.2 40.02 18.9 39.72C18.6 39.42 18.42 39.06 18.42 38.52V35.4H19.2V38.52C19.2 38.82 19.26 39.06 19.44 39.24C19.62 39.42 19.86 39.48 20.16 39.48C20.76 39.48 21.12 39.12 21.12 38.46V35.4H21.9ZM24.54 38.28H23.64V40.08H22.8V35.4H24.48C25.02 35.4 25.44 35.52 25.74 35.76C26.04 36 26.16 36.36 26.16 36.84C26.16 37.14 26.1 37.44 25.92 37.62C25.74 37.86 25.56 37.98 25.26 38.1L26.34 40.08V40.14H25.44L24.54 38.28ZM23.64 37.62H24.48C24.78 37.62 24.96 37.56 25.14 37.44C25.32 37.32 25.38 37.14 25.38 36.9C25.38 36.66 25.32 36.48 25.14 36.3C25.02 36.18 24.78 36.12 24.48 36.06H23.64V37.62ZM27.72 39.42H29.88V40.08H27V35.4H27.84V39.42H27.72Z" fill="#58707F"/>
</svg>
