
<svg width="135" height="28" viewBox="0 0 135 28" fill="none" xmlns="http://www.w3.org/2000/svg">
<path d="M0.440002 1.25V26.75C0.440002 27.1625 0.777502 27.5 1.19 27.5H35.69C36.1025 27.5 36.44 27.1625 36.44 26.75V1.25C36.44 0.8375 36.1025 0.5 35.69 0.5H1.19C0.777502 0.5 0.440002 0.8375 0.440002 1.25ZM31.175 23.3675H5.705C5.2925 23.3675 4.955 23.03 4.955 22.6175V5.3825C4.955 4.97 5.2925 4.6325 5.705 4.6325H31.175C31.5875 4.6325 31.925 4.97 31.925 5.3825V22.6175C31.925 23.03 31.5875 23.3675 31.175 23.3675Z" fill="white"/>
<path d="M28.76 14.2249L25.5725 18.2074C25.445 18.3724 25.205 18.3949 25.0475 18.2674L23.435 16.9699C23.2775 16.8424 23.2475 16.6024 23.375 16.4449L25.145 14.2399C25.2575 14.1049 25.2575 13.9099 25.145 13.7674L23.36 11.5474C23.2325 11.3824 23.255 11.1499 23.42 11.0224L25.0325 9.72493C25.1975 9.59743 25.43 9.61993 25.5575 9.78493L28.5275 13.4899L28.7525 13.7599C28.8725 13.8874 28.8725 14.0824 28.76 14.2249Z" fill="white"/>
<path d="M11.7275 14.24L13.4975 16.445C13.625 16.61 13.6025 16.8425 13.4375 16.97L11.8325 18.26C11.6675 18.3875 11.435 18.365 11.3075 18.2L8.11251 14.225C8.00001 14.09 8.00001 13.895 8.11251 13.7525L8.17251 13.6775L11.33 9.77749C11.4575 9.61249 11.6975 9.58999 11.855 9.71749L13.4675 11.015C13.6325 11.1425 13.655 11.3825 13.5275 11.54L11.7275 13.775C11.6225 13.91 11.615 14.105 11.7275 14.24Z" fill="white"/>
<path d="M61.01 5.84656L58.13 22.5866C57.68 22.5866 57.23 22.6766 56.96 22.6766H55.79C55.61 22.6766 55.43 22.6766 55.25 22.5866C55.07 22.4966 54.98 22.4066 54.8 22.3166C54.53 21.9566 54.35 21.5966 54.35 21.1466L53.9 18.5366C53.72 17.3666 53.45 15.2966 53.18 12.4166C52.91 15.3866 52.64 17.3666 52.46 18.5366L51.74 22.4966C50.93 22.5866 50.12 22.5866 49.22 22.5866C49.04 22.5866 48.86 22.5866 48.77 22.4966C48.59 22.4066 48.5 22.3166 48.41 22.2266C48.14 21.9566 47.96 21.5966 47.96 21.1466C47.69 19.5266 47.24 17.0066 46.61 13.5866C45.98 10.1666 45.71 7.73656 45.44 6.56656V6.29656C45.44 6.20656 45.44 6.02656 45.62 6.02656C45.8 5.93656 45.89 5.93656 46.07 5.93656H48.23L49.4 13.7666C49.76 15.8366 49.94 17.9066 50.03 19.9766H50.21C50.39 17.9966 50.57 15.9266 50.84 13.7666L51.92 7.37656C51.92 7.19656 52.01 6.92656 52.1 6.83656C52.19 6.74656 52.19 6.74656 52.28 6.65656C52.37 6.56656 52.46 6.56656 52.55 6.65656H54.44L55.7 13.8566C56.06 15.9266 56.24 17.9966 56.33 20.0666H56.51C56.6 18.0866 56.78 15.9266 57.05 13.8566L58.13 6.65656C58.13 6.47656 58.22 6.20656 58.31 6.11656C58.4 6.02656 58.4 6.02656 58.49 5.93656C58.58 5.93656 58.67 5.84656 58.76 5.93656H61.01V5.84656Z" fill="white"/>
<path d="M68.66 6.29651C69.29 6.56651 69.83 7.10651 70.19 7.73651C70.64 8.63651 70.82 9.71651 70.73 10.7065C70.73 12.6865 70.37 14.0365 69.47 14.9365C68.57 15.7465 67.4 16.1065 66.23 16.1065H66.05V22.1365C66.05 22.3165 66.05 22.4065 65.96 22.4965C65.87 22.5865 65.6 22.5865 65.24 22.5865H63.53V6.38651C63.53 6.20651 63.53 6.11651 63.62 6.02651C63.71 5.93651 63.8 5.93651 63.98 5.93651H66.23C67.13 5.84651 67.94 5.93651 68.66 6.29651ZM67.4 12.9565C67.67 12.1465 67.76 11.2465 67.67 10.3465C67.67 9.71651 67.58 9.17651 67.4 8.63651C67.31 8.45651 67.22 8.36651 67.04 8.18651C66.86 8.09651 66.68 8.00651 66.5 8.00651H65.87V13.4965H66.32C66.5 13.4965 66.77 13.4965 66.95 13.3165C67.22 13.4065 67.31 13.2265 67.4 12.9565Z" fill="white"/>
<path d="M77.3 22.1366C76.67 21.5066 76.22 20.6966 76.04 19.7066C75.68 18.0866 75.5 16.3766 75.59 14.6666C75.59 8.54657 77.21 5.48657 80.36 5.48657C81.35 5.48657 81.89 5.57657 82.16 5.84657C82.34 5.93657 82.43 6.11657 82.52 6.29657C82.61 6.47657 82.61 6.65657 82.61 6.83657C82.61 7.37657 82.52 7.91657 82.25 8.45657C81.89 8.18657 81.44 8.09657 80.99 8.09657C80.54 8.09657 80.18 8.27657 79.82 8.45657C79.46 8.72657 79.19 8.99657 79.01 9.35657C78.38 10.9766 78.11 12.5966 78.29 14.3066C78.29 15.3866 78.38 16.4666 78.47 17.5466C78.47 18.1766 78.65 18.7166 79.01 19.1666C79.19 19.3466 79.37 19.4366 79.55 19.5266C79.73 19.6166 80 19.6166 80.18 19.6166C80.81 19.7066 81.44 19.5266 81.98 19.2566C82.25 19.7066 82.34 20.2466 82.34 20.7866C82.34 21.0566 82.25 21.3266 82.16 21.5066C82.07 21.7766 81.8 21.9566 81.62 22.0466C80.99 22.4066 80.27 22.5866 79.55 22.4966C78.74 22.8566 77.93 22.5866 77.3 22.1366Z" fill="white"/>
<path d="M85.22 22.4965C84.77 22.3165 84.32 21.9565 84.05 21.4165C83.69 20.6965 83.51 19.8865 83.6 18.9865C83.51 17.9065 83.78 16.8265 84.32 15.9265C84.59 15.6565 84.86 15.3865 85.22 15.2965C85.58 15.1165 85.94 15.1165 86.3 15.1165C86.57 15.1165 86.84 15.1165 87.02 15.2065C87.29 15.2965 87.56 15.3865 87.74 15.4765V13.8565C87.74 13.5865 87.65 13.4065 87.56 13.2265C87.29 13.1365 87.02 13.0465 86.84 13.0465C86.39 13.0465 85.85 13.1365 85.4 13.2265C84.95 13.3165 84.41 13.4065 83.96 13.5865C83.69 13.1365 83.6 12.5965 83.6 12.0565C83.6 11.8765 83.6 11.6965 83.69 11.6065C83.78 11.4265 83.78 11.3365 83.87 11.2465C84.23 11.0665 84.68 10.8865 85.13 10.7965C85.85 10.6165 86.66 10.5265 87.38 10.6165C87.83 10.5265 88.19 10.6165 88.64 10.7065C89.09 10.7965 89.36 10.9765 89.72 11.2465C89.99 11.6065 90.17 11.9665 90.26 12.3265C90.35 12.6865 90.44 13.1365 90.35 13.4965V14.6665C90.35 18.5365 90.35 21.0565 90.26 22.3165C89.18 22.8565 88.01 23.1265 86.84 23.0365C86.21 22.7665 85.67 22.6765 85.22 22.4965ZM87.74 20.3365V17.2765C87.56 17.1865 87.29 17.0965 87.11 17.0965C86.93 17.0965 86.84 17.0965 86.75 17.1865C86.66 17.2765 86.57 17.3665 86.48 17.4565C86.3 17.9065 86.21 18.4465 86.3 18.9865C86.3 19.4365 86.39 19.7965 86.48 20.2465C86.57 20.5165 86.75 20.6065 87.11 20.6065C87.47 20.6065 87.65 20.5165 87.74 20.3365Z" fill="white"/>
<path d="M92.15 11.4265C93.14 10.7065 94.31 10.3465 95.48 10.3465C95.93 10.2565 96.38 10.3465 96.74 10.6165C96.83 10.7065 96.92 10.8865 97.01 11.0665C97.1 11.2465 97.1 11.4265 97.1 11.6065C97.1 12.1465 97.01 12.6865 96.83 13.1365C96.56 13.0465 96.29 12.9565 95.93 12.9565C95.75 12.9565 95.57 12.9565 95.39 13.0465C95.21 13.1365 95.03 13.2265 94.94 13.3165V22.1365C94.94 22.3165 94.94 22.4065 94.85 22.4965C94.76 22.5865 94.49 22.5865 94.13 22.5865H92.33V11.4265H92.15Z" fill="white"/>
<path d="M99.08 22.3165C98.81 22.1365 98.54 21.8665 98.27 21.5065C98.09 21.2365 97.91 20.8765 97.91 20.5165C97.55 19.1665 97.46 17.8165 97.55 16.4665C97.55 12.3265 98.9 10.2565 101.6 10.2565C102.32 10.2565 103.04 10.4365 103.67 10.7965C103.94 10.9765 104.21 11.2465 104.39 11.6065C104.57 11.8765 104.75 12.2365 104.75 12.5965C105.02 13.7665 105.2 15.0265 105.11 16.2865C105.11 18.5365 104.84 20.0665 104.12 21.1465C103.76 21.5965 103.31 21.9565 102.86 22.2265C102.32 22.4965 101.78 22.5865 101.15 22.5865C100.52 22.7665 99.8 22.6765 99.08 22.3165ZM101.87 20.3365C102.05 19.9765 102.14 19.6165 102.14 19.1665C102.23 18.2665 102.23 17.4565 102.23 16.5565C102.23 15.6565 102.23 14.8465 102.14 13.9465C102.23 13.5865 102.05 13.1365 101.87 12.7765C101.78 12.6865 101.69 12.5965 101.6 12.5065C101.51 12.4165 101.42 12.4165 101.24 12.4165C100.97 12.4165 100.7 12.6865 100.61 13.3165C100.34 14.3065 100.25 15.3865 100.34 16.4665C100.34 17.3665 100.34 18.2665 100.43 19.1665C100.52 19.5265 100.61 19.9765 100.7 20.3365C100.79 20.4265 100.88 20.5165 100.97 20.6065C101.06 20.6965 101.15 20.6965 101.33 20.6965C101.42 20.6965 101.6 20.6065 101.69 20.6065C101.69 20.5165 101.78 20.4265 101.87 20.3365Z" fill="white"/>
<path d="M107.45 21.8665C106.91 21.0565 106.64 20.1565 106.73 19.1665V11.0665C106.73 10.8865 106.73 10.7965 106.82 10.7065C106.91 10.6165 107.18 10.6165 107.54 10.6165H109.34V19.2565C109.34 19.5265 109.43 19.8865 109.52 20.1565C109.61 20.3365 109.79 20.4265 110.15 20.4265C110.51 20.4265 110.78 20.3365 111.14 20.1565V10.9765C111.14 10.7965 111.14 10.7065 111.23 10.6165C111.32 10.5265 111.5 10.5265 111.95 10.5265H113.75V21.7765C113.21 22.0465 112.67 22.3165 112.13 22.4065C111.5 22.5865 110.87 22.6765 110.24 22.6765C109.7 22.7665 109.25 22.6765 108.71 22.5865C108.26 22.4065 107.81 22.2265 107.45 21.8665Z" fill="white"/>
<path d="M115.28 21.4166C115.28 20.8766 115.46 20.4266 115.73 19.9766C116.36 20.3366 117.08 20.5166 117.8 20.4266C118.16 20.4266 118.52 20.3366 118.79 20.1566C118.97 19.9766 119.06 19.7066 119.06 19.4366C119.06 18.8966 118.88 18.4466 118.52 18.0866L116.45 15.9266C116.09 15.5666 115.82 15.1166 115.55 14.5766C115.37 14.2166 115.28 13.7666 115.28 13.3166C115.28 12.8666 115.37 12.5066 115.46 12.1466C115.64 11.7866 115.91 11.4266 116.18 11.1566C117.08 10.5266 118.16 10.2566 119.24 10.4366C120.05 10.3466 120.86 10.5266 121.67 10.8866C121.85 10.9766 121.94 11.1566 122.12 11.3366C122.21 11.5166 122.3 11.6966 122.3 11.9666C122.3 12.2366 122.3 12.4166 122.21 12.5966C122.12 12.7766 122.03 13.0466 121.85 13.1366C121.22 12.7766 120.5 12.5966 119.78 12.6866C119.06 12.6866 118.61 12.9566 118.61 13.4066C118.61 13.4966 118.61 13.5866 118.61 13.6766C118.61 13.7666 118.7 13.8566 118.79 13.8566C118.97 14.1266 119.15 14.3066 119.33 14.4866L121.04 16.2866C121.4 16.7366 121.76 17.1866 122.03 17.7266C122.21 18.1766 122.3 18.7166 122.3 19.2566C122.3 19.7066 122.21 20.1566 122.03 20.6066C121.85 21.0566 121.58 21.4166 121.22 21.6866C120.41 22.3166 119.42 22.6766 118.34 22.6766C116.18 22.7666 115.28 22.3166 115.28 21.4166Z" fill="white"/>
<path d="M129.95 19.5265C130.04 20.1565 130.13 20.6965 130.13 21.3265C130.13 21.7765 129.86 22.2265 129.14 22.4065C128.42 22.6765 127.61 22.8565 126.71 22.7665C126.17 22.7665 125.63 22.6765 125.18 22.4965C124.73 22.3165 124.28 21.9565 123.92 21.5065C123.29 20.6065 122.93 19.2565 122.93 17.0965C122.84 15.6565 123.02 14.2165 123.47 12.8665C123.74 12.0565 124.19 11.3365 124.91 10.8865C125.54 10.5265 126.35 10.3465 127.07 10.4365C129.05 10.4365 130.13 11.7865 130.13 14.3065C130.13 15.4765 130.04 16.6465 129.86 17.7265C128.51 17.9065 127.16 18.0865 125.72 17.9965C125.72 18.6265 125.81 19.1665 126.08 19.7065C126.26 20.0665 126.62 20.1565 127.25 20.1565C128.33 20.1565 129.14 19.8865 129.95 19.5265ZM126.08 13.4965C125.81 14.3065 125.72 15.1165 125.81 16.0165C126.44 16.0165 127.07 15.9265 127.61 15.8365C127.7 15.3865 127.7 15.0265 127.7 14.5765C127.7 14.1265 127.7 13.5865 127.52 13.1365C127.43 13.0465 127.34 12.8665 127.25 12.8665C127.16 12.7765 126.98 12.7765 126.89 12.7765C126.62 12.6865 126.35 12.8665 126.08 13.4965Z" fill="white"/>
<path d="M131.84 6.20653C131.84 5.93653 131.93 5.57653 132.02 5.30653C132.11 5.21653 132.2 5.12653 132.29 5.12653C132.38 5.03653 132.56 5.03653 132.65 5.03653C132.92 5.03653 133.55 4.94653 134.36 4.94653V22.0465C134.36 22.2265 134.36 22.3165 134.27 22.4065C134.18 22.4965 134 22.4965 133.55 22.4965H131.84V6.20653Z" fill="white"/>
</svg>
