<svg xmlns="http://www.w3.org/2000/svg" width='240' height='200' xmlns:xlink="http://www.w3.org/1999/xlink" viewBox="0 0 250 126"><path d="M83 17.2H24.9c-1.1 0-2 .9-2 2v53.2c0 1.1.9 2 2 2H83c1.1 0 2-.9 2-2V19.2c0-1.1-.9-2-2-2zm74.9 0h-58c-1.1 0-2 .9-2 2v53.2c0 1.1.9 2 2 2H158c1.1 0 2-.9 2-2V19.2c-.1-1.1-1-2-2.1-2zm75 0h-58.1c-1.1 0-2 .9-2 2v53.2c0 1.1.9 2 2 2h58.1c1.1 0 2-.9 2-2V19.2c0-1.1-.9-2-2-2z" fill="#8796a1"/><path d="M44.7 37.7a2.7 2.7 0 1 0 0 5.4 2.69 2.69 0 0 0 2.7-2.7c0-1.5-1.3-2.7-2.7-2.7zm26.5-5.2H36.7c-1 0-1.7.8-1.7 1.7v23.2c0 .5.2.9.5 1.2v.1h.1c.3.3.7.5 1.2.5h34.5c.5 0 .9-.2 1.2-.5h.1v-.1c.3-.3.5-.7.5-1.2V34.2c-.1-.9-.9-1.7-1.9-1.7zm.8 23.2l-10.6-15a2.25 2.25 0 0 0-3.6 0l-7.5 10.5 5.6 5.6c.2.2.2.5 0 .7-.1.1-.2.1-.3.1s-.2 0-.3-.1l-9-9c-.9-.9-2.3-.9-3.1 0L35.9 56V34.2c0-.4.3-.8.8-.8h34.5c.4 0 .8.3.8.8v21.5zm47.6-18a2.7 2.7 0 1 0 0 5.4 2.7 2.7 0 1 0 0-5.4zm26.6-5.2h-34.5c-1 0-1.7.8-1.7 1.7v23.2c0 .5.2.9.5 1.2v.1h.1c.3.3.7.5 1.2.5h34.5c.5 0 .9-.2 1.2-.5h.1v-.1c.3-.3.5-.7.5-1.2V34.2c-.2-.9-1-1.7-1.9-1.7zm.7 23.2l-10.6-15a2.25 2.25 0 0 0-3.6 0l-7.5 10.5 5.6 5.6c.2.2.2.5 0 .7-.1.1-.2.1-.3.1s-.2 0-.3-.1l-9-9c-.9-.9-2.3-.9-3.1 0l-7.3 7.4V34.2c0-.4.3-.8.8-.8h34.5c.4 0 .8.3.8.8v21.5zm47.6-18a2.7 2.7 0 1 0 0 5.4 2.7 2.7 0 1 0 0-5.4zm26.6-5.2h-34.5c-1 0-1.7.8-1.7 1.7v23.2c0 .5.2.9.5 1.2v.1h.1c.3.3.7.5 1.2.5h34.5c.5 0 .9-.2 1.2-.5h.1v-.1c.3-.3.5-.7.5-1.2V34.2c-.1-.9-.9-1.7-1.9-1.7zm.8 23.2l-10.6-15a2.25 2.25 0 0 0-3.6 0l-7.5 10.5 5.6 5.6c.2.2.2.5 0 .7-.1.1-.2.1-.3.1s-.2 0-.3-.1l-9-9c-.9-.9-2.3-.9-3.1 0l-7.3 7.4V34.2c0-.4.3-.8.8-.8h34.5c.4 0 .8.3.8.8v21.5z" fill="#96a3aa"/><g opacity=".55" fill="#08062d"><path d="M83 17.2H24.9c-1.1 0-2 .9-2 2v53.2c0 1.1.9 2 2 2H83c1.1 0 2-.9 2-2V19.2c0-1.1-.9-2-2-2zm74.9 0h-58c-1.1 0-2 .9-2 2v53.2c0 1.1.9 2 2 2H158c1.1 0 2-.9 2-2V19.2c-.1-1.1-1-2-2.1-2zm75 0h-58.1c-1.1 0-2 .9-2 2v53.2c0 1.1.9 2 2 2h58.1c1.1 0 2-.9 2-2V19.2c0-1.1-.9-2-2-2z"/></g><g fill="#231f20"><path d="M82.8 102.8c.3-.5.8-.7 1.5-.7.6 0 1 .1 1.3.4s.5.7.5 1.3h1.5c-.1-.9-.4-1.7-1-2.2s-1.3-.8-2.3-.8c-.7 0-1.3.2-1.8.5s-.9.8-1.2 1.4-.4 1.3-.4 2.1v.8c0 .8.2 1.5.4 2.1s.7 1.1 1.2 1.4 1.1.5 1.8.5c1 0 1.8-.3 2.3-.8a3.47 3.47 0 0 0 1-2.1h-1.5c-.1.6-.3 1-.6 1.3s-.7.4-1.3.4-1.1-.2-1.5-.7c-.3-.5-.5-1.2-.5-2.1v-.8c.1-.8.3-1.5.6-2zm10.7 1.1c-.5-.6-1.2-.8-2.1-.8-.6 0-1.1.1-1.5.4s-.8.7-1 1.1-.4 1.1-.4 1.7v.1c0 1 .3 1.8.8 2.4s1.3.9 2.1.9c.6 0 1.1-.1 1.5-.4s.8-.7 1-1.1.4-1.1.4-1.7v-.3c0-1-.2-1.7-.8-2.3zm-.9 4.1c-.3.4-.6.6-1.1.6s-.9-.2-1.1-.6-.4-.9-.4-1.5c0-.7.1-1.3.4-1.7s.6-.6 1.1-.6.8.2 1.1.6.4.9.4 1.5c0 .7-.2 1.3-.4 1.7zm6.2-4.9c-.8 0-1.4.3-1.8.8v-.7h-1.3v6.3H97V105c.3-.5.7-.8 1.3-.8.4 0 .7.1.9.3s.3.5.3.9v4.1h1.4v-4.2c-.1-1.4-.8-2.2-2.1-2.2z"/><use xlink:href="#B"/><path d="M108.9 103.1c-.5 0-1 .1-1.5.4s-.8.7-1 1.2-.4 1.1-.4 1.7v.2c0 .9.3 1.7.8 2.3s1.3.9 2.2.9c.5 0 1-.1 1.4-.3s.8-.5 1-.9l-.8-.7c-.4.5-.9.8-1.6.8-.5 0-.9-.2-1.2-.5s-.5-.7-.5-1.2h4.1v-.6c0-1-.2-1.8-.7-2.3s-1-1-1.8-1zm1.3 2.7h-2.7c.1-.5.2-.9.5-1.1s.6-.4.9-.4c.4 0 .7.1.9.4s.3.6.4 1.1h0zm5.7-2.7c-.8 0-1.4.3-1.8.8v-.7h-1.3v6.3h1.4V105c.3-.5.7-.8 1.3-.8.4 0 .7.1.9.3s.3.5.3.9v4.1h1.4v-4.2c-.2-1.4-.9-2.2-2.2-2.2z"/><use xlink:href="#B" x="17.1"/><path d="M129.7 101h-3.3v8.5h1.5v-3.2h1.8c1 0 1.8-.2 2.3-.7s.8-1.1.8-2c0-.8-.3-1.5-.8-2-.5-.3-1.3-.6-2.3-.6zm1.3 3.8c-.3.2-.7.4-1.2.4H128v-3h1.8c.5 0 .9.1 1.2.4s.4.6.4 1.1-.2.9-.4 1.1zm8 .4c0-.7-.2-1.2-.7-1.6s-1-.6-1.8-.6c-.5 0-.9.1-1.3.3s-.7.4-.9.7a1.69 1.69 0 0 0-.3 1h1.4c0-.2.1-.5.3-.6s.5-.2.8-.2c.4 0 .7.1.8.3s.3.5.3.8v.4h-.9c-.9 0-1.7.2-2.2.5s-.8.9-.8 1.6c0 .5.2 1 .6 1.3s.9.5 1.6.5a2.19 2.19 0 0 0 1.7-.7c0 .3.1.5.2.6h1.5v-.1c-.2-.3-.2-.8-.2-1.4v-2.8zm-1.5 2.6c-.1.2-.3.4-.6.6s-.5.2-.8.2-.5-.1-.7-.2-.3-.4-.3-.7.1-.6.4-.8.7-.3 1.2-.3h.8v1.2z"/><use xlink:href="#C"/><use xlink:href="#C" x="6.8"/><path d="M154.8 100.8c-.3 0-.5.1-.6.2s-.2.3-.2.5.1.4.2.5.3.2.6.2.5-.1.6-.2.2-.3.2-.5-.1-.4-.2-.5-.3-.2-.6-.2zm-.7 2.4h1.4v6.3h-1.4zm6.2-.1c-.8 0-1.4.3-1.8.8v-.7H157v6.3h1.4V105c.3-.5.7-.8 1.3-.8.4 0 .7.1.9.3s.3.5.3.9v4.1h1.4v-4.2c0-1.4-.7-2.2-2-2.2zm7.5.1l-.1.6c-.4-.5-1-.8-1.7-.8-.8 0-1.4.3-1.8.9s-.7 1.4-.7 2.4.2 1.9.7 2.4 1.1.9 1.8.9 1.2-.2 1.6-.7v.4c0 .5-.1.9-.4 1.1s-.6.4-1.1.4c-.6 0-1.2-.3-1.6-.8l-.7.9c.2.3.6.6 1 .8s.9.3 1.4.3c.9 0 1.6-.2 2.1-.7s.8-1.1.8-2v-6.1h-1.3zm-.2 4.6c-.3.5-.7.7-1.3.7-.5 0-.8-.2-1.1-.5s-.4-.9-.4-1.5c0-.7.1-1.3.4-1.6s.6-.6 1.1-.6c.6 0 1 .2 1.3.7v2.8z"/></g><g fill="#fff"><path d="M39.1 32.7H69c.5 0 .9-.4.9-.9s-.4-.9-.9-.9H39.1c-.5 0-.9.4-.9.9-.1.5.3.9.9.9z"/><use xlink:href="#D"/><use xlink:href="#D" y="3.7"/><use xlink:href="#D" y="7.3"/><use xlink:href="#D" y="11"/><use xlink:href="#D" y="14.6"/><use xlink:href="#D" y="18.3"/><path d="M65.6 59.8H42.3a.5.5 0 1 0 0 1h23.3a.5.5 0 1 0 0-1zM114 32.7h29.9c.5 0 .9-.4.9-.9s-.4-.9-.9-.9H114c-.5 0-.9.4-.9.9s.4.9.9.9z"/><use xlink:href="#E"/><use xlink:href="#E" y="3.7"/><use xlink:href="#E" y="7.3"/><use xlink:href="#E" y="11"/><use xlink:href="#E" y="14.6"/><use xlink:href="#E" y="18.3"/><path d="M140.6 59.8h-23.3a.5.5 0 1 0 0 1h23.3a.47.47 0 0 0 .5-.5c0-.3-.3-.5-.5-.5zm48.3-27.1h29.9c.5 0 .9-.4.9-.9s-.4-.9-.9-.9h-29.9c-.5 0-.9.4-.9.9s.4.9.9.9zm-8.8 6.1h47.6a.47.47 0 0 0 .5-.5.47.47 0 0 0-.5-.5h-47.6a.47.47 0 0 0-.5.5.47.47 0 0 0 .5.5z"/><use xlink:href="#F"/><use xlink:href="#F" y="3.6"/><use xlink:href="#F" y="7.3"/><use xlink:href="#F" y="10.9"/><use xlink:href="#F" y="14.6"/><path d="M215.5 59.8h-23.3a.47.47 0 1 0 0 1h23.3a.47.47 0 1 0 0-1z"/></g><g fill="#f21197"><path d="M37.8 80.7h-1v5.7h3.6v-.8h-2.6zm5 1.4a1.69 1.69 0 0 0-1 .3 1.85 1.85 0 0 0-.7.8c-.2.4-.2.7-.2 1.1v.1c0 .6.2 1.1.6 1.5s.9.6 1.5.6c.4 0 .7-.1 1-.2s.5-.3.7-.6l-.5-.5c-.3.4-.6.5-1.1.5-.3 0-.6-.1-.8-.3s-.3-.5-.3-.8h2.8v-.4c0-.7-.2-1.2-.5-1.6s-.9-.5-1.5-.5zm.9 1.8h-1.8c0-.3.1-.6.3-.8s.4-.3.6-.3c.3 0 .5.1.6.2s.3.5.3.9h0zm2.4-3.2c-.3.3-.4.6-.4 1.1v.4h-.6v.7h.6v3.5h.9v-3.5h.9v-.7h-.9v-.4c0-.5.2-.7.7-.7h.4v-.7c-.2 0-.4-.1-.5-.1-.5 0-.8.2-1.1.4z"/><use xlink:href="#G"/><path d="M50.7 83.6h2.1v.8h-2.1zm6.7-.2a1.69 1.69 0 0 0 .3-1c0-.6-.2-1-.5-1.3-.4-.3-.9-.4-1.5-.4h-2v5.7h1v-2.2h1.1l1.1 2.2H58v-.1L56.6 84c.3-.1.6-.3.8-.6zm-1.8 0h-1v-1.9h1c.3 0 .6.1.8.3s.3.4.3.7-.1.5-.3.7-.5.2-.8.2zm3.4-2.8c-.2 0-.3 0-.4.1s-.1.2-.1.4c0 .1 0 .3.1.4s.2.1.4.1.3 0 .4-.1.1-.2.1-.4c0-.1 0-.3-.1-.4s-.2-.1-.4-.1zm-.4 1.6h.9v4.2h-.9zm4.6.4c-.3-.3-.7-.5-1.1-.5-.5 0-.9.2-1.2.6s-.5.9-.5 1.6.2 1.2.5 1.6.7.6 1.2.6.8-.2 1.1-.5v.3c0 .3-.1.6-.3.8s-.4.3-.7.3c-.4 0-.8-.2-1.1-.5l-.4.6c.2.2.4.4.7.5s.6.2.9.2c.6 0 1.1-.2 1.4-.5s.5-.8.5-1.3v-4.1h-.9l-.1.3zm-.1 2.6c-.2.3-.5.5-.9.5-.3 0-.5-.1-.7-.4a1.69 1.69 0 0 1-.3-1c0-.5.1-.8.3-1.1s.4-.4.7-.4c.4 0 .7.2.8.5v1.9zm4.1-3.1c-.5 0-.9.2-1.2.5v-2.2h-.9v6h.9v-3c.2-.3.5-.5.9-.5.2 0 .4.1.6.2s.2.3.2.6v2.7h.9v-2.8c-.1-1-.5-1.5-1.4-1.5z"/><use xlink:href="#G" x="21.3"/><path d="M127 80.7h-4.5v.8h1.8v4.9h1v-4.9h1.7zm3.1 2c-.4-.4-.8-.6-1.4-.6a1.69 1.69 0 0 0-1 .3 1.85 1.85 0 0 0-.7.8c-.2.4-.2.7-.2 1.1h0c0 .7.2 1.2.5 1.6s.8.6 1.4.6a1.69 1.69 0 0 0 1-.3 1.85 1.85 0 0 0 .7-.8c.2-.4.2-.7.2-1.1v-.2c0-.6-.2-1.1-.5-1.4zm-.7 2.7c-.2.2-.4.4-.7.4s-.6-.1-.8-.4a1.69 1.69 0 0 1-.3-1c0-.5.1-.9.3-1.1s.4-.4.7-.4.6.1.7.4.3.6.3 1a1.39 1.39 0 0 1-.2 1.1zm4.1-3.3c-.5 0-.9.2-1.1.5v-.4h-.9V88h.9v-2c.3.3.6.5 1.1.5s.9-.2 1.2-.6.4-.9.4-1.6v-.1c0-.7-.1-1.2-.4-1.6s-.7-.5-1.2-.5zm.4 3.3c-.2.2-.4.4-.7.4-.4 0-.7-.2-.8-.5v-1.9c.2-.3.4-.5.8-.5.3 0 .6.1.7.4s.3.6.3 1c0 .5-.1.8-.3 1.1zm60.5-2c.3-.1.5-.3.6-.5s.2-.4.2-.7c0-.5-.2-.9-.5-1.2s-.8-.4-1.5-.4h-1.9v5.7h2.1c.6 0 1.1-.1 1.5-.4s.5-.7.5-1.2c0-.3-.1-.6-.3-.8s-.4-.4-.7-.5zm-2.1-1.9h1c.3 0 .6.1.7.2s.2.3.2.6-.1.5-.3.6-.4.2-.7.2h-1v-1.6zm1.8 3.9c-.2.2-.4.2-.7.2h-1.1v-1.8h1.2c.6 0 .9.3.9.9-.1.3-.1.5-.3.7zm5.3-2.7c-.4-.4-.8-.6-1.4-.6a1.69 1.69 0 0 0-1 .3 1.85 1.85 0 0 0-.7.8c-.2.4-.2.7-.2 1.1h0c0 .7.2 1.2.5 1.6s.8.6 1.4.6a1.69 1.69 0 0 0 1-.3 1.85 1.85 0 0 0 .7-.8c.2-.4.2-.7.2-1.1v-.2c0-.6-.2-1.1-.5-1.4zm-.6 2.7c-.2.2-.4.4-.7.4s-.6-.1-.8-.4a1.69 1.69 0 0 1-.3-1c0-.5.1-.9.3-1.1s.4-.4.7-.4.6.1.7.4.3.6.3 1-.1.8-.2 1.1zm3.3.2c-.1-.1-.1-.2-.1-.3v-2.4h.7v-.7h-.7v-1h-1v1h-.7v.7h.7v2.4c0 .8.4 1.2 1.1 1.2.2 0 .4 0 .6-.1v-.7h-.3c-.2 0-.3 0-.3-.1z"/><use xlink:href="#G" x="155.2"/><path d="M209.2 82.7c-.4-.4-.8-.6-1.4-.6a1.69 1.69 0 0 0-1 .3 1.85 1.85 0 0 0-.7.8c-.2.4-.2.7-.2 1.1h0c0 .7.2 1.2.5 1.6s.8.6 1.4.6a1.69 1.69 0 0 0 1-.3 1.85 1.85 0 0 0 .7-.8c.2-.4.2-.7.2-1.1v-.2c0-.6-.2-1.1-.5-1.4zm-.7 2.7c-.2.2-.4.4-.7.4s-.6-.1-.8-.4a1.69 1.69 0 0 1-.3-1c0-.5.1-.9.3-1.1s.4-.4.7-.4.6.1.7.4.3.6.3 1a1.39 1.39 0 0 1-.2 1.1zm6.6-3.3c-.6 0-1 .2-1.3.6-.2-.4-.6-.6-1.2-.6-.5 0-.9.2-1.2.5v-.4h-.9v4.2h.9v-3.1c.2-.3.4-.5.8-.5.5 0 .7.2.8.7v2.8h.9v-2.9c.1-.2.2-.3.3-.5s.3-.2.5-.2c.3 0 .5.1.6.2s.2.3.2.6v2.8h.9v-2.8c0-.5-.1-.9-.3-1.1s-.5-.3-1-.3z"/></g><g fill="#ffd9f1" stroke="#f21197"><path d="M105.7 18.5h46.7v11h-46.7zm75.1 43.7h46.7v11h-46.7z" stroke-width=".968" stroke-miterlimit="10"/><path d="M79 31.2h5v29.2h-5zm-55.1 0h5v29.2h-5z" stroke-miterlimit="10"/></g><defs ><path id="B" d="M104.2 108.3c-.1-.1-.1-.3-.1-.5v-3.5h1.1v-1.1h-1.1v-1.5h-1.4v1.5h-1v1.1h1v3.6c0 1.2.5 1.8 1.6 1.8.3 0 .6 0 .9-.1v-1.1c-.2 0-.3.1-.5.1-.2-.1-.4-.2-.5-.3z"/><path id="C" d="M144.3 103.8c-.4-.5-1-.7-1.6-.7-.8 0-1.4.3-1.8.9s-.7 1.4-.7 2.4.2 1.8.7 2.4 1.1.9 1.8.9 1.3-.3 1.7-.8l.1.7h1.3v-9h-1.4v3.2zm0 3.9c-.3.5-.7.8-1.3.8-.5 0-.8-.2-1.1-.5s-.4-.9-.4-1.5c0-.7.1-1.3.4-1.6s.6-.5 1.1-.5c.6 0 1 .3 1.3.8v2.5z"/><path id="D" d="M77.8 37.9H30.2a.47.47 0 0 0-.5.5.47.47 0 0 0 .5.5h47.6a.47.47 0 0 0 .5-.5c0-.3-.3-.5-.5-.5z"/><path id="E" d="M152.7 37.9h-47.6a.47.47 0 0 0-.5.5.47.47 0 0 0 .5.5h47.6a.47.47 0 0 0 .5-.5.47.47 0 0 0-.5-.5z"/><path id="F" d="M227.6 41.6H180a.47.47 0 0 0-.5.5.47.47 0 0 0 .5.5h47.6a.47.47 0 0 0 .5-.5.47.47 0 0 0-.5-.5z"/><path id="G" d="M49.5 85.6c-.1-.1-.1-.2-.1-.3v-2.4h.7v-.7h-.7v-1h-.9v1h-.7v.7h.7v2.4c0 .8.4 1.2 1.1 1.2.2 0 .4 0 .6-.1v-.7h-.3c-.2 0-.3 0-.4-.1z"/></defs></svg>