<svg xmlns="http://www.w3.org/2000/svg"  width='240' height='200' xmlns:xlink="http://www.w3.org/1999/xlink" viewBox="0 0 250 126"><path d="M79.1 15.5H21c-1.1 0-2 .9-2 2v53.2c0 1.1.9 2 2 2h58.1c1.1 0 2-.9 2-2V17.5c0-1.1-.9-2-2-2zm74.9 0H96c-1.1 0-2 .9-2 2v53.2c0 1.1.9 2 2 2h58c1.1 0 2-.9 2-2V17.5c0-1.1-.9-2-2-2zm75 0h-58.1c-1.1 0-2 .9-2 2v53.2c0 1.1.9 2 2 2H229c1.1 0 2-.9 2-2V17.5c0-1.1-.9-2-2-2z" fill="#8796a1"/><path d="M40.7 36a2.7 2.7 0 1 0 0 5.4 2.7 2.7 0 1 0 0-5.4zm26.6-5.2H32.8c-1 0-1.7.8-1.7 1.7v23.2c0 .5.2.9.5 1.2v.1h.1c.3.3.7.5 1.2.5h34.5c.5 0 .9-.2 1.2-.5h.1v-.1c.3-.3.5-.7.5-1.2V32.5c-.1-.9-.9-1.7-1.9-1.7zm.8 23.2L57.5 39a2.25 2.25 0 0 0-3.6 0l-7.5 10.5 5.6 5.6c.2.2.2.5 0 .7 0 .1-.2.2-.3.2s-.2 0-.3-.1l-9-9c-.9-.9-2.3-.9-3.1 0L32 54.3V32.5c0-.4.3-.8.8-.8h34.5c.4 0 .8.3.8.8V54zm47.6-18a2.7 2.7 0 1 0 0 5.4 2.7 2.7 0 1 0 0-5.4zm26.6-5.2h-34.5c-1 0-1.7.8-1.7 1.7v23.2c0 .5.2.9.5 1.2v.1h.1c.3.3.7.5 1.2.5h34.5c.5 0 .9-.2 1.2-.5h.1v-.1c.3-.3.5-.7.5-1.2V32.5c-.2-.9-1-1.7-1.9-1.7zM143 54l-10.6-15a2.25 2.25 0 0 0-3.6 0l-7.5 10.5 5.6 5.6c.2.2.2.5 0 .7-.1.1-.2.1-.3.1s-.2 0-.3-.1l-9-9c-.9-.9-2.3-.9-3.1 0l-7.3 7.4V32.5c0-.4.3-.8.8-.8h34.5c.4 0 .8.3.8.8V54zm47.6-18a2.7 2.7 0 1 0 0 5.4 2.7 2.7 0 1 0 0-5.4zm26.6-5.2h-34.5c-1 0-1.7.8-1.7 1.7v23.2c0 .5.2.9.5 1.2v.1h.1c.3.3.7.5 1.2.5h34.5c.5 0 .9-.2 1.2-.5h.1v-.1c.3-.3.5-.7.5-1.2V32.5c-.2-.9-.9-1.7-1.9-1.7zM218 54l-10.6-15a2.25 2.25 0 0 0-3.6 0l-7.5 10.5 5.6 5.6c.2.2.2.5 0 .7-.1.1-.2.1-.3.1s-.2 0-.3-.1l-9-9c-.9-.9-2.3-.9-3.1 0l-7.3 7.4V32.5c0-.4.3-.8.8-.8h34.5c.4 0 .8.3.8.8V54z" fill="#96a3aa"/><g opacity=".55" fill="#08062d"><path d="M79.1 15.5H21c-1.1 0-2 .9-2 2v53.2c0 1.1.9 2 2 2h58.1c1.1 0 2-.9 2-2V17.5c0-1.1-.9-2-2-2zm74.9 0H96c-1.1 0-2 .9-2 2v53.2c0 1.1.9 2 2 2h58c1.1 0 2-.9 2-2V17.5c0-1.1-.9-2-2-2zm75 0h-58.1c-1.1 0-2 .9-2 2v53.2c0 1.1.9 2 2 2H229c1.1 0 2-.9 2-2V17.5c0-1.1-.9-2-2-2z"/></g><path d="M35.1 25.9H65c.5 0 .9-.4.9-.9s-.4-1-.9-1H35.1c-.5 0-.9.4-.9.9s.4 1 .9 1zM73.9 31H26.3a.47.47 0 0 0-.5.5.47.47 0 0 0 .5.5h47.6a.47.47 0 0 0 .5-.5c0-.3-.3-.5-.5-.5zm0 3.7H26.3a.47.47 0 0 0-.5.5.47.47 0 0 0 .5.5h47.6a.47.47 0 0 0 .5-.5c0-.3-.3-.5-.5-.5zm-12.2 3.6H38.4a.47.47 0 0 0-.5.5.47.47 0 0 0 .5.5h23.3a.47.47 0 0 0 .5-.5.47.47 0 0 0-.5-.5zm48.4.1H140c.5 0 .9-.4.9-.9s-.4-.9-.9-.9h-29.9c-.5 0-.9.4-.9.9s.4.9.9.9zm38.7 5.1h-47.6a.47.47 0 0 0-.5.5.47.47 0 0 0 .5.5h47.6a.47.47 0 0 0 .5-.5c0-.3-.3-.5-.5-.5zm0 3.7h-47.6a.47.47 0 0 0-.5.5.47.47 0 0 0 .5.5h47.6a.47.47 0 0 0 .5-.5c0-.3-.3-.5-.5-.5zm-12.1 3.6h-23.3a.47.47 0 0 0-.5.5.47.47 0 0 0 .5.5h23.3a.47.47 0 0 0 .5-.5c0-.3-.3-.5-.5-.5zm48.3.1h29.9c.5 0 .9-.4.9-.9s-.4-.9-.9-.9H185c-.5 0-.9.4-.9.9s.4.9.9.9zm-8.9 6.1h47.6a.47.47 0 0 0 .5-.5.47.47 0 0 0-.5-.5h-47.6a.47.47 0 0 0-.5.5c0 .3.3.5.5.5zm47.6 2.7h-47.6a.5.5 0 1 0 0 1h47.6a.5.5 0 1 0 0-1zm-12.1 3.6h-23.3a.5.5 0 1 0 0 1h23.3a.5.5 0 1 0 0-1z" fill="#fff"/><g fill="#231f20"><path d="M55.2 101c.3-.5.8-.7 1.5-.7.6 0 1 .1 1.3.4s.5.7.5 1.3H60c-.1-.9-.4-1.7-1-2.2s-1.3-.8-2.3-.8c-.7 0-1.3.2-1.8.5s-.9.8-1.2 1.4-.4 1.3-.4 2.1v.8c0 .8.2 1.5.4 2.1s.7 1.1 1.2 1.4 1.1.5 1.8.5c1 0 1.8-.3 2.3-.8a3.47 3.47 0 0 0 1-2.1h-1.5c-.1.6-.3 1-.6 1.3s-.7.4-1.3.4-1.1-.2-1.5-.7c-.3-.5-.5-1.2-.5-2.1v-.8c0-.9.2-1.5.6-2zm10.7 1.1c-.5-.6-1.2-.8-2.1-.8-.6 0-1.1.1-1.5.4s-.8.7-1 1.1-.4 1.1-.4 1.7v.1c0 1 .3 1.8.8 2.4s1.3.9 2.1.9c.6 0 1.1-.1 1.5-.4s.8-.7 1-1.1.4-1.1.4-1.7v-.3c0-1-.3-1.8-.8-2.3zm-1 4c-.3.4-.6.6-1.1.6s-.9-.2-1.1-.6-.4-.9-.4-1.5c0-.7.1-1.3.4-1.7s.6-.6 1.1-.6.8.2 1.1.6.4.9.4 1.5c0 .8-.1 1.4-.4 1.7zm6.3-4.8c-.8 0-1.4.3-1.8.8v-.7h-1.3v6.3h1.4v-4.5c.3-.5.7-.8 1.3-.8.4 0 .7.1.9.3s.3.5.3.9v4.1h1.4v-4.2c-.3-1.5-.9-2.2-2.2-2.2zm5.3 5.2c-.1-.1-.1-.3-.1-.5v-3.5h1.1v-1.1h-1.1v-1.5H75v1.5h-1v1.1h1v3.6c0 1.2.5 1.8 1.6 1.8.3 0 .6 0 .9-.1v-1.1c-.2 0-.3.1-.5.1-.2-.1-.4-.2-.5-.3z"/><use xlink:href="#B"/><path d="M88.3 101.3c-.8 0-1.4.3-1.8.8v-.7H85v6.3h1.4v-4.5c.3-.5.7-.8 1.3-.8.4 0 .7.1.9.3s.3.5.3.9v4.1h1.4v-4.2c0-1.5-.7-2.2-2-2.2zm5.4 5.2c-.1-.1-.1-.3-.1-.5v-3.5h1.1v-1.1h-1.1v-1.5h-1.4v1.5h-1v1.1h1v3.6c0 1.2.5 1.8 1.6 1.8.3 0 .6 0 .9-.1v-1.1c-.2 0-.3.1-.5.1-.3-.1-.5-.2-.5-.3zm8.1-.6l-2.1-6.7h-1.6l3 8.5h1.5l3-8.5H104z"/><use xlink:href="#B" x="27.6"/><path d="M114 102.1v-.7h-1.4v6.3h1.4v-4.3c.2-.5.7-.8 1.3-.8h.6v-1.3c-.1-.1-.3-.1-.5-.1-.5.1-1 .3-1.4.9zm5.1 4.4c-.1-.1-.1-.3-.1-.5v-3.5h1.1v-1.1H119v-1.5h-1.4v1.5h-1v1.1h1v3.6c0 1.2.5 1.8 1.6 1.8.3 0 .6 0 .9-.1v-1.1c-.2 0-.3.1-.5.1-.2-.1-.4-.2-.5-.3zm2.1-5.1h1.4v6.3h-1.4zm.8-2.4c-.3 0-.5.1-.6.2s-.2.3-.2.5.1.4.2.5.3.2.6.2.5-.1.6-.2.2-.3.2-.5-.1-.4-.2-.5-.4-.2-.6-.2zm3.8 3.9c.2-.3.6-.5 1.1-.5.4 0 .7.1.9.4s.4.5.4.9h1.3c0-.7-.3-1.3-.7-1.7s-1.1-.7-1.8-.7c-.9 0-1.6.3-2.1.9s-.8 1.4-.8 2.3v.1c0 1 .3 1.8.8 2.4s1.2.9 2.1.9c.5 0 .9-.1 1.3-.3a2.36 2.36 0 0 0 .9-.8c.2-.3.4-.7.4-1.1h-1.3c0 .3-.1.6-.4.8s-.5.3-.9.3c-.5 0-.8-.2-1.1-.5s-.4-.9-.4-1.5v-.2c-.1-.8 0-1.4.3-1.7zm9.7.5c0-.7-.2-1.2-.7-1.6s-1-.6-1.8-.6c-.5 0-.9.1-1.3.3s-.7.4-.9.7a1.69 1.69 0 0 0-.3 1h1.4c0-.2.1-.5.3-.6s.5-.2.8-.2c.4 0 .7.1.8.3s.3.5.3.8v.4h-.9c-.9 0-1.7.2-2.2.5s-.8.9-.8 1.6c0 .5.2 1 .6 1.3s.9.5 1.6.5a2.19 2.19 0 0 0 1.7-.7c0 .3.1.5.2.6h1.5v-.1c-.2-.3-.2-.8-.2-1.4v-2.8zm-1.4 2.5c-.1.2-.3.4-.6.6s-.5.2-.8.2-.5-.1-.7-.2-.3-.4-.3-.7.1-.6.4-.8.7-.3 1.2-.3h.8v1.2zm3-7.2h1.4v9h-1.4zm8.5.5l-3.2 8.5h1.5l.7-2h3.3l.7 2h1.5l-3.2-8.5h-1.3zm-.5 5.3l1.2-3.5 1.2 3.5h-2.4zm6-5.8h1.4v9h-1.4zm3.1 2.7h1.4v6.3h-1.4zm.7-2.4c-.3 0-.5.1-.6.2s-.2.3-.2.5.1.4.2.5.3.2.6.2.5-.1.6-.2.2-.3.2-.5-.1-.4-.2-.5-.3-.2-.6-.2zm6.2 3c-.4-.5-1-.8-1.7-.8-.8 0-1.4.3-1.8.9s-.7 1.4-.7 2.4.2 1.9.7 2.4 1.1.9 1.8.9 1.2-.2 1.6-.7v.4c0 .5-.1.9-.4 1.1-.3.3-.6.4-1.1.4-.6 0-1.2-.3-1.6-.8l-.7.9c.2.3.6.6 1 .8s.9.3 1.4.3c.9 0 1.6-.2 2.1-.7s.8-1.1.8-2v-6.1h-1.3l-.1.6zm0 3.9c-.3.5-.7.7-1.3.7-.5 0-.8-.2-1.1-.5s-.4-.9-.4-1.5c0-.7.1-1.3.4-1.6s.6-.6 1.1-.6c.6 0 1 .2 1.3.7v2.8z"/><use xlink:href="#C"/><path d="M177.5 101.3c-.8 0-1.5.3-1.9 1-.3-.6-.9-1-1.7-1s-1.4.3-1.8.8v-.7h-1.3v6.3h1.4v-4.6c.2-.5.6-.7 1.2-.7.7 0 1.1.4 1.1 1.1v4.2h1.4v-4.3c.1-.3.2-.5.4-.7s.5-.3.8-.3c.4 0 .7.1.9.3s.3.5.3.9v4.1h1.4v-4.2c0-.8-.2-1.3-.5-1.7s-1-.5-1.7-.5z"/><use xlink:href="#B" x="102.5"/><use xlink:href="#C" x="23.5"/><path d="M196.6 106.7c-.2 0-.4-.1-.5-.2s-.1-.3-.1-.5v-3.5h1.1v-1.1H196v-1.5h-1.4v1.5h-1v1.1h1v3.6c0 1.2.5 1.8 1.6 1.8.3 0 .6 0 .9-.1v-1.1c-.1-.1-.3 0-.5 0z"/></g><g fill="#f21197"><path d="M48.2 79h-4.5v.8h1.7v4.9h1v-4.9h1.8zm3 2c-.4-.4-.8-.6-1.4-.6a1.69 1.69 0 0 0-1 .3 1.85 1.85 0 0 0-.7.8c-.2.4-.2.7-.2 1.1h0c0 .7.2 1.2.5 1.6s.8.6 1.4.6a1.69 1.69 0 0 0 1-.3 1.85 1.85 0 0 0 .7-.8c.2-.4.2-.7.2-1.1v-.2c.1-.6-.1-1.1-.5-1.4zm-.6 2.7c-.2.2-.4.4-.7.4s-.6-.1-.8-.4a1.69 1.69 0 0 1-.3-1c0-.5.1-.9.3-1.1s.4-.4.7-.4.6.1.7.4.3.6.3 1a1.39 1.39 0 0 1-.2 1.1zm4-3.3c-.5 0-.9.2-1.1.5v-.4h-.9v5.9h.9v-2c.3.3.6.5 1.1.5s.9-.2 1.2-.6.4-.9.4-1.6v-.1c0-.7-.1-1.2-.4-1.6s-.6-.6-1.2-.6zm.5 3.3c-.2.2-.4.4-.7.4-.4 0-.7-.2-.8-.5v-1.9c.2-.3.4-.5.8-.5.3 0 .6.1.7.4s.3.6.3 1c0 .5-.1.8-.3 1.1zm59.8-3.5c.2-.3.6-.5 1-.5s.7.1.8.3.3.5.4.9h1c-.1-.6-.3-1.1-.7-1.4s-.9-.5-1.5-.5c-.5 0-.9.1-1.2.3a2.36 2.36 0 0 0-.8.9c-.2.4-.3.9-.3 1.4v.5c0 .5.1 1 .3 1.4a2.36 2.36 0 0 0 .8.9c.3.2.7.3 1.2.3.6 0 1.2-.2 1.6-.5s.6-.8.7-1.4h-1c-.1.4-.2.7-.4.9s-.5.3-.9.3-.7-.2-1-.5-.3-.8-.3-1.4v-.5c-.1-.6 0-1.1.3-1.4z"/><use xlink:href="#D"/><path d="M125.3 80.4c-.5 0-.9.2-1.2.6v-.5h-.9v4.2h.9v-3c.2-.3.5-.5.9-.5.3 0 .5.1.6.2s.2.3.2.6v2.7h.9v-2.8c-.1-1-.5-1.5-1.4-1.5zm3.6 3.5c-.1-.1-.1-.2-.1-.3v-2.4h.7v-.7h-.7v-1h-.9v1h-.7v.7h.7v2.4c0 .8.4 1.2 1.1 1.2.2 0 .4 0 .6-.1V84h-.3c-.3 0-.4 0-.4-.1z"/><use xlink:href="#D" x="11.4"/><path d="M135.5 81v-.5h-.9v4.2h.9v-2.9c.2-.3.4-.5.9-.5h.4v-.9c-.1 0-.2-.1-.3-.1-.5.1-.8.3-1 .7zm54.9.7c.3-.1.5-.3.6-.5s.2-.4.2-.7c0-.5-.2-.9-.5-1.2s-.8-.4-1.5-.4h-1.9v5.7h2.1c.6 0 1.1-.1 1.5-.4s.5-.7.5-1.2c0-.3-.1-.6-.3-.8s-.3-.4-.7-.5zm-2.1-1.9h1c.3 0 .6.1.7.2s.2.3.2.6-.1.5-.3.6-.4.2-.7.2h-1v-1.6zm1.9 3.9c-.2.2-.4.2-.7.2h-1.1v-1.8h1.2c.6 0 .9.3.9.9-.1.3-.2.5-.3.7zm5.3-2.7c-.4-.4-.8-.6-1.4-.6a1.69 1.69 0 0 0-1 .3 1.85 1.85 0 0 0-.7.8c-.2.4-.2.7-.2 1.1h0c0 .7.2 1.2.5 1.6s.8.6 1.4.6a1.69 1.69 0 0 0 1-.3 1.85 1.85 0 0 0 .7-.8c.2-.4.2-.7.2-1.1v-.2c0-.6-.2-1.1-.5-1.4zm-.7 2.7c-.2.2-.4.4-.7.4s-.6-.1-.8-.4a1.69 1.69 0 0 1-.3-1c0-.5.1-.9.3-1.1s.4-.4.7-.4.6.1.7.4.3.6.3 1a1.39 1.39 0 0 1-.2 1.1z"/><use xlink:href="#E"/><use xlink:href="#E" x="2.7"/><path d="M205.2 81c-.4-.4-.8-.6-1.4-.6a1.69 1.69 0 0 0-1 .3 1.85 1.85 0 0 0-.7.8c-.2.4-.2.7-.2 1.1h0c0 .7.2 1.2.5 1.6s.8.6 1.4.6a1.69 1.69 0 0 0 1-.3 1.85 1.85 0 0 0 .7-.8c.2-.4.2-.7.2-1.1v-.2c.1-.6-.1-1.1-.5-1.4zm-.6 2.7c-.2.2-.4.4-.7.4s-.6-.1-.8-.4a1.69 1.69 0 0 1-.3-1c0-.5.1-.9.3-1.1s.4-.4.7-.4.6.1.7.4.3.6.3 1a1.39 1.39 0 0 1-.2 1.1zm7.7-2.9c-.2-.3-.6-.4-1-.4-.6 0-1 .2-1.3.6-.2-.4-.6-.6-1.2-.6-.5 0-.9.2-1.2.5v-.4h-.9v4.2h.9v-3.1c.2-.3.4-.5.8-.5.5 0 .7.2.8.7v2.8h.9v-2.9c.1-.2.2-.3.3-.5s.3-.2.5-.2c.3 0 .5.1.6.2s.2.3.2.6v2.8h.9v-2.8c0-.4-.1-.8-.3-1z"/></g><defs ><path id="B" d="M81.2 101.3c-.5 0-1 .1-1.5.4s-.8.7-1 1.2-.4 1.1-.4 1.7v.2c0 .9.3 1.7.8 2.3s1.3.9 2.2.9c.5 0 1-.1 1.4-.3s.8-.5 1-.9l-.8-.7c-.4.5-.9.8-1.6.8-.5 0-.9-.2-1.2-.5s-.5-.7-.5-1.2h4.1v-.6c0-1-.2-1.8-.7-2.3s-.9-1-1.8-1zm1.3 2.7h-2.7c.1-.5.2-.9.5-1.1s.6-.4.9-.4c.4 0 .7.1.9.4s.3.6.4 1.1h0z"/><path id="C" d="M167.2 101.3c-.8 0-1.4.3-1.8.8v-.7h-1.3v6.3h1.4v-4.5c.3-.5.7-.8 1.3-.8.4 0 .7.1.9.3s.3.5.3.9v4.1h1.4v-4.2c-.2-1.5-.9-2.2-2.2-2.2z"/><path id="D" d="M120.6 80.4a1.69 1.69 0 0 0-1 .3 1.85 1.85 0 0 0-.7.8c-.2.4-.2.7-.2 1.1v.1c0 .6.2 1.1.6 1.5s.9.6 1.5.6c.4 0 .7-.1 1-.2s.5-.3.7-.6l-.5-.5c-.3.4-.6.5-1.1.5-.3 0-.6-.1-.8-.3s-.3-.5-.3-.8h2.8v-.4c0-.7-.2-1.2-.5-1.6s-.9-.5-1.5-.5zm.9 1.8h-1.8c0-.3.1-.6.3-.8s.4-.3.6-.3c.3 0 .5.1.6.2s.2.5.3.9h0z"/><path id="E" d="M198.1 83.9c-.1-.1-.1-.2-.1-.3v-2.4h.7v-.7h-.7v-1h-.9v1h-.7v.7h.7v2.4c0 .8.4 1.2 1.1 1.2.2 0 .4 0 .6-.1V84h-.3c-.2 0-.3 0-.4-.1z"/></defs></svg>