<svg xmlns="http://www.w3.org/2000/svg" width='240' height='200' xmlns:xlink="http://www.w3.org/1999/xlink" viewBox="0 0 250 126"><path d="M154.2 15.5h-58c-1.1 0-2 .9-2 2v53.2c0 1.1.9 2 2 2h58.1c1.1 0 2-.9 2-2V17.5c-.1-1.1-1-2-2.1-2zm75.2 0h-58.1c-1.1 0-2 .9-2 2v53.2c0 1.1.9 2 2 2h58.1c1.1 0 2-.9 2-2V17.5c0-1.1-.9-2-2-2z" fill="#8796a1"/><g fill="#231f20"><path d="M86.6 107.4c-.1.9-.4 1.6-1 2.1s-1.4.8-2.3.8c-.7 0-1.3-.2-1.8-.5s-.9-.8-1.2-1.4-.4-1.3-.4-2.1v-.8c0-.8.1-1.5.4-2.1s.7-1.1 1.2-1.4 1.1-.5 1.8-.5c.9 0 1.7.3 2.3.8s.9 1.2 1 2.2h-1.5c-.1-.6-.2-1.1-.5-1.3s-.7-.4-1.3-.4-1.1.2-1.5.7c-.3.5-.5 1.2-.5 2.1v.8c0 .9.2 1.6.5 2.1s.8.7 1.5.7c.6 0 1-.1 1.3-.4s.5-.7.6-1.3h1.4zm.9-.4c0-.6.1-1.2.4-1.7s.6-.9 1-1.1 1-.4 1.5-.4c.9 0 1.5.3 2.1.8s.8 1.3.9 2.2v.3c0 .6-.1 1.2-.4 1.7s-.6.9-1 1.1-1 .4-1.5.4c-.9 0-1.6-.3-2.1-.9s-.9-1.4-.9-2.4h0zm1.4.1c0 .7.1 1.2.4 1.5s.6.6 1.1.6.9-.2 1.1-.6.4-.9.4-1.6c0-.6-.1-1.1-.4-1.5s-.6-.6-1.1-.6-.8.2-1.1.6-.4.8-.4 1.6z"/><use xlink:href="#B"/><path d="M103 102.3v1.5h1.1v1.1H103v3.5c0 .2 0 .4.1.5s.3.2.5.2.3 0 .5-.1v1.1c-.3.1-.6.1-.9.1-1.1 0-1.6-.6-1.6-1.8v-3.6h-1v-1.1h1v-1.5h1.4zm5 8c-.9 0-1.6-.3-2.2-.9s-.8-1.3-.8-2.3v-.1c0-.6.1-1.2.4-1.7s.6-.9 1-1.2.9-.4 1.5-.4c.9 0 1.5.3 2 .8s.7 1.3.7 2.3v.6h-4.1c0 .5.2.9.5 1.2s.7.5 1.2.5c.7 0 1.2-.3 1.6-.8l.8.7c-.3.4-.6.7-1 .9s-1 .4-1.6.4zm-.1-5.4c-.4 0-.7.1-.9.4s-.4.7-.5 1.1h2.7v-.1c0-.5-.2-.8-.4-1.1s-.5-.3-.9-.3z"/><use xlink:href="#B" x="17.1"/><path d="M120.1 102.3v1.5h1.1v1.1h-1.1v3.5c0 .2 0 .4.1.5s.3.2.5.2.3 0 .5-.1v1.1c-.3.1-.6.1-.9.1-1.1 0-1.6-.6-1.6-1.8v-3.6h-1v-1.1h1v-1.5h1.4zm5.4 7.9v-8.5h2.9c1 0 1.7.2 2.2.6s.8 1 .8 1.7c0 .4-.1.7-.3 1.1a1.27 1.27 0 0 1-.9.7c.5.1.8.4 1.1.7s.4.8.4 1.2c0 .8-.3 1.4-.8 1.8s-1.2.6-2.2.6h-3.2zm1.5-5h1.5c.5 0 .8-.1 1.1-.3s.4-.5.4-.9-.1-.7-.4-.9-.6-.3-1.1-.3H127v2.4zm0 1.1v2.7h1.6c.5 0 .8-.1 1.1-.3s.4-.6.4-1c0-.9-.5-1.3-1.4-1.4H127zm5.6.7c0-.6.1-1.2.4-1.7s.6-.9 1-1.1 1-.4 1.5-.4c.9 0 1.5.3 2.1.8s.8 1.3.9 2.2v.3c0 .6-.1 1.2-.4 1.7s-.6.9-1 1.1-1 .4-1.5.4c-.9 0-1.6-.3-2.1-.9s-.9-1.4-.9-2.4h0zm1.5.1c0 .7.1 1.2.4 1.5s.6.6 1.1.6.9-.2 1.1-.6.4-.9.4-1.6c0-.6-.1-1.1-.4-1.5s-.6-.6-1.1-.6-.8.2-1.1.6-.4.8-.4 1.6zm7.8-1.2l1.2-2.1h1.6l-1.9 3.1 2 3.2h-1.6l-1.3-2.2-1.3 2.2H139l2-3.2-1.9-3.1h1.6l1.2 2.1zm11.3 2.1c0-.4-.1-.7-.4-.9s-.7-.4-1.4-.6-1.2-.4-1.6-.7c-.8-.5-1.2-1.1-1.2-1.9 0-.7.3-1.3.8-1.7s1.3-.7 2.2-.7c.6 0 1.1.1 1.6.3s.8.5 1.1.9.4.9.4 1.3h-1.5c0-.4-.1-.8-.4-1s-.7-.4-1.2-.4-.9.1-1.1.3-.4.5-.4.9c0 .3.1.6.4.8s.8.4 1.4.6 1.2.4 1.6.7.7.5.9.9.3.7.3 1.1c0 .7-.3 1.3-.8 1.7s-1.3.6-2.2.6c-.6 0-1.2-.1-1.7-.3a2.73 2.73 0 0 1-1.2-.9c-.3-.4-.4-.9-.4-1.4h1.5c0 .5.2.9.5 1.1s.8.4 1.4.4c.5 0 .9-.1 1.2-.3s.2-.5.2-.8zm2.7-5.8c0-.2.1-.4.2-.5s.3-.2.6-.2.5.1.6.2.2.3.2.5-.1.4-.2.5-.3.2-.6.2-.5-.1-.6-.2-.2-.3-.2-.5zm1.5 8H156v-6.3h1.4v6.3zm3.1-1.2h3.4v1.1h-5.1v-.9l3.2-4.3h-3.2v-1.1h5v.9l-3.3 4.3zm7.2 1.3c-.9 0-1.6-.3-2.2-.9s-.8-1.3-.8-2.3v-.1c0-.6.1-1.2.4-1.7s.6-.9 1-1.2.9-.4 1.5-.4c.9 0 1.5.3 2 .8s.7 1.3.7 2.3v.6h-4.1c0 .5.2.9.5 1.2s.7.5 1.2.5c.7 0 1.2-.3 1.6-.8l.8.7c-.3.4-.6.7-1 .9s-1.1.4-1.6.4zm-.2-5.4c-.4 0-.7.1-.9.4s-.4.7-.5 1.1h2.7v-.1c0-.5-.2-.8-.4-1.1s-.5-.3-.9-.3z"/></g><g opacity=".3" fill="#f21197"><path d="M94.5 75.5H94c-.1 0-.2.1-.2.2s0 .3.2.3h.5c.1 0 .2-.1.2-.2s-.1-.3-.2-.3z"/><use xlink:href="#C"/><use xlink:href="#C" x="-4"/><use xlink:href="#C" x="2"/><use xlink:href="#C" x="-2"/><use xlink:href="#C" x="8"/><use xlink:href="#C" x="6"/><use xlink:href="#C" x="4"/><use xlink:href="#C" x="-12"/><use xlink:href="#C" x="-14"/><use xlink:href="#C" x="-16"/><use xlink:href="#C" x="-6"/><use xlink:href="#C" x="-18"/><use xlink:href="#C" x="-8"/><use xlink:href="#C" x="-10"/><use xlink:href="#C" x="10"/><use xlink:href="#C" x="30"/><use xlink:href="#C" x="26"/><use xlink:href="#C" x="12"/><use xlink:href="#C" x="28"/><use xlink:href="#C" x="34"/><use xlink:href="#C" x="36"/><use xlink:href="#C" x="40"/><use xlink:href="#C" x="38"/><use xlink:href="#C" x="32"/><use xlink:href="#C" x="16"/><use xlink:href="#C" x="18"/><use xlink:href="#C" x="14"/><use xlink:href="#C" x="22"/><use xlink:href="#C" x="24"/><use xlink:href="#C" x="20"/><path d="M156 75.5h-.5c-.1 0-.2.1-.2.2s.1.2.2.2h.5c.1 0 .2-.1.2-.2s-.1-.2-.2-.2z"/></g><path d="M79.1 15.5H21c-1.1 0-2 .9-2 2v53.2c0 1.1.9 2 2 2h58.1c1.1 0 2-.9 2-2V17.5c0-1.1-.9-2-2-2z" fill="#8796a1"/><path d="M115.9 36a2.7 2.7 0 1 0 0 5.4 2.7 2.7 0 1 0 0-5.4zm75.1 0a2.7 2.7 0 1 0 0 5.4 2.7 2.7 0 1 0 0-5.4zM40.7 36a2.7 2.7 0 1 0 0 5.4 2.7 2.7 0 1 0 0-5.4zm101.8-5.2H108c-1 0-1.7.8-1.7 1.7v23.2c0 .5.2.9.5 1.2v.1h.1c.3.3.7.5 1.2.5h34.5c.5 0 .9-.2 1.2-.5h.1v-.1c.3-.3.5-.7.5-1.2V32.5c-.2-.9-1-1.7-1.9-1.7zm.7 23.2l-10.6-15a2.25 2.25 0 0 0-3.6 0l-7.5 10.5 5.6 5.6c.2.2.2.5 0 .7-.1.1-.2.1-.3.1s-.2 0-.3-.1l-9-9c-.9-.9-2.3-.9-3.1 0l-7.3 7.4V32.5c0-.4.3-.8.8-.8h34.5c.4 0 .8.3.8.8V54zm74.4-23.2h-34.5c-1 0-1.7.8-1.7 1.7v23.2c0 .5.2.9.5 1.2v.1h.1c.3.3.7.5 1.2.5h34.5c.5 0 .9-.2 1.2-.5h.1v-.1c.3-.3.5-.7.5-1.2V32.5c-.2-.9-.9-1.7-1.9-1.7zm.8 23.2l-10.6-15a2.25 2.25 0 0 0-3.6 0l-7.5 10.5 5.6 5.6c.2.2.2.5 0 .7-.1.1-.2.1-.3.1s-.2 0-.3-.1l-9-9c-.9-.9-2.3-.9-3.1 0l-7.3 7.4V32.5c0-.4.3-.8.8-.8h34.5c.4 0 .8.3.8.8V54zM67.3 30.8H32.8c-1 0-1.7.8-1.7 1.7v23.2c0 .5.2.9.5 1.2v.1h.1c.3.3.7.5 1.2.5h34.5c.5 0 .9-.2 1.2-.5h.1v-.1c.3-.3.5-.7.5-1.2V32.5c-.1-.9-.9-1.7-1.9-1.7zm.8 23.2L57.5 39a2.25 2.25 0 0 0-3.6 0l-7.5 10.5 5.6 5.6c.2.2.2.5 0 .7 0 .1-.2.2-.3.2s-.2 0-.3-.1l-9-9c-.9-.9-2.3-.9-3.1 0L32 54.3V32.5c0-.4.3-.8.8-.8h34.5c.4 0 .8.3.8.8V54z" fill="#96a3aa"/><g fill="#f21197"><path d="M107.5 83c-.3 0-.6.1-.9.2l.2-1.4h2.3V81H106l-.3 2.9.8.2c.1-.1.3-.2.4-.3s.3-.1.4-.1c.3 0 .6.1.7.3s.3.5.3.8c0 .4-.1.6-.2.9s-.4.3-.7.3-.5-.1-.6-.2-.3-.4-.3-.6h-.9c0 .5.2.9.6 1.2s.8.4 1.3.4c.6 0 1-.2 1.4-.5s.5-.8.5-1.4-.2-1.1-.5-1.4-.9-.5-1.4-.5z"/><use xlink:href="#D"/><path d="M118.4 84.1c-.4 0-.6.1-.9.3s-.3.5-.3.8v.3c0 .4.1.6.3.9s.5.3.9.3.7-.1.9-.3.3-.5.3-.8v-.3c0-.4-.1-.7-.3-.9s-.5-.3-.9-.3zm.5 1.5c0 .2 0 .3-.1.5s-.2.2-.4.2-.3-.1-.4-.2a.76.76 0 0 1-.2-.4v-.3c0-.2 0-.3.2-.5s.2-.2.4-.2.3.1.4.2a.76.76 0 0 1 .2.4v.3zm-2.4-2.3c.2-.2.3-.5.3-.8v-.3c0-.4-.1-.6-.3-.9s-.5-.3-.9-.3-.6.1-.9.3-.3.5-.3.8v.3c0 .4.1.7.3.9s.5.3.9.3.7-.1.9-.3zm-1.4-.9v-.3c0-.2 0-.3.1-.4s.2-.2.4-.2.3.1.4.2a.76.76 0 0 1 .2.4v.3c0 .2 0 .3-.1.5-.1.1-.2.2-.4.2s-.3-.1-.4-.2c-.1-.2-.2-.3-.2-.5zm3.1-.8l-2.8 4.4.5.3 2.7-4.5zm19 1.4c-.3 0-.6.1-.9.2l.2-1.4h2.3V81h-3.1l-.3 2.9.8.2c.1-.1.3-.2.4-.3s.3-.1.4-.1c.3 0 .6.1.7.3s.3.5.3.8c0 .4-.1.6-.2.9s-.5.3-.8.3-.5-.1-.6-.2-.3-.4-.3-.6h-.9c0 .5.2.9.6 1.2s.8.4 1.3.4c.6 0 1-.2 1.4-.5s.5-.8.5-1.4-.2-1.1-.5-1.4-.8-.5-1.3-.5z"/><use xlink:href="#D" x="29.7"/><path d="M148.9 84.5c-.2-.2-.5-.3-.9-.3s-.6.1-.9.3-.3.5-.3.8v.3c0 .4.1.6.3.9s.5.3.9.3.7-.1.9-.3.3-.5.3-.8v-.3c.1-.4 0-.7-.3-.9zm-.3 1.1c0 .2 0 .3-.1.5s-.2.2-.4.2-.3-.1-.4-.2a.76.76 0 0 1-.2-.4v-.3c0-.2 0-.3.2-.5s.2-.2.4-.2.3.1.4.2a.76.76 0 0 1 .2.4v.3zm-2.4-2.3c.2-.2.3-.5.3-.8v-.3c0-.4-.1-.6-.3-.9s-.5-.3-.9-.3-.6.1-.9.3-.3.5-.3.8v.3c0 .4.1.7.3.9s.5.3.9.3.7-.1.9-.3zm-1.4-.9v-.3c0-.2 0-.3.1-.4s.2-.2.4-.2.3.1.4.2a.76.76 0 0 1 .2.4v.3c0 .2 0 .3-.1.5-.1.1-.2.2-.4.2s-.3-.1-.4-.2c-.2-.2-.2-.3-.2-.5zm3-.8L145 86l.5.3 2.8-4.5zm-19.9-5.9l-4.9-1.3v1H99.3v-1l-4.9 1.3 4.9 1.4v-1H123v1zm1.8 5.4l-1.9-3.3-1.9 3.3h1.6V95c-.6.1-1.1.7-1.1 1.4a1.54 1.54 0 0 0 1.5 1.5 1.54 1.54 0 0 0 1.5-1.5c0-.7-.5-1.3-1.1-1.4V81.1h1.4z"/></g><path d="M94.1 17.7v52.9a2.22 2.22 0 0 0 2.2 2.2h31.6V15.5H96.3a2.22 2.22 0 0 0-2.2 2.2zm77.3-2.2a2.22 2.22 0 0 0-2.2 2.2v52.9a2.22 2.22 0 0 0 2.2 2.2H203V15.5h-31.6zM19 17.7v52.9a2.22 2.22 0 0 0 2.2 2.2h31.6V15.5H21.2a2.22 2.22 0 0 0-2.2 2.2z" opacity=".55" fill="#08062d"/><path d="M99.2 39.1h15.6c.3 0 .5-.4.5-.8s-.2-.8-.5-.8H99.2c-.3 0-.5.4-.5.8s.2.8.5.8zm24.6 4.5H98.9c-.1 0-.2.2-.2.4s.1.4.2.4h24.9c.1 0 .2-.2.2-.4s-.1-.4-.2-.4zm0 3.2H98.9c-.1 0-.2.2-.2.4s.1.4.2.4h24.9c.1 0 .2-.2.2-.4s-.1-.4-.2-.4zM111.1 50H98.9c-.1 0-.2.2-.2.4s.1.4.2.4h12.2c.1 0 .2-.2.2-.4.1-.3-.1-.4-.2-.4zm63.2-10.9h15.6c.3 0 .5-.4.5-.8s-.2-.8-.5-.8h-15.6c-.3 0-.5.4-.5.8s.2.8.5.8zm-.3 5.3h24.9c.1 0 .2-.2.2-.4s-.1-.4-.2-.4H174c-.1 0-.2.2-.2.4s.1.4.2.4zm24.9 2.4H174c-.1 0-.2.2-.2.4s.1.4.2.4h24.9c.1 0 .2-.2.2-.4.1-.2 0-.4-.2-.4zM186.2 50H174c-.1 0-.2.2-.2.4s.1.4.2.4h12.2c.1 0 .2-.2.2-.4.1-.3 0-.4-.2-.4zM24 39.1h15.6c.3 0 .5-.4.5-.8s-.2-.8-.5-.8H24c-.3 0-.5.4-.5.8s.3.8.5.8zm24.7 4.5H23.8c-.1 0-.2.2-.2.4s.1.4.2.4h24.9c.1 0 .2-.2.2-.4s-.1-.4-.2-.4zm0 3.2H23.8c-.1 0-.2.2-.2.4s.1.4.2.4h24.9c.1 0 .2-.2.2-.4s-.1-.4-.2-.4zM36 50H23.8c-.1 0-.2.2-.2.4s.1.4.2.4H36c.1 0 .2-.2.2-.4 0-.3-.1-.4-.2-.4z" fill="#fff"/><defs ><path id="B" d="M95.9 103.8v.7c.5-.6 1.1-.8 1.8-.8 1.3 0 2 .8 2 2.3v4.2h-1.4v-4.1c0-.4-.1-.7-.3-.9s-.5-.3-.9-.3c-.6 0-1 .3-1.3.8v4.5h-1.4v-6.3h1.5z"/><path id="C" d="M114.5 75.5h-1c-.1 0-.2.1-.2.2s.1.2.2.2h1c.1 0 .2-.1.2-.2s-.1-.2-.2-.2z"/><path id="D" d="M111.8 80.9c-.6 0-1.1.2-1.4.6s-.5 1-.5 1.8v1c0 .8.2 1.4.5 1.8s.8.6 1.4.6 1.1-.2 1.4-.6.5-1 .5-1.8v-1c0-.8-.2-1.4-.5-1.8s-.8-.6-1.4-.6zm.9 3.6c0 .5-.1.9-.2 1.1s-.4.4-.7.4-.6-.1-.7-.4a3.73 3.73 0 0 1-.2-1.2v-1.3c0-.5.1-.9.2-1.1s.4-.4.7-.4.5.1.7.4.2.6.2 1.2v1.3z"/></defs></svg>