<svg xmlns="http://www.w3.org/2000/svg" width='240' height='200' xmlns:xlink="http://www.w3.org/1999/xlink" viewBox="0 0 250 126"><path d="M79.1 15.5H21c-1.1 0-2 .9-2 2v53.2c0 1.1.9 2 2 2h58.1c1.1 0 2-.9 2-2V17.5c0-1.1-.9-2-2-2zm74.9 0H96c-1.1 0-2 .9-2 2v53.2c0 1.1.9 2 2 2h58c1.1 0 2-.9 2-2V17.5c0-1.1-.9-2-2-2zm75 0h-58.1c-1.1 0-2 .9-2 2v53.2c0 1.1.9 2 2 2H229c1.1 0 2-.9 2-2V17.5c0-1.1-.9-2-2-2z" fill="#8796a1"/><path d="M40.7 36a2.7 2.7 0 1 0 0 5.4 2.7 2.7 0 1 0 0-5.4zm26.6-5.2H32.8c-1 0-1.7.8-1.7 1.7v23.2c0 .5.2.9.5 1.2v.1h.1c.3.3.7.5 1.2.5h34.5c.5 0 .9-.2 1.2-.5h.1v-.1c.3-.3.5-.7.5-1.2V32.5c-.1-.9-.9-1.7-1.9-1.7zm.8 23.2L57.5 39a2.25 2.25 0 0 0-3.6 0l-7.5 10.5 5.6 5.6c.2.2.2.5 0 .7 0 .1-.2.2-.3.2s-.2 0-.3-.1l-9-9c-.9-.9-2.3-.9-3.1 0L32 54.3V32.5c0-.4.3-.8.8-.8h34.5c.4 0 .8.3.8.8V54zm47.6-18a2.7 2.7 0 1 0 0 5.4 2.7 2.7 0 1 0 0-5.4zm26.6-5.2h-34.5c-1 0-1.7.8-1.7 1.7v23.2c0 .5.2.9.5 1.2v.1h.1c.3.3.7.5 1.2.5h34.5c.5 0 .9-.2 1.2-.5h.1v-.1c.3-.3.5-.7.5-1.2V32.5c-.2-.9-1-1.7-1.9-1.7zM143 54l-10.6-15a2.25 2.25 0 0 0-3.6 0l-7.5 10.5 5.6 5.6c.2.2.2.5 0 .7-.1.1-.2.1-.3.1s-.2 0-.3-.1l-9-9c-.9-.9-2.3-.9-3.1 0l-7.3 7.4V32.5c0-.4.3-.8.8-.8h34.5c.4 0 .8.3.8.8V54zm47.6-18a2.7 2.7 0 1 0 0 5.4 2.7 2.7 0 1 0 0-5.4zm26.6-5.2h-34.5c-1 0-1.7.8-1.7 1.7v23.2c0 .5.2.9.5 1.2v.1h.1c.3.3.7.5 1.2.5h34.5c.5 0 .9-.2 1.2-.5h.1v-.1c.3-.3.5-.7.5-1.2V32.5c-.2-.9-.9-1.7-1.9-1.7zM218 54l-10.6-15a2.25 2.25 0 0 0-3.6 0l-7.5 10.5 5.6 5.6c.2.2.2.5 0 .7-.1.1-.2.1-.3.1s-.2 0-.3-.1l-9-9c-.9-.9-2.3-.9-3.1 0l-7.3 7.4V32.5c0-.4.3-.8.8-.8h34.5c.4 0 .8.3.8.8V54z" fill="#96a3aa"/><g opacity=".55" fill="#08062d"><use xlink:href="#B"/><use xlink:href="#B" x="74.9"/><use xlink:href="#B" x="149.8"/></g><path d="M36.3 38.8h27.5c.4 0 .8-.4.8-.8v-.1c0-.4-.4-.8-.8-.8H36.3c-.4 0-.8.4-.8.8v.1c0 .5.4.8.8.8zm35.6 4.8H28.2c-.2 0-.4.2-.4.4h0c0 .2.2.4.4.4h43.7c.2 0 .4-.2.4-.4h0c0-.2-.2-.4-.4-.4zm0 3.3H28.2c-.2 0-.4.2-.4.4v.1c0 .2.2.4.4.4h43.7c.2 0 .4-.2.4-.4v-.1c0-.2-.2-.4-.4-.4zm-11.1 3.4H39.3c-.2 0-.4.2-.4.4v.1c0 .2.2.4.4.4h21.4c.2 0 .4-.2.4-.4v-.1c.1-.3-.1-.4-.3-.4zm50.5-11.5h27.4c.5 0 .9-.4.9-.9s-.4-.9-.9-.9h-27.4c-.5 0-.9.4-.9.9.1.6.4.9.9.9zm35.5 4.8h-43.6c-.2 0-.4.2-.4.4s.2.4.4.4h43.6c.2 0 .4-.2.4-.4s-.2-.4-.4-.4zm0 3.3h-43.6c-.2 0-.4.2-.4.4s.2.4.4.4h43.6c.2 0 .4-.2.4-.4s-.2-.4-.4-.4zm-11.1 3.4h-21.4c-.2 0-.4.2-.4.4s.2.4.4.4h21.4c.2 0 .4-.2.4-.4s-.2-.4-.4-.4zm50.5-11.5h27.5c.4 0 .8-.4.8-.8v-.1c0-.4-.4-.8-.8-.8h-27.5c-.4 0-.8.4-.8.8v.1c0 .5.4.8.8.8zm35.6 4.8h-43.7c-.2 0-.4.2-.4.4h0c0 .2.2.4.4.4h43.7c.2 0 .4-.2.4-.4h0c0-.2-.2-.4-.4-.4zm0 3.3h-43.7c-.2 0-.4.2-.4.4v.1c0 .2.2.4.4.4h43.7c.2 0 .4-.2.4-.4v-.1c0-.2-.2-.4-.4-.4zm-11.1 3.4h-21.4c-.2 0-.4.2-.4.4v.1c0 .2.2.4.4.4h21.4c.2 0 .4-.2.4-.4v-.1c0-.3-.2-.4-.4-.4z" fill="#fff"/><g fill="#231f20"><path d="M78.4 101.1c.3-.5.8-.7 1.5-.7.6 0 1 .1 1.3.4s.5.7.5 1.3h1.5c-.1-.9-.4-1.7-1-2.2s-1.3-.8-2.3-.8c-.7 0-1.3.2-1.8.5s-.9.8-1.2 1.4-.4 1.3-.4 2.1v.8c0 .8.2 1.5.4 2.1s.7 1.1 1.2 1.4 1.1.5 1.8.5c1 0 1.8-.3 2.3-.8a3.47 3.47 0 0 0 1-2.1h-1.5c-.1.6-.3 1-.6 1.3s-.7.4-1.3.4-1.1-.2-1.5-.7c-.3-.5-.5-1.2-.5-2.1v-.8c0-.9.2-1.6.6-2zm10.7 1.1c-.5-.6-1.2-.8-2.1-.8-.6 0-1.1.1-1.5.4s-.8.7-1 1.1-.4 1.1-.4 1.7v.1c0 1 .3 1.8.8 2.4s1.3.9 2.1.9c.6 0 1.1-.1 1.5-.4s.8-.7 1-1.1.4-1.1.4-1.7v-.3c0-1-.3-1.8-.8-2.3zm-1 4c-.3.4-.6.6-1.1.6s-.9-.2-1.1-.6-.4-.9-.4-1.5c0-.7.1-1.3.4-1.7s.6-.6 1.1-.6.8.2 1.1.6.4.9.4 1.5c0 .8-.1 1.4-.4 1.7zm6.3-4.8c-.8 0-1.4.3-1.8.8v-.7h-1.3v6.3h1.4v-4.5c.3-.5.7-.8 1.3-.8.4 0 .7.1.9.3s.3.5.3.9v4.1h1.4v-4.2c-.3-1.5-.9-2.2-2.2-2.2z"/><use xlink:href="#C"/><path d="M104.4 101.4c-.5 0-1 .1-1.5.4s-.8.7-1 1.2-.4 1.1-.4 1.7v.2c0 .9.3 1.7.8 2.3s1.3.9 2.2.9c.5 0 1-.1 1.4-.3s.8-.5 1-.9l-.8-.7c-.4.5-.9.8-1.6.8-.5 0-.9-.2-1.2-.5s-.5-.7-.5-1.2h4.1v-.6c0-1-.2-1.8-.7-2.3s-.9-1-1.8-1zm1.3 2.7H103c.1-.5.2-.9.5-1.1s.6-.4.9-.4c.4 0 .7.1.9.4s.3.6.4 1.1h0zm5.8-2.7c-.8 0-1.4.3-1.8.8v-.7h-1.3v6.3h1.4v-4.5c.3-.5.7-.8 1.3-.8.4 0 .7.1.9.3s.3.5.3.9v4.1h1.4v-4.2c-.2-1.5-.9-2.2-2.2-2.2z"/><use xlink:href="#C" x="17.1"/><path d="M126.7 103.4c.4-.2.7-.4.9-.7s.3-.7.3-1.1c0-.8-.3-1.3-.8-1.7s-1.2-.6-2.2-.6H122v8.5h3.1c1 0 1.7-.2 2.2-.6s.8-1 .8-1.8c0-.5-.1-.9-.4-1.2s-.6-.7-1-.8zm-3.2-2.9h1.4c.5 0 .9.1 1.1.3s.4.5.4.9-.1.7-.4.9-.6.3-1.1.3h-1.5v-2.4zm2.8 5.8c-.3.2-.6.3-1.1.3h-1.6V104h1.8c.9 0 1.4.5 1.4 1.4-.1.3-.3.7-.5.9zm7.9-4.1c-.5-.6-1.2-.8-2.1-.8-.6 0-1.1.1-1.5.4s-.8.7-1 1.1-.4 1.1-.4 1.7v.1c0 1 .3 1.8.8 2.4s1.3.9 2.1.9c.6 0 1.1-.1 1.5-.4s.8-.7 1-1.1.4-1.1.4-1.7v-.3c.1-1-.2-1.8-.8-2.3zm-.9 4c-.3.4-.6.6-1.1.6s-.9-.2-1.1-.6-.4-.9-.4-1.5c0-.7.1-1.3.4-1.7s.6-.6 1.1-.6.8.2 1.1.6.4.9.4 1.5c0 .8-.1 1.4-.4 1.7zm7.9-4.7h-1.5l-1.2 2.1-1.2-2.1h-1.6l1.9 3.1-2 3.2h1.6l1.3-2.1 1.2 2.1h1.6l-2-3.2zm7.4-2.2h-3.3v8.5h1.5v-3.2h1.8c1 0 1.8-.2 2.3-.7s.8-1.1.8-2c0-.8-.3-1.5-.8-2-.6-.4-1.3-.6-2.3-.6zm1.2 3.8c-.3.2-.7.4-1.2.4h-1.8v-3h1.8c.5 0 .9.1 1.2.4s.4.6.4 1.1-.1.8-.4 1.1zm8 .4c0-.7-.2-1.2-.7-1.6s-1-.6-1.8-.6c-.5 0-.9.1-1.3.3s-.7.4-.9.7a1.69 1.69 0 0 0-.3 1h1.4c0-.2.1-.5.3-.6s.5-.2.8-.2c.4 0 .7.1.8.3s.3.5.3.8v.4h-.9c-.9 0-1.7.2-2.2.5s-.8.9-.8 1.6c0 .5.2 1 .6 1.3s.9.5 1.6.5a2.19 2.19 0 0 0 1.7-.7c0 .3.1.5.2.6h1.5v-.1c-.2-.3-.2-.8-.2-1.4v-2.8zm-1.4 2.5c-.1.2-.3.4-.6.6s-.5.2-.8.2-.5-.1-.7-.2-.3-.4-.3-.7.1-.6.4-.8.7-.3 1.2-.3h.8v1.2zm6.8-3.9c-.4-.5-1-.7-1.6-.7-.8 0-1.4.3-1.8.9s-.7 1.4-.7 2.4.2 1.8.7 2.4 1.1.9 1.8.9 1.3-.3 1.7-.8l.1.7h1.3v-9h-1.4v3.2zm0 3.9c-.3.5-.7.8-1.3.8-.5 0-.8-.2-1.1-.5s-.4-.9-.4-1.5c0-.7.1-1.3.4-1.6s.6-.5 1.1-.5c.6 0 1 .3 1.3.8v2.5zm6.7-3.9c-.4-.5-1-.7-1.6-.7-.8 0-1.4.3-1.8.9s-.7 1.4-.7 2.4.2 1.8.7 2.4 1.1.9 1.8.9 1.3-.3 1.7-.8l.1.7h1.3v-9H170v3.2zm0 3.9c-.3.5-.7.8-1.3.8-.5 0-.8-.2-1.1-.5s-.4-.9-.4-1.5c0-.7.1-1.3.4-1.6s.6-.5 1.1-.5c.6 0 1 .3 1.3.8v2.5zm3.8-6.9c-.3 0-.5.1-.6.2s-.2.3-.2.5.1.4.2.5.3.2.6.2.5-.1.6-.2.2-.3.2-.5-.1-.4-.2-.5-.4-.2-.6-.2zm-.8 2.4h1.4v6.3h-1.4zm6.2-.1c-.8 0-1.4.3-1.8.8v-.7H176v6.3h1.4v-4.5c.3-.5.7-.8 1.3-.8.4 0 .7.1.9.3s.3.5.3.9v4.1h1.4v-4.2c-.2-1.5-.9-2.2-2.2-2.2zm7.5.1l-.1.6c-.4-.5-1-.8-1.7-.8-.8 0-1.4.3-1.8.9s-.7 1.4-.7 2.4.2 1.9.7 2.4 1.1.9 1.8.9 1.2-.2 1.6-.7v.4c0 .5-.1.9-.4 1.1s-.6.4-1.1.4c-.6 0-1.2-.3-1.6-.8l-.7.9c.2.3.6.6 1 .8s.9.3 1.4.3c.9 0 1.6-.2 2.1-.7s.8-1.1.8-2v-6.1h-1.3zm-.1 4.5c-.3.5-.7.7-1.3.7-.5 0-.8-.2-1.1-.5s-.4-.9-.4-1.5c0-.7.1-1.3.4-1.6s.6-.6 1.1-.6c.6 0 1 .2 1.3.7v2.8z"/></g><path d="M127.4 77.4l-2.4-4.1-2.4 4.1h2v17.2a1.83 1.83 0 0 0-1.4 1.8 1.79 1.79 0 1 0 3.6 0 1.83 1.83 0 0 0-1.4-1.8V77.4h2z" fill="#f21197"/><g fill="#ffd9f1" stroke="#f21197"><circle cx="67.2" cy="104.2" r="5.2"/><g stroke-miterlimit="10"><path d="M99.9 16.4H150v3.4H99.9z" stroke-width=".961"/><path d="M99.9 68.5H150v3.3H99.9z" stroke-width=".954"/><path d="M94.986 66.434v-44.6h3.4v44.6zm56.567-.033v-44.6h3.4v44.6z" stroke-width=".914"/></g></g><defs ><path id="B" d="M73.6 20.6h-47c-1.1 0-2 .9-2 2v43c0 1.1.9 2 2 2h47c1.1 0 2-.9 2-2v-43c0-1.1-.9-2-2-2z"/><path id="C" d="M99.8 106.6c-.1-.1-.1-.3-.1-.5v-3.5h1.1v-1.1h-1.1V100h-1.4v1.5h-1v1.1h1v3.6c0 1.2.5 1.8 1.6 1.8.3 0 .6 0 .9-.1v-1.1c-.2 0-.3.1-.5.1-.3-.1-.5-.2-.5-.3z"/></defs></svg>