<svg xmlns="http://www.w3.org/2000/svg"  width='240' height='200' xmlns:xlink="http://www.w3.org/1999/xlink" viewBox="0 0 250 207"><circle cx="87.7" cy="185.7" r="5" fill="#f21197"/><g fill="#231f20"><path d="M96 181.9h1.5v8.5H96zm10 2.1c-.8 0-1.5.3-1.9 1-.3-.6-.9-1-1.7-1s-1.4.3-1.8.8v-.7h-1.3v6.3h1.4v-4.6c.2-.5.6-.7 1.2-.7.7 0 1.1.4 1.1 1.1v4.2h1.4v-4.3c.1-.3.2-.5.4-.7s.5-.3.8-.3c.4 0 .7.1.9.3s.3.5.3.9v4.1h1.4v-4.2c0-.8-.2-1.3-.5-1.7s-1-.5-1.7-.5zm8.6 2.1c0-.7-.2-1.2-.7-1.6s-1-.6-1.8-.6c-.5 0-.9.1-1.3.3s-.7.4-.9.7a1.69 1.69 0 0 0-.3 1h1.4c0-.2.1-.5.3-.6s.5-.2.8-.2c.4 0 .7.1.8.3s.3.5.3.8v.4h-.9c-.9 0-1.7.2-2.2.5s-.8.9-.8 1.6c0 .5.2 1 .6 1.3s.9.5 1.6.5a2.19 2.19 0 0 0 1.7-.7c0 .3.1.5.2.6h1.5v-.1c-.2-.3-.2-.8-.2-1.4v-2.8zm-1.5 2.5c-.1.2-.3.4-.6.6s-.5.2-.8.2-.5-.1-.7-.2-.3-.4-.3-.7.1-.6.4-.8.7-.3 1.2-.3h.8v1.2zm7-3.9c-.4-.5-1-.8-1.7-.8-.8 0-1.4.3-1.8.9s-.7 1.4-.7 2.4.2 1.9.7 2.4 1.1.9 1.8.9 1.2-.2 1.6-.7v.4c0 .5-.1.9-.4 1.1s-.6.4-1.1.4c-.6 0-1.2-.3-1.6-.8l-.7.9c.2.3.6.6 1 .8s.9.3 1.4.3c.9 0 1.6-.2 2.1-.7s.8-1.1.8-2v-6.1h-1.3l-.1.6zm-.1 3.9c-.3.5-.7.7-1.3.7-.5 0-.8-.2-1.1-.5s-.4-.9-.4-1.5c0-.7.1-1.3.4-1.6s.6-.6 1.1-.6c.6 0 1 .2 1.3.7v2.8z"/><use xlink:href="#B"/><path d="M137.1 186c.4-.2.7-.4.9-.7s.3-.7.3-1.1c0-.8-.3-1.3-.8-1.7s-1.2-.6-2.2-.6h-2.9v8.5h3.1c1 0 1.7-.2 2.2-.6s.8-1 .8-1.8c0-.5-.1-.9-.4-1.2s-.6-.7-1-.8zm-3.2-2.9h1.4c.5 0 .9.1 1.1.3s.4.5.4.9-.1.7-.4.9-.6.3-1.1.3h-1.5v-2.4zm2.7 5.8c-.3.2-.6.3-1.1.3h-1.6v-2.7h1.8c.9 0 1.4.5 1.4 1.4-.1.5-.2.8-.5 1zm8-4.1c-.5-.6-1.2-.8-2.1-.8-.6 0-1.1.1-1.5.4s-.8.7-1 1.1-.4 1.1-.4 1.7v.1c0 1 .3 1.8.8 2.4s1.3.9 2.1.9c.6 0 1.1-.1 1.5-.4s.8-.7 1-1.1.4-1.1.4-1.7v-.3c0-1-.2-1.7-.8-2.3zm-.9 4c-.3.4-.6.6-1.1.6s-.9-.2-1.1-.6-.4-.9-.4-1.5c0-.7.1-1.3.4-1.7s.6-.6 1.1-.6.8.2 1.1.6.4.9.4 1.5c0 .8-.2 1.4-.4 1.7zm4.4-4v-.7h-1.4v6.3h1.4v-4.3c.2-.5.7-.8 1.3-.8h.6V184c-.1-.1-.3-.1-.5-.1-.6.1-1.1.3-1.4.9zm6.6-.1c-.4-.5-1-.7-1.6-.7-.8 0-1.4.3-1.8.9s-.7 1.4-.7 2.4.2 1.8.7 2.4 1.1.9 1.8.9 1.3-.3 1.7-.8l.1.7h1.3v-9h-1.4v3.2zm0 3.9c-.3.5-.7.8-1.3.8-.5 0-.8-.2-1.1-.5s-.4-.9-.4-1.5c0-.7.1-1.3.4-1.6s.6-.5 1.1-.5c.6 0 1 .3 1.3.8v2.5z"/><use xlink:href="#B" x="34.7"/><path d="M166.8 184c-.6 0-1.1.3-1.4.8v-.7H164v6.3h1.4v-4.3c.2-.5.7-.8 1.3-.8h.6V184h-.5z"/></g><path d="M189.4 25.3H60.6c-2.4 0-4.4 2-4.4 4.4v132.7c0 2.4 2 4.4 4.4 4.4h128.8c2.4 0 4.4-2 4.4-4.4V29.7c0-2.4-2-4.4-4.4-4.4z" fill="#dedee0"/><path d="M57.2,109.6V18.6c0-1.9,1.5-3.4,3.4-3.4h128.8c1.9,0,3.4,1.5,3.4,3.4v90.9H57.2z" fill="#8796a1"/><path d="M189.4 16.2c1.3 0 2.4 1.1 2.4 2.4v89.9H58.2V18.6c0-1.3 1.1-2.4 2.4-2.4h128.8m0-2H60.6c-2.4 0-4.4 2-4.4 4.4v91.9h137.6V18.6c0-2.4-2-4.4-4.4-4.4h0z" fill="#f21197"/><path d="M158.1 125.8c1.1 0 2.1-.9 2.1-2.1 0-1.1-.9-2.1-2.1-2.1H91.9c-1.1 0-2.1.9-2.1 2.1 0 1.1.9 2.1 2.1 2.1h66.2zm19.7 11.5H72.2c-.6 0-1 .5-1 1h0c0 .6.5 1 1 1h105.5c.6 0 1-.5 1-1h0c.1-.6-.4-1-.9-1zm0 8.1H72.2c-.6 0-1 .5-1 1a1.08 1.08 0 0 0 1 1h105.5c.6 0 1-.5 1-1s-.4-1-.9-1zm-26.9 8.1H99.1c-.6 0-1 .5-1 1 0 .6.5 1 1 1h51.7c.6 0 1-.5 1-1 .1-.6-.4-1-.9-1z" fill="#8796a1"/><path d="M105.4 44.4c-3.1 0-5.7 2.5-5.7 5.7 0 3.1 2.5 5.7 5.7 5.7 3.1 0 5.7-2.5 5.7-5.7s-2.6-5.7-5.7-5.7zm55.9-11.1H88.7c-2 0-3.7 1.6-3.7 3.7v48.8c0 1 .4 1.9 1 2.5v.1h.1c.7.6 1.5 1 2.5 1h72.7c1 0 1.9-.4 2.5-1h.1v-.1c.6-.7 1-1.5 1-2.5V37c.1-2-1.5-3.7-3.6-3.7zm1.7 48.9l-22.3-31.5c-1.8-2.6-5.7-2.6-7.5 0l-15.7 22.2 11.8 11.8c.4.4.4 1 0 1.4a1.08 1.08 0 0 1-.7.3c-.3 0-.5-.1-.7-.3l-18.8-18.8c-1.8-1.8-4.7-1.8-6.5 0L87 82.7V37a1.58 1.58 0 0 1 1.6-1.6h72.7a1.58 1.58 0 0 1 1.6 1.6v45.2z" fill="#fff"/><defs ><path id="B" d="M125.5 184c-.5 0-1 .1-1.5.4s-.8.7-1 1.2-.4 1.1-.4 1.7v.2c0 .9.3 1.7.8 2.3s1.3.9 2.2.9c.5 0 1-.1 1.4-.3s.8-.5 1-.9l-.8-.7c-.4.5-.9.8-1.6.8-.5 0-.9-.2-1.2-.5s-.5-.7-.5-1.2h4.1v-.6c0-1-.2-1.8-.7-2.3s-.9-1-1.8-1zm1.3 2.7h-2.7c.1-.5.2-.9.5-1.1s.6-.4.9-.4c.4 0 .7.1.9.4s.3.6.4 1.1h0z"/></defs></svg>