<svg xmlns="http://www.w3.org/2000/svg"  width='240' height='200' xmlns:xlink="http://www.w3.org/1999/xlink" viewBox="0 0 250 207"><path d="M111.4 91.9h-3.3l-.7 2h-1.5l3.2-8.5h1.3l3.2 8.5h-1.5l-.7-2zm-2.9-1.2h2.5l-1.2-3.5-1.3 3.5zm7.5 3.2h-1.4v-9h1.4v9zm7.1-2l1-4.4h1.4l-1.7 6.3h-1.2l-1.4-4.4-1.3 4.4h-1.2l-1.7-6.3h1.4l1 4.3 1.3-4.3h1.1l1.3 4.4zm7.2 2c-.1-.1-.1-.3-.2-.6a2.19 2.19 0 0 1-1.7.7c-.6 0-1.2-.2-1.6-.5s-.6-.8-.6-1.3c0-.7.3-1.2.8-1.6s1.2-.5 2.2-.5h.9v-.4c0-.3-.1-.6-.3-.8s-.5-.3-.8-.3-.6.1-.8.2-.3.4-.3.6h-1.4a1.93 1.93 0 0 1 .3-1c.2-.3.5-.5.9-.7s.8-.3 1.3-.3c.7 0 1.3.2 1.8.6s.7.9.7 1.6v2.9c0 .6.1 1 .2 1.4v.1h-1.4zm-1.6-1c.3 0 .5-.1.8-.2s.4-.3.6-.6v-1.2h-.8c-.5 0-.9.1-1.2.3s-.4.4-.4.8c0 .3.1.5.3.7s.4.2.7.2zm6.4-1.1l1.3-4.3h1.5l-2.5 7.3c-.4 1.1-1 1.6-2 1.6-.2 0-.4 0-.7-.1v-1.1h.3c.4 0 .6-.1.8-.2s.3-.4.4-.7l.2-.5-2.2-6.3h1.5l1.4 4.3zm7.2.4c0-.3-.1-.4-.3-.6s-.6-.2-1-.4-.9-.2-1.2-.4c-.7-.3-1.1-.8-1.1-1.5 0-.5.2-1 .7-1.4s1-.6 1.8-.6 1.4.2 1.8.6.7.9.7 1.5h-1.4c0-.3-.1-.5-.3-.7s-.5-.3-.8-.3-.6.1-.8.2-.4.4-.4.7a.55.55 0 0 0 .3.5c.2.1.6.2 1.1.4s1 .3 1.3.4a1.41 1.41 0 0 1 .7.6c.1.2.2.5.2.9 0 .6-.2 1-.7 1.4s-1.1.5-1.9.5c-.5 0-1-.1-1.4-.3s-.7-.4-.9-.8-.3-.7-.3-1.1h1.4c0 .3.1.6.4.8s.5.3.9.3.7-.1.9-.2a.55.55 0 0 0 .3-.5z" fill="#ff5a08"/><path d="M107.8 182.8c0 .8-.1 1.6-.4 2.2s-.7 1.1-1.2 1.5-1.2.5-1.9.5-1.3-.2-1.8-.5-1-.8-1.3-1.4-.4-1.3-.4-2.2v-.5c0-.8.1-1.6.4-2.2s.7-1.1 1.2-1.5 1.2-.5 1.8-.5 1.3.2 1.8.5 1 .8 1.2 1.4.4 1.4.4 2.2v.5zm-1.5-.5c0-.9-.2-1.7-.5-2.2s-.9-.8-1.5-.8-1.1.3-1.5.8-.5 1.2-.6 2.1v.5c0 .9.2 1.7.5 2.2s.9.8 1.5.8c.7 0 1.2-.2 1.5-.8s.5-1.2.5-2.2v-.4zm4.2-1.8v.7c.5-.6 1.1-.8 1.8-.8 1.3 0 2 .8 2 2.3v4.2h-1.4v-4.1c0-.4-.1-.7-.3-.9s-.5-.3-.9-.3c-.6 0-1 .3-1.3.8v4.5H109v-6.3h1.5zm15.2 6.3h-1.5V183h-3.8v3.8h-1.5v-8.5h1.5v3.6h3.8v-3.6h1.5v8.5zm1.4-3.2c0-.6.1-1.2.4-1.7s.6-.9 1-1.1 1-.4 1.5-.4c.9 0 1.5.3 2.1.8s.8 1.3.9 2.2v.3c0 .6-.1 1.2-.4 1.7s-.6.9-1 1.1-1 .4-1.5.4c-.9 0-1.6-.3-2.1-.9s-.9-1.3-.9-2.4h0zm1.4.1c0 .7.1 1.2.4 1.5s.6.6 1.1.6.9-.2 1.1-.6.4-.9.4-1.6c0-.6-.1-1.1-.4-1.5s-.6-.6-1.1-.6-.8.2-1.1.6-.4.9-.4 1.6zm7.8 1.3l1.3-4.5h1.5l-2.2 6.3h-1.2l-2.2-6.3h1.5l1.3 4.5zm6.4 1.9c-.9 0-1.6-.3-2.2-.9s-.8-1.3-.8-2.3v-.2c0-.6.1-1.2.4-1.7s.6-.9 1-1.2.9-.4 1.5-.4c.9 0 1.5.3 2 .8s.7 1.3.7 2.3v.6h-4.1c0 .5.2.9.5 1.2s.7.5 1.2.5c.7 0 1.2-.3 1.6-.8l.8.7c-.3.4-.6.7-1 .9s-1 .5-1.6.5zm-.1-5.4c-.4 0-.7.1-.9.4s-.4.7-.5 1.1h2.7 0c0-.5-.2-.8-.4-1.1s-.5-.4-.9-.4zm7.1.3h-.6c-.7 0-1.1.2-1.3.8v4.3h-1.4v-6.3h1.4v.7c.3-.6.8-.8 1.4-.8.2 0 .4 0 .5.1v1.2z" fill="#f21197"/><path d="M79.1 20.1H21c-1.1 0-2 .9-2 2v53.2c0 1.1.9 2 2 2h58.1c1.1 0 2-.9 2-2V22.1c0-1.1-.9-2-2-2zm74.9 0H96c-1.1 0-2 .9-2 2v53.2c0 1.1.9 2 2 2h58c1.1 0 2-.9 2-2V22.1c0-1.1-.9-2-2-2zm75 0h-58.1c-1.1 0-2 .9-2 2v53.2c0 1.1.9 2 2 2H229c1.1 0 2-.9 2-2V22.1c0-1.1-.9-2-2-2z" fill="#8796a1"/><g fill="#96a3aa"><use xlink:href="#B"/><path d="M67.3 35.3H32.8c-1 0-1.7.8-1.7 1.7v23.2c0 .5.2.9.5 1.2v.1h.1c.3.3.7.5 1.2.5h34.5c.5 0 .9-.2 1.2-.5h.1v-.1c.3-.3.5-.7.5-1.2V37.1c-.1-1-.9-1.8-1.9-1.8zm.8 23.2l-10.6-15a2.25 2.25 0 0 0-3.6 0L46.4 54l5.6 5.6c.2.2.2.5 0 .7-.1.1-.2.1-.3.1s-.2 0-.3-.1l-9-9c-.9-.9-2.3-.9-3.1 0L32 58.8V37.1c0-.4.3-.8.8-.8h34.5c.4 0 .8.3.8.8v21.4z"/><use xlink:href="#B" x="75"/><path d="M142.3 35.3h-34.5c-1 0-1.7.8-1.7 1.7v23.2c0 .5.2.9.5 1.2v.1h.1c.3.3.7.5 1.2.5h34.5c.5 0 .9-.2 1.2-.5h.1v-.1c.3-.3.5-.7.5-1.2V37.1c-.2-1-1-1.8-1.9-1.8zm.7 23.2l-10.6-15a2.25 2.25 0 0 0-3.6 0L121.3 54l5.6 5.6c.2.2.2.5 0 .7-.1.1-.2.1-.3.1s-.2 0-.3-.1l-9-9c-.9-.9-2.3-.9-3.1 0l-7.3 7.4V37.1c0-.4.3-.8.8-.8h34.5c.4 0 .8.3.8.8v21.4z"/><use xlink:href="#B" x="149.9"/><path d="M217.2 35.3h-34.5c-1 0-1.7.8-1.7 1.7v23.2c0 .5.2.9.5 1.2v.1h.1c.3.3.7.5 1.2.5h34.5c.5 0 .9-.2 1.2-.5h.1v-.1c.3-.3.5-.7.5-1.2V37.1c-.2-1-.9-1.8-1.9-1.8zm.8 23.2l-10.6-15a2.25 2.25 0 0 0-3.6 0L196.3 54l5.6 5.6c.2.2.2.5 0 .7-.1.1-.2.1-.3.1s-.2 0-.3-.1l-9-9c-.9-.9-2.3-.9-3.1 0l-7.3 7.4V37.1c0-.4.3-.8.8-.8h34.5c.4 0 .8.3.8.8v21.4z"/></g><g opacity=".55" fill="#08062d"><path d="M79.1 20.1H21c-1.1 0-2 .9-2 2v53.2c0 1.1.9 2 2 2h58.1c1.1 0 2-.9 2-2V22.1c0-1.1-.9-2-2-2zm149.9 0h-58.1c-1.1 0-2 .9-2 2v53.2c0 1.1.9 2 2 2H229c1.1 0 2-.9 2-2V22.1c0-1.1-.9-2-2-2zm-74.9 0H96c-1.1 0-2 .9-2 2v53.2c0 1.1.9 2 2 2h58.1c1.1 0 2-.9 2-2V22.1c0-1.1-.9-2-2-2z"/></g><g fill="#fff"><path d="M35.1 35.6H65c.5 0 .9-.4.9-.9s-.4-.9-.9-.9H35.1c-.5 0-.9.4-.9.9s.4.9.9.9z"/><use xlink:href="#C"/><use xlink:href="#C" y="3.6"/><path d="M73.9 48.1H26.3a.47.47 0 0 0-.5.5c0 .3.2.4.5.4h47.6a.47.47 0 0 0 .5-.5c0-.3-.3-.4-.5-.4z"/><use xlink:href="#C" y="10.9"/><use xlink:href="#C" y="14.6"/><path d="M73.9 59H26.3a.5.5 0 1 0 0 1h47.6a.47.47 0 0 0 .5-.5c0-.3-.3-.5-.5-.5zm-12.2 3.7H38.4a.5.5 0 1 0 0 1h23.3a.5.5 0 1 0 0-1zM185 35.6h29.9c.5 0 .9-.4.9-.9s-.4-.9-.9-.9H185c-.5 0-.9.4-.9.9s.4.9.9.9zm-8.9 6.1h47.6a.47.47 0 0 0 .5-.5.47.47 0 0 0-.5-.5h-47.6a.47.47 0 0 0-.5.5c0 .3.3.5.5.5z"/><use xlink:href="#D"/><use xlink:href="#D" y="3.7"/><use xlink:href="#D" y="7.3"/><use xlink:href="#D" y="11"/><path d="M223.7 59h-47.6a.5.5 0 1 0 0 1h47.6a.5.5 0 1 0 0-1zm-12.1 3.7h-23.3a.5.5 0 1 0 0 1h23.3a.5.5 0 1 0 0-1zM110.4 35.6h29.9c.5 0 .9-.4.9-.9s-.4-.9-.9-.9h-29.9c-.5 0-.9.4-.9.9s.4.9.9.9zm-8.9 6.1h47.6a.47.47 0 0 0 .5-.5.47.47 0 0 0-.5-.5h-47.6a.47.47 0 0 0-.5.5c0 .3.3.5.5.5z"/><use xlink:href="#D" x="-74.6"/><use xlink:href="#D" x="-74.6" y="3.7"/><use xlink:href="#D" x="-74.6" y="7.3"/><use xlink:href="#D" x="-74.6" y="11"/><path d="M149.1 59h-47.6a.5.5 0 1 0 0 1h47.6a.5.5 0 1 0 0-1zM137 62.7h-23.3a.5.5 0 1 0 0 1H137a.47.47 0 0 0 .5-.5c0-.3-.3-.5-.5-.5z"/></g><path d="M79.1 113.2H21c-1.1 0-2 .9-2 2v53.2c0 1.1.9 2 2 2h58.1c1.1 0 2-.9 2-2v-53.2c0-1.1-.9-2-2-2zm74.9 0H96c-1.1 0-2 .9-2 2v53.2c0 1.1.9 2 2 2h58c1.1 0 2-.9 2-2v-53.2c0-1.1-.9-2-2-2zm75 0h-58.1c-1.1 0-2 .9-2 2v53.2c0 1.1.9 2 2 2H229c1.1 0 2-.9 2-2v-53.2c0-1.1-.9-2-2-2z" fill="#8796a1"/><g fill="#d9e3e8"><use xlink:href="#B" y="93.1"/><path d="M67.3 128.5H32.8c-1 0-1.7.8-1.7 1.7v23.2c0 .5.2.9.5 1.2v.1h.1c.3.3.7.5 1.2.5h34.5c.5 0 .9-.2 1.2-.5h.1v-.1c.3-.3.5-.7.5-1.2v-23.2a1.86 1.86 0 0 0-1.9-1.7zm.8 23.2l-10.6-15a2.25 2.25 0 0 0-3.6 0l-7.5 10.5 5.6 5.6c.2.2.2.5 0 .7-.1.1-.2.1-.3.1s-.2 0-.3-.1l-9-9c-.9-.9-2.3-.9-3.1 0l-7.3 7.4v-21.7c0-.4.3-.8.8-.8h34.5c.4 0 .8.3.8.8v21.5z"/></g><g fill="#96a3aa"><use xlink:href="#B" x="75" y="93.1"/><path d="M142.3 128.5h-34.5c-1 0-1.7.8-1.7 1.7v23.2c0 .5.2.9.5 1.2v.1h.1c.3.3.7.5 1.2.5h34.5c.5 0 .9-.2 1.2-.5h.1v-.1c.3-.3.5-.7.5-1.2v-23.2c-.2-1-1-1.7-1.9-1.7zm.7 23.2l-10.6-15a2.25 2.25 0 0 0-3.6 0l-7.5 10.5 5.6 5.6c.2.2.2.5 0 .7-.1.1-.2.1-.3.1s-.2 0-.3-.1l-9-9c-.9-.9-2.3-.9-3.1 0l-7.3 7.4v-21.7c0-.4.3-.8.8-.8h34.5c.4 0 .8.3.8.8v21.5z"/></g><g fill="#d9e3e8"><use xlink:href="#B" x="149.9" y="93.1"/><path d="M217.2 128.5h-34.5c-1 0-1.7.8-1.7 1.7v23.2c0 .5.2.9.5 1.2v.1h.1c.3.3.7.5 1.2.5h34.5c.5 0 .9-.2 1.2-.5h.1v-.1c.3-.3.5-.7.5-1.2v-23.2c-.2-1-.9-1.7-1.9-1.7zm.8 23.2l-10.6-15a2.25 2.25 0 0 0-3.6 0l-7.5 10.5 5.6 5.6c.2.2.2.5 0 .7-.1.1-.2.1-.3.1s-.2 0-.3-.1l-9-9c-.9-.9-2.3-.9-3.1 0l-7.3 7.4v-21.7c0-.4.3-.8.8-.8h34.5c.4 0 .8.3.8.8v21.5z"/></g><g opacity=".55"><path d="M154.1 113.2H96c-1.1 0-2 .9-2 2v53.2c0 1.1.9 2 2 2h58.1c1.1 0 2-.9 2-2v-53.2c0-1.1-.9-2-2-2z" fill="#08062d"/></g><g fill="#fff"><path d="M110.1 128.7H140c.5 0 .9-.4.9-.9s-.4-.9-.9-.9h-29.9c-.5 0-.9.4-.9.9s.4.9.9.9zm-8.8 6.1h47.6a.5.5 0 1 0 0-1h-47.6a.5.5 0 1 0 0 1z"/><use xlink:href="#E"/><use xlink:href="#E" y="3.7"/><use xlink:href="#E" y="7.3"/><use xlink:href="#E" y="11"/><use xlink:href="#E" y="14.7"/><path d="M136.7 155.8h-23.3a.47.47 0 1 0 0 1h23.3a.47.47 0 1 0 0-1z"/><path d="M149.7 158.8c-.3 0-.6.2-.7.5v-.4a.68.68 0 1 0-1.4 0v-.3a.68.68 0 1 0-1.4 0v-1.9a.68.68 0 1 0-1.4 0v3.6.1.1l-1-.6c-.4-.2-.9-.1-1.2.3-.2.4-.1.9.3 1.2l1.9 1.1c0 .7.5 1.2 1 1.5v2.1h3.7V164c.6-.2 1.1-.9 1.1-1.6v-2-.1-.8c-.2-.3-.5-.7-.9-.7z" stroke="#231f20" stroke-width=".3" stroke-miterlimit="10"/></g><defs ><path id="B" d="M40.7 40.6a2.69 2.69 0 1 0 0 5.4 2.69 2.69 0 1 0 0-5.4z"/><path id="C" d="M73.9 40.8H26.3a.47.47 0 0 0-.5.5.47.47 0 0 0 .5.5h47.6a.47.47 0 0 0 .5-.5c0-.3-.3-.5-.5-.5z"/><path id="D" d="M223.7 44.4h-47.6a.47.47 0 0 0-.5.5.47.47 0 0 0 .5.5h47.6a.47.47 0 0 0 .5-.5.47.47 0 0 0-.5-.5z"/><path id="E" d="M148.9 137.5h-47.6a.47.47 0 1 0 0 1h47.6a.47.47 0 0 0 .5-.5c0-.3-.3-.5-.5-.5z"/></defs></svg>