<svg xmlns="http://www.w3.org/2000/svg"  width='240' height='200' xmlns:xlink="http://www.w3.org/1999/xlink" viewBox="0 0 250 207"><g fill="#8796a1"><path d="M157.6 15.7h-46.2a1.58 1.58 0 0 0-1.6 1.6v41.2a1.58 1.58 0 0 0 1.6 1.6h46.2a1.58 1.58 0 0 0 1.6-1.6V17.3a1.58 1.58 0 0 0-1.6-1.6zm63.9.2h-50c-1 0-1.8.5-1.8 1.2v26.6c0 .7.8 1.2 1.8 1.2h50c1 0 1.8-.5 1.8-1.2V17.1c0-.7-.8-1.2-1.8-1.2zM98 15.4H71.9a1.58 1.58 0 0 0-1.6 1.6v36.7a1.58 1.58 0 0 0 1.6 1.6H98a1.58 1.58 0 0 0 1.6-1.6V17.1c.1-.9-.6-1.7-1.6-1.7zm134.3 21.8c.2.2.4.2.6.2s.4-.1.6-.2l3.9-3.9c.3-.3.3-.8 0-1.2l-3.7-3.7c-.3-.3-.8-.3-1.2 0-.3.3-.3.8 0 1.2l3.2 3.2-3.3 3.3c-.4.3-.4.8-.1 1.1z"/><use xlink:href="#B"/><path d="M157.6 81.5h-46.2a1.58 1.58 0 0 0-1.6 1.6v41.2a1.58 1.58 0 0 0 1.6 1.6h46.2a1.58 1.58 0 0 0 1.6-1.6V83.1a1.58 1.58 0 0 0-1.6-1.6zM98 83.7H71.9a1.58 1.58 0 0 0-1.6 1.6V122a1.58 1.58 0 0 0 1.6 1.6H98a1.58 1.58 0 0 0 1.6-1.6V85.4c.1-.9-.6-1.7-1.6-1.7zm123.5 5.5h-50c-1 0-1.8.5-1.8 1.2V117c0 .7.8 1.2 1.8 1.2h50c1 0 1.8-.5 1.8-1.2V90.4c0-.6-.8-1.2-1.8-1.2z"/><use xlink:href="#C"/><use xlink:href="#B" y="70.9"/><path d="M157.6 147.1h-46.2a1.58 1.58 0 0 0-1.6 1.6v41.2a1.58 1.58 0 0 0 1.6 1.6h46.2a1.58 1.58 0 0 0 1.6-1.6v-41.2a1.58 1.58 0 0 0-1.6-1.6zM98 151.6H71.9a1.58 1.58 0 0 0-1.6 1.6v36.7a1.58 1.58 0 0 0 1.6 1.6H98a1.58 1.58 0 0 0 1.6-1.6v-36.7c.1-.9-.6-1.6-1.6-1.6zm123.5 11h-50c-1 0-1.8.5-1.8 1.2v26.6c0 .7.8 1.2 1.8 1.2h50c1 0 1.8-.5 1.8-1.2v-26.6c0-.7-.8-1.2-1.8-1.2z"/><use xlink:href="#C" y="70.6"/><path d="M61.2 169.9c-.3-.3-.8-.3-1.2 0l-3.9 3.9c-.3.3-.3.8 0 1.2l3.7 3.7c.2.2.4.2.6.2s.4-.1.6-.2c.3-.3.3-.8 0-1.2l-3.2-3.2 3.3-3.3c.4-.3.4-.8.1-1.1z"/></g><path d="M15.3 34.5h1.5v-7.3h2.7V26h-6.8v1.2h2.6zm3.7-3.2h0c0 1.1.3 1.9.8 2.5s1.3.9 2.1.9c.6 0 1.1-.1 1.5-.4s.8-.7 1-1.1.4-1.1.4-1.7v-.3c0-.9-.3-1.6-.9-2.2s-1.2-.8-2.1-.8c-.6 0-1.1.1-1.5.4s-.8.7-1 1.1-.3 1-.3 1.6zm1.8-1.5c.3-.4.6-.6 1.1-.6s.8.2 1.1.6.4.9.4 1.5c0 .7-.1 1.3-.4 1.6s-.6.6-1.1.6-.9-.2-1.1-.6-.4-.9-.4-1.5c0-.7.1-1.3.4-1.6zm6.7 4.2c.4.5 1 .7 1.7.7.8 0 1.3-.3 1.8-.9s.7-1.4.7-2.3v-.1c0-1-.2-1.8-.7-2.4s-1-.9-1.8-.9c-.7 0-1.3.3-1.7.8l-.1-.6h-1.3V37h1.4v-3zm0-4c.3-.5.7-.7 1.3-.7.5 0 .8.2 1.1.6s.4.9.4 1.5c0 .7-.1 1.3-.4 1.7s-.6.5-1.1.5c-.6 0-1-.2-1.3-.7V30zm-6.9 77.7h1.5v-8.5h-2l-2.4 6.5-2.5-6.5h-1.9v8.5h1.5v-2.8l-.2-3.7 2.6 6.5h1l2.5-6.6-.1 3.8zm3.2-6.3h1.4v6.3h-1.4zm.1-2.2c-.1.1-.2.3-.2.5s.1.4.2.5.3.2.6.2.5-.1.6-.2.2-.3.2-.5-.1-.4-.2-.5-.4-.2-.6-.2-.5 0-.6.2zm8.1-.5h-1.4v3.2c-.4-.5-1-.7-1.6-.7-.8 0-1.4.3-1.8.9s-.7 1.4-.7 2.4.2 1.8.7 2.4 1.1.9 1.8.9 1.3-.3 1.7-.8l.1.7H32v-9zm-1.4 7.2c-.3.5-.7.8-1.3.8-.5 0-.8-.2-1.1-.5s-.4-.9-.4-1.5c0-.7.1-1.3.4-1.6s.6-.5 1.1-.5c.6 0 1 .3 1.3.8v2.5zm5.1 1.9c.7 0 1.3-.3 1.7-.8l.1.7h1.3v-9h-1.4v3.2c-.4-.5-1-.7-1.6-.7-.8 0-1.4.3-1.8.9s-.7 1.4-.7 2.4.2 1.8.7 2.4 1 .9 1.7.9zM35 103c.2-.4.6-.5 1.1-.5.6 0 1 .3 1.3.8v2.7c-.3.5-.7.8-1.3.8-.5 0-.8-.2-1.1-.5s-.4-.9-.4-1.5c.1-.9.2-1.5.4-1.8zm5.4-4.3h1.4v9h-1.4zm5.7 9.1c.5 0 1-.1 1.4-.3s.8-.5 1-.9l-.8-.7c-.4.5-.9.8-1.6.8-.5 0-.9-.2-1.2-.5s-.5-.7-.5-1.2h4.1v-.6c0-1-.2-1.8-.7-2.3s-1.1-.8-2-.8c-.5 0-1 .1-1.5.4s-.8.7-1 1.2-.4 1.1-.4 1.7v.2c0 .9.3 1.7.8 2.3s1.5.7 2.4.7zm-1.1-5c.2-.3.6-.4.9-.4.4 0 .7.1.9.4s.3.6.4 1.1v.1h-2.7c.1-.5.3-.9.5-1.2zm-27.1 70.6c.4-.2.7-.4.9-.7s.3-.7.3-1.1c0-.8-.3-1.3-.8-1.7s-1.2-.6-2.2-.6h-2.9v8.5h3.1c1 0 1.7-.2 2.2-.6s.8-1 .8-1.8c0-.5-.1-.9-.4-1.2s-.5-.7-1-.8zm-3.1-2.9h1.4c.5 0 .9.1 1.1.3s.4.5.4.9-.1.7-.4.9-.6.3-1.1.3h-1.5v-2.4zm2.7 5.8c-.3.2-.6.3-1.1.3h-1.6V174h1.8c.9 0 1.4.5 1.4 1.4-.1.4-.2.7-.5.9zm8-4.1c-.5-.6-1.2-.8-2.1-.8-.6 0-1.1.1-1.5.4s-.8.7-1 1.1-.4 1.1-.4 1.7v.1c0 1 .3 1.8.8 2.4s1.3.9 2.1.9c.6 0 1.1-.1 1.5-.4s.8-.7 1-1.1.4-1.1.4-1.7v-.3c0-1-.3-1.7-.8-2.3zm-1 4.1c-.3.4-.6.6-1.1.6s-.9-.2-1.1-.6-.4-.9-.4-1.5c0-.7.1-1.3.4-1.7s.6-.6 1.1-.6.8.2 1.1.6.4.9.4 1.5c.1.7-.1 1.3-.4 1.7zm5 .3c-.1-.1-.1-.3-.1-.5v-3.5h1.1v-1.1h-1.1V170H28v1.5h-1v1.1h1v3.6c0 1.2.5 1.8 1.6 1.8.3 0 .6 0 .9-.1v-1.1c-.2 0-.3.1-.5.1-.2-.1-.4-.2-.5-.3zm4 0c-.1-.1-.1-.3-.1-.5v-3.5h1.1v-1.1h-1.1V170H32v1.5h-1v1.1h1v3.6c0 1.2.5 1.8 1.6 1.8.3 0 .6 0 .9-.1v-1.1c-.2 0-.3.1-.5.1-.2-.1-.4-.2-.5-.3zm6.6-4.4c-.5-.6-1.2-.8-2.1-.8-.6 0-1.1.1-1.5.4s-.8.7-1 1.1-.4 1.1-.4 1.7v.1c0 1 .3 1.8.8 2.4s1.3.9 2.1.9c.6 0 1.1-.1 1.5-.4s.8-.7 1-1.1.4-1.1.4-1.7v-.3c.1-1-.2-1.7-.8-2.3zm-.9 4.1c-.3.4-.6.6-1.1.6s-.9-.2-1.1-.6-.4-.9-.4-1.5c0-.7.1-1.3.4-1.7s.6-.6 1.1-.6.8.2 1.1.6.4.9.4 1.5c0 .7-.1 1.3-.4 1.7zm11.5-4.3c-.3-.4-.9-.6-1.6-.6-.8 0-1.5.3-1.9 1-.3-.6-.9-1-1.7-1s-1.4.3-1.8.8v-.7h-1.3v6.3h1.4v-4.6c.2-.5.6-.7 1.2-.7.7 0 1.1.4 1.1 1.1v4.2h1.4v-4.3c.1-.3.2-.5.4-.7s.5-.3.8-.3c.4 0 .7.1.9.3s.3.5.3.9v4.1h1.4v-4.2c-.1-.7-.3-1.2-.6-1.6z" fill="#231f20"/><path d="M130.8 32.2a2.22 2.22 0 0 0-2.2 2.2 2.22 2.22 0 0 0 2.2 2.2 2.22 2.22 0 0 0 2.2-2.2c-.1-1.2-1-2.2-2.2-2.2zm17.4-4.9h-27.5c-.8 0-1.4.6-1.4 1.4v18.5c0 .4.1.7.4 1h0 0a1.53 1.53 0 0 0 1 .4h27.5c.4 0 .7-.1 1-.4h0 0a1.53 1.53 0 0 0 .4-1V28.7c0-.8-.6-1.4-1.4-1.4zm.7 18.5l-8.5-11.9c-.7-1-2.2-1-2.8 0l-6 8.4 4.5 4.5c.2.2.2.4 0 .5-.1.1-.2.1-.3.1s-.2 0-.3-.1l-7.1-7.1a1.75 1.75 0 0 0-2.5 0l-5.8 5.9V28.7a.65.65 0 0 1 .6-.6h27.5a.65.65 0 0 1 .6.6v17.1zM83.2 31.4c-.8 0-1.4.6-1.4 1.4s.6 1.4 1.4 1.4 1.4-.6 1.4-1.4c-.1-.8-.7-1.4-1.4-1.4zm10.7-2.6H76.4c-.5 0-.9.4-.9.9v11.7c0 .2.1.4.2.6h0 0c.2.2.4.2.6.2h17.5c.2 0 .4-.1.6-.2h0 0c.2-.2.2-.4.2-.6V29.7c.2-.5-.2-.9-.7-.9zm.4 11.7l-5.4-7.6a1.13 1.13 0 0 0-1.8 0l-3.8 5.3 2.8 2.8c.1.1.1.3 0 .3 0 0-.1.1-.2.1s-.1 0-.2-.1l-4.5-4.5c-.4-.4-1.1-.4-1.6 0L76 40.6v-11c0-.2.2-.4.4-.4h17.5c.2 0 .4.2.4.4v10.9zm99.2-15.9c-1 0-1.9.8-1.9 1.9 0 1 .8 1.9 1.9 1.9 1 0 1.9-.8 1.9-1.9 0-1-.8-1.9-1.9-1.9zm15.1-3.7h-24.1c-.7 0-1.2.5-1.2 1.2v16.2c0 .3.1.6.3.8h0 0c.2.2.5.3.8.3h24.1c.3 0 .6-.1.8-.3h0 0c.2-.2.3-.5.3-.8V22.1c.2-.7-.4-1.2-1-1.2zm.5 16.2l-7.4-10.5c-.6-.9-1.9-.9-2.5 0L194 34l3.9 3.9c.1.1.1.3 0 .5-.1.1-.2.1-.2.1-.1 0-.2 0-.2-.1l-6.3-6.3a1.57 1.57 0 0 0-2.2 0l-5.1 5.2V22.1a.47.47 0 0 1 .5-.5h24.1a.47.47 0 0 1 .5.5v15zm-78.3 61a2.22 2.22 0 0 0-2.2 2.2 2.22 2.22 0 0 0 2.2 2.2 2.22 2.22 0 0 0 2.2-2.2 2.22 2.22 0 0 0-2.2-2.2zm17.4-5h-27.5c-.8 0-1.4.6-1.4 1.4V113c0 .4.1.7.4 1h0 0a1.53 1.53 0 0 0 1 .4h27.5c.4 0 .7-.1 1-.4h0 0a1.53 1.53 0 0 0 .4-1V94.5c0-.8-.6-1.4-1.4-1.4zm.7 18.5l-8.5-11.9c-.7-1-2.2-1-2.8 0l-6 8.4 4.5 4.5c.2.2.2.4 0 .5-.1.1-.2.1-.3.1s-.2 0-.3-.1l-7.1-7.1a1.75 1.75 0 0 0-2.5 0l-5.8 5.9V94.5a.65.65 0 0 1 .6-.6h27.5a.65.65 0 0 1 .6.6v17.1zM83.2 99.7c-.8 0-1.4.6-1.4 1.4s.6 1.4 1.4 1.4 1.4-.6 1.4-1.4c-.1-.8-.7-1.4-1.4-1.4zm10.7-2.6H76.4c-.5 0-.9.4-.9.9v11.7c0 .2.1.4.2.6h0 0c.2.2.4.2.6.2h17.5c.2 0 .4-.1.6-.2h0 0c.2-.2.2-.4.2-.6V98c.2-.5-.2-.9-.7-.9zm.4 11.7l-5.4-7.6a1.13 1.13 0 0 0-1.8 0l-3.8 5.3 2.8 2.8c.1.1.1.3 0 .3 0 0-.1.1-.2.1s-.1 0-.2-.1l-4.5-4.5c-.4-.4-1.1-.4-1.6 0l-3.7 3.7V98c0-.2.2-.4.4-.4h17.5c.2 0 .4.2.4.4v10.8zm99.2-10.6c-1 0-1.9.8-1.9 1.9s.8 1.9 1.9 1.9c1 0 1.9-.8 1.9-1.9s-.8-1.9-1.9-1.9zm15.1-3.8h-24.1c-.7 0-1.2.5-1.2 1.2v16.2c0 .3.1.6.3.8h0 0c.2.2.5.3.8.3h24.1c.3 0 .6-.1.8-.3h0 0c.2-.2.3-.5.3-.8V95.6c.2-.6-.4-1.2-1-1.2zm.5 16.2l-7.4-10.5c-.6-.9-1.9-.9-2.5 0l-5.2 7.4 3.9 3.9c.1.1.1.3 0 .5-.1.1-.2.1-.2.1-.1 0-.2 0-.2-.1l-6.3-6.3a1.57 1.57 0 0 0-2.2 0l-5.1 5.2V95.6a.47.47 0 0 1 .5-.5h24.1a.47.47 0 0 1 .5.5v15zm-78.3 53.1a2.22 2.22 0 0 0-2.2 2.2 2.22 2.22 0 0 0 2.2 2.2 2.22 2.22 0 0 0 2.2-2.2c-.1-1.2-1-2.2-2.2-2.2zm17.4-5h-27.5c-.8 0-1.4.6-1.4 1.4v18.5c0 .4.1.7.4 1h0 0a1.53 1.53 0 0 0 1 .4h27.5c.4 0 .7-.1 1-.4h0 0a1.53 1.53 0 0 0 .4-1v-18.5c0-.8-.6-1.4-1.4-1.4zm.7 18.5l-8.5-11.9c-.7-1-2.2-1-2.8 0l-6 8.4 4.5 4.5c.2.2.2.4 0 .5-.1.1-.2.1-.3.1s-.2 0-.3-.1l-7.1-7.1a1.75 1.75 0 0 0-2.5 0l-5.8 5.9v-17.3a.65.65 0 0 1 .6-.6h27.5a.65.65 0 0 1 .6.6v17zm-65.7-9.7c-.8 0-1.4.6-1.4 1.4s.6 1.4 1.4 1.4 1.4-.6 1.4-1.4c-.1-.7-.7-1.4-1.4-1.4zm10.7-2.6H76.4c-.5 0-.9.4-.9.9v11.7c0 .2.1.4.2.6h0 0c.2.2.4.2.6.2h17.5c.2 0 .4-.1.6-.2h0 0c.2-.2.2-.4.2-.6v-11.7c.2-.5-.2-.9-.7-.9zm.4 11.7l-5.4-7.6a1.13 1.13 0 0 0-1.8 0l-3.8 5.3 2.8 2.8c.1.1.1.3 0 .3 0 0-.1.1-.2.1s-.1 0-.2-.1l-4.5-4.5c-.4-.4-1.1-.4-1.6 0l-3.7 3.7v-11c0-.2.2-.4.4-.4h17.5c.2 0 .4.2.4.4v11zm99.2-5.4c-1 0-1.9.8-1.9 1.9s.8 1.9 1.9 1.9c1 0 1.9-.8 1.9-1.9s-.8-1.9-1.9-1.9zm15.1-3.8h-24.1c-.7 0-1.2.5-1.2 1.2v16.2c0 .3.1.6.3.8h0 0c.2.2.5.3.8.3h24.1c.3 0 .6-.1.8-.3h0 0c.2-.2.3-.5.3-.8v-16.2c.2-.6-.4-1.2-1-1.2zm.5 16.3l-7.4-10.5c-.6-.9-1.9-.9-2.5 0l-5.2 7.4 3.9 3.9c.1.1.1.3 0 .5-.1.1-.2.1-.2.1-.1 0-.2 0-.2-.1l-6.3-6.3a1.57 1.57 0 0 0-2.2 0l-5.1 5.2v-15.2a.47.47 0 0 1 .5-.5h24.1a.47.47 0 0 1 .5.5v15z" fill="#fff"/><defs ><path id="B" d="M60 28.4l-3.9 3.9c-.3.3-.3.8 0 1.2l3.7 3.7c.2.2.4.2.6.2s.4-.1.6-.2c.3-.3.3-.8 0-1.2l-3.2-3.2 3.3-3.3c.3-.3.3-.8 0-1.2s-.7-.2-1.1.1z"/><path id="C" d="M233.6 99.3c-.3-.3-.8-.3-1.2 0-.3.3-.3.8 0 1.2l3.2 3.2-3.3 3.3c-.3.3-.3.8 0 1.2.2.2.4.2.6.2s.4-.1.6-.2l3.9-3.9c.3-.3.3-.8 0-1.2l-3.8-3.8z"/></defs></svg>