<svg xmlns="http://www.w3.org/2000/svg"  width='240' height='200' xmlns:xlink="http://www.w3.org/1999/xlink" viewBox="0 0 250 126"><path d="M79.2 16.9H21.1c-1.1 0-2 .9-2 2v64.8c0 1.1.9 2 2 2h58.1c1.1 0 2-.9 2-2V18.9c0-1.1-.9-2-2-2zm74.9 0H96c-1.1 0-2 .9-2 2v64.8c0 1.1.9 2 2 2h58.1c1.1 0 2-.9 2-2V18.9c0-1.1-.9-2-2-2zm74.8 0h-58.1c-1.1 0-2 .9-2 2v64.8c0 1.1.9 2 2 2h58.1c1.1 0 2-.9 2-2V18.9c0-1.1-.9-2-2-2z" fill="#dedee0"/><path d="M62.9 64.6c.4 0 .8-.3.8-.8v-.1c0-.4-.3-.8-.8-.8H37.4c-.4 0-.8.3-.8.8v.1c0 .4.3.8.8.8h25.5zm7.6 4.4H29.8c-.2 0-.4.2-.4.4h0c0 .2.2.4.4.4h40.7c.2 0 .4-.2.4-.4h0c0-.3-.2-.4-.4-.4zm0 3.1H29.8c-.2 0-.4.2-.4.4h0c0 .2.2.4.4.4h40.7c.2 0 .4-.2.4-.4h0c0-.2-.2-.4-.4-.4zm-10.4 3.1H40.2c-.2 0-.4.2-.4.4h0c0 .2.2.4.4.4h19.9c.2 0 .4-.2.4-.4h0c0-.2-.1-.4-.4-.4zm77.7-10.6c.4 0 .8-.3.8-.8v-.1c0-.4-.3-.8-.8-.8h-25.6c-.4 0-.8.3-.8.8v.1c0 .4.3.8.8.8h25.6zm7.6 4.4h-40.7c-.2 0-.4.2-.4.4h0c0 .2.2.4.4.4h40.7c.2 0 .4-.2.4-.4h0c-.1-.3-.2-.4-.4-.4zm0 3.1h-40.7c-.2 0-.4.2-.4.4h0c0 .2.2.4.4.4h40.7c.2 0 .4-.2.4-.4h0c-.1-.2-.2-.4-.4-.4zM135 75.2h-19.9c-.2 0-.4.2-.4.4h0c0 .2.2.4.4.4H135c.2 0 .4-.2.4-.4h0c0-.2-.2-.4-.4-.4zM73.3 22.6H27.1c-1 0-1.9.8-1.9 1.9v33.1h50V24.5a1.97 1.97 0 0 0-1.9-1.9zm74.8 0h-46.2c-1 0-1.9.8-1.9 1.9v33.1h50V24.5c0-1-.8-1.9-1.9-1.9zm74.9 0h-46.2c-1 0-1.9.8-1.9 1.9v33.1h50V24.5c0-1-.8-1.9-1.9-1.9zm-10.3 42c.4 0 .8-.3.8-.8v-.1c0-.4-.3-.8-.8-.8h-25.6c-.4 0-.8.3-.8.8v.1c0 .4.3.8.8.8h25.6zm7.5 4.4h-40.7c-.2 0-.4.2-.4.4h0c0 .2.2.4.4.4h40.7c.2 0 .4-.2.4-.4h0c0-.3-.2-.4-.4-.4zm0 3.1h-40.7c-.2 0-.4.2-.4.4h0c0 .2.2.4.4.4h40.7c.2 0 .4-.2.4-.4h0c0-.2-.2-.4-.4-.4zm-10.3 3.1H190c-.2 0-.4.2-.4.4h0c0 .2.2.4.4.4h19.9c.2 0 .4-.2.4-.4h0c0-.2-.2-.4-.4-.4z" fill="#8796a1"/><path d="M42.2 33.2a2.26 2.26 0 0 0-2.3 2.3 2.26 2.26 0 0 0 2.3 2.3 2.26 2.26 0 0 0 2.3-2.3 2.26 2.26 0 0 0-2.3-2.3zm22.7-4.4H35.4a1.54 1.54 0 0 0-1.5 1.5V50a1.53 1.53 0 0 0 .4 1h0 0c.3.3.6.4 1 .4h29.5a1.53 1.53 0 0 0 1-.4h0 0c.3-.3.4-.6.4-1V30.2c.2-.8-.5-1.4-1.3-1.4zm.7 19.8l-9.1-12.8a1.78 1.78 0 0 0-3 0l-6.4 9 4.8 4.8c.2.2.2.4 0 .6-.1.1-.2.1-.3.1s-.2 0-.3-.1l-7.6-7.6c-.7-.7-1.9-.7-2.6 0l-6.2 6.3V30.2a.68.68 0 0 1 .7-.7h29.5a.68.68 0 0 1 .7.7v18.4zm51.5-15.4a2.26 2.26 0 0 0-2.3 2.3 2.3 2.3 0 1 0 4.6 0c0-1.3-1.1-2.3-2.3-2.3zm22.7-4.4h-29.5a1.54 1.54 0 0 0-1.5 1.5V50a1.53 1.53 0 0 0 .4 1h0 0c.3.3.6.4 1 .4h29.5a1.53 1.53 0 0 0 1-.4h0 0c.3-.3.4-.6.4-1V30.2c.2-.8-.5-1.4-1.3-1.4zm.6 19.8l-9.1-12.8a1.78 1.78 0 0 0-3 0l-6.4 9 4.8 4.8c.2.2.2.4 0 .6-.1.1-.2.1-.3.1s-.2 0-.3-.1l-7.6-7.6c-.7-.7-1.9-.7-2.6 0l-6.2 6.3V30.2a.68.68 0 0 1 .7-.7h29.5a.68.68 0 0 1 .7.7v18.4zm51.5-15.4a2.26 2.26 0 0 0-2.3 2.3 2.3 2.3 0 1 0 4.6 0 2.26 2.26 0 0 0-2.3-2.3zm22.7-4.4h-29.5a1.54 1.54 0 0 0-1.5 1.5V50a1.53 1.53 0 0 0 .4 1h0 0c.3.3.6.4 1 .4h29.5a1.53 1.53 0 0 0 1-.4h0 0c.3-.3.4-.6.4-1V30.2c.2-.8-.4-1.4-1.3-1.4zm.7 19.8l-9.1-12.8a1.78 1.78 0 0 0-3 0l-6.4 9 4.8 4.8c.2.2.2.4 0 .6-.1.1-.2.1-.3.1s-.2 0-.3-.1l-7.6-7.6c-.7-.7-1.9-.7-2.6 0l-6.2 6.3V30.2a.68.68 0 0 1 .7-.7h29.5a.68.68 0 0 1 .7.7v18.4z" fill="#fff"/><g fill="#231f20"><path d="M64.6 108.1h-1.5v-8.5h1.5v8.5zm3.5-7.9v1.5h1.1v1.1h-1.1v3.5c0 .2 0 .4.1.5s.3.2.5.2.3 0 .5-.1v1.1c-.3.1-.6.1-.9.1-1.1 0-1.6-.6-1.6-1.8v-3.6h-1v-1.1h1v-1.5h1.4z"/><use xlink:href="#B"/><path d="M78.1 101.8v.7c.4-.5 1.1-.8 1.8-.8.8 0 1.4.3 1.7 1 .5-.6 1.1-1 1.9-1 .7 0 1.2.2 1.6.6s.5 1 .5 1.7v4.2h-1.4V104c0-.4-.1-.7-.3-.9s-.5-.3-.9-.3c-.3 0-.6.1-.8.3s-.3.4-.4.7v4.3h-1.4v-4.2c0-.7-.4-1.1-1.1-1.1-.6 0-1 .2-1.2.7v4.6h-1.4v-6.3h1.4zm11.8 3.1c0-.6.1-1.2.4-1.7s.6-.9 1-1.1 1-.4 1.5-.4c.9 0 1.5.3 2.1.8s.8 1.3.9 2.2v.3c0 .6-.1 1.2-.4 1.7s-.6.9-1 1.1-1 .4-1.5.4c-.9 0-1.6-.3-2.1-.9s-.9-1.3-.9-2.4h0zm1.4.1c0 .7.1 1.2.4 1.5s.6.6 1.1.6.9-.2 1.1-.6.4-.9.4-1.6c0-.6-.1-1.1-.4-1.5s-.6-.6-1.1-.6-.8.2-1.1.6-.4.9-.4 1.6zm9-1.9h-.6c-.7 0-1.1.2-1.3.8v4.3H97v-6.3h1.4v.7c.3-.6.8-.8 1.4-.8.2 0 .4 0 .5.1v1.2zm8.5 2.8c0-.4-.1-.7-.4-.9s-.7-.4-1.4-.6-1.2-.4-1.6-.7c-.8-.5-1.2-1.1-1.2-1.9 0-.7.3-1.3.8-1.7s1.3-.7 2.2-.7c.6 0 1.1.1 1.6.3s.8.5 1.1.9.4.9.4 1.3h-1.5c0-.4-.1-.8-.4-1s-.7-.4-1.2-.4-.9.1-1.1.3c-.3.2-.4.5-.4.9 0 .3.1.6.4.8s.8.4 1.4.6 1.2.4 1.6.7.7.5.9.9.3.7.3 1.1c0 .7-.3 1.3-.8 1.7s-1.3.6-2.2.6c-.6 0-1.2-.1-1.7-.3a2.73 2.73 0 0 1-1.2-.9c-.3-.4-.4-.9-.4-1.4h1.5c0 .5.2.9.5 1.1s.8.4 1.4.4c.5 0 .9-.1 1.2-.3s.2-.4.2-.8zm4.2 2.2h-1.4v-9h1.4v9z"/><use xlink:href="#C"/><use xlink:href="#D"/><use xlink:href="#B" x="54.1"/><path d="M135.5 108.1H134v-8.5h1.5v8.5zm3-6.3v.7c.5-.6 1.1-.8 1.8-.8 1.3 0 2 .8 2 2.3v4.2H141V104c0-.4-.1-.7-.3-.9s-.5-.3-.9-.3c-.6 0-1 .3-1.3.8v4.5h-1.4v-6.3h1.4z"/><use xlink:href="#E"/><path d="M153.3 108.2c-.9 0-1.6-.3-2.2-.9s-.8-1.3-.8-2.3v-.2c0-.6.1-1.2.4-1.7s.6-.9 1-1.2.9-.4 1.5-.4c.9 0 1.5.3 2 .8s.7 1.3.7 2.3v.6h-4.1c0 .5.2.9.5 1.2s.7.5 1.2.5c.7 0 1.2-.3 1.6-.8l.8.7c-.3.4-.6.7-1 .9-.6.4-1.1.5-1.6.5zm-.2-5.4c-.4 0-.7.1-.9.4s-.4.7-.5 1.1h2.7v-.1c0-.5-.2-.8-.4-1.1s-.5-.3-.9-.3zm7.2.3h-.6c-.7 0-1.1.2-1.3.8v4.3H157v-6.3h1.4v.7c.3-.6.8-.8 1.4-.8.2 0 .4 0 .5.1v1.2zm5.5 1.9v3.2h-1.5v-8.5h3.3c1 0 1.7.2 2.3.7s.8 1.2.8 2-.3 1.5-.8 2-1.3.7-2.3.7h-1.8zm0-1.2h1.8c.5 0 .9-.1 1.2-.4s.4-.6.4-1.1-.1-.8-.4-1.1-.7-.4-1.2-.4h-1.8v3zm9.8 4.3c-.1-.1-.1-.3-.2-.6a2.19 2.19 0 0 1-1.7.7c-.6 0-1.2-.2-1.6-.5s-.6-.8-.6-1.3c0-.7.3-1.2.8-1.6s1.2-.5 2.2-.5h.9v-.4c0-.3-.1-.6-.3-.8s-.5-.3-.8-.3-.6.1-.8.2-.3.4-.3.6h-1.4a1.93 1.93 0 0 1 .3-1c.2-.3.5-.5.9-.7s.8-.3 1.3-.3c.7 0 1.3.2 1.8.6s.7.9.7 1.6v2.9c0 .6.1 1 .2 1.4v.1h-1.4zm-1.6-1c.3 0 .5-.1.8-.2s.4-.3.6-.6v-1.2h-.8c-.5 0-.9.1-1.2.3s-.4.4-.4.8c0 .3.1.5.3.7s.4.2.7.2z"/><use xlink:href="#D" x="60.7"/><path d="M184.8 104.9c0-1 .2-1.8.7-2.4s1.1-.9 1.8-.9 1.2.2 1.6.7v-3.2h1.4v9H189l-.1-.7c-.4.5-1 .8-1.7.8s-1.3-.3-1.8-.9-.6-1.4-.6-2.4zm1.4.1c0 .6.1 1.1.4 1.5.2.4.6.5 1.1.5.6 0 1-.3 1.3-.8v-2.7c-.3-.5-.7-.8-1.3-.8-.5 0-.8.2-1.1.5s-.4 1.1-.4 1.8z"/><use xlink:href="#C" x="77.3"/><use xlink:href="#E" x="51"/><path d="M201.3 104.9c0-1 .2-1.8.7-2.4s1.1-.9 1.8-.9 1.3.3 1.7.8l.1-.6h1.3v6.1c0 .8-.3 1.5-.8 2s-1.2.7-2.1.7c-.5 0-.9-.1-1.4-.3s-.8-.4-1-.8l.7-.9c.4.5 1 .8 1.6.8.5 0 .8-.1 1.1-.4s.4-.6.4-1.1v-.4c-.4.5-1 .7-1.6.7-.7 0-1.3-.3-1.8-.9s-.7-1.4-.7-2.4zm1.4.1c0 .6.1 1.1.4 1.5s.6.5 1.1.5c.6 0 1-.2 1.3-.7v-2.8c-.3-.5-.7-.7-1.3-.7-.5 0-.8.2-1.1.6s-.4.9-.4 1.6z"/></g><g fill="#ffd9f1" stroke="#f21197"><circle cx="53.9" cy="104.3" r="5.2"/><path d="M100 81.4h50.1v3.3H100zm0-63.3h50.1v3.3H100z" stroke-width=".954" stroke-miterlimit="10"/><path d="M151.404 79.642v-56.5h3.4v56.5zm-56.013-.013v-56.5h3.4v56.5z" stroke-miterlimit="10" stroke-width="1.028"/></g><defs ><path id="B" d="M73.1 108.2c-.9 0-1.6-.3-2.2-.9s-.8-1.3-.8-2.3v-.2c0-.6.1-1.2.4-1.7s.6-.9 1-1.2.9-.4 1.5-.4c.9 0 1.5.3 2 .8s.7 1.3.7 2.3v.6h-4.1c0 .5.2.9.5 1.2s.7.5 1.2.5c.7 0 1.2-.3 1.6-.8l.8.7c-.3.4-.6.7-1 .9s-1.1.5-1.6.5zm-.2-5.4c-.4 0-.7.1-.9.4s-.4.7-.5 1.1h2.7v-.1c0-.5-.2-.8-.4-1.1s-.5-.3-.9-.3z"/><path id="C" d="M114.5 100.1c0-.2.1-.4.2-.5s.3-.2.6-.2.5.1.6.2.2.3.2.5-.1.4-.2.5-.3.2-.6.2-.5-.1-.6-.2-.2-.3-.2-.5zm1.5 8h-1.4v-6.3h1.4v6.3z"/><path id="D" d="M117.3 104.9c0-1 .2-1.8.7-2.4s1.1-.9 1.8-.9 1.2.2 1.6.7v-3.2h1.4v9h-1.3l-.1-.7c-.4.5-1 .8-1.7.8s-1.3-.3-1.8-.9-.6-1.4-.6-2.4zm1.4.1c0 .6.1 1.1.4 1.5s.6.5 1.1.5c.6 0 1-.3 1.3-.8v-2.7c-.3-.5-.7-.8-1.3-.8-.5 0-.8.2-1.1.5s-.4 1.1-.4 1.8z"/><path id="E" d="M145.2 101.8v.7c.5-.6 1.1-.8 1.8-.8 1.3 0 2 .8 2 2.3v4.2h-1.4V104c0-.4-.1-.7-.3-.9s-.5-.3-.9-.3c-.6 0-1 .3-1.3.8v4.5h-1.4v-6.3h1.5z"/></defs></svg>