<svg xmlns="http://www.w3.org/2000/svg"  width='240' height='200' xmlns:xlink="http://www.w3.org/1999/xlink" viewBox="0 0 250 207"><g fill="#231f20"><path d="M74 182.6h2.6v7.4h1.5v-7.4h2.7v-1.2H74zm10.9.9c-.7 0-1.3.3-1.8.8V181h-1.4v9h1.4v-4.5c.3-.5.7-.8 1.3-.8.4 0 .6.1.8.3s.3.5.3.9v4.1H87v-4.1c0-1.6-.7-2.4-2.1-2.4z"/><use xlink:href="#B"/><path d="M102 183.5c-.8 0-1.5.3-1.9 1-.3-.6-.9-1-1.7-1s-1.4.3-1.8.8v-.7h-1.3v6.3h1.4v-4.6c.2-.5.6-.7 1.2-.7.7 0 1.1.4 1.1 1.1v4.2h1.4v-4.3c.1-.3.2-.5.4-.7s.5-.3.8-.3c.4 0 .7.1.9.3s.3.5.3.9v4.1h1.4v-4.2c0-.8-.2-1.3-.5-1.7s-1-.5-1.7-.5zm6.6 0a2.19 2.19 0 0 0-1.7.7V181h-1.4v9h1.3l.1-.7c.4.5 1 .8 1.7.8.8 0 1.4-.3 1.8-.9s.7-1.4.7-2.3v-.1c0-1-.2-1.8-.7-2.4s-1-.9-1.8-.9zm1.1 3.4c0 .7-.1 1.2-.4 1.5s-.6.5-1 .5c-.6 0-1.1-.3-1.3-.8v-2.6c.2-.5.7-.8 1.3-.8.5 0 .8.2 1.1.5s.4.9.4 1.5v.2z"/><use xlink:href="#C"/><path d="M124 185.6c0-.7-.2-1.2-.7-1.6s-1-.6-1.8-.6c-.5 0-.9.1-1.3.3s-.7.4-.9.7a1.69 1.69 0 0 0-.3 1h1.4c0-.2.1-.5.3-.6s.5-.2.8-.2c.4 0 .7.1.8.3s.3.5.3.8v.4h-.9c-.9 0-1.7.2-2.2.5s-.8.9-.8 1.6c0 .5.2 1 .6 1.3s.9.5 1.6.5a2.19 2.19 0 0 0 1.7-.7c0 .3.1.5.2.6h1.5v-.1c-.2-.3-.2-.8-.2-1.4v-2.8zm-1.5 2.6c-.1.2-.3.4-.6.6s-.5.2-.8.2-.5-.1-.7-.2-.3-.4-.3-.7.1-.6.4-.8.7-.3 1.2-.3h.8v1.2zm3-4.6h1.4v6.3h-1.4zm.8-2.4c-.3 0-.5.1-.6.2s-.2.3-.2.5.1.4.2.5.3.2.6.2.5-.1.6-.2.2-.3.2-.5-.1-.4-.2-.5-.4-.2-.6-.2zm2.3-.2h1.4v9h-1.4zm7.9 2.2c.3-.5.8-.7 1.5-.7.6 0 1 .1 1.3.4s.5.7.5 1.3h1.5c-.1-.9-.4-1.7-1-2.2s-1.3-.8-2.3-.8c-.7 0-1.3.2-1.8.5s-.9.8-1.2 1.4-.4 1.3-.4 2.1v.8c0 .8.2 1.5.4 2.1s.7 1.1 1.2 1.4 1.1.5 1.8.5c1 0 1.8-.3 2.3-.8a3.47 3.47 0 0 0 1-2.1h-1.5c-.1.6-.3 1-.6 1.3s-.7.4-1.3.4-1.1-.2-1.5-.7c-.3-.5-.5-1.2-.5-2.1v-.8c0-.8.2-1.5.6-2zm10.7 1.1c-.5-.6-1.2-.8-2.1-.8-.6 0-1.1.1-1.5.4s-.8.7-1 1.1-.4 1.1-.4 1.7v.1c0 1 .3 1.8.8 2.4s1.3.9 2.1.9c.6 0 1.1-.1 1.5-.4s.8-.7 1-1.1.4-1.1.4-1.7v-.3c0-1-.3-1.7-.8-2.3zm-1 4.1c-.3.4-.6.6-1.1.6s-.9-.2-1.1-.6-.4-.9-.4-1.5c0-.7.1-1.3.4-1.7s.6-.6 1.1-.6.8.2 1.1.6.4.9.4 1.5c0 .7-.1 1.3-.4 1.7zm3.1-7.4h1.4v9h-1.4z"/><use xlink:href="#B" x="63.9"/><path d="M165.9 183.5c-.8 0-1.5.3-1.9 1-.3-.6-.9-1-1.7-1s-1.4.3-1.8.8v-.7H159v6.3h1.4v-4.6c.2-.5.6-.7 1.2-.7.7 0 1.1.4 1.1 1.1v4.2h1.4v-4.3c.1-.3.2-.5.4-.7s.5-.3.8-.3c.4 0 .7.1.9.3s.3.5.3.9v4.1h1.4v-4.2c0-.8-.2-1.3-.5-1.7s-.8-.5-1.5-.5z"/><use xlink:href="#C" x="57.1"/><path d="M178 183.1c.3-.9.8-1.5 1.3-1.9l-.3-.8c-.5.3-1 .7-1.5 1.3s-.8 1.4-1.1 2.2-.4 1.7-.4 2.6c0 1 .1 1.9.4 2.7s.6 1.5 1.1 2.2 1 1.1 1.5 1.4l.3-.8c-.6-.5-1.1-1.2-1.4-2.1s-.5-2-.5-3.2v-.5c0-1.2.2-2.2.6-3.1zm6.3 3.6c-.3-.2-.8-.3-1.3-.4s-.9-.2-1.1-.4-.3-.3-.3-.5.1-.4.3-.6.5-.2.8-.2.6.1.8.3.3.4.3.7h1.4c0-.6-.2-1.1-.7-1.5s-1.1-.6-1.8-.6-1.3.2-1.8.6-.7.8-.7 1.4c0 .7.4 1.2 1.1 1.5.3.2.7.3 1.2.4s.8.2 1 .4.3.3.3.6c0 .2-.1.4-.3.6s-.5.2-.9.2-.7-.1-.9-.3-.4-.4-.4-.8H180c0 .4.1.7.3 1.1s.5.6.9.8.9.3 1.4.3c.8 0 1.4-.2 1.9-.5s.7-.8.7-1.4c0-.3-.1-.6-.2-.9s-.4-.7-.7-.8zm4.9-.6c0-.8-.2-1.6-.4-2.4s-.6-1.5-1.1-2.1-1-1-1.5-1.3l-.3.8.2.2c.6.5 1 1.3 1.3 2.1s.4 1.9.4 3v.1c0 1.2-.2 2.3-.5 3.2s-.8 1.6-1.4 2.1l.3.8c.5-.3 1-.7 1.5-1.4s.8-1.4 1.1-2.2.4-1.6.4-2.5v-.4z"/></g><g fill="#8796a1"><path d="M174.8 17.4H75.2c-2.6 0-4.7 2.1-4.7 4.7v99.6c0 2.6 2.1 4.7 4.7 4.7h99.6c2.6 0 4.7-2.1 4.7-4.7V22.2c0-2.6-2.1-4.8-4.7-4.8zM97.7 135.2H72.5c-1.3 0-2.1.8-2.1 2.1v25.1c0 1.3.8 2.1 2.1 2.1h25.1c1.3 0 2.1-.8 2.1-2.1v-25.1c0-1.3-.8-2.1-2-2.1z"/><use xlink:href="#D"/><use xlink:href="#D" x="39.9"/></g><path d="M173.1 70.5l-5.9-5.9c-.7-.7-1.9-.7-2.6 0s-.7 1.9 0 2.6l4.7 4.7-4.7 4.7c-.7.7-.7 1.9 0 2.6.2.2.7.5 1.2.5s.9-.2 1.4-.7l5.9-5.9c.8-.7.8-1.8 0-2.6zm-87.5-5.6c-.7-.7-1.9-.7-2.6 0l-5.9 5.9c-.7.7-.7 1.9 0 2.6l5.9 5.9c.2.2.7.5 1.2.5s.9-.2 1.4-.2c.7-.7.7-1.9 0-2.6l-4.7-4.7 4.7-4.7c.7-.8.7-2 0-2.7z" fill="#fff"/><path d="M156.7 92.6V51.3c0-2.2-1.8-4-4-4H97.3c-2.2 0-4 1.8-4 4v41.3c0 2.2 1.8 4 4 4h55.4c2.3.1 4-1.7 4-4zm-4-12l-7.9-7.3c-1.2-1.1-3-1.1-4.2.1l-8 8.1-15.8-18.9c-1-1.3-2.9-1.5-4.2-.4-.2.1-.3.3-.4.4L97.3 79.8V51.3h55.4v29.3zm-11.5-13.1h.1c3 0 5.5-2.5 5.4-5.6a5.6 5.6 0 1 0-11.2 0c.1 3.1 2.6 5.6 5.7 5.6zm-47.1 74.3h-18c-.7 0-1.3.6-1.3 1.3v13.4c0 .7.6 1.3 1.3 1.3H94c.7 0 1.3-.6 1.3-1.3v-13.4c.1-.7-.5-1.3-1.2-1.3zm0 10.8l-2.6-2.3c-.4-.3-1-.3-1.4 0l-2.6 2.6-5.1-6.1c-.3-.4-.9-.5-1.3-.1-.1 0-.1.1-.1.1l-4.8 5.5v-9.2h17.9v9.5zm-3.8-4.2h0a1.8 1.8 0 1 0 0-3.6 1.8 1.8 0 1 0 0 3.6zm43.7-6.6h-18c-.7 0-1.3.6-1.3 1.3v13.4c0 .7.6 1.3 1.3 1.3h18c.7 0 1.3-.6 1.3-1.3v-13.4c0-.7-.6-1.3-1.3-1.3zm0 10.8l-2.6-2.3c-.4-.3-1-.3-1.4 0l-2.6 2.6-5.1-6.1c-.3-.4-.9-.5-1.3-.1-.1 0-.1.1-.1.1l-4.8 5.5v-9.2H134v9.5zm-3.8-4.2h0a1.8 1.8 0 1 0 0-3.6 1.8 1.8 0 1 0 0 3.6zm43.7-6.6H156c-.7 0-1.3.6-1.3 1.3v13.4c0 .7.6 1.3 1.3 1.3h17.9c.7 0 1.3-.6 1.3-1.3v-13.4c0-.7-.6-1.3-1.3-1.3zm0 10.8l-2.6-2.3c-.4-.3-1-.3-1.4 0l-2.6 2.6-5.1-6.1c-.3-.4-.9-.5-1.3-.1-.1 0-.1.1-.1.1l-4.8 5.5v-9.2h17.9v9.5zm-3.8-4.2a1.8 1.8 0 1 0 0-3.6 1.8 1.8 0 1 0 0 3.6z" fill="#d9e3e8"/><g fill="#f21197"><circle cx="65" cy="186" r="5"/><path d="M68.2 128.4c-2.2 0-3.9 1.8-3.9 3.9 0 1.8 1.2 3.3 2.9 3.8v31.6H103v-35.8H72.1c-.2-1.9-1.9-3.5-3.9-3.5zm-1 2.9v-.7l1.6-.6h.1v4.3H68V131l-.8.3zm35 35.6H68v-30.7h.2c2 0 3.7-1.6 3.9-3.5h30.1v34.2zm5.9-38.5c-2.2 0-3.9 1.8-3.9 3.9 0 1.8 1.2 3.3 2.9 3.8v31.6h35.8v-35.8H112c-.2-1.9-1.8-3.5-3.9-3.5zm-1.2 5.9v-.6l1.2-1.5c.1-.1.2-.3.3-.4s.1-.2.1-.3v-.3-.3c0-.1-.1-.2-.1-.2-.1 0-.1-.1-.2-.1s-.2 0-.2.1c-.1.1-.1.2-.1.3s-.1.2-.1.4h-.8c0-.3.1-.5.2-.7s.2-.4.4-.5.4-.2.7-.2.5 0 .7.1a.78.78 0 0 1 .4.4c.1.2.1.4.1.6 0 .1 0 .3-.1.4a.76.76 0 0 1-.2.4c-.1.1-.1.3-.2.4s-.2.3-.3.4l-.6.8h1.5v.7h-2.7zm35.2-1.6v34.2h-34.3v-30.7h.2c2 0 3.7-1.6 3.9-3.5h30.2zm9.8-.8c-.2-2-1.8-3.5-3.9-3.5-2.2 0-3.9 1.8-3.9 3.9 0 1.8 1.2 3.3 2.9 3.8v31.6h35.8v-35.8h-30.9zm-4.7 2.1c-.1-.1-.2-.2-.3-.4s-.1-.3-.1-.5h.8c0 .1 0 .2.1.3 0 .1.1.1.2.2.1 0 .1.1.2.1s.2 0 .2-.1l.2-.2c0-.1.1-.2.1-.3 0-.2 0-.3-.1-.4 0-.1-.1-.2-.2-.2s-.2-.1-.3-.1h-.4v-.7h.4c.1 0 .2 0 .2-.1.1 0 .1-.1.1-.2v-.3-.3c0-.1-.1-.1-.1-.2-.1-.1-.1-.1-.2-.1s-.1 0-.2.1c-.1 0-.1.1-.1.2s-.1.2-.1.3h-.8c0-.2 0-.4.2-.6a.78.78 0 0 1 .4-.4c.2-.1.4-.1.6-.1s.5 0 .7.1a.78.78 0 0 1 .4.4c.1.2.2.4.2.7 0 .1 0 .3-.1.4s-.1.2-.2.3-.2.1-.2.2c.1 0 .2.1.3.2s.2.2.2.4c0 .1.1.3.1.4 0 .2 0 .4-.1.5a1.38 1.38 0 0 1-.3.4.76.76 0 0 1-.4.2c-.2 0-.3.1-.5.1s-.3 0-.5-.1c-.2 0-.3-.1-.4-.2zm34.8 32.9h-34.2v-30.7h.3c2 0 3.7-1.6 3.9-3.5h30v34.2z"/></g><defs ><path id="B" d="M92.2 188.2c-.2.5-.7.7-1.4.7s-1-.4-1-1.2v-4.1h-1.4v4.1c0 .8.2 1.3.5 1.7s.9.6 1.6.6c.8 0 1.4-.2 1.8-.7v.6h1.3v-6.3h-1.4v4.6z"/><path id="C" d="M115.5 183.5c-.8 0-1.4.3-1.8.8v-.7h-1.3v6.3h1.4v-4.5c.3-.5.7-.8 1.3-.8.4 0 .7.1.9.3s.3.5.3.9v4.1h1.4v-4.2c-.2-1.4-.9-2.2-2.2-2.2z"/><path id="D" d="M137.6 135.2h-25.1c-1.3 0-2.1.8-2.1 2.1v25.1c0 1.3.8 2.1 2.1 2.1h25.1c1.3 0 2.1-.8 2.1-2.1v-25.1c-.1-1.3-.9-2.1-2.1-2.1z"/></defs></svg>