<svg xmlns="http://www.w3.org/2000/svg"  width='240' height='200' xmlns:xlink="http://www.w3.org/1999/xlink" viewBox="0 0 250 207"><path d="M81.9 181.6h2.6v7.4H86v-7.4h2.6v-1.2h-6.7zm10.9.9c-.7 0-1.3.3-1.8.8V180h-1.4v9H91v-4.5c.3-.5.7-.8 1.3-.8.4 0 .6.1.8.3s.3.5.3.9v4.1h1.4v-4.1c0-1.6-.7-2.4-2-2.4zm7.3 4.7c-.2.5-.7.7-1.4.7s-1-.4-1-1.2v-4.1h-1.4v4.1c0 .8.2 1.3.5 1.7s.9.6 1.6.6c.8 0 1.4-.2 1.8-.7v.6h1.3v-6.3h-1.4v4.6zm9.7-4.7c-.8 0-1.5.3-1.9 1-.3-.6-.9-1-1.7-1s-1.4.3-1.8.8v-.7h-1.3v6.3h1.4v-4.6c.2-.5.6-.7 1.2-.7.7 0 1.1.4 1.1 1.1v4.2h1.4v-4.3c.1-.3.2-.5.4-.7s.5-.3.8-.3c.4 0 .7.1.9.3s.3.5.3.9v4.1h1.4v-4.2c0-.8-.2-1.3-.5-1.7s-1-.5-1.7-.5zm6.7 0a2.19 2.19 0 0 0-1.7.7V180h-1.4v9h1.3l.1-.7c.4.5 1 .8 1.7.8.8 0 1.4-.3 1.8-.9s.7-1.4.7-2.3v-.1c0-1-.2-1.8-.7-2.4s-1.1-.9-1.8-.9zm1 3.4c0 .7-.1 1.2-.4 1.5s-.6.5-1 .5c-.6 0-1.1-.3-1.3-.8v-2.6c.2-.5.7-.8 1.3-.8.5 0 .8.2 1.1.5s.4.9.4 1.5v.2zm5.8-3.4c-.8 0-1.4.3-1.8.8v-.7h-1.3v6.3h1.4v-4.5c.3-.5.7-.8 1.3-.8.4 0 .7.1.9.3s.3.5.3.9v4.1h1.4v-4.2c-.2-1.4-.8-2.2-2.2-2.2zm8.5 2.1c0-.7-.2-1.2-.7-1.6s-1-.6-1.8-.6c-.5 0-.9.1-1.3.3s-.7.4-.9.7a1.69 1.69 0 0 0-.3 1h1.4c0-.2.1-.5.3-.6s.5-.2.8-.2c.4 0 .7.1.8.3s.3.5.3.8v.4h-.9c-.9 0-1.7.2-2.2.5s-.8.9-.8 1.6c0 .5.2 1 .6 1.3s.9.5 1.6.5a2.19 2.19 0 0 0 1.7-.7c0 .3.1.5.2.6h1.5v-.1c-.2-.3-.2-.8-.2-1.4v-2.8zm-1.4 2.6c-.1.2-.3.4-.6.6s-.5.2-.8.2-.5-.1-.7-.2-.3-.4-.3-.7.1-.6.4-.8.7-.3 1.2-.3h.8v1.2zm3-4.6h1.4v6.3h-1.4zm.7-2.4c-.3 0-.5.1-.6.2s-.2.3-.2.5.1.4.2.5.3.2.6.2.5-.1.6-.2.2-.3.2-.5-.1-.4-.2-.5-.3-.2-.6-.2zm2.4-.2h1.4v9h-1.4zm6.9 5.7c-.3-.2-.8-.3-1.3-.4s-.9-.2-1.1-.4-.3-.3-.3-.5.1-.4.3-.6.5-.2.8-.2.6.1.8.3.3.4.3.7h1.4c0-.6-.2-1.1-.7-1.5s-1.1-.6-1.8-.6-1.3.2-1.8.6-.7.8-.7 1.4c0 .7.4 1.2 1.1 1.5.3.2.7.3 1.2.4s.8.2 1 .4.3.3.3.6c0 .2-.1.4-.3.6s-.5.2-.9.2-.7-.1-.9-.3-.4-.4-.4-.8H139c0 .4.1.7.3 1.1s.5.6.9.8.9.3 1.4.3c.8 0 1.4-.2 1.9-.5s.7-.8.7-1.4c0-.3-.1-.6-.2-.9s-.2-.6-.6-.8zm10.7-1.7h-3.9v-3.6h-1.4v8.6h1.4v-3.8h3.9v3.8h1.4v-8.6h-1.4zm5.7-1.5c-.5 0-1 .1-1.5.4s-.8.7-1 1.2-.4 1.1-.4 1.7v.2c0 .9.3 1.7.8 2.3s1.3.9 2.2.9c.5 0 1-.1 1.4-.3s.8-.5 1-.9l-.8-.7c-.4.5-.9.8-1.6.8-.5 0-.9-.2-1.2-.5s-.5-.7-.5-1.2h4.1v-.6c0-1-.2-1.8-.7-2.3s-1-1-1.8-1zm1.3 2.7h-2.7c.1-.5.2-.9.5-1.1s.6-.4.9-.4c.4 0 .7.1.9.4s.3.6.4 1.1h0zm2.6-2.6h1.4v6.3h-1.4zm.7-2.4c-.3 0-.5.1-.6.2s-.2.3-.2.5.1.4.2.5.3.2.6.2.5-.1.6-.2.2-.3.2-.5-.1-.4-.2-.5-.4-.2-.6-.2zm6.2 3.1c-.4-.5-1-.8-1.7-.8-.8 0-1.4.3-1.8.9s-.7 1.4-.7 2.4.2 1.9.7 2.4 1.1.9 1.8.9 1.2-.2 1.6-.7v.4c0 .5-.1.9-.4 1.1s-.6.4-1.1.4c-.6 0-1.2-.3-1.6-.8l-.7.9c.2.3.6.6 1 .8s.9.3 1.4.3c.9 0 1.6-.2 2.1-.7s.8-1.1.8-2v-6.1h-1.3l-.1.6zm0 3.9c-.3.5-.7.7-1.3.7-.5 0-.8-.2-1.1-.5s-.4-.9-.4-1.5c0-.7.1-1.3.4-1.6s.6-.6 1.1-.6c.6 0 1 .2 1.3.7v2.8zm6-4.7c-.7 0-1.3.3-1.8.8V180h-1.4v9h1.4v-4.5c.3-.5.7-.8 1.3-.8.4 0 .6.1.8.3s.3.5.3.9v4.1h1.4v-4.1c.1-1.6-.6-2.4-2-2.4zm6 5.4c-.2 0-.4-.1-.5-.2s-.1-.3-.1-.5v-3.5h1.1v-1.1H182v-1.5h-1.4v1.5h-1v1.1h1v3.6c0 1.2.5 1.8 1.6 1.8.3 0 .6 0 .9-.1v-1.1h-.5z" fill="#231f20"/><path d="M173.1 70.5l-5.9-5.9c-.7-.7-1.9-.7-2.6 0s-.7 1.9 0 2.6l4.7 4.7-4.7 4.7c-.7.7-.7 1.9 0 2.6.2.2.7.5 1.2.5s.9-.2 1.4-.7l5.9-5.9c.8-.7.8-1.8 0-2.6zm-87.5-5.6c-.7-.7-1.9-.7-2.6 0l-5.9 5.9c-.7.7-.7 1.9 0 2.6l5.9 5.9c.2.2.7.5 1.2.5s.9-.2 1.4-.2c.7-.7.7-1.9 0-2.6l-4.7-4.7 4.7-4.7c.7-.8.7-2 0-2.7z" fill="#fff"/><g fill="#8796a1"><path d="M174.8 17.4H75.2c-2.6 0-4.7 2.1-4.7 4.7v99.6c0 2.6 2.1 4.7 4.7 4.7h99.6c2.6 0 4.7-2.1 4.7-4.7V22.2c0-2.6-2.1-4.8-4.7-4.8zm-74.5 114.9H72.8c-1.4 0-2.3.9-2.3 2.3v27.6c0 1.4.9 2.3 2.3 2.3h27.6c1.4 0 2.3-.9 2.3-2.3v-27.6c-.1-1.4-1-2.3-2.4-2.3z"/><use xlink:href="#B"/><use xlink:href="#B" x="38.4"/></g><path d="M97.3 96.7h55.4c2.2 0 4-1.8 4-4V51.3c0-2.2-1.8-4-4-4H97.3c-2.2 0-4 1.8-4 4v41.3c0 2.3 1.7 4.1 4 4.1zm0-45.4h55.4v29.3l-7.9-7.3c-1.2-1.1-3-1.1-4.2.1l-8 8.1-15.8-18.9c-1-1.3-2.9-1.5-4.2-.4-.2.1-.3.3-.4.4L97.3 79.8V51.3zm43.9 16.2h.1c3 0 5.5-2.5 5.4-5.6a5.6 5.6 0 1 0-11.2 0c.1 3.1 2.6 5.6 5.7 5.6zm-44.8 72.1H76.7c-.8 0-1.4.6-1.4 1.4v14.7c0 .8.6 1.4 1.4 1.4h19.7c.8 0 1.4-.6 1.4-1.4V141c0-.7-.6-1.4-1.4-1.4zm0 11.8l-2.8-2.6a1.09 1.09 0 0 0-1.5 0l-2.8 2.9-5.6-6.7c-.4-.4-1-.5-1.5-.2-.1 0-.1.1-.2.2l-5.3 6.1V141h19.7v10.4zm-4.1-4.6c1.1 0 2-.9 2-2s-.9-2-2-2-2 .9-2 2 .9 2 2 2zm42.5-7.2h-19.7c-.8 0-1.4.6-1.4 1.4v14.7c0 .8.6 1.4 1.4 1.4h19.7c.8 0 1.4-.6 1.4-1.4V141c.1-.7-.6-1.4-1.4-1.4zm0 11.8l-2.8-2.6a1.09 1.09 0 0 0-1.5 0l-2.8 2.9-5.6-6.7c-.4-.4-1-.5-1.5-.2-.1 0-.1.1-.2.2l-5.3 6.1V141h19.7v10.4zm-4.1-4.6h0c1.1 0 2-.9 2-2s-.9-2-2-2-2 .9-2 2c.1 1.1 1 2 2 2zm42.6-7.2h-19.7c-.8 0-1.4.6-1.4 1.4v14.7c0 .8.6 1.4 1.4 1.4h19.7c.8 0 1.4-.6 1.4-1.4V141c0-.7-.6-1.4-1.4-1.4zm0 11.8l-2.8-2.6a1.09 1.09 0 0 0-1.5 0l-2.8 2.9-5.6-6.7c-.4-.4-1-.5-1.5-.2-.1 0-.1.1-.2.2l-5.3 6.1V141h19.7v10.4zm-4.1-4.6c1.1 0 2-.9 2-2s-.9-2-2-2-2 .9-2 2 .9 2 2 2z" fill="#d9e3e8"/><g fill="#f21197"><circle cx="72" cy="185.1" r="5"/><path d="M187 136.4h2.1l-2.5-4.3-2.5 4.3h2.1v23.7h-2.1l2.5 4.3 2.5-4.3H187zm-121.1 0l-2.5-4.3-2.5 4.3H63v23.7h-2.1l2.5 4.3 2.5-4.3h-2.1v-23.7z"/></g><defs ><path id="B" d="M138.8 132.3h-27.6c-1.4 0-2.3.9-2.3 2.3v27.6c0 1.4.9 2.3 2.3 2.3h27.6c1.4 0 2.3-.9 2.3-2.3v-27.6c0-1.4-.9-2.3-2.3-2.3z"/></defs></svg>