<svg xmlns="http://www.w3.org/2000/svg"  width='240' height='200' xmlns:xlink="http://www.w3.org/1999/xlink" viewBox="0 0 250 207"><g fill="#8796a1"><path d="M174.8 17.4H75.2c-2.6 0-4.7 2.1-4.7 4.7v99.6c0 2.6 2.1 4.7 4.7 4.7h99.6c2.6 0 4.7-2.1 4.7-4.7V22.2c0-2.6-2.1-4.8-4.7-4.8zM97.7 135.2H72.5c-1.3 0-2.1.8-2.1 2.1v25.1c0 1.3.8 2.1 2.1 2.1h25.1c1.3 0 2.1-.8 2.1-2.1v-25.1c0-1.3-.8-2.1-2-2.1z"/><use xlink:href="#B"/><use xlink:href="#B" x="39.9"/></g><g fill="#231f20"><path d="M147.3 180.2c-.3 0-.5.1-.6.2s-.2.3-.2.5.1.4.2.5.3.2.6.2.5-.1.6-.2.2-.3.2-.5-.1-.4-.2-.5-.3-.2-.6-.2zm-66.1 5.3H83v1.7c-.3.3-.9.5-1.6.5s-1.2-.3-1.6-.8-.6-1.2-.6-2.1v-.7c0-.9.2-1.6.5-2.1s.9-.7 1.5-.7c1 0 1.6.5 1.8 1.5h1.5c-.1-.9-.4-1.6-1-2s-1.3-.7-2.3-.7c-1.1 0-2 .4-2.6 1.1s-.9 1.7-.9 3v.7a4.65 4.65 0 0 0 .5 2.1c.3.6.7 1.1 1.3 1.4s1.2.5 1.9.5 1.3-.1 1.9-.3 1-.5 1.3-.9v-3.3h-3.2v1.1zm9.7-1.1c0-.7-.2-1.2-.7-1.6s-1-.6-1.8-.6c-.5 0-.9.1-1.3.3s-.7.4-.9.7a1.69 1.69 0 0 0-.3 1h1.4c0-.2.1-.5.3-.6s.5-.2.8-.2c.4 0 .7.1.8.3s.3.5.3.8v.4h-.9c-.9 0-1.7.2-2.2.5s-.8.9-.8 1.6c0 .5.2 1 .6 1.3s.9.5 1.6.5a2.19 2.19 0 0 0 1.7-.7c0 .3.1.5.2.6h1.5v-.1c-.2-.3-.2-.8-.2-1.4v-2.8zm-1.4 2.6c-.1.2-.3.4-.6.6s-.5.2-.8.2-.5-.1-.7-.2-.3-.4-.3-.7.1-.6.4-.8.7-.3 1.2-.3h.8v1.2zm6-4.7c-.7 0-1.3.3-1.7.8l-.1-.6h-1.3v8.8h1.4v-3c.4.5 1 .7 1.7.7.8 0 1.3-.3 1.8-.9s.7-1.4.7-2.3v-.1c0-1-.2-1.8-.7-2.4s-1.1-1-1.8-1zm.6 4.9c-.3.4-.6.5-1.1.5-.6 0-1-.2-1.3-.7v-2.8c.3-.5.7-.7 1.3-.7.5 0 .8.2 1.1.6s.4.9.4 1.5c0 .7-.1 1.2-.4 1.6zm31.1-.1l-2.1-6.7h-1.7l3.1 8.5h1.4l3.1-8.5h-1.6zm7-4.6c-.5 0-1 .1-1.5.4s-.8.7-1 1.2-.4 1.1-.4 1.7v.2c0 .9.3 1.7.8 2.3s1.3.9 2.2.9c.5 0 1-.1 1.4-.3s.8-.5 1-.9l-.8-.7c-.4.5-.9.8-1.6.8-.5 0-.9-.2-1.2-.5s-.5-.7-.5-1.2h4.1v-.6c0-1-.2-1.8-.7-2.3s-.9-1-1.8-1zm1.3 2.7h-2.7c.1-.5.2-.9.5-1.1s.6-.4.9-.4c.4 0 .7.1.9.4s.3.6.4 1.1h0zm3.9-1.9v-.7H138v6.3h1.4v-4.3c.2-.5.7-.8 1.3-.8h.6v-1.3c-.1-.1-.3-.1-.5-.1-.6.1-1.1.4-1.4.9zm5 4.4c-.1-.1-.1-.3-.1-.5v-3.5h1.1v-1.1h-1.1v-1.5h-1.4v1.5h-1v1.1h1v3.6c0 1.2.5 1.8 1.6 1.8.3 0 .6 0 .9-.1v-1.1c-.2 0-.3.1-.5.1-.2-.1-.4-.2-.5-.3zm2.2-5.1h1.4v6.3h-1.4zm4.5 1.5c.2-.3.6-.5 1.1-.5.4 0 .7.1.9.4s.4.5.4.9h1.3c0-.7-.3-1.3-.7-1.7s-1.1-.7-1.8-.7c-.9 0-1.6.3-2.1.9s-.8 1.4-.8 2.3v.1c0 1 .3 1.8.8 2.4s1.2.9 2.1.9c.5 0 .9-.1 1.3-.3a2.36 2.36 0 0 0 .9-.8c.2-.3.4-.7.4-1.1h-1.3c0 .3-.1.6-.4.8s-.5.3-.9.3c-.5 0-.8-.2-1.1-.5s-.4-.9-.4-1.5v-.2a2.73 2.73 0 0 1 .3-1.7z"/><use xlink:href="#C"/><path d="M162.4 179.9h1.4v9h-1.4zm9.4 5.8h1.8v1.7c-.3.3-.9.5-1.6.5s-1.2-.3-1.6-.8-.6-1.2-.6-2.1v-.7c0-.9.2-1.6.5-2.1s.9-.7 1.5-.7c1 0 1.6.5 1.8 1.5h1.5c-.1-.9-.4-1.6-1-2s-1.3-.7-2.3-.7c-1.1 0-2 .4-2.6 1.1s-.9 1.7-.9 3v.7a4.65 4.65 0 0 0 .5 2.1c.3.6.7 1.1 1.3 1.4s1.2.5 1.9.5 1.3-.1 1.9-.3 1-.5 1.3-.9v-3.3H172v1.1z"/><use xlink:href="#C" x="20.7"/><path d="M188 183.3c-.4-.6-1-.9-1.8-.9-.7 0-1.3.3-1.7.8l-.1-.6h-1.3v8.8h1.4v-3c.4.5 1 .7 1.7.7.8 0 1.3-.3 1.8-.9s.7-1.4.7-2.3v-.1c-.1-1.1-.3-1.9-.7-2.5zm-1.2 4.1c-.3.4-.6.5-1.1.5-.6 0-1-.2-1.3-.7v-2.8c.3-.5.7-.7 1.3-.7.5 0 .8.2 1.1.6s.4.9.4 1.5-.1 1.2-.4 1.6z"/></g><path d="M173.1 70.5l-5.9-5.9c-.7-.7-1.9-.7-2.6 0s-.7 1.9 0 2.6l4.7 4.7-4.7 4.7c-.7.7-.7 1.9 0 2.6.2.2.7.5 1.2.5s.9-.2 1.4-.7l5.9-5.9c.8-.7.8-1.8 0-2.6zm-87.5-5.6c-.7-.7-1.9-.7-2.6 0l-5.9 5.9c-.7.7-.7 1.9 0 2.6l5.9 5.9c.2.2.7.5 1.2.5s.9-.2 1.4-.2c.7-.7.7-1.9 0-2.6l-4.7-4.7 4.7-4.7c.7-.8.7-2 0-2.7z" fill="#fff"/><path d="M156.7 92.6V51.3c0-2.2-1.8-4-4-4H97.3c-2.2 0-4 1.8-4 4v41.3c0 2.2 1.8 4 4 4h55.4c2.3.1 4-1.7 4-4zm-4-12l-7.9-7.3c-1.2-1.1-3-1.1-4.2.1l-8 8.1-15.8-18.9c-1-1.3-2.9-1.5-4.2-.4-.2.1-.3.3-.4.4L97.3 79.8V51.3h55.4v29.3zm-11.5-13.1h.1c3 0 5.5-2.5 5.4-5.6a5.6 5.6 0 1 0-11.2 0c.1 3.1 2.6 5.6 5.7 5.6zm-47.1 74.3h-18c-.7 0-1.3.6-1.3 1.3v13.4c0 .7.6 1.3 1.3 1.3H94c.7 0 1.3-.6 1.3-1.3v-13.4c.1-.7-.5-1.3-1.2-1.3zm0 10.8l-2.6-2.3c-.4-.3-1-.3-1.4 0l-2.6 2.6-5.1-6.1c-.3-.4-.9-.5-1.3-.1-.1 0-.1.1-.1.1l-4.8 5.5v-9.2h17.9v9.5zm-3.8-4.2h0a1.8 1.8 0 1 0 0-3.6 1.8 1.8 0 1 0 0 3.6zm43.7-6.6h-18c-.7 0-1.3.6-1.3 1.3v13.4c0 .7.6 1.3 1.3 1.3h18c.7 0 1.3-.6 1.3-1.3v-13.4c0-.7-.6-1.3-1.3-1.3zm0 10.8l-2.6-2.3c-.4-.3-1-.3-1.4 0l-2.6 2.6-5.1-6.1c-.3-.4-.9-.5-1.3-.1-.1 0-.1.1-.1.1l-4.8 5.5v-9.2H134v9.5zm-3.8-4.2h0a1.8 1.8 0 1 0 0-3.6 1.8 1.8 0 1 0 0 3.6zm43.7-6.6H156c-.7 0-1.3.6-1.3 1.3v13.4c0 .7.6 1.3 1.3 1.3h17.9c.7 0 1.3-.6 1.3-1.3v-13.4c0-.7-.6-1.3-1.3-1.3zm0 10.8l-2.6-2.3c-.4-.3-1-.3-1.4 0l-2.6 2.6-5.1-6.1c-.3-.4-.9-.5-1.3-.1-.1 0-.1.1-.1.1l-4.8 5.5v-9.2h17.9v9.5zm-3.8-4.2a1.8 1.8 0 1 0 0-3.6 1.8 1.8 0 1 0 0 3.6z" fill="#d9e3e8"/><path d="M118.5 181.8c-.1-.1-.1-.2-.2-.3a6.09 6.09 0 0 0-1.6-1.6c-.1-.1-.2-.1-.3-.2-.8-.4-1.6-.7-2.5-.7h-.1-.4c-2.7.2-4.9 2.3-5 5v.4.1c0 .9.3 1.8.7 2.5 0 .1.1.2.2.3a6.09 6.09 0 0 0 1.6 1.6c.1.1.2.1.3.2.7.4 1.6.7 2.5.7h.2.3c2.7-.1 4.9-2.3 5.1-5.1v-.3-.2c-.2-.8-.4-1.6-.8-2.4zm-6.1-1.7l-3.1 3.1c.5-1.5 1.7-2.7 3.1-3.1zm-3.2 4.4c0-.2 0-.5.1-.7l3.8-3.8c.2 0 .5-.1.7-.1.7 0 1.4.2 2 .5l-6.2 6.2c-.3-.7-.4-1.4-.4-2.1zm.6 2.3l6.3-6.3a4.1 4.1 0 0 1 1.6 1.6l-6.3 6.3c-.6-.4-1.2-.9-1.6-1.6zm5.2 2.1l3.1-3.1c-.3 1.4-1.5 2.6-3.1 3.1zm3.3-3.8l-3.9 3.9h-.7a4.65 4.65 0 0 1-2.1-.5l6.2-6.2a4.65 4.65 0 0 1 .5 2.1c.1.3.1.5 0 .7zm-47.8-50.7h109v-7.2h-109v7.2zm108.6-.5h-2.6l2.6-2.6v2.6zm0-2.9l-3 3h-2.7l5.7-5.7v2.7zm0-3.3v.2L173 134h-2.7l6.3-6.3h2.5zm-2.9 0l-6.3 6.3h-2.7l6.3-6.3h2.7zm-3.1 0l-6.3 6.3h-2.7l6.3-6.3h2.7zm-3.1 0l-6.3 6.3H161l6.3-6.3h2.7zm-3.1 0l-6.3 6.3h-2.7l6.3-6.3h2.7zm-3.1 0l-6.3 6.3h-2.7l6.3-6.3h2.7zm-3.1 0l-6.3 6.3h-2.7l6.3-6.3h2.7zm-3.1 0l-6.3 6.3h-2.7l6.3-6.3h2.7zm-3.1 0l-6.3 6.3h-2.7l6.3-6.3h2.7zm-3.1 0l-6.3 6.3h-2.7l6.3-6.3h2.7zm-3.1 0L142 134h-2.7l6.3-6.3h2.7zm-3.1 0l-6.3 6.3h-2.7l6.3-6.3h2.7zm-3.1 0l-6.3 6.3h-2.7l6.3-6.3h2.7zm-3.1 0l-6.3 6.3H130l6.3-6.3h2.7zm-3.1 0l-6.3 6.3h-2.7l6.3-6.3h2.7zm-3.1 0l-6.3 6.3h-2.7l6.3-6.3h2.7zm-3.1 0l-6.3 6.3h-2.7l6.3-6.3h2.7zm-3.1 0l-6.3 6.3h-2.7l6.3-6.3h2.7zm-3.1 0l-6.3 6.3h-2.7l6.3-6.3h2.7zm-3.1 0l-6.3 6.3h-2.7l6.3-6.3h2.7zm-3.1 0L111 134h-2.7l6.3-6.3h2.7zm-3.1 0l-6.3 6.3h-2.7l6.3-6.3h2.7zm-3.1 0l-6.3 6.3h-2.7l6.3-6.3h2.7zm-3.1 0l-6.3 6.3H99l6.3-6.3h2.7zm-3.1 0l-6.3 6.3H96l6.3-6.3h2.6zm-3.1 0l-6.3 6.3h-2.7l6.3-6.3h2.7zm-3.1 0l-6.3 6.3h-2.7l6.3-6.3h2.7zm-3.1 0l-6.3 6.3h-2.7l6.3-6.3h2.7zm-3.1 0l-6.3 6.3h-2.7l6.3-6.3h2.7zm-3.1 0l-6.3 6.3h-2.7l6.3-6.3h2.7zm-3.1 0L80 134h-2.7l6.3-6.3h2.7zm-3.1 0l-6.3 6.3h-2.7l6.3-6.3h2.7zm-3 0l-6.3 6.3h-2.7l6.3-6.3h2.7zm-9.3.3l.3-.3H74l-3 3V128zm0 3.1l3.4-3.4H77l-6.1 6.1v-2.7zm115.6 44.8v-46.1h-2.3v-1.9l-3.9 2.2 3.9 2.2v-1.9h1.5v45.4c-.8.2-1.3.8-1.3 1.6 0 .9.8 1.7 1.7 1.7s1.7-.8 1.7-1.7c0-.6-.6-1.3-1.3-1.5z" fill="#ff5a08"/><path d="M71.5 181.8c-.1-.1-.1-.2-.2-.3a6.09 6.09 0 0 0-1.6-1.6c-.1-.1-.2-.1-.3-.2-.8-.4-1.6-.7-2.5-.7h-.1-.4c-2.7.2-4.9 2.3-5 5v.4.1c0 .9.3 1.8.7 2.5 0 .1.1.2.2.3a6.09 6.09 0 0 0 1.6 1.6c.1.1.2.1.3.2.7.4 1.6.7 2.5.7h.2.3c2.7-.1 4.9-2.3 5.1-5.1v-.3-.2c-.1-.8-.4-1.6-.8-2.4zm-6-1.7l-3.1 3.1a4.41 4.41 0 0 1 3.1-3.1zm-3.3 4.4c0-.2 0-.5.1-.7l3.8-3.8c.2 0 .5-.1.7-.1.7 0 1.4.2 2 .5l-6.2 6.2c-.2-.7-.4-1.4-.4-2.1zm.6 2.3l6.3-6.3a4.1 4.1 0 0 1 1.6 1.6l-6.3 6.3c-.6-.4-1.2-.9-1.6-1.6zm5.3 2.1l3.1-3.1c-.4 1.4-1.6 2.6-3.1 3.1zm3.2-3.8l-3.9 3.9h-.7a4.65 4.65 0 0 1-2.1-.5l6.2-6.2a4.65 4.65 0 0 1 .5 2.1c.1.3.1.5 0 .7zm69.7-48.6v26.8h8.2v-26.8H141zm.4.4h.4l-.4.4v-.4zm0 .9l.8-.8h2.8l-3.6 3.6v-2.8zm0 3.2l4-4h2.8l-6.9 6.9V141zm7.3 21.8h-.2l.2-.2v.2zm0-.6l-.7.7h-2.8l3.5-3.5v2.8zm0-3.2l-3.9 3.9H142l6.7-6.7v2.8zm0-3.2l-7.1 7.1h-.2v-2.6l7.3-7.3v2.8zm0-3.2l-7.3 7.3V157l7.3-7.3v2.9zm0-3.3l-7.3 7.3v-2.8l7.3-7.3v2.8zm0-3.2l-7.3 7.3v-2.8l7.3-7.3v2.8zm0-3.2l-7.3 7.3v-2.8l7.3-7.3v2.8zm0-3.2l-7.3 7.3v-2.8l7.3-7.3h.1v2.8zm-39.5-3.2H101v26.8h8.2v-26.8zm-7.7.4h.4l-.4.4v-.4zm0 .9l.8-.8h2.8l-3.6 3.6v-2.8zm0 3.2l4-4h2.8l-6.9 6.9V141zm7.3 21.8h-.2l.2-.2v.2zm0-.6l-.7.7h-2.8l3.5-3.5v2.8zm0-3.2l-3.9 3.9h-2.8l6.7-6.7v2.8zm0-3.2l-7.1 7.1h-.2v-2.6l7.3-7.3v2.8zm0-3.2l-7.3 7.3V157l7.3-7.3v2.9zm0-3.3l-7.3 7.3v-2.8l7.3-7.3v2.8zm0-3.2l-7.3 7.3v-2.8l7.3-7.3v2.8zm0-3.2l-7.3 7.3v-2.8l7.3-7.3v2.8zm0-3.2l-7.3 7.3v-2.8l7.3-7.3h.1v2.8zm36.4 24.8l-2.2 3.9h1.9v2.1h-39.7v-2h1.9l-2.2-3.9-2.2 3.9h1.9v2H85.5v4.5c-.8.2-1.3.8-1.3 1.6 0 .9.8 1.7 1.7 1.7s1.7-.8 1.7-1.7c0-.8-.6-1.5-1.3-1.6v-3.7h18.4.4 40.5v-2.9h1.9l-2.3-3.9z" fill="#f21197"/><defs ><path id="B" d="M137.6 135.2h-25.1c-1.3 0-2.1.8-2.1 2.1v25.1c0 1.3.8 2.1 2.1 2.1h25.1c1.3 0 2.1-.8 2.1-2.1v-25.1c-.1-1.3-.9-2.1-2.1-2.1z"/><path id="C" d="M160.9 184.6c0-.7-.2-1.2-.7-1.6s-1-.6-1.8-.6c-.5 0-.9.1-1.3.3s-.7.4-.9.7a1.69 1.69 0 0 0-.3 1h1.4c0-.2.1-.5.3-.6s.5-.2.8-.2c.4 0 .7.1.8.3s.3.5.3.8v.4h-.9c-.9 0-1.7.2-2.2.5s-.8.9-.8 1.6c0 .5.2 1 .6 1.3s.9.5 1.6.5a2.19 2.19 0 0 0 1.7-.7c0 .3.1.5.2.6h1.5v-.1c-.2-.3-.2-.8-.2-1.4v-2.8zm-1.5 2.6c-.1.2-.3.4-.6.6s-.5.2-.8.2-.5-.1-.7-.2-.3-.4-.3-.7.1-.6.4-.8.7-.3 1.2-.3h.8v1.2z"/></defs></svg>