<svg width="80" height="32" viewBox="0 0 80 32" fill="none" xmlns="http://www.w3.org/2000/svg">
<g clip-path="url(#clip0_1993_21067)">
<path d="M78 0.5H2C1.17157 0.5 0.5 1.17157 0.5 2V30C0.5 30.8284 1.17157 31.5 2 31.5H78C78.8284 31.5 79.5 30.8284 79.5 30V2C79.5 1.17157 78.8284 0.5 78 0.5Z" stroke="#58707F"/>
<path d="M22 20C24.2091 20 26 18.2091 26 16C26 13.7909 24.2091 12 22 12C19.7909 12 18 13.7909 18 16C18 18.2091 19.7909 20 22 20Z" fill="#58707F"/>
<path d="M34 20C36.2091 20 38 18.2091 38 16C38 13.7909 36.2091 12 34 12C31.7909 12 30 13.7909 30 16C30 18.2091 31.7909 20 34 20Z" fill="#C1C4C6"/>
<path d="M46 20C48.2091 20 50 18.2091 50 16C50 13.7909 48.2091 12 46 12C43.7909 12 42 13.7909 42 16C42 18.2091 43.7909 20 46 20Z" fill="#C1C4C6"/>
<path d="M58 20C60.2091 20 62 18.2091 62 16C62 13.7909 60.2091 12 58 12C55.7909 12 54 13.7909 54 16C54 18.2091 55.7909 20 58 20Z" fill="#C1C4C6"/>
</g>
<defs>
<clipPath id="clip0_1993_21067">
<rect width="80" height="32" fill="white"/>
</clipPath>
</defs>
</svg>
