<svg width="80" height="32" viewBox="0 0 80 32" fill="none" xmlns="http://www.w3.org/2000/svg">
<g clip-path="url(#clip0_1993_21086)">
<path d="M78 0.5H2C1.17157 0.5 0.5 1.17157 0.5 2V30C0.5 30.8284 1.17157 31.5 2 31.5H78C78.8284 31.5 79.5 30.8284 79.5 30V2C79.5 1.17157 78.8284 0.5 78 0.5Z" stroke="#58707F"/>
<path d="M14 19C15.6569 19 17 17.6569 17 16C17 14.3431 15.6569 13 14 13C12.3431 13 11 14.3431 11 16C11 17.6569 12.3431 19 14 19Z" fill="#C1C4C6"/>
<path d="M25.5 20.5C27.9853 20.5 30 18.4853 30 16C30 13.5147 27.9853 11.5 25.5 11.5C23.0147 11.5 21 13.5147 21 16C21 18.4853 23.0147 20.5 25.5 20.5Z" fill="#C1C4C6"/>
<path d="M40 22C43.3137 22 46 19.3137 46 16C46 12.6863 43.3137 10 40 10C36.6863 10 34 12.6863 34 16C34 19.3137 36.6863 22 40 22Z" fill="#58707F"/>
<path d="M54.5 20.5C56.9853 20.5 59 18.4853 59 16C59 13.5147 56.9853 11.5 54.5 11.5C52.0147 11.5 50 13.5147 50 16C50 18.4853 52.0147 20.5 54.5 20.5Z" fill="#C1C4C6"/>
<path d="M66 19C67.6569 19 69 17.6569 69 16C69 14.3431 67.6569 13 66 13C64.3431 13 63 14.3431 63 16C63 17.6569 64.3431 19 66 19Z" fill="#C1C4C6"/>
</g>
<defs>
<clipPath id="clip0_1993_21086">
<rect width="80" height="32" fill="white"/>
</clipPath>
</defs>
</svg>
