<svg width="80" height="32" viewBox="0 0 80 32" fill="none" xmlns="http://www.w3.org/2000/svg">
<g clip-path="url(#clip0_1993_21099)">
<path d="M78 0.5H2C1.17157 0.5 0.5 1.17157 0.5 2V30C0.5 30.8284 1.17157 31.5 2 31.5H78C78.8284 31.5 79.5 30.8284 79.5 30V2C79.5 1.17157 78.8284 0.5 78 0.5Z" stroke="#58707F"/>
<path d="M69 14H11C9.89543 14 9 14.8954 9 16C9 17.1046 9.89543 18 11 18H69C70.1046 18 71 17.1046 71 16C71 14.8954 70.1046 14 69 14Z" fill="#C1C4C6"/>
<path d="M37 14H23C21.8954 14 21 14.8954 21 16C21 17.1046 21.8954 18 23 18H37C38.1046 18 39 17.1046 39 16C39 14.8954 38.1046 14 37 14Z" fill="#58707F"/>
</g>
<defs>
<clipPath id="clip0_1993_21099">
<rect width="80" height="32" fill="white"/>
</clipPath>
</defs>
</svg>
