<svg width="80" height="32" viewBox="0 0 80 32" fill="none" xmlns="http://www.w3.org/2000/svg">
<g clip-path="url(#clip0_1993_21103)">
<path d="M78 0.5H2C1.17157 0.5 0.5 1.17157 0.5 2V30C0.5 30.8284 1.17157 31.5 2 31.5H78C78.8284 31.5 79.5 30.8284 79.5 30V2C79.5 1.17157 78.8284 0.5 78 0.5Z" stroke="#58707F"/>
<path d="M25 14H11C9.89543 14 9 14.8954 9 16C9 17.1046 9.89543 18 11 18H25C26.1046 18 27 17.1046 27 16C27 14.8954 26.1046 14 25 14Z" fill="#58707F"/>
<path d="M47 14H33C31.8954 14 31 14.8954 31 16C31 17.1046 31.8954 18 33 18H47C48.1046 18 49 17.1046 49 16C49 14.8954 48.1046 14 47 14Z" fill="#C1C4C6"/>
<path d="M69 14H55C53.8954 14 53 14.8954 53 16C53 17.1046 53.8954 18 55 18H69C70.1046 18 71 17.1046 71 16C71 14.8954 70.1046 14 69 14Z" fill="#C1C4C6"/>
</g>
<defs>
<clipPath id="clip0_1993_21103">
<rect width="80" height="32" fill="white"/>
</clipPath>
</defs>
</svg>
