<svg width="86" height="86" viewBox="0 0 86 86" fill="none" xmlns="http://www.w3.org/2000/svg">
<g clip-path="url(#clip0_1993_19157)">
<path d="M84 0H2C0.89543 0 0 0.89543 0 2V84C0 85.1046 0.89543 86 2 86H84C85.1046 86 86 85.1046 86 84V2C86 0.89543 85.1046 0 84 0Z" fill="white"/>
<path d="M73.6174 16H12.3826C9.94782 16 8 17.9286 8 20.4598V65.6607C8 68.0714 9.94782 70 12.3826 70H73.6174C76.0522 70 78 68.0714 78 65.6607V20.4598C78 18.0491 76.0522 16 73.6174 16ZM73.6174 52.5223L64.8522 44.567C63.513 43.3616 61.4435 43.3616 60.2261 44.6875L51.3391 53.6071L33.9304 32.875C32.8348 31.5491 30.7652 31.308 29.3043 32.3929C29.0609 32.5134 28.9391 32.7545 28.8174 32.875L12.3826 51.6786V20.4598H73.6174V52.5223Z" fill="#788F9D"/>
<path d="M60.8347 38.1788H60.9564C64.3651 38.1788 67.0434 35.4065 66.9217 32.0315C66.9217 28.6565 64.1217 25.8842 60.713 25.8842C57.3043 25.8842 54.5043 28.6565 54.5043 32.0315C54.626 35.4065 57.5477 38.1788 60.8347 38.1788Z" fill="#788F9D"/>
<path opacity="0.85" d="M8 47H54C55.1046 47 56 47.8954 56 49V63C56 64.1046 55.1046 65 54 65H8V47Z" fill="black"/>
<path d="M42.5 52H13.5C12.6716 52 12 52.6716 12 53.5C12 54.3284 12.6716 55 13.5 55H42.5C43.3284 55 44 54.3284 44 53.5C44 52.6716 43.3284 52 42.5 52Z" fill="white"/>
<path d="M51.1 58H12.9C12.4029 58 12 58.4029 12 58.9C12 59.3971 12.4029 59.8 12.9 59.8H51.1C51.5971 59.8 52 59.3971 52 58.9C52 58.4029 51.5971 58 51.1 58Z" fill="white"/>
</g>
<defs>
<clipPath id="clip0_1993_19157">
<rect width="86" height="86" fill="white"/>
</clipPath>
</defs>
</svg>
