<svg width="68" height="68" viewBox="0 0 68 68" fill="none" xmlns="http://www.w3.org/2000/svg">
<g clip-path="url(#clip0_1993_19186)">
<path d="M66.4186 0H1.5814C0.708017 0 0 0.708017 0 1.5814V66.4186C0 67.292 0.708017 68 1.5814 68H66.4186C67.292 68 68 67.292 68 66.4186V1.5814C68 0.708017 67.292 0 66.4186 0Z" fill="white"/>
<path d="M58.2091 12.6512H9.79088C7.8657 12.6512 6.32556 14.1761 6.32556 16.1776V51.9178C6.32556 53.8239 7.8657 55.3489 9.79088 55.3489H58.2091C60.1343 55.3489 61.6744 53.8239 61.6744 51.9178V16.1776C61.6744 14.2714 60.1343 12.6512 58.2091 12.6512ZM58.2091 41.5293L51.2784 35.239C50.2196 34.2859 48.5832 34.2859 47.6206 35.3343L40.5937 42.3871L26.8287 25.9942C25.9624 24.9458 24.326 24.7552 23.1709 25.613C22.9783 25.7083 22.8821 25.8989 22.7858 25.9942L9.79088 40.8621V16.1776H58.2091V41.5293Z" fill="#788F9D"/>
<path d="M48.1019 30.1879H48.1981C50.8934 30.1879 53.0111 27.9958 52.9148 25.3272C52.9148 22.6586 50.7009 20.4666 48.0056 20.4666C45.3104 20.4666 43.0964 22.6586 43.0964 25.3272C43.1927 27.9958 45.5029 30.1879 48.1019 30.1879Z" fill="#788F9D"/>
<path opacity="0.85" d="M23.7 17.78C23.7 16.9074 24.4073 16.2 25.28 16.2H61.6534V30.4326H25.28C24.4073 30.4326 23.7 29.7252 23.7 28.8526V17.78Z" fill="black"/>
<path d="M57.3047 20.1534H34.3745C33.7194 20.1534 33.1884 20.6845 33.1884 21.3395C33.1884 21.9945 33.7194 22.5255 34.3745 22.5255H57.3047C57.9597 22.5255 58.4907 21.9945 58.4907 21.3395C58.4907 20.6845 57.9597 20.1534 57.3047 20.1534Z" fill="white"/>
<path d="M57.7791 24.8977H27.5744C27.1814 24.8977 26.8628 25.2163 26.8628 25.6093V25.6093C26.8628 26.0024 27.1814 26.321 27.5744 26.321H57.7791C58.1721 26.321 58.4907 26.0024 58.4907 25.6093C58.4907 25.2163 58.1721 24.8977 57.7791 24.8977Z" fill="white"/>
</g>
<defs>
<clipPath id="clip0_1993_19186">
<rect width="68" height="68" fill="white"/>
</clipPath>
</defs>
</svg>
