<svg width="68" height="68" viewBox="0 0 68 68" fill="none" xmlns="http://www.w3.org/2000/svg">
<g clip-path="url(#clip0_1993_19172)">
<path d="M66.4186 0H1.5814C0.708017 0 0 0.708017 0 1.5814V66.4186C0 67.292 0.708017 68 1.5814 68H66.4186C67.292 68 68 67.292 68 66.4186V1.5814C68 0.708017 67.292 0 66.4186 0Z" fill="white"/>
<path d="M58.2091 12.6512H9.79088C7.8657 12.6512 6.32556 14.1761 6.32556 16.1776V51.9178C6.32556 53.8239 7.8657 55.3489 9.79088 55.3489H58.2091C60.1343 55.3489 61.6744 53.8239 61.6744 51.9178V16.1776C61.6744 14.2714 60.1343 12.6512 58.2091 12.6512ZM58.2091 41.5293L51.2784 35.239C50.2196 34.2859 48.5832 34.2859 47.6206 35.3343L40.5937 42.3871L26.8287 25.9942C25.9624 24.9458 24.326 24.7552 23.1709 25.613C22.9783 25.7083 22.8821 25.8989 22.7858 25.9942L9.79088 40.8621V16.1776H58.2091V41.5293Z" fill="#788F9D"/>
<path d="M48.1019 30.1879H48.1981C50.8934 30.1879 53.0111 27.9958 52.9148 25.3272C52.9148 22.6586 50.7009 20.4666 48.0056 20.4666C45.3104 20.4666 43.0964 22.6586 43.0964 25.3272C43.1927 27.9958 45.5029 30.1879 48.1019 30.1879Z" fill="#788F9D"/>
<path opacity="0.85" d="M6.32556 37.1628H42.6977C43.571 37.1628 44.279 37.8708 44.279 38.7442V49.8139C44.279 50.6873 43.571 51.3953 42.6977 51.3953H6.32556V37.1628Z" fill="black"/>
<path d="M33.6046 41.1163H10.6744C10.0194 41.1163 9.48834 41.6473 9.48834 42.3024C9.48834 42.9574 10.0194 43.4884 10.6744 43.4884H33.6046C34.2596 43.4884 34.7906 42.9574 34.7906 42.3024C34.7906 41.6473 34.2596 41.1163 33.6046 41.1163Z" fill="white"/>
<path d="M40.4046 45.8605H10.2C9.80695 45.8605 9.48834 46.1791 9.48834 46.5721V46.5721C9.48834 46.9651 9.80695 47.2837 10.2 47.2837H40.4046C40.7976 47.2837 41.1162 46.9651 41.1162 46.5721C41.1162 46.1791 40.7976 45.8605 40.4046 45.8605Z" fill="white"/>
</g>
<defs>
<clipPath id="clip0_1993_19172">
<rect width="68" height="68" fill="white"/>
</clipPath>
</defs>
</svg>
