<svg width="68" height="68" viewBox="0 0 68 68" fill="none" xmlns="http://www.w3.org/2000/svg">
<g clip-path="url(#clip0_1993_19193)">
<path d="M66.4186 0H1.5814C0.708017 0 0 0.708017 0 1.5814V66.4186C0 67.292 0.708017 68 1.5814 68H66.4186C67.292 68 68 67.292 68 66.4186V1.5814C68 0.708017 67.292 0 66.4186 0Z" fill="white"/>
<path d="M58.2091 12.6512H9.79088C7.8657 12.6512 6.32556 14.1761 6.32556 16.1776V51.9178C6.32556 53.8239 7.8657 55.3489 9.79088 55.3489H58.2091C60.1343 55.3489 61.6744 53.8239 61.6744 51.9178V16.1776C61.6744 14.2714 60.1343 12.6512 58.2091 12.6512ZM58.2091 41.5293L51.2784 35.239C50.2196 34.2859 48.5832 34.2859 47.6206 35.3343L40.5937 42.3871L26.8287 25.9942C25.9624 24.9458 24.326 24.7552 23.1709 25.613C22.9783 25.7083 22.8821 25.8989 22.7858 25.9942L9.79088 40.8621V16.1776H58.2091V41.5293Z" fill="#788F9D"/>
<path d="M48.1019 30.1879H48.1981C50.8934 30.1879 53.0111 27.9958 52.9148 25.3272C52.9148 22.6586 50.7009 20.4666 48.0056 20.4666C45.3104 20.4666 43.0964 22.6586 43.0964 25.3272C43.1927 27.9958 45.5029 30.1879 48.1019 30.1879Z" fill="#788F9D"/>
<path opacity="0.85" d="M6.32556 16.2H42.6977C43.571 16.2 44.279 16.908 44.279 17.7814V28.8512C44.279 29.7246 43.571 30.4326 42.6977 30.4326H6.32556V16.2Z" fill="black"/>
<path d="M33.6047 20.1534H10.6745C10.0194 20.1534 9.4884 20.6845 9.4884 21.3395C9.4884 21.9945 10.0194 22.5255 10.6745 22.5255H33.6047C34.2597 22.5255 34.7907 21.9945 34.7907 21.3395C34.7907 20.6845 34.2597 20.1534 33.6047 20.1534Z" fill="white"/>
<path d="M40.4047 24.8977H10.2C9.80701 24.8977 9.4884 25.2163 9.4884 25.6093V25.6093C9.4884 26.0024 9.80701 26.321 10.2 26.321H40.4047C40.7977 26.321 41.1163 26.0024 41.1163 25.6093C41.1163 25.2163 40.7977 24.8977 40.4047 24.8977Z" fill="white"/>
</g>
<defs>
<clipPath id="clip0_1993_19193">
<rect width="68" height="68" fill="white"/>
</clipPath>
</defs>
</svg>
