<svg width="86" height="86" viewBox="0 0 86 86" fill="none" xmlns="http://www.w3.org/2000/svg">
<g clip-path="url(#clip0_1993_19164)">
<path d="M84 0H2C0.89543 0 0 0.89543 0 2V84C0 85.1046 0.89543 86 2 86H84C85.1046 86 86 85.1046 86 84V2C86 0.89543 85.1046 0 84 0Z" fill="white"/>
<path d="M73.6174 16H12.3826C9.94782 16 8 17.9286 8 20.4598V65.6607C8 68.0714 9.94782 70 12.3826 70H73.6174C76.0522 70 78 68.0714 78 65.6607V20.4598C78 18.0491 76.0522 16 73.6174 16ZM73.6174 52.5223L64.8522 44.567C63.513 43.3616 61.4435 43.3616 60.2261 44.6875L51.3391 53.6071L33.9304 32.875C32.8348 31.5491 30.7652 31.308 29.3043 32.3929C29.0609 32.5134 28.9391 32.7545 28.8174 32.875L12.3826 51.6786V20.4598H73.6174V52.5223Z" fill="#788F9D"/>
<path d="M60.8347 38.1788H60.9564C64.3651 38.1788 67.0434 35.4065 66.9217 32.0315C66.9217 28.6565 64.1217 25.8842 60.713 25.8842C57.3043 25.8842 54.5043 28.6565 54.5043 32.0315C54.626 35.4065 57.5477 38.1788 60.8347 38.1788Z" fill="#788F9D"/>
<path opacity="0.85" d="M62.2941 30.3529H24.482C23.5337 30.3529 22.7649 31.1217 22.7649 32.07V44.1032C22.7649 45.0515 23.5337 45.8203 24.482 45.8203H62.2941C63.2424 45.8203 64.0112 45.0515 64.0112 44.1032V32.07C64.0112 31.1217 63.2424 30.3529 62.2941 30.3529Z" fill="black"/>
<path d="M52.4124 34.6488H27.4883C26.7763 34.6488 26.1991 35.226 26.1991 35.938C26.1991 36.65 26.7763 37.2272 27.4883 37.2272H52.4124C53.1244 37.2272 53.7016 36.65 53.7016 35.938C53.7016 35.226 53.1244 34.6488 52.4124 34.6488Z" fill="white"/>
<path d="M59.8037 39.8055H26.9726C26.5454 39.8055 26.1991 40.1519 26.1991 40.579C26.1991 41.0062 26.5454 41.3526 26.9726 41.3526H59.8037C60.2309 41.3526 60.5772 41.0062 60.5772 40.579C60.5772 40.1519 60.2309 39.8055 59.8037 39.8055Z" fill="white"/>
<path d="M21.3171 38.548L15.5869 33.5146V41.1809L17.4454 39.3997L18.7618 42.3424L20.0782 41.8003L18.7618 38.7803L21.3171 38.548Z" fill="#788F9D"/>
</g>
<defs>
<clipPath id="clip0_1993_19164">
<rect width="86" height="86" fill="white"/>
</clipPath>
</defs>
</svg>
