<svg width="100" height="70" viewBox="0 0 100 70" fill="none" xmlns="http://www.w3.org/2000/svg">
<g clip-path="url(#clip0_1993_19326)">
<path d="M97 0.75H3C1.75736 0.75 0.75 1.75736 0.75 3V67C0.75 68.2426 1.75736 69.25 3 69.25H97C98.2426 69.25 99.25 68.2426 99.25 67V3C99.25 1.75736 98.2426 0.75 97 0.75Z" stroke="#58707F" stroke-width="1.5"/>
<path d="M16.989 43.6H35.97C36.525 43.6 36.858 43.2 36.858 42.8V27.2C36.858 26.7 36.414 26.4 35.97 26.4H16.989C16.434 26.4 16.101 26.8 16.101 27.2V42.7C16.101 43.2 16.545 43.6 16.989 43.6Z" fill="#58707F"/>
<path d="M40.8539 43.6H59.8349C60.3899 43.6 60.7229 43.2 60.7229 42.8V27.2C60.7229 26.7 60.2789 26.4 59.8349 26.4H40.8539C40.2989 26.4 39.9659 26.8 39.9659 27.2V42.7C39.9659 43.2 40.4099 43.6 40.8539 43.6Z" fill="#58707F"/>
<path d="M64.7189 43.6H83.6999C84.2549 43.6 84.5879 43.2 84.5879 42.8V27.2C84.5879 26.7 84.1439 26.4 83.6999 26.4H64.7189C64.1639 26.4 63.8309 26.8 63.8309 27.2V42.7C63.8309 43.2 64.2749 43.6 64.7189 43.6Z" fill="#58707F"/>
<path d="M50.3999 47.3C49.4009 47.3 48.6239 48 48.6239 48.9C48.6239 49.8 49.4009 50.5 50.3999 50.5C51.3989 50.5 52.1759 49.8 52.1759 48.9C52.1759 48 51.3989 47.3 50.3999 47.3Z" fill="#58707F"/>
<path d="M45.96 47.3C44.961 47.3 44.184 48 44.184 48.9C44.184 49.8 44.961 50.5 45.96 50.5C46.959 50.5 47.736 49.8 47.736 48.9C47.736 48 46.959 47.3 45.96 47.3Z" fill="#C1C4C6"/>
<path d="M54.84 47.3C53.841 47.3 53.064 48 53.064 48.9C53.064 49.8 53.841 50.5 54.84 50.5C55.839 50.5 56.616 49.8 56.616 48.9C56.616 48 55.839 47.3 54.84 47.3Z" fill="#C1C4C6"/>
<path d="M12 32L9 35L12 38" stroke="#58707F" stroke-width="1.8" stroke-linecap="round" stroke-linejoin="round"/>
<path d="M88 38L91 35L88 32" stroke="#58707F" stroke-width="1.8" stroke-linecap="round" stroke-linejoin="round"/>
</g>
<defs>
<clipPath id="clip0_1993_19326">
<rect width="100" height="70" fill="white"/>
</clipPath>
</defs>
</svg>
