<svg width="100" height="70" viewBox="0 0 100 70" fill="none" xmlns="http://www.w3.org/2000/svg">
<g clip-path="url(#clip0_1993_19336)">
<path d="M97 0.75H3C1.75736 0.75 0.75 1.75736 0.75 3V67C0.75 68.2426 1.75736 69.25 3 69.25H97C98.2426 69.25 99.25 68.2426 99.25 67V3C99.25 1.75736 98.2426 0.75 97 0.75Z" stroke="#58707F" stroke-width="1.5"/>
<path d="M40.8 13.1977H59.7001C60.3001 13.1977 60.7001 13.5931 60.7001 14.1862V22.0943C60.7001 22.6874 60.3001 23.0828 59.7001 23.0828H40.8C40.2 23.0828 39.8 22.6874 39.8 22.0943V14.1862C39.8 13.5931 40.2 13.1977 40.8 13.1977Z" fill="#58707F"/>
<path d="M40.8 34.7471H59.7001C60.3001 34.7471 60.7001 35.1425 60.7001 35.7356V48.4874C60.7001 49.0805 60.3001 49.4759 59.7001 49.4759H40.8C40.2 49.4759 39.8 49.0805 39.8 48.4874V35.8345C39.8 35.2414 40.2 34.7471 40.8 34.7471Z" fill="#58707F"/>
<path d="M17 13H35.9C36.5 13 36.9 13.3954 36.9 13.9885V29.4092C36.9 30.0023 36.5 30.3977 35.9 30.3977H17C16.4 30.3977 16 30.0023 16 29.4092V14.0874C16 13.4943 16.4 13 17 13Z" fill="#58707F"/>
<path d="M17 34.7471H35.9C36.5 34.7471 36.9 35.1425 36.9 35.7356V55.0115C36.9 55.6046 36.5 56 35.9 56H17C16.4 56 16 55.6046 16 55.0115V35.8345C16 35.2414 16.4 34.7471 17 34.7471Z" fill="#58707F"/>
<path d="M64.7 13.1977H83.6C84.2 13.1977 84.6 13.5931 84.6 14.1862V27.1357C84.6 27.7288 84.2 28.1242 83.6 28.1242H64.7C64.1 28.1242 63.7 27.7288 63.7 27.1357V14.1862C63.7 13.5931 64.1 13.1977 64.7 13.1977Z" fill="#58707F"/>
<path d="M64.7 34.7471H83.6C84.2 34.7471 84.6 35.1425 84.6 35.7356V52.5402C84.6 53.1333 84.2 53.5287 83.6 53.5287H64.7C64.1 53.5287 63.7 53.1333 63.7 52.5402V35.7356C63.7 35.2414 64.1 34.7471 64.7 34.7471Z" fill="#58707F"/>
</g>
<defs>
<clipPath id="clip0_1993_19336">
<rect width="100" height="70" fill="white"/>
</clipPath>
</defs>
</svg>
