<svg width="100" height="70" viewBox="0 0 100 70" fill="none" xmlns="http://www.w3.org/2000/svg">
<g clip-path="url(#clip0_1993_19344)">
<path d="M97 0.75H3C1.75736 0.75 0.75 1.75736 0.75 3V67C0.75 68.2426 1.75736 69.25 3 69.25H97C98.2426 69.25 99.25 68.2426 99.25 67V3C99.25 1.75736 98.2426 0.75 97 0.75Z" stroke="#58707F" stroke-width="1.5"/>
<path d="M41.5 13.1049H65C65.9 13.1049 66.7001 13.9439 66.7001 14.8878V31.2488C66.7001 32.1927 65.9 33.0317 65 33.0317H41.5C40.6 33.0317 39.8 32.1927 39.8 31.2488V14.8878C39.8 13.9439 40.6 13.1049 41.5 13.1049Z" fill="#58707F"/>
<path d="M71.3999 13.1049H82.8999C83.7999 13.1049 84.6 13.9439 84.6 14.8878V31.2488C84.6 32.1927 83.7999 33.0317 82.8999 33.0317H71.3999C70.4999 33.0317 69.7 32.1927 69.7 31.2488V14.8878C69.7 13.9439 70.4999 13.1049 71.3999 13.1049Z" fill="#58707F"/>
<path d="M17.7 13H35.2C36.1 13 36.9 13.839 36.9 14.7829V31.3537C36.9 32.2976 36.1 33.1366 35.2 33.1366H17.7C16.8 33.1366 16 32.2976 16 31.3537V14.7829C16 13.839 16.8 13 17.7 13Z" fill="#58707F"/>
<path d="M17.7 36.0732H52.7C53.6 36.0732 54.4 36.9122 54.4 37.8561V54.0073C54.4 54.9512 53.6 55.7903 52.7 55.7903H17.7C16.8 55.7903 16 54.9512 16 54.0073V37.8561C16 36.9122 16.8 36.0732 17.7 36.0732Z" fill="#58707F"/>
<path d="M59 36.0732H82.9C83.8 36.0732 84.6001 36.9122 84.6001 37.8561V54.2171C84.6001 55.161 83.8 56 82.9 56H59C58.1 56 57.3 55.161 57.3 54.2171V37.8561C57.3 36.9122 58.1 36.0732 59 36.0732Z" fill="#58707F"/>
</g>
<defs>
<clipPath id="clip0_1993_19344">
<rect width="100" height="70" fill="white"/>
</clipPath>
</defs>
</svg>
