<svg width="100" height="70" viewBox="0 0 100 70" fill="none" xmlns="http://www.w3.org/2000/svg">
<g clip-path="url(#clip0_1993_19351)">
<path d="M97 0.75H3C1.75736 0.75 0.75 1.75736 0.75 3V67C0.75 68.2426 1.75736 69.25 3 69.25H97C98.2426 69.25 99.25 68.2426 99.25 67V3C99.25 1.75736 98.2426 0.75 97 0.75Z" stroke="#58707F" stroke-width="1.5"/>
<path d="M17.3109 13H35.6109C36.3109 13 36.9109 13.6277 36.9109 14.3601V26.8102C36.9109 27.5426 36.3109 28.1703 35.6109 28.1703H17.3109C16.6109 28.1703 16.0109 27.5426 16.0109 26.8102V14.3601C15.9109 13.5231 16.5109 13 17.3109 13Z" fill="#58707F"/>
<path d="M41.2109 13H59.5109C60.2109 13 60.8109 13.6277 60.8109 14.3601V34.1338C60.8109 34.8662 60.2109 35.4939 59.5109 35.4939H41.2109C40.5109 35.4939 39.9109 34.8662 39.9109 34.1338V14.3601C39.8109 13.5231 40.4109 13 41.2109 13Z" fill="#58707F"/>
<path d="M65.1109 13H83.3109C84.0109 13 84.6109 13.6277 84.6109 14.3601V20.5328C84.6109 21.2652 84.0109 21.8929 83.3109 21.8929H65.1109C64.4109 21.8929 63.8109 21.2652 63.8109 20.5328V14.3601C63.8109 13.5231 64.3109 13 65.1109 13Z" fill="#58707F"/>
<path d="M17.3109 31.309H35.6109C36.3109 31.309 36.9109 31.9367 36.9109 32.6691V54.6399C36.9109 55.3723 36.3109 56 35.6109 56H17.3109C16.6109 56 16.0109 55.3723 16.0109 54.6399V32.6691C15.9109 31.8321 16.5109 31.309 17.3109 31.309Z" fill="#58707F"/>
<path d="M41.2109 38.6326H59.5109C60.2109 38.6326 60.8109 39.2603 60.8109 39.9927V54.6399C60.8109 55.3723 60.2109 56 59.5109 56H41.2109C40.5109 56 39.9109 55.3723 39.9109 54.6399V39.9927C39.8109 39.1557 40.4109 38.6326 41.2109 38.6326Z" fill="#58707F"/>
<path d="M65.1109 25.0316H83.3109C84.0109 25.0316 84.6109 25.6594 84.6109 26.3917V54.6399C84.6109 55.3722 84.0109 56 83.3109 56H65.1109C64.4109 56 63.8109 55.3722 63.8109 54.6399V26.3917C63.8109 25.5547 64.3109 25.0316 65.1109 25.0316Z" fill="#58707F"/>
</g>
<defs>
<clipPath id="clip0_1993_19351">
<rect width="100" height="70" fill="white"/>
</clipPath>
</defs>
</svg>
