<svg width="100" height="70" viewBox="0 0 100 70" fill="none" xmlns="http://www.w3.org/2000/svg">
<g clip-path="url(#clip0_1993_19367)">
<path d="M97 0.75H3C1.75736 0.75 0.75 1.75736 0.75 3V67C0.75 68.2426 1.75736 69.25 3 69.25H97C98.2426 69.25 99.25 68.2426 99.25 67V3C99.25 1.75736 98.2426 0.75 97 0.75Z" stroke="#58707F" stroke-width="1.5"/>
<path d="M83 10H17C16.4477 10 16 10.4477 16 11V44C16 44.5523 16.4477 45 17 45H83C83.5523 45 84 44.5523 84 44V11C84 10.4477 83.5523 10 83 10Z" fill="#58707F"/>
<path d="M30.2741 47.5999H17.0042C16.4496 47.5999 16 48.0495 16 48.6041V58.5957C16 59.1503 16.4496 59.5999 17.0042 59.5999H30.2741C30.8287 59.5999 31.2783 59.1503 31.2783 58.5957V48.6041C31.2783 48.0495 30.8287 47.5999 30.2741 47.5999Z" fill="#58707F"/>
<path d="M47.8481 47.5999H34.5782C34.0236 47.5999 33.574 48.0495 33.574 48.6041V58.5957C33.574 59.1503 34.0236 59.5999 34.5782 59.5999H47.8481C48.4027 59.5999 48.8523 59.1503 48.8523 58.5957V48.6041C48.8523 48.0495 48.4027 47.5999 47.8481 47.5999Z" fill="#58707F"/>
<path d="M65.4218 47.5999H52.1519C51.5973 47.5999 51.1477 48.0495 51.1477 48.6041V58.5957C51.1477 59.1503 51.5973 59.5999 52.1519 59.5999H65.4218C65.9764 59.5999 66.426 59.1503 66.426 58.5957V48.6041C66.426 48.0495 65.9764 47.5999 65.4218 47.5999Z" fill="#58707F"/>
<path d="M82.9958 47.5999H69.7259C69.1713 47.5999 68.7217 48.0495 68.7217 48.6041V58.5957C68.7217 59.1503 69.1713 59.5999 69.7259 59.5999H82.9958C83.5504 59.5999 84 59.1503 84 58.5957V48.6041C84 48.0495 83.5504 47.5999 82.9958 47.5999Z" fill="#58707F"/>
<path d="M61 20H39C38.4477 20 38 20.4477 38 21C38 21.5523 38.4477 22 39 22H61C61.5523 22 62 21.5523 62 21C62 20.4477 61.5523 20 61 20Z" fill="white"/>
<path d="M66 24H34C33.4477 24 33 24.4477 33 25C33 25.5523 33.4477 26 34 26H66C66.5523 26 67 25.5523 67 25C67 24.4477 66.5523 24 66 24Z" fill="white"/>
<path d="M57 30H43C42.4477 30 42 30.4477 42 31V34C42 34.5523 42.4477 35 43 35H57C57.5523 35 58 34.5523 58 34V31C58 30.4477 57.5523 30 57 30Z" fill="white"/>
<path d="M77 30L80 27L77 24" stroke="white" stroke-width="1.8" stroke-linecap="round" stroke-linejoin="round"/>
<path d="M23 24L20 27L23 30" stroke="white" stroke-width="1.8" stroke-linecap="round" stroke-linejoin="round"/>
</g>
<defs>
<clipPath id="clip0_1993_19367">
<rect width="100" height="70" fill="white"/>
</clipPath>
</defs>
</svg>
