<svg width="100" height="70" viewBox="0 0 100 70" fill="none" xmlns="http://www.w3.org/2000/svg">
<g clip-path="url(#clip0_1993_19379)">
<path d="M97 0.75H3C1.75736 0.75 0.75 1.75736 0.75 3V67C0.75 68.2426 1.75736 69.25 3 69.25H97C98.2426 69.25 99.25 68.2426 99.25 67V3C99.25 1.75736 98.2426 0.75 97 0.75Z" stroke="#58707F" stroke-width="1.5"/>
<path d="M17.2 36.0244H35.6C36.3 36.0244 36.8 36.6552 36.8 37.2861V54.6332C36.8 55.3692 36.2 55.8949 35.6 55.8949H17.2C16.5 55.8949 16 55.264 16 54.6332V37.2861C16 36.6552 16.6 36.0244 17.2 36.0244Z" fill="#58707F"/>
<path d="M41 13.1051H59.4C60.1 13.1051 60.6 13.7359 60.6 14.3667V31.7139C60.6 32.4499 60 32.9755 59.4 32.9755H41C40.3 32.9755 39.8 32.3447 39.8 31.7139V14.3667C39.8 13.7359 40.4 13.1051 41 13.1051Z" fill="#58707F"/>
<path d="M41 36.1296H59.4C60.1 36.1296 60.6 36.7604 60.6 37.3912V54.7384C60.6 55.4743 60 56 59.4 56H41C40.3 56 39.8 55.3692 39.8 54.7384V37.3912C39.8 36.7604 40.4 36.1296 41 36.1296Z" fill="#58707F"/>
<path d="M17.2 13H35.6C36.3 13 36.8 13.6308 36.8 14.2616V31.6088C36.8 32.3447 36.2 32.8704 35.6 32.8704H17.2C16.5 32.8704 16 32.2396 16 31.6088V14.2616C16 13.6308 16.6 13 17.2 13Z" fill="#58707F"/>
<path d="M64.8999 13.1051H83.2999C84 13.1051 84.4999 13.7359 84.4999 14.3667V31.7139C84.4999 32.4499 83.9 32.9755 83.2999 32.9755H64.8999C64.1999 32.9755 63.7 32.3447 63.7 31.7139V14.3667C63.7 13.7359 64.2999 13.1051 64.8999 13.1051Z" fill="#58707F"/>
<path d="M64.8999 36.1296H83.2999C84 36.1296 84.4999 36.7604 84.4999 37.3912V54.7384C84.4999 55.4743 83.9 56 83.2999 56H64.8999C64.1999 56 63.7 55.3692 63.7 54.7384V37.3912C63.7 36.7604 64.2999 36.1296 64.8999 36.1296Z" fill="#58707F"/>
</g>
<defs>
<clipPath id="clip0_1993_19379">
<rect width="100" height="70" fill="white"/>
</clipPath>
</defs>
</svg>
