<svg width="100" height="70" viewBox="0 0 100 70" fill="none" xmlns="http://www.w3.org/2000/svg">
<g clip-path="url(#clip0_1993_20555)">
<path d="M0.5 3C0.5 1.61929 1.61929 0.5 3 0.5H97C98.3807 0.5 99.5 1.61929 99.5 3V67C99.5 68.3807 98.3807 69.5 97 69.5H3C1.61929 69.5 0.5 68.3807 0.5 67V3Z" fill="white" stroke="#58707F"/>
<path d="M45.6 57.2001C46.4837 57.2001 47.2 56.4837 47.2 55.6001C47.2 54.7164 46.4837 54.0001 45.6 54.0001C44.7163 54.0001 44 54.7164 44 55.6001C44 56.4837 44.7163 57.2001 45.6 57.2001Z" fill="#98B0BF"/>
<path d="M53.6 57.2001C54.4837 57.2001 55.2 56.4837 55.2 55.6001C55.2 54.7164 54.4837 54.0001 53.6 54.0001C52.7163 54.0001 52 54.7164 52 55.6001C52 56.4837 52.7163 57.2001 53.6 57.2001Z" fill="#98B0BF"/>
<path d="M49.6 57.2C50.4837 57.2 51.2 56.4837 51.2 55.6C51.2 54.7163 50.4837 54 49.6 54C48.7163 54 48 54.7163 48 55.6C48 56.4837 48.7163 57.2 49.6 57.2Z" fill="#58707F"/>
<path d="M81 26H19C18.4477 26 18 26.4477 18 27V43C18 43.5523 18.4477 44 19 44H81C81.5523 44 82 43.5523 82 43V27C82 26.4477 81.5523 26 81 26Z" fill="#C1C4C6"/>
<path d="M75 23H25C24.4477 23 24 23.4477 24 24V46C24 46.5523 24.4477 47 25 47H75C75.5523 47 76 46.5523 76 46V24C76 23.4477 75.5523 23 75 23Z" fill="#A1B1BB"/>
<path d="M64 20H36C35.4477 20 35 20.4477 35 21V49C35 49.5523 35.4477 50 36 50H64C64.5523 50 65 49.5523 65 49V21C65 20.4477 64.5523 20 64 20Z" fill="#58707F"/>
</g>
<defs>
<clipPath id="clip0_1993_20555">
<rect width="100" height="70" fill="white"/>
</clipPath>
</defs>
</svg>
