<svg width="84" height="64" viewBox="0 0 84 64" fill="none" xmlns="http://www.w3.org/2000/svg">
<g clip-path="url(#clip0_1993_19503)">
<path d="M2 0H82V64H2V0Z" fill="white"/>
<path d="M32.48 41.6H51.52C52.08 41.6 52.4 41.12 52.4 40.72V23.36C52.4 22.8 51.92 22.48 51.52 22.48H32.48C31.92 22.48 31.6 22.96 31.6 23.36V40.64C31.52 41.12 32 41.6 32.48 41.6Z" fill="#58707F"/>
<path d="M17.84 37.36H28.48C28.8 37.36 28.96 37.12 28.96 36.88V27.2C28.96 26.88 28.72 26.72 28.48 26.72H17.84C17.52 26.72 17.36 26.96 17.36 27.2V36.8C17.36 37.12 17.6 37.36 17.84 37.36ZM55.52 37.36H66.16C66.48 37.36 66.64 37.12 66.64 36.88V27.2C66.64 26.88 66.4 26.72 66.16 26.72H55.52C55.2 26.72 55.04 26.96 55.04 27.2V36.8C55.04 37.12 55.28 37.36 55.52 37.36Z" fill="#C1C4C6"/>
<path d="M73.52 31.52L70.8 28.8C70.72 28.72 70.48 28.72 70.4 28.8L69.92 29.28C69.84 29.36 69.84 29.6 69.92 29.68L72.08 31.84C72.16 31.92 72.16 32.16 72.08 32.24L69.92 34.4C69.84 34.48 69.84 34.72 69.92 34.8L70.4 35.28C70.48 35.36 70.72 35.36 70.8 35.28L73.52 32.56L74 32L73.52 31.52ZM14.16 29.76C14.32 29.6 14.32 29.44 14.16 29.28L13.68 28.8C13.6526 28.762 13.6165 28.7311 13.5748 28.7097C13.5331 28.6884 13.4869 28.6772 13.44 28.6772C13.3931 28.6772 13.3469 28.6884 13.3052 28.7097C13.2635 28.7311 13.2274 28.762 13.2 28.8L10.48 31.52L10 32L10.48 32.48L13.2 35.2C13.2274 35.238 13.2635 35.2689 13.3052 35.2903C13.3469 35.3116 13.3931 35.3227 13.44 35.3227C13.4869 35.3227 13.5331 35.3116 13.5748 35.2903C13.6165 35.2689 13.6526 35.238 13.68 35.2L14.08 34.8C14.24 34.64 14.24 34.48 14.08 34.32L12.08 32.32C11.92 32.16 11.92 32 12.08 31.84L14.16 29.76Z" fill="#58707F"/>
</g>
<defs>
<clipPath id="clip0_1993_19503">
<rect width="84" height="64" fill="white"/>
</clipPath>
</defs>
</svg>
