<svg width="84" height="64" viewBox="0 0 84 64" fill="none" xmlns="http://www.w3.org/2000/svg">
<g clip-path="url(#clip0_1993_19512)">
<path d="M2 0H82V64H2V0Z" fill="white"/>
<path d="M29.28 25.2H15.6C15.2 25.2 14.96 25.52 14.96 25.84V38.24C14.96 38.64 15.28 38.96 15.6 38.96H29.28C29.68 38.96 29.92 38.64 29.92 38.32V25.84C29.92 25.44 29.6 25.2 29.28 25.2ZM12.64 25.84V38.32C12.64 38.64 12.4 38.96 12 38.96H8.16V25.2H12.08C12.32 25.2 12.64 25.44 12.64 25.84ZM46.48 25.2H32.8C32.4 25.2 32.16 25.52 32.16 25.84V38.24C32.16 38.64 32.48 38.96 32.8 38.96H46.48C46.88 38.96 47.12 38.64 47.12 38.32V25.84C47.12 25.44 46.8 25.2 46.48 25.2ZM63.68 25.2H50C49.6 25.2 49.36 25.52 49.36 25.84V38.24C49.36 38.64 49.68 38.96 50 38.96H63.68C64.08 38.96 64.32 38.64 64.32 38.32V25.84C64.32 25.44 64 25.2 63.68 25.2ZM75.84 25.2V38.96H67.28C66.96 38.96 66.64 38.64 66.64 38.24V25.84C66.64 25.52 66.88 25.2 67.28 25.2H75.84ZM30.16 22.88C30.32 23.04 30.48 23.12 30.64 23.12C30.8 23.12 30.96 23.04 31.12 22.88C31.36 22.64 31.36 22.16 31.12 21.92L30 20.72H47.04C47.44 20.72 47.76 20.4 47.76 20C47.76 19.6 47.44 19.28 47.04 19.28H30L31.12 18.16C31.36 17.92 31.36 17.44 31.12 17.2C30.88 16.96 30.4 16.96 30.16 17.2L27.84 19.52C27.6 19.76 27.6 20.24 27.84 20.48L30.16 22.88ZM52.32 20.08C52.32 19.68 52 19.36 51.6 19.36H49.52C49.12 19.36 48.8 19.68 48.8 20.08C48.8 20.48 49.12 20.8 49.52 20.8H51.6C52 20.72 52.32 20.4 52.32 20.08ZM55.04 20.72H55.68C56.08 20.72 56.4 20.4 56.4 20C56.4 19.6 56.08 19.28 55.68 19.28H55.04C54.64 19.28 54.32 19.6 54.32 20C54.32 20.4 54.64 20.72 55.04 20.72Z" fill="#58707F"/>
</g>
<defs>
<clipPath id="clip0_1993_19512">
<rect width="84" height="64" fill="white"/>
</clipPath>
</defs>
</svg>
