<svg width="84" height="64" viewBox="0 0 84 64" fill="none" xmlns="http://www.w3.org/2000/svg">
<g clip-path="url(#clip0_1993_19508)">
<path d="M2 0H82V64H2V0Z" fill="white"/>
<path d="M17.92 38.88H31.6C32 38.88 32.24 38.56 32.24 38.24V25.76C32.24 25.36 31.92 25.12 31.6 25.12H17.92C17.52 25.12 17.28 25.44 17.28 25.76V38.16C17.28 38.56 17.6 38.88 17.92 38.88ZM35.12 38.88H48.8C49.2 38.88 49.44 38.56 49.44 38.24V25.76C49.44 25.36 49.12 25.12 48.8 25.12H35.12C34.72 25.12 34.48 25.44 34.48 25.76V38.16C34.48 38.56 34.8 38.88 35.12 38.88ZM52.32 38.88H66C66.4 38.88 66.64 38.56 66.64 38.24V25.76C66.64 25.36 66.32 25.12 66 25.12H52.32C51.92 25.12 51.68 25.44 51.68 25.76V38.16C51.68 38.56 52 38.88 52.32 38.88ZM73.52 31.6L70.8 28.88C70.72 28.8 70.48 28.8 70.4 28.88L69.92 29.36C69.84 29.44 69.84 29.68 69.92 29.76L72.08 31.92C72.16 32 72.16 32.24 72.08 32.32L69.92 34.48C69.84 34.56 69.84 34.8 69.92 34.88L70.4 35.36C70.48 35.44 70.72 35.44 70.8 35.36L73.52 32.64L74 32.16L73.52 31.6ZM14.16 29.6C14.32 29.44 14.32 29.28 14.16 29.12L13.68 28.64C13.6526 28.602 13.6165 28.5711 13.5748 28.5497C13.5331 28.5284 13.4869 28.5172 13.44 28.5172C13.3931 28.5172 13.3469 28.5284 13.3052 28.5497C13.2635 28.5711 13.2274 28.602 13.2 28.64L10.48 31.36L10 31.84L10.48 32.32L13.2 35.04C13.2274 35.078 13.2635 35.1089 13.3052 35.1303C13.3469 35.1516 13.3931 35.1627 13.44 35.1627C13.4869 35.1627 13.5331 35.1516 13.5748 35.1303C13.6165 35.1089 13.6526 35.078 13.68 35.04L14.08 34.64C14.24 34.48 14.24 34.32 14.08 34.16L12.08 32.16C11.92 32 11.92 31.84 12.08 31.68L14.16 29.6ZM42 41.84C41.6605 41.84 41.335 41.9749 41.0949 42.2149C40.8549 42.4549 40.72 42.7805 40.72 43.12C40.72 43.4595 40.8549 43.785 41.0949 44.0251C41.335 44.2651 41.6605 44.4 42 44.4C42.3395 44.4 42.6651 44.2651 42.9051 44.0251C43.1451 43.785 43.28 43.4595 43.28 43.12C43.28 42.7805 43.1451 42.4549 42.9051 42.2149C42.6651 41.9749 42.3395 41.84 42 41.84Z" fill="#58707F"/>
<path d="M38.8 41.84C38.4605 41.84 38.135 41.9749 37.8949 42.2149C37.6549 42.4549 37.52 42.7805 37.52 43.12C37.52 43.4595 37.6549 43.785 37.8949 44.0251C38.135 44.2651 38.4605 44.4 38.8 44.4C39.1395 44.4 39.4651 44.2651 39.7051 44.0251C39.9451 43.785 40.08 43.4595 40.08 43.12C40.08 42.7805 39.9451 42.4549 39.7051 42.2149C39.4651 41.9749 39.1395 41.84 38.8 41.84ZM45.2 41.84C44.8605 41.84 44.535 41.9749 44.2949 42.2149C44.0549 42.4549 43.92 42.7805 43.92 43.12C43.92 43.4595 44.0549 43.785 44.2949 44.0251C44.535 44.2651 44.8605 44.4 45.2 44.4C45.5395 44.4 45.8651 44.2651 46.1051 44.0251C46.3451 43.785 46.48 43.4595 46.48 43.12C46.48 42.7805 46.3451 42.4549 46.1051 42.2149C45.8651 41.9749 45.5395 41.84 45.2 41.84Z" fill="#C1C4C6"/>
</g>
<defs>
<clipPath id="clip0_1993_19508">
<rect width="84" height="64" fill="white"/>
</clipPath>
</defs>
</svg>
