<svg width="100" height="70" viewBox="0 0 100 70" fill="none" xmlns="http://www.w3.org/2000/svg">
<g clip-path="url(#clip0_1993_19515)">
<path d="M0.5 3C0.5 1.61929 1.61929 0.5 3 0.5H97C98.3807 0.5 99.5 1.61929 99.5 3V67C99.5 68.3807 98.3807 69.5 97 69.5H3C1.61929 69.5 0.5 68.3807 0.5 67V3Z" fill="white" stroke="#58707F"/>
<path d="M45.9999 53.1001C46.8836 53.1001 47.5999 52.3837 47.5999 51.5001C47.5999 50.6164 46.8836 49.9001 45.9999 49.9001C45.1162 49.9001 44.3999 50.6164 44.3999 51.5001C44.3999 52.3837 45.1162 53.1001 45.9999 53.1001Z" fill="#98B0BF"/>
<path d="M53.9999 53.1001C54.8836 53.1001 55.5999 52.3837 55.5999 51.5001C55.5999 50.6164 54.8836 49.9001 53.9999 49.9001C53.1162 49.9001 52.3999 50.6164 52.3999 51.5001C52.3999 52.3837 53.1162 53.1001 53.9999 53.1001Z" fill="#98B0BF"/>
<path d="M33.0999 27.3H19.7999C19.3999 27.3 19.2 27.6001 19.2 27.9001V39.9001C19.2 40.3001 19.4999 40.6 19.7999 40.6H33.0999C33.4999 40.6 33.7 40.3 33.7 40V28C33.7 27.6 33.3999 27.3 33.0999 27.3ZM80.1999 27.3H66.9C66.5 27.3 66.3 27.6001 66.3 27.9001V39.9001C66.3 40.3001 66.6 40.6 66.9 40.6H80.1999C80.5999 40.6 80.8 40.3 80.8 40V28C80.8 27.6 80.4999 27.3 80.1999 27.3Z" fill="#98B0BF"/>
<path d="M50 53.1C50.8837 53.1 51.6 52.3836 51.6 51.5C51.6 50.6163 50.8837 49.9 50 49.9C49.1164 49.9 48.4 50.6163 48.4 51.5C48.4 52.3836 49.1164 53.1 50 53.1Z" fill="#58707F"/>
<path d="M61.8 22H38.1C37.4 22 37 22.6 37 23.1V44.7C37 45.4 37.6 46 38.1 46H61.9C62.6 46 63 45.4 63 44.9V23.2C63 22.5 62.4 22 61.8 22ZM89.4 33.3L86 30C85.9 29.9 85.6 29.9 85.5 30L84.9 30.6C84.8 30.7 84.8 31 84.9 31.1L87.6 33.8C87.7 33.9 87.7 34.2 87.6 34.3L84.9 37C84.8 37.1 84.8 37.4 84.9 37.5L85.5 38.1C85.6 38.2 85.9 38.2 86 38.1L89.4 34.7L90 34L89.4 33.3ZM15.2 31.2C15.4 31 15.4 30.8 15.2 30.6L14.6 30C14.5657 29.9525 14.5206 29.9138 14.4685 29.8871C14.4163 29.8605 14.3586 29.8466 14.3 29.8466C14.2414 29.8466 14.1837 29.8605 14.1315 29.8871C14.0794 29.9138 14.0343 29.9525 14 30L10.6 33.4L10 34L10.6 34.6L14 38C14.0343 38.0475 14.0794 38.0862 14.1315 38.1129C14.1837 38.1395 14.2414 38.1534 14.3 38.1534C14.3586 38.1534 14.4163 38.1395 14.4685 38.1129C14.5206 38.0862 14.5657 38.0475 14.6 38L15.1 37.5C15.3 37.3 15.3 37.1 15.1 36.9L12.6 34.4C12.4 34.2 12.4 34 12.6 33.8L15.2 31.2Z" fill="#58707F"/>
</g>
<defs>
<clipPath id="clip0_1993_19515">
<rect width="100" height="70" fill="white"/>
</clipPath>
</defs>
</svg>
