<svg width="100" height="70" viewBox="0 0 100 70" fill="none" xmlns="http://www.w3.org/2000/svg">
<g clip-path="url(#clip0_1993_19522)">
<path d="M0.5 3C0.5 1.61929 1.61929 0.5 3 0.5H97C98.3807 0.5 99.5 1.61929 99.5 3V67C99.5 68.3807 98.3807 69.5 97 69.5H3C1.61929 69.5 0.5 68.3807 0.5 67V3Z" fill="white" stroke="#58707F"/>
<path d="M81 15H19C17.8954 15 17 15.8954 17 17V53C17 54.1046 17.8954 55 19 55H81C82.1046 55 83 54.1046 83 53V17C83 15.8954 82.1046 15 81 15Z" fill="#58707F"/>
<path d="M38 21.3426C38 20.5782 38.5747 19.9361 39.3344 19.8517L81.3344 15.1851C82.2229 15.0863 83 15.7819 83 16.6759V53.3241C83 54.2181 82.2229 54.9137 81.3344 54.8149L39.3344 50.1483C38.5747 50.0639 38 49.4218 38 48.6574V21.3426Z" fill="#C1C4C6"/>
<path d="M17 21L34.1644 23.8607C34.6466 23.9411 35 24.3583 35 24.8471V45.1529C35 45.6417 34.6466 46.0589 34.1644 46.1393L17 49V21Z" fill="#C1C4C6"/>
<path d="M77 38L80 35L77 32" stroke="#58707F" stroke-width="1.8" stroke-linecap="round" stroke-linejoin="round"/>
<path d="M23 32L20 35L23 38" stroke="#58707F" stroke-width="1.8" stroke-linecap="round" stroke-linejoin="round"/>
</g>
<defs>
<clipPath id="clip0_1993_19522">
<rect width="100" height="70" fill="white"/>
</clipPath>
</defs>
</svg>
