<svg width="100" height="70" viewBox="0 0 100 70" fill="none" xmlns="http://www.w3.org/2000/svg">
<g clip-path="url(#clip0_1993_20475)">
<path d="M0.5 3C0.5 1.61929 1.61929 0.5 3 0.5H97C98.3807 0.5 99.5 1.61929 99.5 3V67C99.5 68.3807 98.3807 69.5 97 69.5H3C1.61929 69.5 0.5 68.3807 0.5 67V3Z" fill="white" stroke="#58707F"/>
<path d="M80.7778 15H19.2222C17.9949 15 17 15.9949 17 17.2222V52.7778C17 54.0051 17.9949 55 19.2222 55H80.7778C82.0051 55 83 54.0051 83 52.7778V17.2222C83 15.9949 82.0051 15 80.7778 15Z" fill="#58707F"/>
<path d="M85.7778 10.25H14.2222C13.133 10.25 12.25 11.133 12.25 12.2222V57.7778C12.25 58.867 13.133 59.75 14.2222 59.75H85.7778C86.867 59.75 87.75 58.867 87.75 57.7778V12.2222C87.75 11.133 86.867 10.25 85.7778 10.25Z" stroke="black" stroke-width="0.5" stroke-dasharray="1 1"/>
<path d="M14.7828 12.2172C14.6266 12.0609 14.3734 12.0609 14.2172 12.2172C14.0609 12.3734 14.0609 12.6266 14.2172 12.7828L14.7828 12.2172ZM19 17.4C19.2209 17.4 19.4 17.2209 19.4 17V13.4C19.4 13.1791 19.2209 13 19 13C18.7791 13 18.6 13.1791 18.6 13.4V16.6H15.4C15.1791 16.6 15 16.7791 15 17C15 17.2209 15.1791 17.4 15.4 17.4H19ZM14.478 13.0437C14.6342 13.1999 14.8875 13.1999 15.0437 13.0437C15.1999 12.8875 15.1999 12.6342 15.0437 12.478L14.478 13.0437ZM16.022 13.4563C15.8658 13.3001 15.6125 13.3001 15.4563 13.4563C15.3001 13.6125 15.3001 13.8658 15.4563 14.022L16.022 13.4563ZM15.978 14.5437C16.1342 14.6999 16.3875 14.6999 16.5437 14.5437C16.6999 14.3875 16.6999 14.1342 16.5437 13.978L15.978 14.5437ZM17.522 14.9563C17.3658 14.8001 17.1125 14.8001 16.9563 14.9563C16.8001 15.1125 16.8001 15.3658 16.9563 15.522L17.522 14.9563ZM17.478 16.0437C17.6342 16.1999 17.8875 16.1999 18.0437 16.0437C18.1999 15.8875 18.1999 15.6342 18.0437 15.478L17.478 16.0437ZM19.022 16.4563C18.8658 16.3001 18.6125 16.3001 18.4563 16.4563C18.3001 16.6125 18.3001 16.8658 18.4563 17.022L19.022 16.4563ZM14.2172 12.7828L14.478 13.0437L15.0437 12.478L14.7828 12.2172L14.2172 12.7828ZM15.4563 14.022L15.978 14.5437L16.5437 13.978L16.022 13.4563L15.4563 14.022ZM16.9563 15.522L17.478 16.0437L18.0437 15.478L17.522 14.9563L16.9563 15.522ZM18.4563 17.022L18.7172 17.2828L19.2828 16.7172L19.022 16.4563L18.4563 17.022Z" fill="#343434"/>
<path d="M85.2172 12.2172C85.3734 12.0609 85.6266 12.0609 85.7828 12.2172C85.9391 12.3734 85.9391 12.6266 85.7828 12.7828L85.2172 12.2172ZM81 17.4C80.7791 17.4 80.6 17.2209 80.6 17V13.4C80.6 13.1791 80.7791 13 81 13C81.2209 13 81.4 13.1791 81.4 13.4V16.6H84.6C84.8209 16.6 85 16.7791 85 17C85 17.2209 84.8209 17.4 84.6 17.4H81ZM85.522 13.0437C85.3658 13.1999 85.1125 13.1999 84.9563 13.0437C84.8001 12.8875 84.8001 12.6342 84.9563 12.478L85.522 13.0437ZM83.978 13.4563C84.1342 13.3001 84.3875 13.3001 84.5437 13.4563C84.6999 13.6125 84.6999 13.8658 84.5437 14.022L83.978 13.4563ZM84.022 14.5437C83.8658 14.6999 83.6125 14.6999 83.4563 14.5437C83.3001 14.3875 83.3001 14.1342 83.4563 13.978L84.022 14.5437ZM82.478 14.9563C82.6342 14.8001 82.8875 14.8001 83.0437 14.9563C83.1999 15.1125 83.1999 15.3658 83.0437 15.522L82.478 14.9563ZM82.522 16.0437C82.3658 16.1999 82.1125 16.1999 81.9563 16.0437C81.8001 15.8875 81.8001 15.6342 81.9563 15.478L82.522 16.0437ZM80.978 16.4563C81.1342 16.3001 81.3875 16.3001 81.5437 16.4563C81.6999 16.6125 81.6999 16.8658 81.5437 17.022L80.978 16.4563ZM85.7828 12.7828L85.522 13.0437L84.9563 12.478L85.2172 12.2172L85.7828 12.7828ZM84.5437 14.022L84.022 14.5437L83.4563 13.978L83.978 13.4563L84.5437 14.022ZM83.0437 15.522L82.522 16.0437L81.9563 15.478L82.478 14.9563L83.0437 15.522ZM81.5437 17.022L81.2828 17.2828L80.7172 16.7172L80.978 16.4563L81.5437 17.022Z" fill="#343434"/>
<path d="M14.7828 56.7828C14.6266 56.9391 14.3734 56.9391 14.2172 56.7828C14.0609 56.6266 14.0609 56.3734 14.2172 56.2172L14.7828 56.7828ZM19 51.6C19.2209 51.6 19.4 51.7791 19.4 52V55.6C19.4 55.8209 19.2209 56 19 56C18.7791 56 18.6 55.8209 18.6 55.6V52.4H15.4C15.1791 52.4 15 52.2209 15 52C15 51.7791 15.1791 51.6 15.4 51.6H19ZM14.478 55.9563C14.6342 55.8001 14.8875 55.8001 15.0437 55.9563C15.1999 56.1125 15.1999 56.3658 15.0437 56.522L14.478 55.9563ZM16.022 55.5437C15.8658 55.6999 15.6125 55.6999 15.4563 55.5437C15.3001 55.3875 15.3001 55.1342 15.4563 54.978L16.022 55.5437ZM15.978 54.4563C16.1342 54.3001 16.3875 54.3001 16.5437 54.4563C16.6999 54.6125 16.6999 54.8658 16.5437 55.022L15.978 54.4563ZM17.522 54.0437C17.3658 54.1999 17.1125 54.1999 16.9563 54.0437C16.8001 53.8875 16.8001 53.6342 16.9563 53.478L17.522 54.0437ZM17.478 52.9563C17.6342 52.8001 17.8875 52.8001 18.0437 52.9563C18.1999 53.1125 18.1999 53.3658 18.0437 53.522L17.478 52.9563ZM19.022 52.5437C18.8658 52.6999 18.6125 52.6999 18.4563 52.5437C18.3001 52.3875 18.3001 52.1342 18.4563 51.978L19.022 52.5437ZM14.2172 56.2172L14.478 55.9563L15.0437 56.522L14.7828 56.7828L14.2172 56.2172ZM15.4563 54.978L15.978 54.4563L16.5437 55.022L16.022 55.5437L15.4563 54.978ZM16.9563 53.478L17.478 52.9563L18.0437 53.522L17.522 54.0437L16.9563 53.478ZM18.4563 51.978L18.7172 51.7172L19.2828 52.2828L19.022 52.5437L18.4563 51.978Z" fill="#343434"/>
<path d="M85.2172 56.7828C85.3734 56.9391 85.6266 56.9391 85.7828 56.7828C85.9391 56.6266 85.9391 56.3734 85.7828 56.2172L85.2172 56.7828ZM81 51.6C80.7791 51.6 80.6 51.7791 80.6 52V55.6C80.6 55.8209 80.7791 56 81 56C81.2209 56 81.4 55.8209 81.4 55.6V52.4H84.6C84.8209 52.4 85 52.2209 85 52C85 51.7791 84.8209 51.6 84.6 51.6H81ZM85.522 55.9563C85.3658 55.8001 85.1125 55.8001 84.9563 55.9563C84.8001 56.1125 84.8001 56.3658 84.9563 56.522L85.522 55.9563ZM83.978 55.5437C84.1342 55.6999 84.3875 55.6999 84.5437 55.5437C84.6999 55.3875 84.6999 55.1342 84.5437 54.978L83.978 55.5437ZM84.022 54.4563C83.8658 54.3001 83.6125 54.3001 83.4563 54.4563C83.3001 54.6125 83.3001 54.8658 83.4563 55.022L84.022 54.4563ZM82.478 54.0437C82.6342 54.1999 82.8875 54.1999 83.0437 54.0437C83.1999 53.8875 83.1999 53.6342 83.0437 53.478L82.478 54.0437ZM82.522 52.9563C82.3658 52.8001 82.1125 52.8001 81.9563 52.9563C81.8001 53.1125 81.8001 53.3658 81.9563 53.522L82.522 52.9563ZM80.978 52.5437C81.1342 52.6999 81.3875 52.6999 81.5437 52.5437C81.6999 52.3875 81.6999 52.1342 81.5437 51.978L80.978 52.5437ZM85.7828 56.2172L85.522 55.9563L84.9563 56.522L85.2172 56.7828L85.7828 56.2172ZM84.5437 54.978L84.022 54.4563L83.4563 55.022L83.978 55.5437L84.5437 54.978ZM83.0437 53.478L82.522 52.9563L81.9563 53.522L82.478 54.0437L83.0437 53.478ZM81.5437 51.978L81.2828 51.7172L80.7172 52.2828L80.978 52.5437L81.5437 51.978Z" fill="#343434"/>
<path d="M77 38L80 35L77 32" stroke="white" stroke-width="1.8" stroke-linecap="round" stroke-linejoin="round"/>
<path d="M23 32L20 35L23 38" stroke="white" stroke-width="1.8" stroke-linecap="round" stroke-linejoin="round"/>
</g>
<defs>
<clipPath id="clip0_1993_20475">
<rect width="100" height="70" fill="white"/>
</clipPath>
</defs>
</svg>
