<svg width="100" height="70" viewBox="0 0 100 70" fill="none" xmlns="http://www.w3.org/2000/svg">
<g clip-path="url(#clip0_1993_20485)">
<path d="M0.5 3C0.5 1.61929 1.61929 0.5 3 0.5H97C98.3807 0.5 99.5 1.61929 99.5 3V67C99.5 68.3807 98.3807 69.5 97 69.5H3C1.61929 69.5 0.5 68.3807 0.5 67V3Z" fill="white" stroke="#58707F"/>
<path d="M20.9 53.2H38C38.5 53.2 38.8 52.8 38.8 52.4V36.8C38.8 36.3 38.4 36 38 36H20.9C20.4 36 20.1 36.4 20.1 36.8V52.3C20.1 52.8 20.5 53.2 20.9 53.2ZM42.4 53.2H59.5C60 53.2 60.3 52.8 60.3 52.4V36.8C60.3 36.3 59.9 36 59.5 36H42.4C41.9 36 41.6 36.4 41.6 36.8V52.3C41.6 52.8 42 53.2 42.4 53.2ZM63.9 53.2H81C81.5 53.2 81.8 52.8 81.8 52.4V36.8C81.8 36.3 81.4 36 81 36H63.9C63.4 36 63.1 36.4 63.1 36.8V52.3C63.1 52.8 63.5 53.2 63.9 53.2ZM51 56.9C50.5756 56.9 50.1687 57.0686 49.8686 57.3686C49.5685 57.6687 49.4 58.0757 49.4 58.5C49.4 58.9243 49.5685 59.3313 49.8686 59.6314C50.1687 59.9314 50.5756 60.1 51 60.1C51.4243 60.1 51.8313 59.9314 52.1313 59.6314C52.4314 59.3313 52.6 58.9243 52.6 58.5C52.6 58.0757 52.4314 57.6687 52.1313 57.3686C51.8313 57.0686 51.4243 56.9 51 56.9Z" fill="#58707F"/>
<path d="M20.9 33.2H38C38.5 33.2 38.8 32.8 38.8 32.4V16.8C38.8 16.3 38.4 16 38 16H20.9C20.4 16 20.1 16.4 20.1 16.8V32.3C20.1 32.8 20.5 33.2 20.9 33.2ZM42.4 33.2H59.5C60 33.2 60.3 32.8 60.3 32.4V16.8C60.3 16.3 59.9 16 59.5 16H42.4C41.9 16 41.6 16.4 41.6 16.8V32.3C41.6 32.8 42 33.2 42.4 33.2ZM63.9 33.2H81C81.5 33.2 81.8 32.8 81.8 32.4V16.8C81.8 16.3 81.4 16 81 16H63.9C63.4 16 63.1 16.4 63.1 16.8V32.3C63.1 32.8 63.5 33.2 63.9 33.2Z" fill="#58707F"/>
<path d="M47 56.9C46.5757 56.9 46.1687 57.0686 45.8687 57.3687C45.5686 57.6687 45.4 58.0757 45.4 58.5C45.4 58.9244 45.5686 59.3313 45.8687 59.6314C46.1687 59.9315 46.5757 60.1 47 60.1C47.4244 60.1 47.8313 59.9315 48.1314 59.6314C48.4315 59.3313 48.6 58.9244 48.6 58.5C48.6 58.0757 48.4315 57.6687 48.1314 57.3687C47.8313 57.0686 47.4244 56.9 47 56.9ZM55 56.9C54.5757 56.9 54.1687 57.0686 53.8687 57.3687C53.5686 57.6687 53.4 58.0757 53.4 58.5C53.4 58.9244 53.5686 59.3313 53.8687 59.6314C54.1687 59.9315 54.5757 60.1 55 60.1C55.4244 60.1 55.8313 59.9315 56.1314 59.6314C56.4315 59.3313 56.6 58.9244 56.6 58.5C56.6 58.0757 56.4315 57.6687 56.1314 57.3687C55.8313 57.0686 55.4244 56.9 55 56.9Z" fill="#C1C4C6"/>
<path d="M15 31.5L12 34.5L15 37.5" stroke="#58707F" stroke-width="1.8" stroke-linecap="round" stroke-linejoin="round"/>
<path d="M86 37.5L89 34.5L86 31.5" stroke="#58707F" stroke-width="1.8" stroke-linecap="round" stroke-linejoin="round"/>
</g>
<defs>
<clipPath id="clip0_1993_20485">
<rect width="100" height="70" fill="white"/>
</clipPath>
</defs>
</svg>
