<svg width="100" height="70" viewBox="0 0 100 70" fill="none" xmlns="http://www.w3.org/2000/svg">
<g clip-path="url(#clip0_1993_20492)">
<path d="M0.5 3C0.5 1.61929 1.61929 0.5 3 0.5H97C98.3807 0.5 99.5 1.61929 99.5 3V67C99.5 68.3807 98.3807 69.5 97 69.5H3C1.61929 69.5 0.5 68.3807 0.5 67V3Z" fill="white" stroke="#58707F"/>
<path d="M46 57.1001C46.8837 57.1001 47.6 56.3837 47.6 55.5001C47.6 54.6164 46.8837 53.9001 46 53.9001C45.1164 53.9001 44.4 54.6164 44.4 55.5001C44.4 56.3837 45.1164 57.1001 46 57.1001Z" fill="#C1C4C6"/>
<path d="M54 57.1001C54.8837 57.1001 55.6 56.3837 55.6 55.5001C55.6 54.6164 54.8837 53.9001 54 53.9001C53.1164 53.9001 52.4 54.6164 52.4 55.5001C52.4 56.3837 53.1164 57.1001 54 57.1001Z" fill="#C1C4C6"/>
<path d="M50 57.1C50.8837 57.1 51.6 56.3836 51.6 55.5C51.6 54.6163 50.8837 53.9 50 53.9C49.1164 53.9 48.4 54.6163 48.4 55.5C48.4 56.3836 49.1164 57.1 50 57.1Z" fill="#58707F"/>
<path d="M60 23H40C39.4477 23 39 23.4477 39 24V46C39 46.5523 39.4477 47 40 47H60C60.5523 47 61 46.5523 61 46V24C61 23.4477 60.5523 23 60 23Z" fill="#58707F"/>
<path d="M64 23.8872C64 23.381 64.3783 22.9546 64.8809 22.8943L87.8809 20.1343C88.4761 20.0629 89 20.5277 89 21.1272V48.8728C89 49.4723 88.4761 49.9371 87.8809 49.8657L64.8809 47.1057C64.3783 47.0454 64 46.619 64 46.1128V23.8872Z" fill="#58707F"/>
<path d="M36 23.8872C36 23.381 35.6217 22.9546 35.1191 22.8943L12.1191 20.1343C11.5239 20.0629 11 20.5277 11 21.1272V48.8728C11 49.4723 11.5239 49.9371 12.1191 49.8657L35.1191 47.1057C35.6217 47.0454 36 46.619 36 46.1128V23.8872Z" fill="#58707F"/>
</g>
<defs>
<clipPath id="clip0_1993_20492">
<rect width="100" height="70" fill="white"/>
</clipPath>
</defs>
</svg>
