<svg width="100" height="70" viewBox="0 0 100 70" fill="none" xmlns="http://www.w3.org/2000/svg">
<g clip-path="url(#clip0_1993_20500)">
<path d="M0.5 3C0.5 1.61929 1.61929 0.5 3 0.5H97C98.3807 0.5 99.5 1.61929 99.5 3V67C99.5 68.3807 98.3807 69.5 97 69.5H3C1.61929 69.5 0.5 68.3807 0.5 67V3Z" fill="white" stroke="#58707F"/>
<path d="M80.7778 15H19.2222C17.9949 15 17 15.9949 17 17.2222V52.7778C17 54.0051 17.9949 55 19.2222 55H80.7778C82.0051 55 83 54.0051 83 52.7778V17.2222C83 15.9949 82.0051 15 80.7778 15Z" fill="#58707F"/>
<path d="M45 26C45 18 53 15.6667 57 15H81C83 15 83 16 83 17V53C83 54.6 81.6667 55 81 55H45C49 54 57 51 57 43C57 34 45 34 45 26Z" fill="#98B0BF"/>
<path d="M77 38L80 35L77 32" stroke="white" stroke-width="1.8" stroke-linecap="round" stroke-linejoin="round"/>
<path d="M23 32L20 35L23 38" stroke="white" stroke-width="1.8" stroke-linecap="round" stroke-linejoin="round"/>
</g>
<defs>
<clipPath id="clip0_1993_20500">
<rect width="100" height="70" fill="white"/>
</clipPath>
</defs>
</svg>
