<svg width="100" height="70" viewBox="0 0 100 70" fill="none" xmlns="http://www.w3.org/2000/svg">
<g clip-path="url(#clip0_1993_20530)">
<path d="M0.5 3C0.5 1.61929 1.61929 0.5 3 0.5H97C98.3807 0.5 99.5 1.61929 99.5 3V67C99.5 68.3807 98.3807 69.5 97 69.5H3C1.61929 69.5 0.5 68.3807 0.5 67V3Z" fill="white" stroke="#58707F"/>
<path d="M45.6 63.1001C46.4837 63.1001 47.2 62.3837 47.2 61.5001C47.2 60.6164 46.4837 59.9001 45.6 59.9001C44.7163 59.9001 44 60.6164 44 61.5001C44 62.3837 44.7163 63.1001 45.6 63.1001Z" fill="#98B0BF"/>
<path d="M53.6 63.1001C54.4837 63.1001 55.2 62.3837 55.2 61.5001C55.2 60.6164 54.4837 59.9001 53.6 59.9001C52.7163 59.9001 52 60.6164 52 61.5001C52 62.3837 52.7163 63.1001 53.6 63.1001Z" fill="#98B0BF"/>
<path d="M49.6 63.1C50.4837 63.1 51.2 62.3836 51.2 61.5C51.2 60.6163 50.4837 59.9 49.6 59.9C48.7163 59.9 48 60.6163 48 61.5C48 62.3836 48.7163 63.1 49.6 63.1Z" fill="#58707F"/>
<path d="M27 20H17C16.4477 20 16 20.4477 16 21V49C16 49.5523 16.4477 50 17 50H27C27.5523 50 28 49.5523 28 49V21C28 20.4477 27.5523 20 27 20Z" fill="#58707F"/>
<path d="M54 20H44C43.4477 20 43 20.4477 43 21V49C43 49.5523 43.4477 50 44 50H54C54.5523 50 55 49.5523 55 49V21C55 20.4477 54.5523 20 54 20Z" fill="#58707F"/>
<path d="M81 20H71C70.4477 20 70 20.4477 70 21V49C70 49.5523 70.4477 50 71 50H81C81.5523 50 82 49.5523 82 49V21C82 20.4477 81.5523 20 81 20Z" fill="#58707F"/>
<path d="M43 41.75L28 20.75V28.25L43 49.25V41.75Z" fill="#98B0BF"/>
<path d="M70 41.75L55 20.75V28.25L70 49.25V41.75Z" fill="#98B0BF"/>
</g>
<defs>
<clipPath id="clip0_1993_20530">
<rect width="100" height="70" fill="white"/>
</clipPath>
</defs>
</svg>
