<svg width="100" height="70" viewBox="0 0 100 70" fill="none" xmlns="http://www.w3.org/2000/svg">
<g clip-path="url(#clip0_1993_20540)">
<path d="M0.5 3C0.5 1.61929 1.61929 0.5 3 0.5H97C98.3807 0.5 99.5 1.61929 99.5 3V67C99.5 68.3807 98.3807 69.5 97 69.5H3C1.61929 69.5 0.5 68.3807 0.5 67V3Z" fill="white" stroke="#58707F"/>
<path d="M19.9 43.6H37C37.5 43.6 37.8 43.2 37.8 42.8V27.2C37.8 26.7 37.4 26.4 37 26.4H19.9C19.4 26.4 19.1 26.8 19.1 27.2V42.7C19.1 43.2 19.5 43.6 19.9 43.6ZM41.4 43.6H58.5C59 43.6 59.3 43.2 59.3 42.8V27.2C59.3 26.7 58.9 26.4 58.5 26.4H41.4C40.9 26.4 40.6 26.8 40.6 27.2V42.7C40.6 43.2 41 43.6 41.4 43.6ZM62.9 43.6H80C80.5 43.6 80.8 43.2 80.8 42.8V27.2C80.8 26.7 80.4 26.4 80 26.4H62.9C62.4 26.4 62.1 26.8 62.1 27.2V42.7C62.1 43.2 62.5 43.6 62.9 43.6ZM89.4 34.5L86 31.1C85.9 31 85.6 31 85.5 31.1L84.9 31.7C84.8 31.8 84.8 32.1 84.9 32.2L87.6 34.9C87.7 35 87.7 35.3 87.6 35.4L84.9 38.1C84.8 38.2 84.8 38.5 84.9 38.6L85.5 39.2C85.6 39.3 85.9 39.3 86 39.2L89.4 35.8L90 35.2L89.4 34.5ZM15.2 32C15.4 31.8 15.4 31.6 15.2 31.4L14.6 30.8C14.5657 30.7525 14.5206 30.7138 14.4685 30.6872C14.4163 30.6605 14.3586 30.6466 14.3 30.6466C14.2414 30.6466 14.1837 30.6605 14.1315 30.6872C14.0794 30.7138 14.0343 30.7525 14 30.8L10.6 34.2L10 34.8L10.6 35.4L14 38.8C14.0343 38.8475 14.0794 38.8862 14.1315 38.9129C14.1837 38.9395 14.2414 38.9535 14.3 38.9535C14.3586 38.9535 14.4163 38.9395 14.4685 38.9129C14.5206 38.8862 14.5657 38.8475 14.6 38.8L15.1 38.3C15.3 38.1 15.3 37.9 15.1 37.7L12.6 35.2C12.4 35 12.4 34.8 12.6 34.6L15.2 32ZM50 47.3C49.5757 47.3 49.1687 47.4686 48.8686 47.7687C48.5686 48.0687 48.4 48.4757 48.4 48.9C48.4 49.3244 48.5686 49.7313 48.8686 50.0314C49.1687 50.3315 49.5757 50.5 50 50.5C50.4243 50.5 50.8313 50.3315 51.1314 50.0314C51.4314 49.7313 51.6 49.3244 51.6 48.9C51.6 48.4757 51.4314 48.0687 51.1314 47.7687C50.8313 47.4686 50.4243 47.3 50 47.3Z" fill="#58707F"/>
<path d="M46 47.3C45.5757 47.3 45.1687 47.4686 44.8687 47.7687C44.5686 48.0687 44.4 48.4757 44.4 48.9001C44.4 49.3244 44.5686 49.7314 44.8687 50.0314C45.1687 50.3315 45.5757 50.5 46 50.5C46.4244 50.5 46.8313 50.3315 47.1314 50.0314C47.4315 49.7314 47.6 49.3244 47.6 48.9001C47.6 48.4757 47.4315 48.0687 47.1314 47.7687C46.8313 47.4686 46.4244 47.3 46 47.3ZM54 47.3C53.5757 47.3 53.1687 47.4686 52.8687 47.7687C52.5686 48.0687 52.4 48.4757 52.4 48.9001C52.4 49.3244 52.5686 49.7314 52.8687 50.0314C53.1687 50.3315 53.5757 50.5 54 50.5C54.4244 50.5 54.8313 50.3315 55.1314 50.0314C55.4315 49.7314 55.6 49.3244 55.6 48.9001C55.6 48.4757 55.4315 48.0687 55.1314 47.7687C54.8313 47.4686 54.4244 47.3 54 47.3Z" fill="#C1C4C6"/>
</g>
<defs>
<clipPath id="clip0_1993_20540">
<rect width="100" height="70" fill="white"/>
</clipPath>
</defs>
</svg>
