<svg width="100" height="70" viewBox="0 0 100 70" fill="none" xmlns="http://www.w3.org/2000/svg">
<g clip-path="url(#clip0_1993_20544)">
<path d="M0.5 3C0.5 1.61929 1.61929 0.5 3 0.5H97C98.3807 0.5 99.5 1.61929 99.5 3V67C99.5 68.3807 98.3807 69.5 97 69.5H3C1.61929 69.5 0.5 68.3807 0.5 67V3Z" fill="white" stroke="#58707F"/>
<path d="M34.4 27.5625H17.3C16.8 27.5625 16.5 27.9125 16.5 28.2625V41.825C16.5 42.2625 16.9 42.6125 17.3 42.6125H34.4C34.9 42.6125 35.2 42.2625 35.2 41.9125V28.2625C35.2 27.825 34.8 27.5625 34.4 27.5625ZM13.6 28.2625V41.9125C13.6 42.2625 13.3 42.6125 12.8 42.6125H8V27.5625H12.9C13.2 27.5625 13.6 27.825 13.6 28.2625ZM55.9 27.5625H38.8C38.3 27.5625 38 27.9125 38 28.2625V41.825C38 42.2625 38.4 42.6125 38.8 42.6125H55.9C56.4 42.6125 56.7 42.2625 56.7 41.9125V28.2625C56.7 27.825 56.3 27.5625 55.9 27.5625ZM77.4 27.5625H60.3C59.8 27.5625 59.5 27.9125 59.5 28.2625V41.825C59.5 42.2625 59.9 42.6125 60.3 42.6125H77.4C77.9 42.6125 78.2 42.2625 78.2 41.9125V28.2625C78.2 27.825 77.8 27.5625 77.4 27.5625ZM92.6 27.5625V42.6125H81.9C81.5 42.6125 81.1 42.2625 81.1 41.825V28.2625C81.1 27.9125 81.4 27.5625 81.9 27.5625H92.6ZM35.5 25.025C35.7 25.2 35.9 25.2875 36.1 25.2875C36.3 25.2875 36.5 25.2 36.7 25.025C37 24.7625 37 24.2375 36.7 23.975L35.3 22.6625H56.6C57.1 22.6625 57.5 22.3125 57.5 21.875C57.5 21.4375 57.1 21.0875 56.6 21.0875H35.3L36.7 19.8625C37 19.6 37 19.075 36.7 18.8125C36.4 18.55 35.8 18.55 35.5 18.8125L32.6 21.35C32.3 21.6125 32.3 22.1375 32.6 22.4L35.5 25.025ZM63.2 21.9625C63.2 21.525 62.8 21.175 62.3 21.175H59.7C59.2 21.175 58.8 21.525 58.8 21.9625C58.8 22.4 59.2 22.75 59.7 22.75H62.3C62.8 22.6625 63.2 22.3125 63.2 21.9625ZM66.6 22.6625H67.4C67.9 22.6625 68.3 22.3125 68.3 21.875C68.3 21.4375 67.9 21.0875 67.4 21.0875H66.6C66.1 21.0875 65.7 21.4375 65.7 21.875C65.7 22.3125 66.1 22.6625 66.6 22.6625Z" fill="#58707F"/>
</g>
<defs>
<clipPath id="clip0_1993_20544">
<rect width="100" height="70" fill="white"/>
</clipPath>
</defs>
</svg>
